<svg xmlns="http://www.w3.org/2000/svg" width="435.76" height="140.565" viewBox="0 0 435.76 140.565"><g transform="translate(-0.01 0.05)"><path d="M229.123,620.432a2.977,2.977,0,0,1-.479-.443c-2.359-3.616-4.782-7.1-7.041-10.729a95.889,95.889,0,0,1-7.7-15.827,118.238,118.238,0,0,1-7.638-33.86c-.145-1.916-.244-3.824-.253-5.731V539.787a9.485,9.485,0,0,1,1.211-.208H323.336a17.493,17.493,0,0,0-1.69-3.76c-.551-1.22-1.229-2.377-1.808-3.616s-1.265-2.513-1.907-3.76-1.247-2.377-1.862-3.615a38.979,38.979,0,0,1-1.745-3.543c.2-.127.3-.244.4-.244H533.094c.1,0,.2.108.407.235-.579,1.528-1.455,2.929-2.178,4.4s-1.555,3.073-2.35,4.61-1.564,2.929-2.323,4.411-1.464,2.947-2.169,4.375c.19.5.551.389.841.407h116.3a9.833,9.833,0,0,1,.154,1.193c0,5.559,0,11.118-.09,16.677a77.728,77.728,0,0,1-.768,8.135,120.856,120.856,0,0,1-6.219,25.635A107.278,107.278,0,0,1,621.387,616.5c-.814,1.148-1.591,2.323-2.386,3.48a2.47,2.47,0,0,1-.271.19,6.32,6.32,0,0,1-.967-.244c-2.07-.841-4.131-1.7-6.192-2.558a16.062,16.062,0,0,0-11.055-.642A15.709,15.709,0,0,0,589.507,629.5c-.163,1.392-.235,2.8-.262,4.2v5.939c0,.569-.045,1.139-.072,1.808a8.906,8.906,0,0,1-1.148.208H464.7a48.268,48.268,0,0,0-29.937,10.1c-1.726,1.311-3.308,2.82-4.9,4.284-1.745,1.6-3.426,3.263-5.134,4.9-.226.217-.488.4-.813.669-.362-.3-.714-.551-1.03-.85-2.233-2.1-4.447-4.221-6.7-6.327a47.682,47.682,0,0,0-20.464-11.2,48.169,48.169,0,0,0-12.492-1.6H261.265a10.444,10.444,0,0,1-2.567-.136,10.923,10.923,0,0,1-.136-1.13v-6.526c0-1.338-.117-2.712-.235-4a15.734,15.734,0,0,0-12.2-13.414,16.613,16.613,0,0,0-9.762.9c-1.9.759-3.76,1.591-5.649,2.368A7.552,7.552,0,0,1,229.123,620.432Zm405.326-73.948a1.217,1.217,0,0,0-.19,0H513.471a.507.507,0,0,1-.145-.172,1.54,1.54,0,0,1-.217-.235c.325-.678.651-1.428,1.031-2.151q3.887-7.584,7.8-15.158a2.515,2.515,0,0,0,.154-.705c-1.609-.235-191.138-.38-195.829-.154a2.2,2.2,0,0,0-.524.19,2.149,2.149,0,0,0,.1.588q1.166,2.3,2.359,4.6c1.934,3.742,3.887,7.484,5.8,11.235a2.965,2.965,0,0,1,.606,1.88H214.028a6.541,6.541,0,0,0-1.094.226c0,.6-.081,1.1-.09,1.609a99.187,99.187,0,0,0,.47,11.47c.289,2.793.506,5.6.976,8.361a118.151,118.151,0,0,0,4.99,19.651,97.621,97.621,0,0,0,11.588,23.031,11.013,11.013,0,0,0,.9,1.021c.66-.244,1.274-.416,1.808-.678a21.276,21.276,0,0,1,5.676-1.627,22.118,22.118,0,0,1,12.185,1.492,22.461,22.461,0,0,1,8.831,6.571,22.163,22.163,0,0,1,4.962,11.245,44.291,44.291,0,0,1,.235,4.773,9.086,9.086,0,0,0,.19,1.347H384.268a50.679,50.679,0,0,1,10.843,1.174,54.117,54.117,0,0,1,21.435,9.8c1.98,1.5,3.8,3.218,5.686,4.836.569.488,1,1.166,1.889,1.329.66-.606,1.32-1.2,1.961-1.808a53.851,53.851,0,0,1,6.987-5.677,55.044,55.044,0,0,1,17.337-7.918,50.232,50.232,0,0,1,12.844-1.735H581.227a8.723,8.723,0,0,0,1.166-.226v-2.712a22.288,22.288,0,0,1,1.943-9.1A22.814,22.814,0,0,1,614.065,611.1c.687.3,1.4.542,2.124.823.28-.344.5-.579.678-.832a95.677,95.677,0,0,0,11.47-22.471,110.085,110.085,0,0,0,5.586-23.031,121.414,121.414,0,0,0,1.1-17.563c0-.434-.081-.9-.117-1.293A3.884,3.884,0,0,0,634.448,546.485Z" transform="translate(-206 -521.09)" fill="#9cf1eb"/><path d="M468.086,608.857c-.66-.624-.967-.9-1.293-1.22-1.889-1.627-1.889-1.627-4.438-1.627H306.713a6.52,6.52,0,0,0-1,.262c1.546.669,2.775,1.148,3.968,1.717a10.061,10.061,0,0,0,4.438.9H465.537C466.224,608.921,466.92,608.884,468.086,608.857Z" transform="translate(-215.581 -529.256)" fill="#9cf1eb"/><path d="M516.25,567.34c-.081,1.455-.054,1.5.9,1.735.371.09.759.1,1.13.208a1.753,1.753,0,0,1,1.455,1.564c.063.7.217,1.392.217,2.088v14.752c0,.569-.117,1.13-.154,1.7a2.007,2.007,0,0,1-1.808,1.925l-1.609.343c-.289.569-.389,1.039.163,1.473a70.256,70.256,0,0,1,13.3,0,2.629,2.629,0,0,0,.217-.606,4.887,4.887,0,0,0-.072-.687,1.167,1.167,0,0,0-.217-.163l-1.1-.235c-1.889-.47-2.1-.723-2.359-2.712a4.084,4.084,0,0,1,0-.578V573.016a7.508,7.508,0,0,1,.217-1.211c1.518,0,2.983-.063,4.438,0a18.4,18.4,0,0,1,4.6.217,11.56,11.56,0,0,1,.117,1.166V587.94c0,.569-.163,1.139-.217,1.7a1.753,1.753,0,0,1-1.428,1.6c-.66.19-1.338.343-1.98.506a1.474,1.474,0,0,0,.208,1.446,72.98,72.98,0,0,1,13.4,0v-1.437l-1.374-.289c-1.754-.4-2.215-.9-2.341-2.712V572.465a12.309,12.309,0,0,1,.19-1.51,1.871,1.871,0,0,1,1.636-1.627c.56-.136,1.121-.262,1.672-.416.1,0,.181-.163.307-.271l-.081-1.085a2.384,2.384,0,0,0-.642-.127,37.964,37.964,0,0,1-6.481.362H521.682c-.9,0-1.808-.072-2.712-.136S517.262,567.421,516.25,567.34Z" transform="translate(-235.805 -525.539)" fill="#9cf1eb"/><path d="M577.708,589.7a9.382,9.382,0,0,1-10.928-4.275,10.331,10.331,0,0,1-.687-9.2c1.274-3.353,4.131-6.391,8.831-5.893,3.118.325,5.785,1.527,7.141,4.655.28.651.3.642,1.491.416v-2.251c0-.759-.054-1.663-.108-2.486a4.022,4.022,0,0,0-.335-2.269c-1.735.226-3.281-.425-4.854-.9a15.963,15.963,0,0,0-11.751.8c-4.357,1.97-8.732,7.457-7.9,13.839A12.094,12.094,0,0,0,563,590.141a16.1,16.1,0,0,0,9.943,3.552,25.951,25.951,0,0,0,10.6-2.2,3.844,3.844,0,0,0,.786-.56v-4.818a12.32,12.32,0,0,1,.045-1.528,1.808,1.808,0,0,1,1.546-1.7c.624-.108,1.238-.28,1.916-.434l.1-1.4c-2.323.09-4.519.145-6.761.271s-4.519-.371-6.9-.217v1.338c.651.154,1.22.262,1.808.4,1.229.307,1.708.759,1.745,1.934a31.968,31.968,0,0,1-.126,4.917Z" transform="translate(-239.876 -525.481)" fill="#9cf1eb"/><path d="M438.765,567.7H423.814c-.9,0-1.808-.136-2.712-.117a13.365,13.365,0,0,0-2.594-.154c-.181,1.266-.1,1.437.75,1.654.371.09.75.117,1.13.208a1.988,1.988,0,0,1,1.564,1.726,5.656,5.656,0,0,1,.045.958v16.487c0,2.079-.38,2.495-2.468,2.965a.923.923,0,0,0-.38.054c-.832.2-.9.425-.542,1.564,2.224-.072,4.447-.172,6.671-.208s4.474.054,6.707,0,4.438.443,6.725.063c.181-.8.344-1.528.524-2.269s.389-1.609.624-2.4a11.266,11.266,0,0,0,.813-2.2,3.9,3.9,0,0,0-1.058,0,1.807,1.807,0,0,0-.768.506,9.28,9.28,0,0,0-.841,1.048,3.615,3.615,0,0,1-3.118,1.582q-2.594.054-5.179,0c-.985,0-1.193-.244-1.2-1.311v-6.128a4.838,4.838,0,0,1,.217-.976h4.284a42.107,42.107,0,0,0,4.393-.081,5.857,5.857,0,0,0,0-3.182c-.551,0-1.048-.1-1.546-.1h-5.939c-.425,0-.85-.081-1.4-.136,0-1.058-.063-2.007,0-2.956a6.454,6.454,0,0,1,.289-2.92h6.68a2.206,2.206,0,0,1,2.386,1.808,4.856,4.856,0,0,0,.515,1.012l1.265-.118C439.37,571.916,439.081,569.919,438.765,567.7Z" transform="translate(-226.411 -525.542)" fill="#9cf1eb"/><path d="M362.452,568.106a4.52,4.52,0,0,1-2.92-.2c-.425-.127-.841-.289-1.274-.416a15.3,15.3,0,0,0-14.77,2.712,12.854,12.854,0,0,0-5,9.943c-.145,5.279,2.4,9.184,7.05,11.588,5.306,2.712,10.729,2.3,16.135.217a1.745,1.745,0,0,0,1.193-1.582q.226-2.567.434-5.143c0-.108-.1-.226-.163-.344h-1.184c-.1.407-.2.759-.289,1.121a4.773,4.773,0,0,1-4.266,3.823,15.055,15.055,0,0,1-2.847.217,8.9,8.9,0,0,1-7.611-4.429c-2.287-3.724-2.106-7.548,0-11.272a7.746,7.746,0,0,1,5.206-3.914,11.173,11.173,0,0,1,2.856-.163c2.929.181,5.36,1.175,6.418,4.23,0,.108.163.181.3.325l1.1-.09Z" transform="translate(-218.731 -525.474)" fill="#9cf1eb"/><path d="M319.861,567.63c-.09-.081-.136-.145-.19-.154a1.356,1.356,0,0,0-.542-.126,50.528,50.528,0,0,1-12.582,0,2.191,2.191,0,0,0-.6.226l.244,1.3c.651.136,1.211.235,1.763.38a1.862,1.862,0,0,1,1.681,2v18.2a1.7,1.7,0,0,1-1.311,1.681c-.669.2-1.347.353-2.016.515-.253.47-.524.9,0,1.5a100.035,100.035,0,0,1,10.042-.325c3.435-.081,6.87.425,10.332.081.452-1.383.813-2.712,1.347-4.022s1.238-2.495,1.88-3.742c-1.491-.289-1.5-.3-2.178.506-.542.633-1.094,1.256-1.582,1.925a3.841,3.841,0,0,1-3.3,1.609h-5.369a5.743,5.743,0,0,1-.958-.163,6.254,6.254,0,0,1-.407-2.648V573.144c0-.7.09-1.4.154-2.1a1.953,1.953,0,0,1,1.7-1.808c.56-.127,1.112-.262,1.663-.416.1,0,.163-.181.262-.28Z" transform="translate(-215.604 -525.541)" fill="#9cf1eb"/><path d="M501,606.384l1.6,1.609a3.109,3.109,0,0,0,2.4.9H571.9a7.946,7.946,0,0,0,3.362-.588c1.392-.624,2.82-1.175,4.23-1.808.072,0,.09-.2.136-.307-.136-.307-.425-.235-.66-.235l-77.636.063C501.217,606.077,501.135,606.23,501,606.384Z" transform="translate(-234.349 -529.25)" fill="#9cf1eb"/><path d="M490.52,568.844c.687.154,1.175.289,1.672.371a2.151,2.151,0,0,1,2.052,2.332c0,.443.072.9.072,1.338v14.752a20.475,20.475,0,0,1-.163,2.1A1.582,1.582,0,0,1,493,591.125c-.6.19-1.238.271-1.808.461a1.031,1.031,0,0,0-.56.452.741.741,0,0,0,.741,1.121,64.313,64.313,0,0,1,11.271-.118l1.654.109c.28-1.338.235-1.419-.9-1.663-2.413-.533-2.712-.9-2.712-3.326V572.794a13.148,13.148,0,0,1,0-1.338,2.088,2.088,0,0,1,1.952-2.233,3.2,3.2,0,0,0,1.808-.7l-.2-1.13c-1.808.109-3.426.262-5.08.3a51.92,51.92,0,0,1-8.207-.316c-.1,0-.217.108-.416.208Z" transform="translate(-233.342 -525.543)" fill="#9cf1eb"/><path d="M285.461,620.913a2.934,2.934,0,0,1,.235.587q0,4.6,0,9.193a1.22,1.22,0,0,1-1.039,1.374c-.353.081-.542.289-.362.814h1.437c.533,0,1.021-.054,1.528-.054s1.021.063,1.528.081a1.808,1.808,0,0,0,1.537-.38l-1.663-.976V624.42a8.88,8.88,0,0,1,.226-3.417h3.073a3.867,3.867,0,0,0,.371.479,2.784,2.784,0,0,0,.425.253c.9-1.808,1.256-3.164,1.03-4.131-.371.054-.461.407-.7.6s-.7.651-1.085.687a7.6,7.6,0,0,1-3.218-.127,4.953,4.953,0,0,1,0-2.576l1.464-.786c-.28-.19-.425-.38-.569-.38-1.808,0-3.616,0-5.351.054-.063,0-.127.2-.244.4l1.428.8a4.854,4.854,0,0,1,0,2.567c-.524,0-1.021.108-1.519.118a3.371,3.371,0,0,1-1.32-.063,4.581,4.581,0,0,1-1.076-.9,8.967,8.967,0,0,0-1.211,4.131c.054,0,.108.063.163,0s.3-.054.334-.136c.5-1.048,1.392-1.166,2.4-1.112A21.508,21.508,0,0,0,285.461,620.913Z" transform="translate(-213.148 -530.122)" fill="#9cf1eb"/><path d="M352.14,624.864c-1.663-.443-3.236.1-4.736-.434a6.326,6.326,0,0,1,.1-3.019,21.5,21.5,0,0,1,4.447,0c.208.389.362.741.569,1.048a2.706,2.706,0,0,0,.642.461,12.652,12.652,0,0,0-.289-3.39,4.922,4.922,0,0,0-.8-.181c-2.992,0-5.975-.081-8.967-.09-.108,0-.208.253-.371.47l1.6.814V631.3a1.1,1.1,0,0,1-1,1.184c-.325.072-.569.262-.362.75.4,0,.832.063,1.274.063h6.11a4.815,4.815,0,0,0,2.567-.217,15.952,15.952,0,0,0,.371-1.744c.063-.588.569-1.112.226-1.98-.9.823-1.491,2.007-2.829,1.889-1.1-.09-2.269.334-3.381-.425v-3.444a6.311,6.311,0,0,1,.145-.823c.533,0,1.03-.1,1.519-.118.9,0,1.808,0,2.712-.063a1.465,1.465,0,0,0,.5-.235Z" transform="translate(-219.139 -530.529)" fill="#9cf1eb"/><path d="M494.27,619.994c-.687-.208-1.175-.335-1.654-.5a9.944,9.944,0,0,0-3.778-.479,7.647,7.647,0,0,0-7.059,5.261,6.625,6.625,0,0,0,2.106,7.43,9.692,9.692,0,0,0,10.44.642c.461-2.522.461-2.522.063-3.616a11.824,11.824,0,0,0-.615,1.211,2.269,2.269,0,0,1-1.744,1.609,5.568,5.568,0,0,1-4.592-.642,5.911,5.911,0,0,1,.181-9.635,3.094,3.094,0,0,1,.9-.38,5.8,5.8,0,0,1,3.4.127,3.471,3.471,0,0,1,1.862,1.808c.081.154.362.217.714.407C494.388,622.073,494.333,621.069,494.27,619.994Z" transform="translate(-232.464 -530.504)" fill="#9cf1eb"/><path d="M524.993,633.456c-.117-.235-.154-.416-.235-.434a1.4,1.4,0,0,1-1.057-1.582c0-1.654,0-3.308,0-4.971a5.843,5.843,0,0,1,.253-1.139,10.55,10.55,0,0,1,3.118.208c0,.443.081.813.09,1.184v4.971a1.166,1.166,0,0,1-.967,1.247.407.407,0,0,0-.316.561c.1.072.2.19.3.19h4.755c.072,0,.136-.172.289-.38l-1.166-.741a39.8,39.8,0,0,1,0-7.8c.235-.57,1.148-.063,1.021-.976-.7-.362-1.455,0-2.187,0h-7.077c-1.437-.072-1.428-.09-2.242.307.226.181.38.38.578.425a1.021,1.021,0,0,1,.85,1.1v6.861c-.271.624-1.311.244-1.311.994.054.1.072.2.1.2,1.591,0,3.173.072,4.754.09C524.686,633.7,524.794,633.582,524.993,633.456Z" transform="translate(-236.134 -530.949)" fill="#9cf1eb"/><path d="M429.73,538.852a2.757,2.757,0,0,1,.841,2.034c.081.7.181,1.392.316,2.079a7.919,7.919,0,0,0,2.007,3.86c1.058,1.139,1.645,1.148,2.712,0,.434-.452.8-.958,1.247-1.492.985.759,1.392,2.106,2.712,2.35a3.227,3.227,0,0,0,1.663-1.256,8.551,8.551,0,0,0,1.862-4.149,7.857,7.857,0,0,0,.2-1.51,2.341,2.341,0,0,1,.9-1.934,10.631,10.631,0,0,0-4.275.136l1.166.777a12.89,12.89,0,0,1-.705,5.541,6.14,6.14,0,0,1-.759.976,2.2,2.2,0,0,1-1.175-1.573,11.517,11.517,0,0,1-.389-3.417,2.884,2.884,0,0,1,.8-2.477,14.223,14.223,0,0,0-3.959.09l.985,1.049a20.268,20.268,0,0,1-.434,4.384,7.313,7.313,0,0,1-.7,1.564.552.552,0,0,1-.9,0,7.056,7.056,0,0,1-.714-1.546,13,13,0,0,1-.307-4.791l.9-.434a2.93,2.93,0,0,0-1.455-.371A8.237,8.237,0,0,0,429.73,538.852Z" transform="translate(-227.5 -522.785)" fill="#9cf1eb"/><path d="M603.659,623.435a13.742,13.742,0,0,1-1.853,0,8.385,8.385,0,0,1-1.473-.524,14.009,14.009,0,0,0-.823,3.127c.8-.262,1.1-1.112,1.9-.985s1.519-.181,2.341.353v6.056a1.193,1.193,0,0,1-.994,1.229c-.163.054-.253.343-.5.687,1.726,0,3.245.072,4.755.09a1.32,1.32,0,0,0,.56-.108c.081,0,.108-.19.19-.334-.117-.109-.226-.307-.371-.334-.786-.172-.985-.678-.976-1.4v-4.98a6.215,6.215,0,0,1,.172-1.076,2.911,2.911,0,0,1,2.911.452,8.988,8.988,0,0,0,.976-2.531c.054-.181-.063-.407-.118-.669-1.591,1.13-1.808,1.166-3.86.732a2.088,2.088,0,0,1,.117-1.437c.244-.443,1.1-.108,1.049-1.012-1.546,0-3.1-.081-4.655-.108a.633.633,0,0,0-.362.09c-.081.063-.117.19-.181.289C603.668,622.007,603.668,622.007,603.659,623.435Z" transform="translate(-243.816 -530.664)" fill="#9cf1eb"/><path d="M362.03,620.88c1.4,1.184,1.4,1.184,1.211,2.486a3.851,3.851,0,0,1-3.118-.561c-.3.9-.579,1.564-.786,2.287a4.13,4.13,0,0,0,0,1.1c1.238-1.537,2.594-1.2,4.068-.967.081,2.133.054,4.167,0,6.2a1.211,1.211,0,0,1-.94,1.293c-.172,0-.289.307-.6.651.687.045,1.112.1,1.537.1s.9-.072,1.338-.063,1.021.072,1.528.081.9.163,1.2-.37c-.145-.145-.244-.353-.389-.389-.777-.163-.985-.705-.985-1.41v-4.98a7.829,7.829,0,0,1,.127-1.067c1.871-.262,1.871-.262,2.92.353.859-1.41,1.085-2.233.823-3-1.482,1-1.482,1-3.742.7-.307-.976-.118-1.708.994-2.007.081,0,.09-.307.163-.606h-4.827C362.436,620.664,362.319,620.763,362.03,620.88Z" transform="translate(-220.731 -530.667)" fill="#9cf1eb"/><path d="M554.52,623.809c.524.389.687.6.9.642a.985.985,0,0,1,.841,1.094c0,.316,0,.633,0,.9a9.591,9.591,0,0,0,2.35,5.731,5.713,5.713,0,0,0,2.377,1.808,9.274,9.274,0,0,0,4.519-8c0-.841.108-1.537,1.112-1.708.09,0,.136-.307.253-.579a6.75,6.75,0,0,0-.9-.181h-3.435a2.626,2.626,0,0,0-.741.108c-.081,0-.136.172-.28.38l1.293.8a12.492,12.492,0,0,1-.777,6.074c-.253.5-.461,1.076-1.193,1.175a3.073,3.073,0,0,1-1.32-1.979,14.931,14.931,0,0,1-.47-4.736c0-.506.208-.85.741-.9.362-.072.569-.253.443-.768-1.464,0-2.965-.081-4.474-.108A7.954,7.954,0,0,0,554.52,623.809Z" transform="translate(-239.493 -530.939)" fill="#9cf1eb"/><path d="M581.078,623.894a5.813,5.813,0,0,0-1.952-.163c-1.808,0-3.7-.072-5.541-.081a.524.524,0,0,0-.4.3c0,.126.09.434.181.452a1.1,1.1,0,0,1,.985,1.211v6.119a1.193,1.193,0,0,1-.967,1.247c-.135,0-.19.362-.316.642l6.617.127a6.735,6.735,0,0,0,.958-.045,2.9,2.9,0,0,0,.524-.217c-.244-.85.569-1.609.362-3.136-1.2,1.916-2.63,1.934-4.194,1.546a5.8,5.8,0,0,1,0-2.784l2.929-.163a.985.985,0,0,0,.063-1.419l-2.884-.217a2.775,2.775,0,0,1-.054-1.889c2.142-.262,2.233-.235,3.751.9.054-.1.172-.208.163-.3C581.241,625.3,581.142,624.608,581.078,623.894Z" transform="translate(-241.275 -530.951)" fill="#9cf1eb"/><path d="M433.456,623.791l-7.439-.163a.281.281,0,0,0-.181,0,1.212,1.212,0,0,0-.316.4c0,.072.09.289.163.3.994.154,1.166.859,1.166,1.69v5.36c0,.777-.226,1.374-1.085,1.582-.136,0-.2.362-.343.642h3.959a17.748,17.748,0,0,0,4.04,0c.235-.813.461-1.609.669-2.4,0-.072-.118-.181-.181-.28-2.531,1.627-2.667,1.256-4.212.9a4.465,4.465,0,0,1,.072-2.667c1.076-.307,2.133.118,3.164-.362l.054-1.22-3.218-.262a3,3,0,0,1-.117-1.934h2.92c.425.253.362.967,1.067.9C434.079,625.472,433.537,624.722,433.456,623.791Z" transform="translate(-227.086 -530.948)" fill="#9cf1eb"/><path d="M322.664,629.229c1.175-.461,2.323.081,3.4-.47v-1.1c-1.076-.551-2.323.09-3.344-.506a2.016,2.016,0,0,1,.118-1.808h2.522c.678.262.624,1.085,1.546.9a5.157,5.157,0,0,0-.542-2.468l-6.9-.181a.757.757,0,0,0-.38,0,4.5,4.5,0,0,0-.524.407c.108.136.2.353.334.38a1.2,1.2,0,0,1,1.03,1.374v5.93a1.058,1.058,0,0,1-.8,1.148c-.307.09-.633.172-.479.8a30.733,30.733,0,0,0,3.86-.054,15.834,15.834,0,0,0,4.031,0c.235-.823.461-1.609.66-2.4a1.653,1.653,0,0,0-.154-.389,8.05,8.05,0,0,1-1.9,1.157,3.056,3.056,0,0,1-2.468-.19Z" transform="translate(-216.816 -530.944)" fill="#9cf1eb"/><path d="M402.147,633.658c.262-.994.479-1.808.777-2.956a11.421,11.421,0,0,1-2.106,1.274,4.221,4.221,0,0,1-2.477-.045,4.627,4.627,0,0,1,0-2.712c1.13-.38,2.269.136,3.272-.425v-1.2l-3.227-.226a2.621,2.621,0,0,1-.081-1.971,7.229,7.229,0,0,1,2.712.063c.416.081.759.56,1.139.85h.244a4.1,4.1,0,0,0-.371-2.477l-7.6-.072c-.081,0-.172.136-.307.253.108.163.19.407.307.425.9.127,1.067.732,1.058,1.518v6.119c0,.181-.09.362,0,.109-.362.9-1.419.569-1.184,1.627h6.833A6.586,6.586,0,0,1,402.147,633.658Z" transform="translate(-224.078 -530.962)" fill="#9cf1eb"/><path d="M594,623.837c-.9-.19-1.564-.362-2.251-.479a4.824,4.824,0,0,0-.958,0,2.847,2.847,0,0,0-1.808,5.161,15.178,15.178,0,0,0,1.437.949,14,14,0,0,1,1.419.967,1.256,1.256,0,0,1,.289,1.419,1.031,1.031,0,0,1-.9.669,2.125,2.125,0,0,1-2.477-.976c-.2-.3-.361-.633-.578-1.031-.226.2-.479.316-.47.416a20.173,20.173,0,0,0,.289,2.061.849.849,0,0,0,.362.425,5.007,5.007,0,0,0,5.234-.325,2.72,2.72,0,0,0,.19-4.447,15.931,15.931,0,0,0-1.989-1.473,12.95,12.95,0,0,1-1.283-.823.85.85,0,0,1,.3-1.473,2.1,2.1,0,0,1,2.287.533c.3.28.371.85.958.768.045-.045.127-.1.127-.136A22.041,22.041,0,0,0,594,623.837Z" transform="translate(-242.681 -530.921)" fill="#9cf1eb"/><path d="M407.818,539.19a23.993,23.993,0,0,0-2.567-.7,4.962,4.962,0,0,0-3.941,1.112,4.357,4.357,0,0,0-1.808,4.384,4.312,4.312,0,0,0,3.236,3.435,7.287,7.287,0,0,0,4.149-.072c1.2-.335,1.256-.344,1.274-1.528a2.594,2.594,0,0,1,1.094-2.359h-2.8l-.949.054c.8,1.121.9,1.3.8,2.088a.852.852,0,0,1-.985.9,3.308,3.308,0,0,1-3.354-4.095,2.645,2.645,0,0,1,2.043-2.495,7.323,7.323,0,0,1,2.26.09c.651.1.777.786,1.121,1.229.054.072.217.063.425.118Z" transform="translate(-224.588 -522.762)" fill="#9cf1eb"/><path d="M458.926,632.507c-.38.19-.533.3-.714.362s-.669.19-.515.605c.054.145.407.253.624.262h5.921c.5,0,.985-.081,1.41-.117.434-.994.814-1.862,1.175-2.712a.769.769,0,0,0-.063-.353c-.47-.244-.66.172-.9.4s-.7.859-1.13.976a4.212,4.212,0,0,1-3.064-.154q-.09-3.173,0-6.327a1.085,1.085,0,0,1,.958-1.04c.136,0,.226-.244.334-.38-.181-.136-.353-.389-.533-.389h-4.375c-.117,0-.226.117-.325.172-.127.4.072.6.434.66a.849.849,0,0,1,.8.9C458.935,627.735,458.926,630.085,458.926,632.507Z" transform="translate(-230.185 -530.95)" fill="#9cf1eb"/><path d="M499.552,539.818a7.939,7.939,0,0,1,1.347,0,7.621,7.621,0,0,1,1.22.4c.163-.515.316-.9.434-1.356.072-.289.09-.606.145-.967a3.7,3.7,0,0,1-3.1.316c-.154-1.057-.163-1.067.09-1.419.154-.208.651-.19.371-.75-1.1.19-2.26,0-3.525.108.832.9.832.9.642,2.061-.786.56-1.546,0-2.368-.154-.208.6-.425,1.13-.569,1.672a5.24,5.24,0,0,0,0,1.021,2.441,2.441,0,0,1,3.137-.669v5.749a.813.813,0,0,1-.4.8c-.154.09-.244.3-.416.524a7.015,7.015,0,0,0,4.1-.262c-1.4-.235-1.238-1.048-1.247-1.808v-4.022Q499.454,540.439,499.552,539.818Z" transform="translate(-233.697 -522.532)" fill="#9cf1eb"/><path d="M420.409,538.834a4.519,4.519,0,0,1,.669,1.338,10.848,10.848,0,0,1-.533,4.709,1.094,1.094,0,1,1-2.16.1c-.615-1.509-.461-3.136-.687-4.7a2.086,2.086,0,0,1,.4-.822,7.111,7.111,0,0,1,.506-.642,11.3,11.3,0,0,0-3.751.054,2.82,2.82,0,0,1,.814,2.142,8.785,8.785,0,0,0,2.07,5.423c1.446,1.627,1.934,1.871,3.616-.136a9.536,9.536,0,0,0,1.961-5.107,7.073,7.073,0,0,1,.1-1.329,5,5,0,0,1,.832-1.112A17.173,17.173,0,0,0,420.409,538.834Z" transform="translate(-226.07 -522.785)" fill="#9cf1eb"/><path d="M381.762,540.036v5.821a1.382,1.382,0,0,1-.434.768c-.181.181-.407.289-.145.669h3.146c.09,0,.172-.136.335-.28l-.9-.723c0-2.061-.117-4.149.072-6.327a7.444,7.444,0,0,1,1.356-.108,6.634,6.634,0,0,1,1.238.416c.235-.741.461-1.4.66-2.07a1.5,1.5,0,0,0-.09-.343c-1.636.723-1.636.723-3.127.362-.081-.958-.081-.958.732-2.079h-3.778c.669.66,1.347,1.22.75,2.124a2.567,2.567,0,0,1-2.3-.181,4.085,4.085,0,0,0-.678,2.459C379.864,539.746,379.864,539.746,381.762,540.036Z" transform="translate(-222.585 -522.541)" fill="#9cf1eb"/><path d="M497.9,555.25a10.845,10.845,0,0,1-4.149,4.266c.063.244.045.434.118.479a9.4,9.4,0,0,1,3.616,3.615.542.542,0,0,0,.949,0,8.388,8.388,0,0,1,3.462-3.453c.127-.072.154-.316.271-.569a18.77,18.77,0,0,1-2.278-1.681A25.716,25.716,0,0,1,497.9,555.25Z" transform="translate(-233.652 -524.378)" fill="#9cf1eb"/><path d="M530.342,539.006a15.348,15.348,0,0,0-1.88-.47,4.427,4.427,0,0,0-1.69.1,2.251,2.251,0,0,0-1.121,3.778,8.135,8.135,0,0,0,1.645,1.266,3.616,3.616,0,0,1,1.41,1.247,1.058,1.058,0,0,1-.515,1.573,1.808,1.808,0,0,1-2.341-.705c-.244-.316-.163-.9-.777-.9a3.615,3.615,0,0,0,.344,2.3,4.519,4.519,0,0,0,4.04.118,2.432,2.432,0,0,0,.741-4.095,12.257,12.257,0,0,0-1.69-1.229,8.13,8.13,0,0,1-1.229-.9.994.994,0,0,1-.172-.9,1.094,1.094,0,0,1,.687-.569,1.808,1.808,0,0,1,1.754.5l.994.9Z" transform="translate(-236.656 -522.768)" fill="#9cf1eb"/><path d="M508.24,547.515a14.629,14.629,0,0,0,3.67,0,3.335,3.335,0,0,1-.732-2.585v-3.814c0-1.274,0-1.157.8-2.26a12.368,12.368,0,0,0-3.7,0c.136.217.19.416.316.5a1.175,1.175,0,0,1,.615,1.094v5.523a.967.967,0,0,1-.678,1.03C508.43,547.017,508.385,547.252,508.24,547.515Z" transform="translate(-235.045 -522.789)" fill="#9cf1eb"/><path d="M369.84,547.374a5.216,5.216,0,0,0,3.543-.127c-.9-.8-.9-.8-.9-1.808v-3.814a3.281,3.281,0,0,1,.85-2.784c-.551,0-1.049-.081-1.537-.081-.624,0-1.247,0-1.925.063a3.787,3.787,0,0,1,.75,2.856v3.426a2.648,2.648,0,0,1-.777,2.269Z" transform="translate(-221.744 -522.793)" fill="#9cf1eb"/><path d="M359.978,538.862a2.712,2.712,0,0,1,.832,2.4v3.814c0,1.275,0,1.32-1.039,2.468a18.941,18.941,0,0,0,3.67-.072,3.616,3.616,0,0,1-.687-2.63v-3.435a5.428,5.428,0,0,1,0-1.329,7.234,7.234,0,0,1,.732-1.329,14.353,14.353,0,0,0-3.507.109Z" transform="translate(-220.777 -522.787)" fill="#9cf1eb"/><path d="M518.916,538.73l-1.356.841c.136.569.226.985.334,1.4s-.452.814.163,1.229a12.132,12.132,0,0,0,1.808-2.4Z" transform="translate(-235.941 -522.79)" fill="#9cf1eb"/><path d="M371.51,538.06l1.392-1.284-1.238-1.256-1.184,1.338Z" transform="translate(-221.806 -522.482)" fill="#9cf1eb"/><path d="M361.77,535.52l-1.32,1.284,1.365,1.057c.488-.371.9-.615,1.1-1.229Z" transform="translate(-220.842 -522.482)" fill="#9cf1eb"/><path d="M511.323,536.783l-1.076-1.293L509,536.855l1.311,1.039c.28-.262.47-.416.642-.6S511.151,537,511.323,536.783Z" transform="translate(-235.118 -522.479)" fill="#9cf1eb"/><path d="M398.241,592.846c-2.215,0-4.429.136-6.635.208-.163-1.139-.081-1.356.6-1.536.425-.118.9-.2,1.3-.28a1.925,1.925,0,0,0,1.609-1.681,3.809,3.809,0,0,0,.09-.56v-5.884a2.249,2.249,0,0,0-.642-.262h-8.623a5.162,5.162,0,0,0-.814.163,8.853,8.853,0,0,0-.136,1.139v4.022c0,.443.09.9.127,1.329a1.953,1.953,0,0,0,1.69,1.808l1.916.452-.063,1.419a69.38,69.38,0,0,0-13.423,0c-.56-.434-.452-.9-.181-1.464l1.97-.488a1.69,1.69,0,0,0,1.41-1.591c.063-.633.2-1.266.2-1.9V572.987c0-.7-.145-1.392-.208-2.088a1.753,1.753,0,0,0-1.464-1.564c-.66-.19-1.338-.326-2.052-.488v-1.32c1.528-.226,3.01.262,4.52.226s3.073,0,4.6,0,3.019-.2,4.646-.316l.1,1.184a2.071,2.071,0,0,1-.47.334c-.551.154-1.121.244-1.672.407a1.889,1.889,0,0,0-1.473,1.564,22.6,22.6,0,0,0-.108,4.682,66.971,66.971,0,0,0,9.88.109c.443-.407.271-.9.289-1.437a20.459,20.459,0,0,0,0-2.712c-.163-1.537-.569-2.043-2.043-2.35a7.965,7.965,0,0,1-.9-.181c-.669-.208-.741-.389-.633-1.627,1.5.108,3,.262,4.519.316s2.938.054,4.411,0,3.028-.19,4.52-.289c.416,1.211.344,1.509-.66,1.663-2.929.452-2.712,1.464-2.712,3.489v15.366c0,.506.063,1.021.09,1.528a1.808,1.808,0,0,0,1.464,1.808c.425.117.9.19,1.3.289.85.208.9.389.588,1.582C402.7,592.972,400.474,592.846,398.241,592.846Zm-13.107-12.953c1.347.172,7.891.244,9.464.117a2.331,2.331,0,0,0,.587-.253l-.136-1.338c-3.3,0-6.463-.063-9.636.072-.108,0-.208.126-.334.208a2.71,2.71,0,0,0-.063.542,4.208,4.208,0,0,0,.117.651Z" transform="translate(-222.224 -525.546)" fill="#9cf1eb"/><path d="M292.977,597.209V598.5a36.464,36.464,0,0,1-5.378-.226,34.04,34.04,0,0,0-5.17,0,40.9,40.9,0,0,1-5.423.244l.108-1.293c.9-.235,1.708-.407,2.495-.651a2.07,2.07,0,0,0,1.555-1.971c.081-2.1.09-4.194,0-6.382a6.508,6.508,0,0,0-.994-.19H267.125a5.982,5.982,0,0,0-.841.127,10.317,10.317,0,0,0-.163,1.112c0,1.6-.054,3.2,0,4.791.045,1.726.47,2.242,2.133,2.712.551.154,1.121.244,1.808.4l.325,1.175c-.226.108-.4.244-.551.235-1.464-.054-2.929-.181-4.393-.208h-6.49a40.784,40.784,0,0,1-4.854.135l.3-1.338c.759-.181,1.455-.3,2.124-.506a2.4,2.4,0,0,0,2.007-2.441v-1.717a51.135,51.135,0,0,1,1.256-10.621,38.733,38.733,0,0,1,4.583-11.308,26.809,26.809,0,0,1,8.533-8.65,6.928,6.928,0,0,1,.741-.38,17.174,17.174,0,0,1,4.6,3.308,30.209,30.209,0,0,1,7.873,12.293,42.366,42.366,0,0,1,2.54,13.1c0,1.4.163,2.8.235,4.194a2.205,2.205,0,0,0,1.754,2.224C291.341,596.874,292.082,597.028,292.977,597.209Zm-12.212-14.643a44,44,0,0,0-1.645-8.443,17.175,17.175,0,0,0-3.679-6.653,5.831,5.831,0,0,0-1.916-1.546,7.64,7.64,0,0,0-.9.759c-.533.551-1.076,1.094-1.555,1.69a17.355,17.355,0,0,0-3.037,6.137,50.9,50.9,0,0,0-1.609,8.641,2.151,2.151,0,0,0,.136,1.446,129.124,129.124,0,0,0,14.363,0C280.837,583.831,280.828,583.2,280.765,582.566Z" transform="translate(-210.622 -524.983)" fill="#9cf1eb"/><path d="M612.922,597.208l.054,1.32a45.652,45.652,0,0,1-5.378-.253,32.874,32.874,0,0,0-5.17,0c-1.808.163-3.534.253-5.423.316a7.251,7.251,0,0,0-.054-1.193c.136-.127.217-.253.325-.28.741-.181,1.5-.3,2.233-.515a2.142,2.142,0,0,0,1.609-2.124c.081-1.4.2-2.8.244-4.2a41.172,41.172,0,0,1,4.52-17.644,26.872,26.872,0,0,1,10.3-11.091,6.027,6.027,0,0,1,2.486,1.392,27.457,27.457,0,0,1,8.018,9.383,39.51,39.51,0,0,1,4.411,14.761c.19,2.215.271,4.447.407,6.671a7.2,7.2,0,0,0,0,.768,2.323,2.323,0,0,0,1.69,2.1c.732.217,1.482.362,2.359.57l.325,1.275c-2.766.343-5.423-.362-8.063-.226s-5.324.244-8.135.371a8.112,8.112,0,0,1,0-.841,2.77,2.77,0,0,1,.154-.533,1.73,1.73,0,0,1,.343-.172c.624-.136,1.257-.244,1.871-.407a2.133,2.133,0,0,0,1.808-2.187v-6.183a6.83,6.83,0,0,0-1.193-.244H610a9.024,9.024,0,0,0-1.139.154,5.857,5.857,0,0,0-.126.814v5.179a2.26,2.26,0,0,0,1.916,2.495A18.269,18.269,0,0,0,612.922,597.208Zm10.684-13.694a51.045,51.045,0,0,0-1.645-9.039,16.669,16.669,0,0,0-4.6-7.828,10.727,10.727,0,0,0-1.067-.768c-.38.28-.7.488-.976.741a15.855,15.855,0,0,0-4.312,6.915,43.077,43.077,0,0,0-1.862,9.374,12.3,12.3,0,0,0,0,1.636,130.176,130.176,0,0,0,14.463,0c0-.371.027-.687,0-1Z" transform="translate(-243.57 -524.982)" fill="#9cf1eb"/><path d="M509.355,610.006a3.308,3.308,0,0,1-1.98,1.4,13.767,13.767,0,0,1-6.237.488,21.251,21.251,0,0,1-7.909-2.712,39.522,39.522,0,0,1-8.949-6.843c-4.565-4.52-9.039-9.193-13.558-13.794-1.609-1.645-3.209-3.3-4.827-4.935a3.616,3.616,0,0,0-3.616-1.211c0,.362-.108.669-.108.985v5.36c0,1.79.443,2.178,1.98,2.594.244.072.506.072.75.127.9.208.958.3.741,1.591-2.2-.072-4.411-.2-6.626-.2s-4.438.127-6.788.2c0-.407-.063-.814-.108-1.32l2.07-.533a1.808,1.808,0,0,0,1.455-1.808V571.961c.09-1.672-.407-2.63-2.332-2.829a7.719,7.719,0,0,1-1.157-.352v-1.238c.2-.09.316-.19.425-.181a42.414,42.414,0,0,0,8.018.235,60.141,60.141,0,0,1,6.508,0,9.509,9.509,0,0,1,5.7,1.943,5.966,5.966,0,0,1,1.32,8.2,15.709,15.709,0,0,1-1.9,2.133,12.772,12.772,0,0,1-1.32,1.012,8.973,8.973,0,0,0,.642.9c2.965,3.091,5.939,6.156,8.894,9.256q3.842,4.013,7.62,8.081a68.953,68.953,0,0,0,9.138,8.361,12.98,12.98,0,0,0,11.543,2.459A2.118,2.118,0,0,1,509.355,610.006Zm-45.312-29.982a4.52,4.52,0,0,0,4.474-3.227,5.631,5.631,0,0,0-.1-3.751,3.706,3.706,0,0,0-2.341-2.341,3.961,3.961,0,0,0-3.76.235,62.558,62.558,0,0,0,0,8.867,15.233,15.233,0,0,0,1.726.217Z" transform="translate(-229.652 -525.541)" fill="#9cf1eb"/><path d="M547.017,633.2c2.811,1.22,5.252,2.712,8.135,3.263a4.781,4.781,0,0,0,2.621-.063,2.422,2.422,0,0,1,.642,0c-.136.217-.19.434-.316.488a5.5,5.5,0,0,1-1.4.569,13.324,13.324,0,0,1-11.046-2.386,4.845,4.845,0,0,0-2.91-1.139,5.5,5.5,0,0,1-4.058-2.26,5.107,5.107,0,0,1,.172-6.056,6.327,6.327,0,0,1,7.945-1.537,5.044,5.044,0,0,1,1.546,7.692C548,632.2,547.587,632.6,547.017,633.2Zm-4.944-1.6a2.793,2.793,0,0,0,4.429-1.049,4.3,4.3,0,0,0-1.546-5.044,2.784,2.784,0,0,0-4.113,1.274,6.213,6.213,0,0,0-.289,1.1,4.519,4.519,0,0,0,1.527,3.715Z" transform="translate(-237.883 -530.917)" fill="#9cf1eb"/><path d="M311.8,633.561a4.315,4.315,0,0,1-.777.172c-1.518,0-3.046,0-4.574-.063.136-.588.136-.588,1.085-1.211v-2.377a5.8,5.8,0,0,0-3.471,0v2.459l1.229.723c-.1.2-.136.371-.217.4a2.542,2.542,0,0,1-.732.127h-3.435a10.6,10.6,0,0,1-1.112-.136c.235-.307.334-.588.5-.633.85-.226,1.039-.8,1.03-1.591v-5.17c0-.9-.108-1.663-1.193-1.808a.371.371,0,0,1-.154-.307.733.733,0,0,1,.325-.389,1.43,1.43,0,0,1,.56-.054h3.616a6.986,6.986,0,0,1,.9.181c-.2.28-.3.588-.452.624-.813.163-.994.687-.9,1.4a4.015,4.015,0,0,0,.063.832,8.7,8.7,0,0,0,3.344.163,3.335,3.335,0,0,0,.154-1.763c0-.75-1.13-.325-1.13-1.067.072-.09.136-.262.208-.262,1.528,0,3.046-.063,4.519-.063a.534.534,0,0,1,.407.289c0,.136-.09.443-.181.461-.8.136-.994.687-.994,1.392v5.74c0,.705.181,1.247.967,1.437C311.505,633.009,311.578,633.235,311.8,633.561Zm-5.053-5.225h-1.907c.624.063,1.247.461,1.907,0Z" transform="translate(-215.013 -530.955)" fill="#9cf1eb"/><path d="M382.029,633.7v-.47c.389-.3.958-.506,1.139-.9a4.7,4.7,0,0,0,.172-1.69,3.256,3.256,0,0,0-.081-.642,8.642,8.642,0,0,0-3.616-.117,7.231,7.231,0,0,0-.072,2.3c.226.832,1.2.488,1.284,1.157-.054.136-.063.217-.1.235a.9.9,0,0,1-.353.126H375.82c-.1,0-.2-.117-.325-.2-.072-.85,1-.434,1.211-1.021.136-2.35.1-4.7.081-7.05a.9.9,0,0,0-.759-.9,2.62,2.62,0,0,1-.588-.344c.108-.2.136-.325.226-.4a.679.679,0,0,1,.353-.109c1.518,0,3.046,0,4.565.063.081,0,.154.163.244.262,0,.714-.9.38-1.193,1.067v1.6a11.746,11.746,0,0,0,3.507.09,2.024,2.024,0,0,0,0-1.808,4.291,4.291,0,0,0-1.184-.9.56.56,0,0,1,.651-.461h4c.217,0,.425.181.642.28-.127.181-.226.5-.38.533a1,1,0,0,0-.859,1.094v6.327a1.039,1.039,0,0,0,.9,1.094c.163,0,.28.217.47.371-.145.154-.262.389-.38.389C385.383,633.713,383.738,633.7,382.029,633.7Zm-1.329-5.224h1.907v-.127h-1.9Z" transform="translate(-222.283 -530.944)" fill="#9cf1eb"/><path d="M416.5,629.013a31.642,31.642,0,0,0,4.872,4.881,5.649,5.649,0,0,0,5.089.9c-.5.479-.624.687-.8.759a6.326,6.326,0,0,1-5.188-.443,16.164,16.164,0,0,1-4.312-3.146c-.642-.624-1.256-1.274-1.9-1.9a2.212,2.212,0,0,0-.642-.389c-.1-.045-.244,0-.443,0a7.8,7.8,0,0,0-.045,2.712l1.247.786c-.163.208-.235.371-.307.38h-4.764c-.09,0-.181-.127-.28-.2a.416.416,0,0,1,.362-.551,1.293,1.293,0,0,0,.994-1.437v-5.559a1.338,1.338,0,0,0-1.094-1.546c-.126,0-.217-.244-.371-.452.2-.118.343-.28.488-.289,1.591,0,3.191-.081,4.782,0a5.986,5.986,0,0,1,2.224.443,2.4,2.4,0,0,1,.994,3.932A9.72,9.72,0,0,1,416.5,629.013Zm-1.482-1.284a1.537,1.537,0,0,0,.316-1.437,2.657,2.657,0,0,0-.7-1.085,1.2,1.2,0,0,0-1.528,0,14.463,14.463,0,0,0,.045,3.236,1.808,1.808,0,0,0,1.871-.714Z" transform="translate(-225.5 -530.936)" fill="#9cf1eb"/><path d="M507.361,623.339a5.641,5.641,0,0,1,3.281.9,5.125,5.125,0,0,1,1.32,7.5,6.327,6.327,0,0,1-9.69,0,5.143,5.143,0,0,1,.362-6.327A5.694,5.694,0,0,1,507.361,623.339Zm1.374,2.332a2.82,2.82,0,0,0-4.393,1.211,4.257,4.257,0,0,0,1.229,4.655,2.793,2.793,0,0,0,4.682-1.627,6.53,6.53,0,0,0,.081-.841,4.122,4.122,0,0,0-1.609-3.4Z" transform="translate(-234.383 -530.92)" fill="#9cf1eb"/><path d="M445.538,623.36c3.616,2.043,4.6,5.053,4.727,9.039.416.244.9.524,1.32.8-.117.2-.163.353-.244.38a3,3,0,0,1-.75.1h-3.616a4.126,4.126,0,0,1-.768-.154c.09-.253.118-.533.217-.56,1.049-.28,1.247-.967.958-1.98a8.486,8.486,0,0,0-3.435-.108c-.9,1.41.253,1.808,1.049,2.332-.127.19-.172.316-.262.38a.7.7,0,0,1-.362.09l-4.962-.1c.262-.343.362-.624.515-.66.9-.217,1.048-.831,1.021-1.6a8.948,8.948,0,0,1,1.754-5.559A6.4,6.4,0,0,1,445.538,623.36Zm1.763,5.975a6.39,6.39,0,0,0-.976-3.48,4.442,4.442,0,0,0-.759-.723c-1.4,1.265-1.464,1.41-1.808,4.321a9.7,9.7,0,0,0,3.543-.09Z" transform="translate(-228.43 -530.923)" fill="#9cf1eb"/><path d="M474.63,538.767a2,2,0,0,0-.994,1.726c.063,1.4,0,2.8,0,4.2a3.29,3.29,0,0,0,.687,2.54,6.968,6.968,0,0,1-3.616-.054c1.265-.9.967-2.034.768-3.281a11.805,11.805,0,0,0-3.372-.1c-.542,1.591-.515,1.808.371,3.552h-3.39c-.262-.316-.127-.488.127-.605a.9.9,0,0,0,.488-.9v-5.55c0-.669-.524-.967-.85-1.5a10.689,10.689,0,0,1,3.561-.127,6.892,6.892,0,0,0-.642,1.356,5.315,5.315,0,0,0,.054,1.347,9.87,9.87,0,0,0,3.57,0,1.808,1.808,0,0,0-.624-2.422C472.063,538.459,472.452,538.441,474.63,538.767Zm-6.327,3.95h-.072Z" transform="translate(-230.875 -522.772)" fill="#9cf1eb"/><path d="M485.323,538.37c3.01,1.943,3.534,4.971,3.724,8.135l.832.651c-.117.145-.19.307-.262.307h-3.372c-.316-.506.154-.524.325-.741.307-.4.28-.416,0-1.663h-2.712c-.334,1.247-.334,1.247.443,2.151a5.676,5.676,0,0,1-3.561.081,3.155,3.155,0,0,0,.7-2.151,9.039,9.039,0,0,1,2.9-6.246,4.313,4.313,0,0,1,.452-.353A4.862,4.862,0,0,1,485.323,538.37Zm.353,1.808a.606.606,0,0,0-.976,0,5.215,5.215,0,0,0-.958,3.67,10.043,10.043,0,0,0,2.983-.127,5.279,5.279,0,0,0-1.049-3.57Z" transform="translate(-232.402 -522.755)" fill="#9cf1eb"/><path d="M455.081,547.338c.524-.633,1.464-1.148.588-2.242a8.57,8.57,0,0,0-2.838.045c-.669.967,0,1.546.606,2.124a6.327,6.327,0,0,1-3.706.054,2.711,2.711,0,0,0,.786-2.115,8.725,8.725,0,0,1,2.712-6.138,10.5,10.5,0,0,1,.958-.687,4.384,4.384,0,0,1,2.26,1.98,9.2,9.2,0,0,1,1.582,4.646,2.92,2.92,0,0,0,.8,2.323,7.4,7.4,0,0,1-3.742.009Zm0-6.571c-.2-.38-.389-.8-.9-.814a3.534,3.534,0,0,0-1.247,3.86h2.712a4.718,4.718,0,0,0-.533-3.064Z" transform="translate(-229.422 -522.756)" fill="#9cf1eb"/></g></svg>