<svg xmlns="http://www.w3.org/2000/svg" width="258.588" height="56" viewBox="0 0 258.588 56"><g transform="translate(0 0)"><path d="M97.455,367.87c.079.063.152.168.231.178,1.619.157,1.677.283,1.619,1.9-.084,2.18-.042,4.366-.11,6.551-.063,2.033-.168,4.067-.341,6.09,0,.267-.571.681-.9.7-2.013.094-4.036.1-6.059.121H87.125c.058-.676.11-1.321.168-1.971a8.779,8.779,0,0,0,.178-2.28,6.873,6.873,0,0,1,1.295-5.1,46.082,46.082,0,0,0,2.364-5.084l-1.572,1.473c-.2,2.138-2.1,4.748-4.03,5.167v-5.084a5.812,5.812,0,0,1,.031-1.352,7.253,7.253,0,0,1,.592-1.3Z" transform="translate(-67.294 -367.87)" fill="#9cf1eb"/><path d="M50.76,458.6c2.06,0,4.114.031,6.174.031H93.992a3.109,3.109,0,0,1,.828,0c.178.052.3.283.451.435-.152.147-.283.383-.461.425a3.993,3.993,0,0,1-.938,0H52.1c-.445,0-.9.063-1.342.1Z" transform="translate(-50.76 -411.05)" fill="#9cf1eb"/><path d="M428.808,377.536v21.917c-1.541,0-3.034.042-4.523-.031-.325,0-.7-.383-.933-.681q-4.387-5.8-8.731-11.64c-.21-.278-.424-.55-.8-1.048v13.333h-5.2V377.463c1.515,0,3.034-.031,4.554.031.294,0,.624.383.833.666q4.387,5.8,8.747,11.629c.22.3.461.587.828,1.048v-13.3Z" transform="translate(-221.068 -372.432)" fill="#9cf1eb"/><path d="M351.077,399.427H345.49V377.657c.073-.052.126-.126.183-.126,4.041.042,8.1-.131,12.117.189,3.7.3,5.938,2.348,6.53,5.487.671,3.543-.168,6.839-3.36,8.752a2.105,2.105,0,0,0-.3.267l4.518,7.259a34.661,34.661,0,0,0-4.125.031,2.77,2.77,0,0,1-3.37-2.049,27.318,27.318,0,0,0-1.934-3.7c-.131-.236-.419-.524-.645-.524-1.315-.052-2.62-.026-4.025-.026Zm.026-10.539c1.918-.094,3.768-.052,5.576-.309a2.991,2.991,0,0,0,2.537-3.323,2.861,2.861,0,0,0-2.584-3.144c-1.808-.236-3.669-.2-5.529-.283Z" transform="translate(-191.024 -372.463)" fill="#9cf1eb"/><path d="M258,377.53h5.513v8.909h9.193v-8.873H278.3v21.86H272.79v-8.464H263.6v8.459H258Z" transform="translate(-149.387 -372.467)" fill="#9cf1eb"/><path d="M305.12,399.464V377.61h17.2V381.9H310.744v4.387h10.372v4.428H310.749v4.36h11.829v4.392Z" transform="translate(-171.811 -372.505)" fill="#9cf1eb"/><path d="M150.356,399.375c-.44-1.153-.833-2.311-1.336-3.417a1.321,1.321,0,0,0-.949-.655c-2.689-.052-5.372,0-8.055-.042a.9.9,0,0,0-1.048.755.871.871,0,0,1-.073.194c-.435,1.048-.6,2.521-1.389,3.05s-2.222.152-3.37.168h-2.3c.964-2.254,1.871-4.392,2.793-6.53q3.145-7.288,6.289-14.575a1.226,1.226,0,0,1,1.384-.907c1.389.063,2.788,0,4.193.042a1.143,1.143,0,0,1,.86.493q4.481,10.623,8.946,21.252a.3.3,0,0,1-.047.157Zm-3.207-8.359-3.092-7.945-3.145,7.945Z" transform="translate(-89.346 -372.405)" fill="#9cf1eb"/><path d="M495.16,399.428c.964-2.254,1.871-4.4,2.793-6.53q3.144-7.287,6.289-14.58a1.237,1.237,0,0,1,1.384-.9c1.389.063,2.788,0,4.193.042a1.143,1.143,0,0,1,.86.5q4.512,10.623,8.962,21.267a.441.441,0,0,1-.037.152h-5.933c-.425-1.111-.828-2.29-1.342-3.417a1.32,1.32,0,0,0-.949-.655c-2.683-.052-5.372,0-8.055-.042a.9.9,0,0,0-1.048.755,1.517,1.517,0,0,1-.073.2c-.44,1.048-.6,2.516-1.394,3.045s-2.222.152-3.37.168C496.727,399.439,496.009,399.428,495.16,399.428Zm12.211-16.362c-1.106,2.793-2.1,5.33-3.145,7.935h6.211C509.436,388.386,508.451,385.86,507.371,383.066Z" transform="translate(-262.253 -372.406)" fill="#9cf1eb"/><path d="M468.7,387.991h4.816v4.8a8.482,8.482,0,0,0,0,1.672c.4,1.887-.6,2.736-2.185,3.391-4.083,1.688-8.181,2.353-12.342.372-4.392-2.1-6.583-6.1-6.231-11.21a10.841,10.841,0,0,1,7.725-9.35,13.627,13.627,0,0,1,12.678,2.18c.189.142.346.325.582.524l-3.056,3.669c-.744-.472-1.41-.964-2.143-1.347-3.574-1.86-7.337-.97-9.182,2.128a6.75,6.75,0,0,0,.959,8.029,6.588,6.588,0,0,0,7.919,1,1.243,1.243,0,0,0,.446-.907C468.721,391.309,468.7,389.679,468.7,387.991Z" transform="translate(-242.055 -372.201)" fill="#9cf1eb"/><path d="M231.112,391.983l3.186,3.37c-1.829,2.51-6.871,5.005-11.8,3.889a11.085,11.085,0,0,1-8.726-9.544c-.524-5.11,1.866-9.481,6.252-11.483a12.722,12.722,0,0,1,14.308,2.62l-3.181,3.752c-3.878-3.349-7.337-3.669-9.932-1.006a6.813,6.813,0,0,0,0,9.14C223.738,395.384,227.428,395.127,231.112,391.983Z" transform="translate(-128.306 -372.256)" fill="#9cf1eb"/><path d="M96.8,414.643h-2.1l-8.15.136h-.414c-1.756.225-1.782.173-1.771-1.572,0-2.558-.042-5.12,0-7.678a6.143,6.143,0,0,1,.4-1.7c.267-.865.592-1.709.87-2.568.582-1.756.1-1.646,2.264-1.64,2.741,0,5.487.063,8.233.058.833,0,1.184.278,1.164,1.148-.063,2.736-.031,5.477-.11,8.212C97.13,410.822,96.946,412.609,96.8,414.643Z" transform="translate(-66.748 -382.978)" fill="#9cf1eb"/><path d="M57.571,417.266a17.593,17.593,0,0,1,7.149-7.112,19.962,19.962,0,0,1-.257,2.013c-.241,1-.592,1.976-.812,2.982-.047.194.225.566.445.687.991.524,2.018,1.011,3.186,1.572H62.565c-1.672,0-3.338.052-5.01.1-1.336.042-2.678.12-4.015.183-.776.042-1.336-.058-1.321-1.1.047-2.861,0-5.723,0-8.584,0-1.478,0-2.961-.063-4.439-.037-.933.22-1.363,1.268-1.347,3.863.058,7.725.042,11.588.031.645,0,.828.152.739.844a11.117,11.117,0,0,1-4.161,7.8c-.854.66-1.515,1.735-2.458,2.1-1.347.482-1.572,1.572-2.1,2.573A1.173,1.173,0,0,0,57.571,417.266Z" transform="translate(-51.423 -384.222)" fill="#9cf1eb"/><path d="M70.6,374.072c-1.048-1.022-2.1-1.184-2.673-.576a2.026,2.026,0,0,0,.21,2.872c-1.221.43-2.62.152-4.628-1.106-1.342-.844-2.62-1.824-4.125-2.9,1.111,1.357,2.013,2.557,3.029,3.669a2.889,2.889,0,0,0,1.494.66,9.431,9.431,0,0,1,5.126,3.4,2.358,2.358,0,0,1,.194,2.993,9.552,9.552,0,0,0-.964,2.484c-.162.676-.577.582-1.017.587-2.62,0-5.288,0-7.935.042a5.574,5.574,0,0,0-1.452.1c-.86.241-1.163-.068-1.158-.907v-7.337c0-2.1.042-4.235,0-6.347,0-.76.283-1.048.954-1.048q6.017,0,12.023.031c.618,0,.975.283.954.954S70.6,373.123,70.6,374.072Z" transform="translate(-53.587 -369.198)" fill="#9cf1eb"/><path d="M188.383,394.827h9.345v4.612H182.87V377.6h5.513Z" transform="translate(-113.632 -372.501)" fill="#9cf1eb"/><path d="M394.608,377.61v21.849h-5.5V377.61Z" transform="translate(-211.783 -372.505)" fill="#9cf1eb"/><path d="M284.783,460.408c.76-2.2,1.431-4.13,2.1-6.064.43-1.253.922-2.484,1.247-3.763.252-1.006.76-1.384,1.75-1.216a5.539,5.539,0,0,0,.786,0c1.247,3.6,2.484,7.164,3.826,11.043,1.336-3.878,2.568-7.442,3.794-11.006h2.06c-.524,1.42-1,2.778-1.5,4.135-1.022,2.783-2.1,5.545-3.045,8.344-.283.823-.8.7-1.378.723s-1.006,0-1.253-.734c-.985-2.9-2.055-5.765-3.1-8.658-.115-.32-.246-.634-.466-1.2-.592,1.635-1.106,3.045-1.614,4.455-.655,1.839-1.268,3.669-1.981,5.508a1.305,1.305,0,0,1-.98.592c-.524,0-1.179.351-1.494-.524-1.494-4.125-3.035-8.239-4.554-12.353a.577.577,0,0,1,0-.21c.052-.031.1-.094.157-.1,1.777-.11,1.771-.1,2.364,1.6C282.566,454.045,283.63,457.085,284.783,460.408Z" transform="translate(-159.367 -406.637)" fill="#9cf1eb"/><path d="M229.371,443.672l-1.048,1.378a28.072,28.072,0,0,0-3.742-1.572,7.07,7.07,0,0,0-7.861,3.223,6.588,6.588,0,0,0,.687,7.61,7.3,7.3,0,0,0,8.286,1.965c.293-.11.566-.278.86-.377a1.307,1.307,0,0,0,.933-1.52c-.052-1.352,0-2.71,0-4.13h1.771v6.016a.754.754,0,0,1-.33.482c-4.6,3.307-11.053,2.552-13.993-2.406a8.687,8.687,0,0,1,7.175-12.987A10.241,10.241,0,0,1,229.371,443.672Z" transform="translate(-128.326 -402.83)" fill="#9cf1eb"/><path d="M353.237,457.843H351.46V439.5h1.808v7.6a6.452,6.452,0,0,1,3.857-2.343c3.768-.692,6.231,1.326,6.231,5.146v7.641a1.162,1.162,0,0,1-.079.262h-1.84v-7.28c-.047-2.1-.917-3.344-2.547-3.731a4.139,4.139,0,0,0-4.905,2.044,9.194,9.194,0,0,0-.655,3.145c-.1,1.845-.031,3.695-.037,5.545C353.315,457.581,353.268,457.654,353.237,457.843Z" transform="translate(-193.865 -401.96)" fill="#9cf1eb"/><path d="M330.42,454.934c.288-2.741-1.373-4.219-4.1-3.789a8.115,8.115,0,0,0-1.792.524,16.475,16.475,0,0,0-1.667.88c-.262-.446-.524-.886-.765-1.315a8.013,8.013,0,0,1,8.228-1.253,4.062,4.062,0,0,1,2.06,2.987,5.08,5.08,0,0,1,.057.938c0,2.851,0,5.7,0,8.606h-1.887V460.7a6.368,6.368,0,0,1-6.289,1.682,3.669,3.669,0,0,1-2.919-3.716,3.368,3.368,0,0,1,2.893-3.454,15.2,15.2,0,0,1,2.9-.262C328.208,454.9,329.288,454.934,330.42,454.934Zm0,1.478c-1.908.1-3.784.152-5.644.335a1.688,1.688,0,0,0-1.541,1.494,1.934,1.934,0,0,0,1,2.128,4.476,4.476,0,0,0,4.581-.194A3.2,3.2,0,0,0,330.42,456.412Z" transform="translate(-179.534 -406.65)" fill="#9cf1eb"/><path d="M389.186,454.9c.136-2.846-1.478-4.24-4.193-3.779a8.333,8.333,0,0,0-1.792.524,17.487,17.487,0,0,0-1.62.854l-.812-1.415a8.391,8.391,0,0,1,7.552-1.441,3.669,3.669,0,0,1,2.794,3.543c.11,3.061.031,6.126.031,9.26h-1.824l-.079-1.808a6.362,6.362,0,0,1-5.188,1.881c-2.867-.147-4.717-2.7-3.779-5.2A3.693,3.693,0,0,1,383.61,455c1.483-.157,2.856-.094,4.287-.12C388.306,454.9,388.715,454.9,389.186,454.9Zm-.037,1.478c-1.9.1-3.768.147-5.629.335a1.693,1.693,0,0,0-1.572,1.572,1.95,1.95,0,0,0,1.08,2.1,4.508,4.508,0,0,0,4.5-.225A3.249,3.249,0,0,0,389.15,456.382Z" transform="translate(-207.462 -406.62)" fill="#9cf1eb"/><path d="M251.4,449.49h1.9v5.346c0,.8-.026,1.609.052,2.406.183,1.95,1.048,3.019,2.62,3.323a3.936,3.936,0,0,0,4.544-1.965,8.647,8.647,0,0,0,.681-3.118c.1-1.976.031-3.957.031-5.985h1.834v13.076H261.28v-2.542c-.22.183-.336.236-.383.325-1.294,2.332-4.617,2.7-6.6,1.992a4.093,4.093,0,0,1-2.856-3.894C251.307,455.522,251.4,452.53,251.4,449.49Z" transform="translate(-146.231 -406.714)" fill="#9cf1eb"/><path d="M178.911,443.385H173.23V441.53h13.275v1.818h-5.582v15.46h-2.012Z" transform="translate(-109.044 -402.926)" fill="#9cf1eb"/><path d="M501.167,458.864a3.039,3.039,0,0,1-.639.608,1.752,1.752,0,0,1-.723,0H455.083a2.475,2.475,0,0,1-1.263-.4c.079-.917.844-.472,1.289-.472q22.311-.037,44.616,0h1.242Z" transform="translate(-242.579 -410.999)" fill="#9cf1eb"/><path d="M409.144,448.945l-1.824-.084v-1.452l1.8-.163V443.94h1.944v3.344h4.119v1.572h-4.067c0,2.62-.063,5.173.026,7.7.042,1.148.907,1.688,2.07,1.488a13.718,13.718,0,0,0,1.714-.524l.524,1.468a4.974,4.974,0,0,1-3.5,1.011,3.052,3.052,0,0,1-2.82-3.3c-.031-2.159,0-4.323,0-6.488Z" transform="translate(-220.449 -404.073)" fill="#9cf1eb"/><path d="M149.81,441.47h1.834v17.295H149.81Z" transform="translate(-97.899 -402.897)" fill="#9cf1eb"/><path d="M165.635,458.815H163.78V441.52h1.855Z" transform="translate(-104.547 -402.921)" fill="#9cf1eb"/><path d="M429.961,462.622H428.19v-13.1h1.771Z" transform="translate(-230.381 -406.728)" fill="#9cf1eb"/><path d="M80,414.542c-.168,2.62-.335,5.241-.524,7.9-2.1-.786-2.62-1.63-1.913-3.559.524-1.541,1.321-3,1.992-4.5Z" transform="translate(-63.373 -390.005)" fill="#9cf1eb"/><path d="M430.208,441.151c-.073.87-.482,1.373-1.321,1.342a1.336,1.336,0,0,1,.094-2.662C429.847,439.856,430.161,440.443,430.208,441.151Z" transform="translate(-230.151 -402.117)" fill="#9cf1eb"/></g></svg>