<?xml version="1.0" standalone="no"?>
<!DOCTYPE svg PUBLIC "-//W3C//DTD SVG 20010904//EN"
 "http://www.w3.org/TR/2001/REC-SVG-20010904/DTD/svg10.dtd">
<svg version="1.0" xmlns="http://www.w3.org/2000/svg"
 width="959.000000pt" height="868.000000pt" viewBox="0 0 959.000000 868.000000"
 preserveAspectRatio="xMidYMid meet">
<metadata>
Created by potrace 1.15, written by Peter Selinger 2001-2017
</metadata>
<g transform="translate(0.000000,868.000000) scale(0.100000,-0.100000)"
fill="#000000" stroke="none">
<path d="M0 4340 l0 -4340 1831 0 1832 0 -7 51 c-5 33 -3 56 5 65 9 11 7 14
-15 14 -14 0 -26 5 -26 10 0 6 10 10 23 10 18 0 19 2 7 10 -12 8 -12 10 5 10
21 1 65 32 65 47 0 5 9 15 20 23 11 8 20 22 20 31 0 9 11 28 25 43 14 15 25
31 25 36 0 5 9 12 21 15 12 4 18 12 15 21 -3 8 -1 14 4 14 5 0 16 16 25 36 8
19 19 33 24 30 5 -4 16 7 24 24 9 18 11 30 5 30 -7 0 -7 4 -1 12 6 7 11 56 12
108 1 52 3 106 5 120 3 14 5 50 5 80 1 35 4 50 10 41 12 -19 25 4 13 25 -12
22 -3 64 14 64 8 0 14 9 14 20 0 10 9 24 20 30 12 6 20 21 20 35 0 16 6 25 15
25 8 0 15 -7 15 -15 0 -8 4 -15 9 -15 5 0 7 9 4 19 -5 19 -3 19 52 5 42 -11
65 -12 86 -5 16 5 31 6 34 1 3 -5 18 -11 34 -15 16 -3 32 -12 35 -20 3 -8 13
-11 24 -8 11 2 23 0 26 -6 9 -13 73 -15 81 -2 3 5 -9 12 -27 14 l-33 4 33 1
c31 2 42 15 22 27 -16 10 -12 35 5 29 10 -4 15 0 15 15 0 14 -5 19 -15 15 -17
-7 -21 21 -5 31 6 3 10 1 10 -5 0 -6 5 -8 11 -4 8 5 8 9 -1 14 -17 11 -3 68
18 73 13 4 11 5 -4 6 -12 0 -25 8 -28 16 -4 11 3 17 25 22 22 4 27 8 17 15
-10 7 -10 11 5 22 9 7 17 23 17 35 0 13 6 21 16 21 12 0 15 7 10 28 -3 15 -3
22 0 15 8 -19 44 23 44 51 0 14 -3 27 -7 29 -5 3 -7 22 -7 44 1 21 2 53 3 71
1 21 6 32 16 32 10 0 15 10 15 28 0 37 33 74 65 74 13 0 22 4 19 9 -3 5 7 9
21 9 30 0 59 14 89 42 25 23 72 18 93 -11 11 -17 18 -18 42 -10 15 6 34 9 42
7 7 -2 13 6 14 17 0 13 6 19 17 17 13 -2 16 2 11 15 -7 17 -6 17 11 1 20 -20
25 -21 46 -9 19 13 34 2 20 -14 -10 -12 -6 -12 22 -4 36 10 88 3 88 -12 0 -16
29 -10 39 9 8 13 14 15 28 6 14 -9 26 -8 53 6 19 10 38 17 42 16 3 0 20 11 37
27 17 15 40 28 51 30 28 4 60 37 77 79 9 23 26 42 43 50 24 10 28 17 25 46 -2
25 0 32 11 28 13 -5 19 6 15 27 -1 5 3 6 8 2 11 -6 28 21 34 56 3 14 15 46 27
72 13 26 19 51 15 55 -4 4 -10 1 -12 -5 -6 -18 -23 -16 -23 2 0 8 7 15 15 15
8 0 25 10 36 21 12 12 31 22 43 23 14 1 22 9 24 25 2 13 18 35 35 50 18 14 44
38 59 52 27 27 38 27 38 3 0 -8 -6 -11 -14 -8 -20 8 -32 -17 -14 -30 11 -8 17
-34 20 -83 2 -40 1 -67 -3 -62 -3 6 -9 -1 -11 -16 -4 -20 -2 -25 9 -21 11 4
11 1 3 -14 -7 -14 -7 -26 -1 -39 6 -10 7 -21 3 -25 -3 -4 -7 -30 -8 -58 0 -29
-6 -54 -13 -56 -6 -2 -8 -8 -5 -14 21 -33 -14 -278 -39 -278 -4 0 -5 -4 -2
-10 6 -10 -25 -77 -56 -122 -11 -14 -19 -32 -19 -40 0 -7 -11 -34 -25 -60 -14
-26 -25 -54 -25 -62 0 -18 -40 -99 -51 -104 -5 -2 -16 -27 -25 -55 -9 -29 -27
-68 -39 -87 -12 -19 -36 -75 -54 -125 -18 -49 -36 -94 -41 -100 -4 -5 -16 -30
-26 -55 -10 -25 -44 -73 -78 -109 -112 -118 -178 -181 -190 -181 -6 0 -24 -14
-40 -30 -16 -16 -37 -32 -47 -35 -11 -4 -19 -11 -19 -16 0 -5 -5 -9 -11 -9 -6
0 -21 -9 -33 -19 -77 -69 -105 -91 -118 -91 -8 0 -18 -4 -23 -9 -6 -4 -27 -11
-47 -14 -29 -4 -42 -1 -61 17 -19 18 -22 27 -15 40 9 15 7 17 -10 12 -15 -5
-22 -2 -25 11 -12 42 -21 89 -18 98 2 6 5 26 7 45 3 19 6 47 8 61 1 14 6 31
10 37 4 7 4 21 1 32 -4 11 -2 20 4 20 11 0 1 43 -18 78 -7 14 -8 23 -1 27 17
11 12 35 -6 28 -14 -5 -15 -3 -5 15 16 29 14 34 -9 27 -15 -5 -18 -3 -14 9 7
19 6 19 -34 5 -18 -6 -29 -16 -25 -22 4 -6 -2 -8 -15 -5 -12 4 -24 3 -27 -2
-7 -12 -66 -5 -74 9 -4 7 -16 9 -27 5 -16 -6 -17 -5 -6 7 6 7 12 17 12 21 0
16 -32 8 -48 -12 -16 -19 -27 -22 -129 -29 -23 -2 -14 -18 10 -17 18 1 23 -5
25 -32 2 -17 8 -32 14 -32 7 0 6 -5 -1 -14 -8 -10 -9 -16 -1 -21 14 -9 13 -52
-2 -58 -10 -3 -10 -7 1 -20 11 -14 11 -18 -3 -23 -11 -4 -14 -13 -10 -30 3
-13 2 -24 -4 -24 -17 0 -34 -56 -27 -92 5 -24 2 -40 -7 -49 -24 -24 -56 -85
-63 -120 -4 -19 -15 -43 -25 -54 -10 -11 -23 -38 -30 -59 -7 -22 -22 -49 -34
-60 -25 -25 -64 -92 -47 -82 17 11 13 2 -9 -24 -11 -12 -17 -27 -13 -33 4 -6
0 -8 -11 -4 -9 4 -15 3 -12 -1 2 -4 -2 -15 -9 -25 -11 -15 -13 -16 -19 -2 -3
10 -19 15 -46 15 -28 0 -39 -4 -34 -11 3 -6 6 -36 5 -65 l-1 -54 2790 0 2790
0 0 4340 0 4340 -4795 0 -4795 0 0 -4340z m6130 631 c22 -14 70 -60 70 -67 0
-1 -21 -17 -47 -36 -55 -39 -161 -74 -178 -57 -7 7 -6 12 3 18 34 21 62 76 62
124 l0 49 32 -8 c18 -3 44 -14 58 -23z m20 -274 c0 -9 2 -9 8 1 7 10 13 8 31
-7 l22 -19 -31 -10 c-35 -13 -40 -32 -7 -32 18 -1 16 -4 -12 -16 -19 -8 -41
-12 -49 -9 -8 3 -20 1 -28 -5 -20 -17 -98 6 -89 27 3 9 0 20 -7 25 -10 6 -8
11 7 21 49 30 155 47 155 24z m217 -622 c18 -4 34 -2 38 4 11 18 25 12 37 -14
10 -22 16 -25 40 -20 21 5 30 2 34 -10 9 -23 -1 -29 -19 -11 -14 15 -27 12
-27 -6 0 -5 4 -7 10 -3 5 3 17 -6 26 -21 16 -24 16 -27 2 -35 -17 -9 -14 -42
5 -66 6 -9 6 -13 -2 -13 -15 0 -14 -27 2 -33 9 -4 9 -7 -1 -18 -7 -8 -17 -15
-22 -15 -6 -1 -13 -2 -16 -3 -3 0 2 -8 10 -17 18 -18 22 -89 5 -100 -7 -4 -9
-25 -7 -55 3 -27 1 -46 -4 -43 -4 3 -8 -4 -8 -15 0 -13 7 -21 17 -21 15 0 14
-2 -3 -14 -10 -8 -16 -18 -12 -22 4 -4 4 -12 -1 -18 -14 -17 -21 -94 -10 -98
6 -2 0 -15 -13 -29 -13 -14 -22 -31 -20 -37 2 -7 -1 -12 -7 -12 -6 0 -11 -14
-11 -30 0 -17 -9 -49 -20 -72 -11 -23 -23 -56 -26 -75 -4 -19 -13 -37 -20 -40
-8 -3 -31 -28 -51 -56 -43 -58 -110 -127 -124 -127 -6 0 -8 -4 -5 -9 4 -5 3
-17 -1 -27 -6 -16 -7 -16 -20 2 -10 14 -13 15 -13 3 0 -9 -11 -22 -25 -29 -13
-7 -22 -16 -20 -20 2 -4 -12 -13 -31 -20 -21 -9 -37 -23 -40 -36 -4 -14 -11
-21 -20 -17 -17 6 -44 -20 -66 -66 -10 -20 -17 -30 -18 -23 0 24 -20 12 -20
-13 0 -14 -5 -24 -12 -22 -7 1 -15 -9 -18 -23 -17 -62 -22 -70 -50 -70 -15 0
-33 -7 -40 -15 -7 -8 -18 -15 -25 -15 -22 0 -56 -37 -49 -54 6 -15 -4 -20 -32
-17 -7 1 -9 -9 -7 -23 3 -13 1 -32 -5 -42 -8 -15 -11 -13 -17 14 -3 18 -13 32
-21 32 -17 0 -18 -12 -2 -28 8 -8 8 -12 1 -12 -6 0 -13 7 -17 15 -3 8 -16 15
-30 15 -19 0 -23 4 -19 20 3 11 9 20 14 20 5 0 7 11 3 25 -4 15 -2 25 5 25 17
0 13 18 -10 41 -11 11 -18 27 -15 34 8 22 -9 27 -84 28 -48 0 -71 4 -74 14 -7
18 -26 17 -26 -2 0 -8 -6 -15 -14 -15 -26 0 -46 12 -46 27 0 11 -7 14 -22 10
-31 -8 -60 10 -53 33 5 14 -2 23 -27 36 -18 10 -27 19 -20 21 6 3 9 9 6 14 -3
6 6 8 23 4 16 -3 21 -2 13 2 -8 5 -15 14 -16 21 -2 27 -5 31 -21 34 -14 3 -9
10 20 29 32 23 35 28 22 39 -8 7 -13 16 -10 20 3 4 -6 18 -18 30 -31 30 -24
61 19 83 38 19 84 23 84 7 0 -13 33 -13 46 0 8 8 18 5 34 -8 22 -18 23 -17 79
11 84 42 99 52 138 86 19 17 41 31 49 31 8 0 14 4 14 8 0 4 8 8 19 9 14 1 17
-3 14 -17 -3 -11 -11 -25 -19 -31 -8 -6 -14 -21 -14 -32 0 -11 -7 -25 -16 -31
-16 -12 -9 -50 7 -40 10 6 79 -14 79 -22 0 -3 -7 -12 -15 -20 -8 -9 -15 -24
-15 -35 0 -10 -5 -19 -10 -19 -6 0 -3 -11 5 -24 l16 -24 43 44 c24 24 48 44
55 44 6 0 11 4 11 9 0 5 14 14 30 21 17 7 30 20 30 29 1 17 43 71 57 71 11 1
43 67 43 90 0 10 6 23 13 27 20 13 37 61 44 125 4 36 9 54 14 46 4 -7 11 -9
14 -6 4 4 4 12 -1 19 -4 7 -7 37 -6 68 0 30 -5 64 -11 76 -13 23 -21 62 -11
52 13 -13 42 12 37 33 -3 11 0 26 6 34 15 17 4 46 -15 39 -19 -7 -18 5 2 25
11 10 13 17 5 20 -19 6 -45 72 -33 84 8 8 15 8 26 -1 17 -14 22 -8 31 42 5 25
4 37 -4 37 -6 0 -11 6 -11 14 0 9 16 18 43 23 35 8 42 13 40 31 -2 14 3 22 12
22 8 0 15 4 15 10 0 5 12 16 28 24 15 8 27 18 27 23 0 12 58 42 75 38 8 -2 29
-6 47 -10z m-1079 -46 c2 -5 10 -9 18 -9 8 0 14 -7 14 -15 0 -8 12 -17 28 -21
15 -3 34 -8 42 -11 26 -10 93 -2 114 13 17 12 22 11 38 -3 12 -10 38 -17 72
-18 30 -1 62 -7 71 -15 14 -12 18 -12 27 1 7 11 9 9 5 -8 -4 -17 0 -23 17 -25
11 -2 20 -9 18 -16 -1 -6 5 -12 13 -12 19 0 19 -34 0 -54 -9 -9 -11 -17 -5
-21 5 -3 10 -1 10 4 0 17 47 13 54 -4 3 -8 1 -15 -4 -15 -5 0 -7 -7 -3 -16 3
-8 11 -13 18 -10 7 2 12 -1 12 -7 -1 -45 4 -55 23 -50 25 7 25 -2 -1 -38 l-20
-29 20 0 c16 0 21 -6 21 -25 0 -25 -14 -33 -25 -15 -3 6 -15 10 -26 10 -10 0
-19 5 -19 10 0 6 5 10 12 10 6 0 9 2 6 5 -9 9 -38 -7 -38 -21 0 -16 -4 -17
-28 -5 -9 5 -26 13 -37 17 l-20 7 20 5 c19 4 35 19 35 35 0 4 -10 2 -21 -5
-17 -10 -23 -10 -26 0 -6 14 -43 16 -43 2 0 -5 -10 -10 -22 -9 -13 0 -17 3
-10 6 14 5 17 33 2 33 -5 0 -13 -7 -18 -15 -7 -13 -10 -12 -22 9 -18 34 -34
38 -59 15 -12 -11 -26 -17 -32 -14 -6 5 -4 12 7 19 16 12 16 14 -3 27 -20 14
-26 59 -10 75 4 4 7 14 7 23 0 12 -2 13 -9 3 -8 -13 -91 -15 -91 -2 0 15 -79
42 -134 46 -50 4 -67 1 -93 -15 -54 -34 -39 -55 37 -56 45 0 45 0 48 -38 3
-34 1 -37 -15 -29 -10 5 -27 6 -37 3 -11 -4 -37 -3 -58 3 -31 8 -41 8 -47 -3
-11 -18 -61 -6 -61 14 0 8 -5 15 -11 15 -7 0 -9 9 -6 23 5 19 4 20 -6 6 -11
-14 -12 -11 -12 21 0 21 3 36 7 34 4 -3 3 7 -2 21 -13 35 8 100 37 116 13 7
23 16 23 21 0 5 10 6 23 3 12 -3 36 -1 52 4 35 10 118 4 123 -10z m117 -669
c44 -6 96 -13 115 -15 51 -4 50 -4 50 -14 0 -5 -16 -15 -35 -22 -19 -7 -37
-21 -41 -31 -8 -26 -71 -35 -106 -15 -27 15 -28 15 -48 -14 -18 -25 -28 -29
-66 -29 -37 0 -44 3 -44 19 0 22 -19 38 -29 24 -3 -4 -36 -10 -73 -12 -64 -3
-69 -1 -99 28 -17 17 -37 31 -45 31 -8 0 -14 2 -14 4 0 2 -3 11 -6 19 -7 20
28 28 139 28 51 1 101 5 112 10 22 9 71 7 190 -11z"/>
</g>
</svg>
