<?xml version="1.0" standalone="no"?>
<!DOCTYPE svg PUBLIC "-//W3C//DTD SVG 20010904//EN"
 "http://www.w3.org/TR/2001/REC-SVG-20010904/DTD/svg10.dtd">
<svg version="1.0" xmlns="http://www.w3.org/2000/svg"
 width="1342.000000pt" height="1237.000000pt" viewBox="0 0 1342.000000 1237.000000"
 preserveAspectRatio="xMidYMid meet">
<metadata>
Created by potrace 1.15, written by Peter Selinger 2001-2017
</metadata>
<g transform="translate(0.000000,1237.000000) scale(0.100000,-0.100000)"
fill="#000000" stroke="none">
<path d="M1731 10408 c-5 -13 -140 -419 -301 -903 -161 -484 -332 -997 -379
-1140 l-87 -260 -147 -3 -147 -3 0 -44 0 -45 385 0 385 0 0 45 0 45 -196 0
c-153 0 -195 3 -191 13 2 6 51 150 108 320 l103 307 339 -2 339 -3 20 -60 c10
-33 29 -94 42 -135 13 -41 49 -154 80 -252 31 -97 56 -179 56 -182 0 -3 -76
-6 -170 -6 l-170 0 0 -45 0 -45 505 0 505 0 0 45 0 45 -140 0 c-160 0 -142
-11 -178 110 -19 61 -122 384 -409 1285 -68 215 -130 410 -138 435 -7 25 -46
147 -86 273 -68 210 -75 227 -96 227 -15 0 -27 -8 -32 -22z m-96 -705 c12 -37
37 -115 54 -173 18 -58 39 -123 46 -145 8 -22 41 -128 75 -235 34 -107 70
-221 80 -252 10 -32 17 -58 14 -58 -113 -4 -600 2 -601 7 -2 4 30 107 70 228
40 121 109 329 152 462 44 133 81 240 83 238 3 -2 14 -35 27 -72z"/>
<path d="M11672 10093 c-62 -186 -236 -709 -387 -1163 l-274 -825 -145 -3
-146 -3 0 -44 0 -45 385 0 385 0 0 45 0 45 -195 0 c-107 0 -195 2 -195 5 0 7
165 504 192 578 l20 57 339 0 338 0 21 -72 c12 -40 29 -98 40 -128 10 -30 44
-135 75 -232 30 -98 58 -184 61 -193 5 -13 -16 -15 -165 -15 l-171 0 0 -45 0
-45 505 0 505 0 0 45 0 45 -143 0 -143 0 -18 58 c-24 77 -133 423 -156 492
-10 30 -48 150 -85 265 -36 116 -86 271 -110 345 -23 74 -64 203 -90 285 -26
83 -69 218 -95 300 -57 176 -154 482 -172 543 -11 35 -17 42 -38 42 -25 0 -30
-11 -138 -337z m23 -430 c20 -65 86 -275 147 -466 60 -192 108 -350 106 -352
-8 -8 -603 -6 -601 2 1 4 26 82 56 173 30 91 98 299 151 463 54 163 99 297
101 297 2 0 20 -53 40 -117z"/>
<path d="M3303 10372 l-383 -2 0 -45 0 -45 170 0 170 0 -2 -1087 -3 -1088
-157 -3 -158 -3 0 -44 0 -45 381 0 380 0 -3 43 -3 42 -177 3 -178 2 0 1097 c0
603 2 1094 4 1092 4 -4 161 -266 541 -904 131 -220 291 -488 355 -595 64 -107
170 -284 234 -393 l117 -198 -28 -34 c-15 -18 -40 -39 -54 -46 -14 -7 -31 -25
-38 -41 -14 -32 -115 -138 -131 -138 -5 0 -10 -5 -10 -11 0 -6 -12 -26 -26
-45 -15 -19 -24 -37 -21 -40 3 -3 16 10 29 30 13 20 26 36 31 36 13 0 7 -27
-9 -41 -9 -7 -20 -23 -25 -36 -8 -21 -23 -28 -54 -24 -5 0 -10 -10 -10 -24 0
-31 3 -31 26 -3 11 11 22 18 25 15 4 -3 -1 -13 -10 -22 -9 -9 -16 -23 -16 -31
0 -8 -7 -14 -16 -12 -15 3 -42 -51 -47 -92 -1 -8 -13 -48 -27 -88 -24 -70 -26
-73 -52 -68 -28 6 -42 -12 -31 -39 3 -9 -1 -21 -10 -28 -9 -7 -17 -28 -19 -47
-3 -32 -1 -35 23 -32 21 2 25 -1 24 -19 -2 -27 -23 -37 -37 -18 -8 12 -10 12
-15 0 -3 -7 -14 -22 -24 -32 -11 -11 -14 -19 -9 -19 12 0 1 -83 -12 -88 -4 -2
-8 -10 -8 -18 0 -8 -4 -14 -8 -14 -10 0 -54 -35 -112 -90 -87 -82 -103 -95
-119 -96 -25 -3 -74 -24 -68 -30 3 -3 15 -1 27 6 21 11 60 5 60 -10 0 -5 -6
-10 -12 -12 -8 -3 -12 -22 -10 -51 1 -36 -2 -47 -13 -47 -8 0 -15 -5 -15 -10
0 -6 10 -8 24 -4 31 7 40 -9 17 -30 -12 -11 -17 -25 -13 -38 3 -13 1 -19 -5
-15 -6 4 -36 -18 -68 -48 -31 -30 -60 -55 -64 -55 -12 0 -65 -51 -76 -74 -6
-12 -21 -22 -33 -24 -21 -3 -32 -22 -12 -22 5 0 7 -7 4 -15 -5 -11 -2 -13 10
-9 9 3 16 10 16 15 0 5 7 9 15 9 8 0 15 -4 15 -9 0 -5 -7 -14 -15 -21 -8 -7
-15 -18 -15 -25 0 -7 -15 -19 -32 -26 -41 -17 -78 -48 -78 -65 0 -8 -6 -11
-17 -7 -12 5 -15 2 -10 -10 4 -10 0 -20 -11 -26 -23 -14 -6 -14 19 -1 28 16
23 5 -17 -35 -20 -20 -33 -39 -30 -42 3 -3 -6 -14 -19 -25 -14 -11 -25 -25
-25 -32 0 -7 -15 -27 -32 -46 -18 -18 -28 -30 -21 -27 16 10 10 -40 -7 -56
-10 -10 -12 -7 -8 16 3 15 1 27 -3 27 -5 0 -9 -4 -9 -9 0 -5 -11 -12 -24 -15
-13 -3 -26 -15 -29 -26 -6 -24 -3 -25 18 -4 10 10 22 13 33 9 33 -15 52 -11
67 11 8 13 12 30 9 38 -9 23 13 20 26 -3 13 -26 13 -31 -3 -31 -7 0 -19 -9
-27 -20 -8 -11 -20 -20 -26 -20 -13 0 -13 -24 -1 -36 4 -4 7 -15 7 -25 0 -20
-54 -53 -73 -45 -9 3 -9 5 0 5 7 1 17 11 24 22 11 21 11 21 -15 3 -14 -11 -26
-25 -26 -31 0 -7 -6 -13 -14 -13 -23 0 -30 -20 -11 -34 15 -11 15 -13 1 -25
-9 -7 -27 -11 -40 -9 -15 3 -24 1 -23 -6 1 -6 -8 -12 -20 -14 -26 -4 -32 -22
-7 -22 8 0 12 -5 9 -11 -4 -6 -13 -8 -20 -5 -24 9 -26 -8 -3 -26 22 -17 22
-18 3 -18 -15 0 -17 -2 -6 -9 7 -5 21 -6 31 -4 15 4 17 1 13 -16 -3 -14 -18
-24 -44 -31 -23 -6 -39 -17 -39 -25 0 -9 -9 -15 -21 -15 -15 0 -19 -5 -15 -15
3 -8 0 -20 -7 -27 -7 -7 -12 -26 -11 -43 1 -33 22 -95 32 -96 23 -2 42 -8 59
-18 17 -10 17 -10 1 -11 -10 0 -18 -4 -18 -10 0 -14 23 -13 37 1 9 9 16 7 29
-6 17 -16 15 -20 -37 -67 -30 -28 -43 -43 -29 -34 14 9 32 19 40 23 8 3 28 15
43 26 22 15 31 16 42 7 12 -10 15 -10 15 0 0 8 3 10 6 7 4 -4 2 -12 -3 -19 -6
-7 -14 -29 -18 -48 -4 -19 -11 -42 -16 -52 -5 -10 -13 -26 -17 -35 -10 -21 1
-184 16 -228 5 -16 30 -64 55 -107 25 -42 43 -79 40 -82 -4 -3 -1 -6 5 -6 6 0
10 15 9 35 -1 23 -7 35 -16 35 -8 0 -11 3 -8 6 4 4 -7 25 -23 47 -16 22 -27
43 -24 46 3 3 9 -1 14 -9 13 -21 22 -6 14 24 -4 17 -12 25 -20 22 -8 -3 -11 0
-7 11 3 8 0 19 -7 23 -11 7 -11 11 -1 24 10 12 10 16 2 16 -7 0 -9 5 -6 10 4
6 10 8 14 5 5 -2 11 13 15 35 11 69 24 88 60 85 46 -4 46 -4 46 -18 0 -8 18
-33 40 -56 22 -23 40 -48 40 -56 0 -9 6 -12 15 -9 23 9 19 -32 -6 -55 -18 -16
-20 -27 -15 -56 6 -32 4 -37 -14 -42 -15 -4 -20 -11 -17 -24 3 -11 1 -22 -4
-25 -5 -3 -9 -10 -9 -16 0 -7 5 -6 14 1 18 15 29 0 19 -26 -6 -16 -5 -16 10
-4 10 8 20 12 22 9 9 -9 12 -68 4 -68 -5 0 -9 3 -9 8 0 4 -11 12 -25 19 -29
13 -33 6 -7 -13 9 -7 18 -16 18 -21 4 -25 17 -53 25 -53 5 0 9 -7 9 -15 0 -8
-7 -15 -15 -15 -10 0 -15 -10 -15 -30 0 -18 5 -30 13 -30 34 0 48 -26 58 -105
12 -107 14 -117 23 -137 4 -9 5 -22 2 -27 -4 -6 -2 -18 3 -28 13 -26 38 -84
46 -110 5 -18 2 -23 -12 -24 -16 0 -16 -1 2 -9 11 -5 16 -9 11 -9 -5 -1 9 -17
30 -37 38 -35 144 -93 174 -95 10 0 11 -2 3 -6 -21 -8 -15 -23 10 -24 16 -1
18 -2 5 -6 -10 -2 -18 -9 -18 -15 0 -5 -7 -8 -15 -5 -8 4 -17 2 -20 -3 -4 -6
2 -10 12 -10 15 0 16 -2 3 -10 -8 -5 -12 -12 -8 -15 3 -3 26 6 51 20 52 28 79
33 71 10 -4 -9 3 -16 19 -20 32 -8 42 -33 22 -55 -8 -9 -15 -22 -15 -28 0 -7
-15 -12 -35 -12 -19 0 -35 -4 -35 -10 0 -5 5 -10 10 -10 6 0 10 -7 10 -15 0
-13 -18 -20 -42 -16 -5 0 -8 -3 -8 -9 0 -5 11 -10 24 -10 28 0 41 -14 50 -54
6 -26 5 -28 -16 -22 -13 3 -28 6 -35 6 -6 0 -32 16 -57 35 -29 22 -46 30 -46
21 0 -7 11 -21 25 -30 14 -9 23 -21 20 -25 -6 -10 57 -53 109 -75 20 -8 36
-22 36 -30 0 -9 11 -18 25 -22 16 -4 25 -13 25 -25 0 -10 20 -40 45 -66 25
-25 45 -49 46 -52 0 -3 36 -36 79 -73 55 -47 80 -77 85 -98 4 -16 11 -33 17
-37 7 -4 9 0 5 10 -3 10 -2 17 3 17 6 0 10 -6 10 -13 0 -17 69 -96 70 -81 0 6
-7 17 -15 24 -8 7 -15 17 -15 23 0 6 -7 19 -17 29 -14 16 -14 18 0 18 8 0 17
-6 20 -12 2 -7 8 -9 13 -5 5 5 -3 19 -18 32 -33 29 -34 31 -8 38 11 3 20 1 20
-5 0 -5 4 -7 8 -4 5 3 26 -4 48 -14 38 -19 39 -22 36 -60 -2 -22 1 -54 7 -71
14 -42 -1 -64 -33 -48 -17 10 -19 9 -8 -2 19 -21 14 -32 -26 -59 -20 -14 -43
-30 -49 -37 -7 -6 -37 -25 -66 -42 -65 -37 -101 -82 -152 -186 -41 -83 -50
-95 -75 -95 -13 0 -13 1 0 10 8 5 12 12 8 15 -6 6 -57 -21 -68 -36 -7 -9 -179
-64 -250 -79 -82 -19 -149 -40 -202 -65 -26 -12 -62 -25 -82 -29 -19 -4 -38
-11 -41 -16 -9 -15 10 -12 99 14 44 14 101 28 126 31 25 4 50 11 55 15 6 4 25
11 43 15 25 5 32 3 32 -9 0 -9 5 -16 10 -16 6 0 9 5 8 12 -2 7 9 12 28 13 17
0 38 7 47 16 12 13 28 15 64 11 26 -3 50 -8 53 -12 3 -4 12 -10 20 -13 8 -3
-5 -4 -30 -1 -31 4 -41 3 -31 -4 11 -8 2 -12 -35 -17 -56 -9 -93 -24 -57 -25
12 0 24 -4 27 -9 8 -12 -34 -22 -61 -15 -11 3 -24 1 -27 -5 -5 -7 3 -11 21
-11 16 0 34 -5 41 -12 9 -9 17 -9 34 0 32 16 99 32 121 28 20 -3 19 -22 -1
-20 -19 3 -106 -32 -110 -44 -1 -5 22 -10 55 -11 31 0 61 -5 66 -10 12 -12
-15 -41 -37 -41 -8 0 -24 -12 -35 -26 -16 -21 -26 -25 -46 -20 -35 9 -50 -1
-33 -22 11 -14 10 -15 -5 -9 -10 4 -21 7 -23 7 -2 0 -4 7 -4 15 0 11 -12 15
-45 15 -25 0 -45 -4 -45 -10 0 -5 -9 -10 -21 -10 -11 0 -18 4 -15 9 3 5 -1 12
-10 15 -10 4 -14 1 -11 -6 2 -7 -3 -18 -12 -25 -9 -6 -13 -15 -8 -19 4 -4 13
-2 19 4 7 7 15 12 19 12 11 0 17 -48 6 -59 -7 -7 -1 -12 17 -17 14 -3 26 -13
26 -21 0 -11 5 -13 18 -7 9 4 44 7 77 6 76 -3 56 14 -29 23 -38 5 -65 14 -73
24 -19 25 -16 31 17 31 20 0 30 -5 30 -15 0 -35 81 -42 94 -8 4 9 13 12 26 8
23 -7 27 10 4 19 -21 8 -8 26 21 26 12 0 25 7 29 15 6 18 42 20 52 3 4 -6 3
-8 -4 -4 -17 10 -23 -10 -7 -24 13 -11 13 -14 -1 -25 -12 -8 -15 -20 -11 -37
5 -19 0 -32 -17 -51 l-23 -25 31 -6 c24 -5 28 -9 16 -16 -13 -9 -7 -14 13 -11
14 2 7 -20 -8 -25 -8 -4 -15 -15 -15 -26 0 -10 4 -17 9 -14 5 3 11 0 14 -8 4
-11 -2 -14 -29 -11 -25 2 -34 -1 -34 -12 0 -10 6 -14 19 -10 12 3 27 -3 38
-16 10 -11 13 -17 6 -14 -6 4 -14 3 -17 -1 -3 -5 6 -14 19 -20 26 -12 36 -38
10 -29 -25 10 -28 -13 -4 -32 18 -14 22 -29 24 -77 2 -32 3 -59 4 -59 1 0 3
-21 5 -47 3 -36 0 -48 -10 -48 -18 0 -18 -19 -1 -26 12 -4 14 -59 7 -194 -2
-30 10 -366 15 -420 2 -30 7 -109 9 -175 3 -66 8 -143 11 -172 4 -34 2 -53 -5
-58 -9 -6 -9 -9 -1 -15 15 -8 23 -340 9 -340 -5 0 -4 -8 2 -19 5 -11 9 -38 7
-60 -2 -23 -1 -41 3 -41 3 0 6 -26 7 -57 0 -32 1 -64 2 -70 1 -7 13 -13 27
-13 20 0 24 4 19 19 -3 10 -1 30 4 45 8 19 7 26 -2 26 -9 0 -12 27 -13 97 0
54 -3 148 -7 208 -4 61 -9 144 -11 185 -12 196 -24 566 -32 965 -4 259 -8 361
-19 600 -5 110 3 202 20 219 7 7 28 10 49 8 41 -5 39 -22 -4 -22 l-28 0 -4
-76 c-3 -67 -1 -77 16 -86 17 -10 18 -11 3 -20 -20 -11 -22 -28 -4 -28 7 0 13
-8 14 -17 0 -21 11 -96 13 -103 2 -3 2 -8 1 -12 0 -5 7 -8 16 -9 14 0 13 -2
-4 -9 -26 -11 -31 -30 -8 -30 8 0 16 -8 16 -17 1 -10 2 -25 3 -33 0 -8 11 -16
24 -18 22 -3 30 12 12 23 -6 3 -6 15 0 30 6 16 5 25 -2 27 -7 3 -9 12 -5 21 5
13 13 16 33 11 19 -5 25 -4 20 5 -4 6 -14 11 -23 11 -19 0 -42 28 -43 51 0 21
20 29 69 29 20 0 42 5 48 11 13 13 68 8 68 -6 0 -5 -13 -13 -30 -16 -19 -4
-23 -7 -10 -8 11 -1 31 -4 44 -8 23 -6 24 -4 18 31 -5 32 -3 38 15 45 15 5 18
10 10 15 -7 4 -10 11 -7 15 2 5 -9 11 -26 15 -35 7 -30 26 7 26 27 0 30 9 12
29 -11 10 -10 14 5 22 18 11 24 49 7 49 -5 0 -10 5 -10 10 0 6 7 10 15 10 8 0
15 5 15 10 0 6 -8 10 -17 10 -17 1 -17 1 0 11 10 6 29 8 42 5 21 -5 23 -11 23
-76 1 -39 4 -75 7 -80 3 -6 0 -10 -7 -10 -9 -1 -8 -4 3 -13 19 -15 20 -47 2
-65 -18 -18 -16 -30 5 -28 34 2 12 -46 -33 -72 l-20 -12 20 2 c39 3 55 -2 55
-16 0 -8 -7 -16 -15 -20 -19 -7 -9 -33 16 -39 12 -3 17 -11 13 -20 -3 -8 2
-22 11 -30 15 -15 14 -17 -10 -23 -23 -6 -26 -10 -20 -33 4 -14 11 -29 17 -32
22 -14 109 -20 126 -9 15 10 15 11 0 6 -9 -2 -19 2 -22 10 -3 8 -14 14 -25 14
-10 0 -22 7 -25 16 -9 23 -8 24 14 24 11 0 20 -6 20 -14 0 -7 9 -16 20 -19 23
-6 27 11 4 20 -8 3 -13 12 -10 19 3 7 -4 16 -15 19 -20 7 -25 20 -10 29 11 7
2 46 -10 46 -5 0 -9 4 -9 10 0 5 13 7 29 4 16 -4 32 -1 35 5 4 6 18 11 31 11
13 0 27 5 30 10 3 5 17 10 30 10 21 0 43 16 33 25 -2 2 -31 1 -66 -2 -48 -5
-60 -9 -52 -18 8 -9 6 -14 -6 -19 -22 -9 -22 -9 -20 19 0 15 7 25 16 25 18 1
70 29 55 30 -22 2 52 26 85 28 19 2 52 7 74 13 50 13 74 -4 30 -22 -32 -13
-17 -24 20 -15 26 6 31 42 15 116 -21 95 -36 364 -20 340 6 -8 11 -34 11 -57
0 -23 5 -45 10 -48 6 -4 10 -21 9 -38 -1 -18 6 -54 16 -81 12 -36 15 -64 11
-99 -5 -33 -4 -47 4 -42 11 7 31 -34 23 -48 -2 -4 1 -7 7 -7 8 0 8 -6 0 -20
-9 -16 -7 -30 6 -60 10 -22 21 -40 26 -40 4 0 8 -11 8 -25 0 -16 6 -25 15 -25
8 0 15 -4 15 -10 0 -5 -6 -10 -12 -10 -9 0 -8 -4 2 -10 20 -13 86 -13 111 0
10 6 19 18 19 26 0 10 6 14 15 10 8 -3 15 -1 15 3 0 5 -31 12 -70 16 -67 7
-88 24 -32 26 15 0 42 6 60 12 l32 12 -29 13 c-21 9 -28 18 -24 31 3 10 0 22
-5 25 -6 3 -8 15 -5 26 3 12 0 20 -7 20 -10 0 -10 3 -1 14 7 8 13 29 13 46 1
20 4 27 9 18 6 -10 11 -10 20 -1 16 16 1 35 -22 28 -11 -4 -19 -2 -19 4 0 6 6
11 14 11 8 0 17 7 20 16 5 13 9 14 20 5 11 -10 16 -8 24 4 5 10 17 15 27 14
18 -4 18 -5 1 -21 -13 -14 -15 -22 -6 -38 6 -11 16 -20 22 -20 9 0 9 -3 0 -12
-16 -16 -15 -29 2 -22 8 3 17 1 21 -5 3 -6 -1 -11 -11 -11 -13 0 -14 -3 -4
-15 10 -12 10 -15 -4 -15 -9 0 -16 -5 -16 -11 0 -7 10 -9 25 -7 14 3 25 1 25
-3 0 -5 -4 -9 -8 -9 -5 0 -19 -9 -32 -20 -13 -11 -30 -20 -39 -21 -9 -1 -5 -4
9 -8 14 -4 37 -3 52 3 32 12 46 3 29 -18 -7 -8 -10 -20 -6 -26 3 -5 -1 -13
-10 -16 -14 -6 -14 -8 2 -27 13 -14 15 -21 6 -24 -25 -9 -14 -30 12 -25 18 3
25 0 25 -11 0 -14 -19 -27 -49 -33 -23 -5 -38 -24 -18 -24 9 0 17 -6 17 -14 0
-8 12 -19 28 -24 26 -10 27 -11 5 -17 -23 -7 -32 -25 -12 -25 5 0 8 -4 5 -9
-9 -14 5 -43 18 -38 7 3 13 -3 13 -14 1 -12 -3 -16 -13 -12 -9 3 -14 -1 -14
-12 0 -11 5 -15 15 -11 9 3 15 0 15 -9 0 -10 -10 -13 -35 -11 -20 1 -36 -3
-39 -10 -7 -19 3 -23 39 -17 26 4 35 1 44 -15 8 -15 7 -23 -4 -32 -19 -16 -19
-39 0 -46 8 -4 15 -10 15 -15 0 -14 -28 -11 -33 4 -3 9 -10 7 -23 -5 -18 -17
-17 -18 13 -18 26 0 33 -5 42 -31 14 -42 14 -92 0 -83 -8 5 -8 1 0 -14 15 -28
14 -32 -6 -25 -14 5 -13 1 5 -16 12 -12 22 -29 22 -39 0 -62 28 -330 56 -542
15 -118 47 -269 56 -264 5 3 7 17 4 29 -6 25 9 45 17 23 2 -7 3 10 2 37 -1 31
-7 49 -14 47 -16 -3 -14 5 10 29 17 17 19 23 8 31 -9 5 3 6 34 2 41 -6 47 -4
47 12 0 13 14 25 40 36 22 9 39 21 38 26 -2 4 10 20 26 33 25 22 27 27 14 40
-11 10 -13 21 -7 38 11 29 43 24 47 -7 3 -22 42 -33 42 -12 0 6 -4 10 -10 10
-5 0 -10 13 -10 29 l0 30 67 0 c64 0 68 1 107 40 l41 41 -38 0 c-27 0 -37 4
-37 15 0 13 4 14 20 5 16 -8 22 -6 36 14 13 21 19 23 34 14 9 -6 26 -8 36 -4
15 6 16 9 4 16 -21 13 35 67 78 76 22 4 32 12 32 25 0 11 5 19 10 19 6 0 10 5
10 10 0 6 -18 10 -40 10 -22 0 -40 5 -40 10 0 6 5 10 10 10 6 0 10 5 10 11 0
7 -11 9 -30 6 l-29 -6 21 24 c12 14 30 25 40 25 16 0 23 11 19 33 0 4 3 7 9 7
5 0 10 -4 10 -10 0 -5 7 -10 16 -10 9 0 14 -6 11 -13 -2 -6 -13 -11 -23 -10
-28 2 -36 -19 -14 -39 24 -23 72 -15 63 10 -5 12 -1 14 14 10 15 -4 31 4 54
28 18 19 40 34 48 34 14 0 14 1 1 10 -20 13 -90 13 -90 0 0 -5 -11 -10 -25
-10 -34 0 -34 33 0 48 30 14 31 23 5 42 -21 15 -28 50 -10 50 6 0 10 5 10 10
0 6 -9 10 -19 10 -14 0 -18 5 -14 20 3 11 10 23 15 26 12 8 37 -25 38 -48 0
-14 9 -18 40 -18 24 0 40 -5 40 -12 0 -6 9 -3 21 8 l21 19 -48 5 -49 5 29 28
c21 20 39 27 67 27 24 0 39 -5 39 -12 0 -7 9 -3 21 9 22 22 19 43 -7 43 -8 0
-14 5 -14 12 0 6 -7 20 -17 30 -14 16 -14 18 0 18 8 0 17 -5 19 -11 2 -6 24
-12 48 -14 40 -2 45 -6 48 -28 4 -31 30 -42 79 -32 33 6 34 7 19 24 -24 26
-19 41 12 40 15 0 41 4 57 9 28 10 26 10 -23 11 -49 1 -53 3 -50 24 2 16 10
22 28 23 35 1 100 14 100 20 0 3 -7 12 -15 20 -22 23 -19 27 31 48 31 13 42
21 33 27 -11 6 -10 15 4 44 14 30 22 36 45 33 15 -2 26 -8 25 -13 -1 -6 7 -12
18 -12 22 -2 26 26 7 45 -7 7 -8 15 -3 21 19 16 109 41 151 41 24 0 46 5 50
11 3 6 15 8 26 6 11 -3 31 0 45 6 22 10 28 8 42 -9 9 -11 23 -18 32 -16 10 2
19 -6 23 -20 l6 -23 18 21 c14 17 22 19 45 11 34 -11 35 -27 2 -27 -14 0 -25
-5 -25 -11 0 -8 13 -9 40 -5 37 6 56 -6 28 -17 -7 -3 -4 -6 7 -7 21 -1 62 -27
54 -34 -3 -3 -16 -10 -29 -16 -22 -9 -18 -10 23 -7 34 1 47 -2 47 -12 0 -9 8
-12 25 -9 13 3 22 2 20 -2 -3 -4 5 -11 18 -15 12 -4 24 -8 27 -9 3 -1 17 -5
33 -9 27 -8 35 -21 17 -32 -8 -5 -2 -23 18 -55 2 -2 7 2 12 10 8 12 13 13 30
3 25 -16 33 -16 24 -1 -4 6 -3 8 3 5 6 -4 8 -17 6 -30 -4 -22 -2 -23 29 -20
22 3 29 1 20 -5 -11 -7 -8 -10 11 -14 30 -6 88 2 83 11 -2 3 41 6 96 7 91 0
103 3 119 22 9 12 24 22 32 22 8 0 19 6 26 13 12 15 117 21 126 7 3 -5 12 -7
20 -4 10 4 18 -3 25 -20 9 -24 14 -26 72 -25 78 1 210 19 223 30 5 5 30 9 57
9 46 0 48 -1 88 -57 22 -32 55 -78 74 -103 18 -25 41 -65 50 -90 10 -25 26
-65 36 -90 l18 -46 -56 -81 c-275 -394 -321 -453 -441 -573 -166 -165 -288
-248 -571 -387 -281 -139 -478 -201 -810 -258 l-135 -23 1318 -1 c724 -1 1317
1 1317 4 0 7 -54 152 -81 218 -11 26 -29 78 -40 115 -11 37 -24 76 -29 87 -12
24 -131 368 -167 480 -69 219 -118 365 -138 410 -39 90 -48 116 -41 122 4 4 9
-3 13 -15 3 -12 10 -22 15 -22 5 0 8 -6 7 -13 -1 -6 3 -25 11 -42 7 -16 19
-46 28 -65 8 -19 21 -46 29 -60 8 -14 21 -41 30 -60 8 -19 30 -66 48 -105 18
-38 36 -81 40 -95 7 -23 31 -82 55 -135 30 -66 191 -489 251 -660 53 -152 69
-187 69 -148 0 12 -4 24 -9 27 -5 3 -11 20 -14 38 -5 36 -110 342 -127 370 -5
10 -10 27 -10 37 0 11 -4 22 -9 25 -4 3 -11 19 -14 36 -4 16 -15 49 -26 72
-10 24 -29 72 -41 108 -12 36 -26 69 -31 74 -5 6 -9 16 -9 24 0 8 -6 28 -14
45 -44 103 -86 207 -86 213 0 7 -33 80 -58 129 -9 17 -19 37 -22 45 -4 8 -15
31 -25 50 -10 19 -22 42 -26 50 -3 8 -17 35 -29 60 -56 111 -78 157 -85 180
-4 14 -11 27 -16 30 -5 3 -19 35 -33 70 -14 36 -29 64 -35 62 -6 -1 -11 9 -11
22 0 14 -4 28 -10 31 -5 3 -10 15 -10 26 0 11 -7 22 -16 26 -8 3 -13 12 -10
19 5 14 -18 69 -41 96 -8 9 -20 42 -28 74 -15 63 -8 84 27 84 15 0 17 3 8 19
-13 25 -13 54 0 46 6 -4 23 5 37 19 31 31 47 33 38 6 -6 -20 -6 -20 28 -3 25
13 32 21 25 30 -7 9 0 18 24 33 18 11 27 20 21 20 -7 0 -13 5 -13 10 0 6 5 10
11 10 7 0 19 8 28 18 29 34 56 43 79 27 11 -8 28 -12 37 -9 14 6 14 9 1 29 -8
13 -12 25 -9 29 7 7 62 -64 63 -81 0 -7 5 -13 10 -13 13 0 13 1 -6 39 -13 26
-14 38 -5 57 6 13 15 24 21 24 5 0 10 4 10 10 0 5 -7 7 -16 3 -13 -5 -15 -2
-10 15 6 17 4 21 -7 16 -8 -3 -18 -1 -22 5 -3 6 0 14 8 17 12 4 13 14 5 47 -6
28 -6 43 1 45 19 6 12 29 -11 37 -20 6 -20 8 -5 12 25 7 21 16 -14 32 -21 9
-27 17 -20 24 7 7 16 6 29 -6 10 -9 22 -17 27 -17 5 0 -6 13 -24 29 -34 30
-34 51 -2 51 14 0 17 6 13 25 -2 15 0 25 7 25 6 0 11 -7 11 -15 0 -8 9 -19 20
-25 15 -8 19 -17 15 -31 -4 -11 -2 -19 4 -19 6 0 11 -5 11 -11 0 -6 -7 -9 -15
-5 -8 3 -15 1 -15 -3 0 -5 7 -12 16 -15 15 -6 15 -8 -1 -26 -16 -18 -16 -20
-2 -20 9 0 20 6 24 13 4 6 17 17 28 23 14 8 20 22 20 45 0 19 4 40 9 48 7 10
3 12 -14 6 -15 -5 -20 -4 -16 4 4 6 0 14 -10 18 -16 6 -16 7 0 19 15 10 15 14
3 21 -25 14 -27 52 -5 89 22 38 18 55 -7 34 -14 -12 -15 -10 -9 16 9 38 11 39
29 24 12 -10 15 -10 15 4 0 9 -11 21 -25 26 -28 11 -32 25 -9 34 10 4 13 13
10 24 -4 12 1 26 14 37 11 10 20 13 20 7 0 -6 -6 -12 -12 -15 -10 -3 -10 -8 1
-18 10 -10 15 -11 18 -2 2 7 11 9 20 6 13 -5 11 -9 -8 -25 -15 -12 -20 -21
-12 -24 7 -3 9 -18 6 -40 -5 -31 -3 -34 18 -34 21 1 22 2 7 13 -12 9 -14 17
-7 30 6 9 7 22 4 27 -3 6 1 10 10 10 12 0 15 5 11 16 -3 9 -6 22 -6 30 0 8 -9
14 -20 14 -11 0 -20 5 -20 10 0 6 7 10 16 10 18 0 49 28 41 37 -3 3 -13 -2
-22 -11 -21 -20 -30 -20 -55 1 -24 21 -26 33 -5 33 8 0 15 -7 15 -16 0 -11 5
-14 16 -10 9 3 18 6 20 6 2 0 -1 10 -8 21 -10 17 -10 23 0 26 21 8 14 25 -24
60 -39 35 -39 57 -1 34 22 -14 22 -14 3 8 -11 12 -26 19 -33 17 -7 -3 -29 2
-50 10 -34 15 -36 17 -20 29 15 11 16 13 2 19 -8 3 -15 12 -15 20 0 8 -6 16
-12 18 -9 3 -8 12 5 31 15 23 15 27 2 27 -8 0 -15 5 -15 10 0 6 -6 10 -12 9
-26 -3 -39 1 -33 11 4 6 11 8 16 5 5 -4 9 -2 9 3 0 5 -15 14 -32 20 -25 9 -27
10 -6 7 15 -3 28 0 30 7 3 7 11 -2 19 -20 16 -37 17 -37 47 -13 29 25 28 28
-8 28 -20 0 -36 7 -46 21 -8 12 -24 22 -35 22 -20 0 -23 8 -11 27 6 10 40 12
91 4 2 -1 -4 -12 -13 -25 -10 -15 -12 -27 -6 -31 6 -3 10 1 10 9 0 9 5 16 10
16 6 0 10 -4 10 -10 0 -5 5 -10 12 -10 9 0 9 3 0 12 -19 19 -14 38 11 38 16 0
18 -3 8 -9 -10 -7 -10 -10 -1 -16 7 -4 16 -2 20 5 6 10 8 10 12 -1 3 -8 9 -9
18 -4 8 5 26 10 40 12 32 3 81 21 61 22 -8 1 -11 7 -7 17 5 13 2 15 -15 11
-28 -8 -49 2 -42 19 3 8 0 21 -7 29 -9 10 -9 15 -1 15 6 0 11 -4 11 -10 0 -18
32 -10 67 16 25 19 33 33 33 55 0 28 15 73 41 122 7 12 5 17 -6 17 -21 0 -13
59 9 72 11 6 15 16 11 28 -4 14 2 23 27 34 35 17 76 72 63 84 -4 4 -10 2 -12
-5 -6 -18 -51 -63 -62 -63 -6 0 -7 8 -4 18 10 28 40 62 47 54 4 -3 4 1 0 11
-3 10 -1 17 5 17 6 0 11 5 11 12 0 19 33 88 42 88 5 0 6 11 2 24 -3 13 -1 27
5 30 6 4 11 1 11 -6 0 -9 3 -9 10 2 5 8 10 31 10 51 0 25 5 39 16 43 23 9 25
4 14 -33 -5 -18 -10 -55 -11 -82 -2 -28 -6 -52 -11 -55 -13 -8 -9 -24 6 -24
14 0 30 55 20 71 -3 5 0 9 5 9 6 0 11 7 11 15 0 8 -4 15 -9 15 -4 0 -4 21 2
46 10 44 11 44 23 22 13 -23 13 -23 14 7 1 17 2 53 4 80 2 34 -2 56 -12 68
-13 14 -13 17 -1 17 11 0 11 2 -1 10 -13 9 -13 11 -1 19 12 8 12 13 -2 35 -9
14 -17 31 -17 37 0 6 -16 34 -35 60 -19 27 -35 53 -35 58 0 5 -9 11 -20 14
-12 3 -20 14 -20 26 0 14 -5 19 -16 14 -10 -4 -15 -1 -13 8 2 14 -10 50 -20
59 -17 15 -71 90 -71 99 0 6 -7 11 -15 11 -8 0 -15 9 -15 19 0 12 -11 23 -30
30 -33 11 -55 51 -36 64 6 5 1 6 -11 2 -18 -5 -23 -2 -23 13 0 11 -7 22 -15
26 -32 12 -14 24 20 13 19 -6 35 -14 35 -19 0 -5 5 -6 10 -3 6 3 10 1 10 -5 0
-12 39 -49 53 -50 10 0 -15 43 -30 53 -7 4 -18 14 -26 21 -8 8 -25 16 -38 18
-18 2 -23 9 -22 26 2 14 -3 22 -12 22 -8 0 -15 -5 -15 -11 0 -5 -4 -7 -10 -4
-5 3 -10 18 -10 33 0 15 -9 56 -20 90 -11 35 -20 75 -20 88 0 14 -6 24 -14 24
-9 0 -20 25 -32 68 -9 37 -21 72 -25 77 -14 19 -23 95 -11 95 6 0 9 12 7 28
-2 15 -4 47 -5 72 -1 32 -4 39 -9 26 -7 -19 -8 -19 -15 0 -12 28 -17 94 -7 94
5 0 12 -15 16 -32 l8 -33 6 30 c5 21 3 33 -7 39 -12 7 -12 10 -1 18 11 7 11
11 1 15 -6 2 -15 22 -18 43 -5 29 -10 37 -22 33 -12 -5 -14 -1 -8 23 4 16 11
31 16 34 5 3 5 12 0 20 -8 13 -10 12 -10 -2 0 -10 -4 -18 -10 -18 -5 0 -10 18
-10 40 0 22 -4 40 -10 40 -5 0 -10 5 -10 11 0 5 5 7 11 3 8 -4 9 4 4 27 -4 19
-11 36 -16 37 -5 2 -9 10 -9 18 0 9 -4 12 -10 9 -5 -3 -10 3 -10 14 0 11 4 22
9 25 5 4 8 18 6 32 -4 41 20 129 34 126 9 -2 10 4 6 19 -4 12 -9 85 -10 163
-2 78 -6 180 -10 227 -5 59 -3 89 4 93 7 5 11 -4 11 -23 0 -87 34 -65 43 27 5
55 3 61 -9 45 -13 -17 -13 -17 -14 3 0 12 7 24 15 28 18 7 13 38 -18 106 -11
25 -20 55 -18 68 3 28 -7 29 -18 1 -7 -20 -10 -18 -37 24 -22 36 -41 52 -81
69 -30 13 -56 33 -62 46 -14 30 -14 32 4 26 8 -3 13 -11 12 -17 -1 -7 18 -14
45 -17 27 -3 53 -11 60 -18 7 -7 19 -12 28 -12 12 1 11 4 -4 15 -11 8 -17 18
-13 21 3 4 20 -7 36 -25 16 -17 32 -27 35 -22 7 10 -44 50 -89 70 -27 12 -90
20 -187 24 -28 1 -34 5 -26 14 11 13 96 7 113 -8 5 -5 16 -9 25 -9 26 1 -33
29 -61 30 -16 0 -33 9 -43 23 -10 14 -14 16 -10 5 5 -14 1 -18 -20 -16 -14 1
-26 6 -26 10 0 4 -9 8 -21 8 -19 0 -19 1 -5 16 9 8 21 12 27 8 7 -4 10 -1 7 7
-3 8 -12 13 -21 11 -12 -2 -16 4 -14 20 1 17 -4 24 -20 26 -30 4 -40 39 -16
57 17 13 17 14 1 15 -10 0 -18 5 -18 11 0 6 -9 9 -20 6 -13 -3 -20 0 -20 8 0
8 -12 23 -27 34 -16 12 -33 25 -39 30 -7 6 -14 7 -18 4 -3 -3 -21 2 -41 11
-20 10 -41 15 -48 13 -7 -3 -1 -9 13 -15 24 -10 24 -11 3 -11 -25 -1 -43 -21
-18 -21 9 0 13 -4 10 -10 -7 -11 6 -13 29 -4 9 3 13 10 10 15 -7 12 0 11 31
-3 31 -14 33 -29 3 -25 -12 2 -38 1 -59 -3 -42 -8 -65 1 -57 21 3 8 -4 23 -15
34 -11 11 -17 14 -13 8 4 -8 2 -13 -7 -13 -22 0 -123 112 -147 163 -12 25 -28
51 -36 58 -8 6 -14 15 -14 20 0 5 152 9 340 9 l340 0 0 45 0 45 -175 0 -175 0
0 1090 0 1090 176 0 175 0 -3 46 -3 46 -530 -1 -530 -1 -3 -45 -3 -45 170 0
171 0 0 -1090 c0 -720 -3 -1090 -10 -1090 -5 0 -19 9 -29 19 -11 11 -22 17
-25 13 -3 -3 -6 7 -6 21 0 15 -5 27 -11 27 -6 0 -9 -7 -6 -15 4 -8 2 -17 -3
-20 -6 -4 -10 3 -10 13 0 11 -7 23 -16 26 -10 4 -13 13 -9 27 5 14 2 25 -6 30
-10 6 -11 9 -1 9 16 0 15 15 -1 32 -7 7 -22 33 -34 58 -12 25 -31 53 -42 62
-12 10 -21 29 -21 43 0 27 -54 95 -76 95 -17 0 -18 12 -1 29 10 11 8 13 -10 8
-15 -3 -23 -1 -23 8 0 14 -28 29 -47 26 -7 -1 -13 5 -13 13 0 9 -13 22 -30 31
-31 16 -40 9 -17 -14 10 -10 6 -11 -18 -5 -39 9 -49 19 -41 41 6 14 9 15 15 4
5 -8 17 -11 30 -6 27 8 27 25 0 25 -17 0 -19 3 -11 13 9 10 4 18 -21 32 -17
10 -41 18 -53 17 -11 -1 -31 10 -44 23 -13 14 -30 25 -37 25 -8 0 -12 4 -8 9
3 6 -3 10 -12 9 -33 0 -153 47 -153 60 0 9 -11 13 -32 12 -50 -3 -60 -1 -53
10 3 6 -4 10 -17 10 -13 0 -28 4 -33 8 -6 5 -37 14 -70 21 -33 7 -78 19 -100
27 -46 16 -99 19 -90 5 7 -13 -18 -17 -77 -12 l-50 3 -142 192 c-78 105 -163
219 -189 254 l-46 63 29 32 c34 38 56 63 118 136 26 30 54 62 62 71 8 8 74 83
145 165 72 81 139 159 150 171 11 13 58 68 105 123 l85 100 165 3 165 3 3 43
c2 23 0 42 -5 42 -22 0 -780 0 -791 0 -9 0 -12 -13 -10 -42 l3 -43 178 -3 179
-2 -54 -63 c-29 -34 -55 -64 -58 -67 -3 -3 -35 -39 -70 -80 -36 -41 -67 -77
-70 -80 -3 -3 -48 -54 -100 -115 -52 -60 -97 -112 -100 -115 -3 -3 -32 -36
-65 -75 -33 -38 -62 -72 -65 -75 -3 -3 -45 -52 -95 -110 -49 -58 -104 -121
-122 -140 -46 -51 -73 -87 -73 -97 0 -5 45 -70 99 -143 103 -140 106 -150 45
-150 -42 0 -145 -19 -166 -31 -17 -9 -18 26 -18 666 l0 675 165 0 165 0 0 45
0 45 -212 1 c-117 0 -341 2 -498 5 -157 2 -295 1 -307 -2 -19 -5 -23 -13 -23
-50 l0 -44 165 0 165 0 -2 -741 -3 -742 -62 -17 c-35 -9 -65 -15 -67 -13 -7 8
-76 -18 -76 -28 0 -12 -28 -11 -32 1 -4 13 -68 -7 -68 -21 0 -5 -11 -9 -25 -9
-19 0 -25 -5 -23 -17 2 -10 -2 -17 -9 -16 -7 2 -10 -3 -7 -11 4 -10 -5 -16
-28 -21 -18 -4 -35 -11 -38 -15 -6 -10 -62 -44 -115 -70 -41 -20 -51 -26 -122
-72 -23 -16 -47 -28 -53 -28 -6 0 -8 -5 -4 -11 4 -8 -1 -9 -17 -4 -16 4 -20 3
-11 -3 10 -7 3 -17 -29 -41 -32 -23 -45 -28 -51 -18 -4 6 -8 436 -8 954 l0
943 162 2 162 3 2 43 2 42 -211 1 c-117 0 -279 2 -362 4 -82 3 -158 2 -167 -1
-14 -4 -18 -16 -18 -50 l0 -44 175 0 175 0 0 -782 c0 -768 -1 -782 -19 -753
-10 17 -153 255 -316 530 -164 275 -376 630 -471 790 -96 159 -175 293 -177
298 -4 12 -14 12 -434 9z m3471 -2519 c9 -32 47 -56 54 -35 2 7 13 5 30 -4 16
-8 28 -10 30 -4 5 13 42 13 42 0 0 -5 7 -10 15 -10 9 0 15 -10 16 -22 1 -18 2
-19 6 -5 3 14 13 17 36 15 27 -3 33 1 35 21 l4 23 16 -23 c9 -13 15 -37 13
-54 -3 -30 -3 -30 18 -11 19 17 21 17 21 2 0 -23 30 -33 41 -13 7 12 13 13 33
4 13 -7 22 -16 19 -20 -9 -15 18 -56 33 -50 19 7 18 23 -1 23 -8 0 -15 5 -15
10 0 13 17 13 25 0 4 -6 11 -8 16 -5 10 7 39 -18 39 -34 0 -6 8 -10 18 -9 26
2 82 -13 82 -23 0 -5 -8 -9 -18 -9 -22 0 -34 -9 -27 -21 3 -4 19 0 35 9 24 14
33 15 49 5 11 -7 27 -10 36 -7 8 3 15 1 15 -5 0 -6 -7 -11 -15 -11 -8 0 -15
-5 -15 -11 0 -6 9 -9 20 -6 11 3 20 1 20 -4 0 -5 -10 -9 -22 -9 -20 0 -20 -1
-5 -18 10 -10 17 -24 17 -31 0 -7 12 -28 26 -46 14 -19 27 -42 28 -52 2 -11
13 -19 29 -21 19 -2 27 -11 32 -32 8 -34 -3 -60 -16 -39 -10 17 -23 5 -16 -16
4 -8 15 -15 26 -15 10 0 21 -8 23 -17 7 -29 -1 -126 -12 -137 -14 -14 -12 -38
5 -72 11 -22 13 -56 11 -134 -4 -116 -1 -137 20 -119 18 15 44 4 44 -19 0 -23
29 -64 30 -42 1 25 20 -11 20 -37 0 -13 4 -23 8 -23 5 0 7 -12 4 -28 -2 -15 6
-51 17 -80 12 -29 21 -60 21 -70 0 -9 11 -39 25 -66 14 -27 25 -55 25 -61 0
-7 11 -23 25 -37 36 -36 47 -74 46 -154 l-1 -71 30 -6 c42 -9 39 -31 -2 -24
-48 8 -131 26 -148 33 -12 4 -12 6 -1 14 8 4 20 6 27 3 6 -2 15 0 19 6 3 6 1
11 -4 11 -6 0 -11 9 -11 20 0 11 -7 23 -16 27 -10 4 -14 13 -10 28 6 25 -30
57 -76 69 -16 3 -28 11 -28 16 0 14 13 12 30 -2 12 -11 12 -10 1 5 -8 10 -19
16 -25 14 -6 -2 -32 7 -57 20 -26 13 -52 23 -57 23 -23 0 -60 23 -56 34 3 8
-9 13 -31 14 -20 2 -57 11 -83 21 -79 30 -168 45 -199 33 -39 -15 -173 -25
-173 -14 0 12 -53 2 -62 -12 -6 -8 -11 -7 -17 3 -6 9 -11 10 -15 2 -11 -18
-26 -13 -26 9 0 25 -14 26 -32 3 -28 -38 -88 -57 -88 -28 0 8 -2 15 -5 15 -11
0 -45 -41 -45 -55 0 -8 -4 -16 -10 -16 -5 -1 -14 -3 -20 -4 -5 -1 -15 -3 -21
-4 -5 0 -8 -4 -6 -8 3 -5 1 -18 -4 -31 -7 -18 -14 -22 -29 -17 -11 4 -20 2
-20 -4 0 -6 -6 -11 -13 -11 -7 0 -21 -16 -31 -35 -22 -39 -36 -45 -36 -14 0
19 -1 19 -16 5 -8 -9 -19 -14 -23 -11 -5 2 -21 9 -37 15 -22 9 -25 13 -14 20
19 11 -38 37 -102 45 -25 3 -52 13 -58 20 -9 11 -9 15 -1 15 6 0 11 5 11 11 0
6 -7 8 -16 5 -8 -3 -12 -2 -9 4 3 6 -3 10 -14 10 -11 0 -23 5 -26 10 -4 6 -11
8 -16 4 -6 -3 -13 3 -16 15 -3 14 -13 21 -29 21 -13 0 -24 -3 -24 -7 0 -5 -22
-8 -49 -9 -39 -1 -48 2 -44 14 5 11 0 13 -24 8 -16 -4 -52 -2 -79 4 -81 19
-91 20 -312 25 -118 3 -221 1 -230 -4 -9 -5 -39 -12 -66 -16 -48 -8 -48 -7
-36 15 10 19 10 25 -2 34 -15 12 -8 35 21 69 7 9 10 21 6 26 -3 6 4 16 15 23
11 7 25 30 31 51 5 21 16 37 24 37 10 0 15 10 15 29 0 16 7 34 15 41 11 9 13
16 6 23 -7 7 -7 15 0 24 9 10 8 13 -5 13 -9 0 -16 -8 -17 -17 0 -15 -2 -15 -8
2 -5 11 -4 25 1 33 12 14 58 16 58 2 0 -5 8 -10 18 -11 11 -1 8 -4 -8 -8 l-25
-7 23 -13 c36 -19 55 2 50 56 -2 24 1 44 7 46 5 2 0 6 -12 9 -24 6 -56 -10
-35 -19 14 -6 16 -33 2 -33 -5 0 -10 7 -10 15 0 10 -10 15 -30 15 -16 0 -30 5
-30 10 0 6 7 10 15 10 9 0 19 10 24 22 5 14 22 26 47 33 28 8 39 16 39 30 1
24 -24 45 -42 38 -9 -4 -11 0 -7 11 3 9 1 16 -5 16 -19 0 -12 20 7 20 9 0 25
7 35 14 18 14 23 46 7 46 -5 0 -10 13 -10 29 0 22 6 30 24 35 22 5 24 9 16 35
-9 32 6 55 32 50 22 -5 59 12 56 24 -3 17 46 67 66 67 9 0 16 5 16 10 0 6 7
10 15 10 7 0 18 7 23 16 5 8 20 22 33 29 39 22 122 62 157 76 17 8 32 17 32
22 0 4 11 12 25 17 14 5 25 15 25 22 0 9 3 9 10 -2 8 -12 10 -12 16 3 3 9 14
17 24 17 10 0 25 11 34 25 13 19 24 24 54 24 93 -1 181 20 140 33 -22 8 3 28
32 26 15 -1 35 4 43 10 15 13 61 8 83 -10 8 -5 14 -3 18 7 3 8 12 15 21 15 9
0 15 9 15 25 0 16 6 25 15 25 8 0 15 5 15 11 0 6 9 8 20 4 16 -5 20 -2 20 14
0 24 18 28 26 6 9 -24 31 -18 56 15 27 38 49 35 62 -7z m2085 -623 c9 0 71
-130 71 -151 0 -8 5 -20 11 -26 8 -8 7 -43 -1 -124 -6 -62 -13 -115 -15 -118
-3 -2 -5 1 -5 7 0 7 -6 12 -14 12 -8 0 -16 7 -20 15 -3 8 -11 15 -17 15 -8 0
-6 -7 4 -18 28 -31 52 -119 39 -145 -10 -21 -11 -21 -11 7 -1 46 -18 18 -26
-43 -5 -38 -4 -52 4 -47 6 4 11 2 11 -3 0 -24 -20 -8 -39 32 -17 36 -24 76
-21 137 0 8 -2 30 -6 47 -3 18 -3 49 0 69 6 29 10 33 22 24 9 -8 14 -9 14 -2
0 6 -8 13 -17 16 -13 4 -19 19 -21 53 -8 100 -9 110 -16 121 -4 7 -9 31 -12
54 -3 24 -7 51 -10 61 -3 9 0 17 6 17 7 0 10 6 7 14 -10 26 7 27 30 1 13 -14
27 -25 32 -25z m-5214 -994 c-16 -24 -42 -41 -59 -37 -4 1 -14 -3 -22 -10 -8
-6 -20 -9 -28 -6 -21 8 -26 -15 -7 -31 14 -12 12 -13 -14 -7 -20 4 -25 2 -16
-3 9 -6 10 -12 3 -16 -6 -4 -8 -14 -5 -23 4 -11 3 -14 -5 -9 -7 4 -12 3 -12
-2 0 -16 -38 -53 -52 -51 -28 3 -48 -1 -48 -12 0 -7 9 -9 22 -6 19 5 20 5 6
-10 -14 -13 -18 -13 -31 -2 -12 12 -12 18 2 46 16 32 38 47 27 18 -3 -9 0 -15
9 -15 8 0 15 7 15 15 0 9 8 19 18 22 33 12 44 44 12 36 -14 -4 -20 0 -20 11 0
9 7 16 15 16 9 0 12 6 9 15 -5 12 -2 14 12 8 17 -6 17 -5 5 10 -11 14 -10 18
13 28 14 7 26 16 26 21 0 5 5 6 11 2 6 -3 9 -15 6 -25 -6 -24 9 -25 22 -2 5
10 13 15 17 11 3 -4 18 2 32 12 37 29 57 27 37 -4z m4203 -363 c-3 -55 0 -73
10 -73 7 0 14 6 16 13 23 78 39 106 68 116 17 6 33 11 34 11 9 0 3 -81 -12
-160 -9 -53 -14 -130 -12 -205 3 -150 -8 -247 -34 -304 -12 -24 -22 -51 -22
-60 -3 -28 -40 -136 -52 -148 -6 -6 -17 -26 -24 -45 -7 -18 -25 -46 -39 -62
-14 -16 -20 -26 -13 -22 15 9 17 -25 1 -41 -6 -6 -9 -28 -6 -49 3 -33 5 -36
12 -16 4 12 16 22 27 22 11 0 16 5 13 10 -4 6 -1 18 7 27 12 14 14 13 19 -13
6 -26 7 -24 8 13 0 23 6 45 11 48 6 3 11 18 11 33 1 21 3 18 9 -13 5 -25 4
-44 -2 -50 -8 -7 -8 -6 -3 4 6 10 4 12 -4 6 -8 -4 -11 -20 -9 -37 3 -16 1 -31
-4 -34 -4 -3 -8 -22 -8 -42 0 -24 -3 -32 -9 -24 -7 11 -10 10 -15 -3 -3 -9 -6
-27 -6 -40 0 -13 -6 -30 -14 -37 -13 -14 -32 -75 -28 -91 2 -5 -5 -11 -15 -14
-10 -2 -33 -36 -51 -74 -19 -38 -38 -69 -43 -69 -5 0 -9 -7 -9 -15 0 -8 -8
-15 -18 -15 -21 0 -45 -50 -36 -76 4 -14 3 -15 -4 -6 -14 20 -68 11 -64 -10 1
-9 -2 -19 -8 -23 -5 -3 -10 -3 -10 2 0 4 -26 10 -57 11 -67 4 -73 7 -73 33 0
10 -7 19 -15 19 -8 0 -15 9 -15 20 0 16 5 19 24 14 28 -7 38 6 42 53 1 19 4
37 7 39 2 3 27 7 56 11 43 5 51 9 51 26 0 16 -3 18 -12 9 -18 -18 -43 -15 -63
8 -14 15 -22 17 -37 9 -24 -13 -24 -13 -31 32 -4 30 -1 40 18 57 16 14 26 17
34 9 7 -7 12 -5 18 9 4 10 13 24 20 29 18 14 21 131 4 165 -28 59 -79 120 -99
120 -6 0 -39 27 -74 61 -35 33 -75 65 -90 71 -16 5 -28 16 -28 24 0 8 -7 14
-15 14 -8 0 -15 4 -15 9 0 5 -13 14 -30 20 -18 6 -30 17 -30 27 0 18 -76 94
-94 94 -24 1 -104 47 -129 75 -34 37 -122 173 -131 203 -4 12 -14 29 -23 37
-13 14 -12 15 14 15 15 -1 40 2 56 6 21 5 27 3 27 -10 0 -9 -7 -19 -15 -22
-18 -7 -20 -44 -2 -44 30 0 57 31 58 68 0 20 3 31 6 25 2 -7 10 -13 18 -13 7
0 18 -6 24 -14 14 -16 121 -27 115 -11 -5 12 145 13 198 1 66 -15 284 55 311
100 4 8 15 14 22 14 8 0 15 4 15 9 0 5 9 13 20 16 11 3 20 12 20 20 0 7 7 15
15 19 8 3 20 17 25 31 5 14 16 25 25 25 8 0 15 4 15 10 0 5 12 13 28 16 43 11
80 44 88 77 6 30 7 30 21 11 10 -14 14 -39 11 -91z m-1254 34 c17 -13 28 -53
41 -149 4 -38 39 -117 75 -173 10 -16 31 -54 46 -82 14 -29 29 -53 33 -53 4 0
22 -29 40 -65 19 -36 39 -65 45 -65 17 0 76 -59 76 -76 0 -7 4 -14 9 -14 5 0
13 -24 16 -54 9 -67 -6 -100 -60 -138 -45 -31 -102 -36 -208 -18 -51 8 -62 7
-93 -12 -21 -12 -33 -26 -30 -34 3 -7 1 -16 -5 -20 -5 -3 -7 -13 -4 -23 3 -11
-5 -22 -28 -34 -40 -22 -91 -16 -151 17 -21 11 -47 25 -57 31 -11 5 -19 19
-19 30 0 16 -2 17 -10 5 -8 -13 -12 -13 -32 0 -15 9 -63 16 -132 20 l-108 6
-28 34 c-33 40 -42 85 -29 134 13 48 100 133 149 146 35 9 38 13 44 56 6 50
44 134 59 134 5 0 7 6 4 14 -3 8 1 20 9 26 8 7 14 18 14 25 0 7 10 23 23 36
38 39 116 176 122 214 4 28 21 49 49 61 30 13 30 13 6 15 -20 1 -18 3 10 9 58
12 105 11 124 -3z m-1401 -134 c5 -7 18 -13 29 -13 10 0 21 -7 24 -15 4 -8 15
-15 25 -15 10 0 28 -9 39 -20 11 -11 27 -20 35 -20 8 0 15 -4 15 -10 0 -5 9
-10 20 -10 11 0 37 -11 58 -24 22 -14 67 -29 112 -37 87 -14 233 -14 260 1 36
19 144 5 225 -30 11 -4 28 -11 38 -14 11 -3 21 -15 24 -26 6 -24 21 -26 29 -5
4 8 11 15 16 15 14 0 46 37 53 61 4 11 11 19 16 19 12 0 12 -3 -5 -35 -53
-102 -194 -225 -258 -225 -23 0 -53 -27 -53 -48 0 -20 -36 -42 -42 -26 -4 11
-67 3 -80 -10 -6 -6 19 -10 48 -7 18 2 31 -32 22 -55 -3 -8 -13 -14 -22 -14
-10 0 -27 -13 -39 -30 -13 -16 -31 -30 -41 -30 -10 0 -21 -9 -24 -19 -3 -11
-17 -22 -36 -26 -17 -4 -31 -11 -31 -16 0 -4 -14 -16 -31 -24 -16 -9 -54 -41
-84 -71 -30 -29 -58 -54 -63 -54 -5 0 -12 -8 -15 -17 -4 -10 -17 -31 -29 -46
-27 -33 -31 -113 -7 -131 8 -6 23 -39 34 -73 11 -35 23 -63 27 -63 3 0 10 -15
13 -32 4 -18 12 -39 17 -45 6 -7 7 -20 4 -30 -4 -9 -1 -20 6 -24 8 -5 13 -30
13 -67 1 -47 6 -65 25 -90 14 -17 30 -31 36 -31 7 -1 28 -17 47 -36 l35 -35
-24 -6 c-13 -3 -24 -14 -24 -23 0 -9 -3 -26 -6 -38 -6 -20 -3 -23 27 -24 19 0
28 -3 22 -6 -7 -2 -13 -16 -13 -29 0 -31 -23 -31 -44 1 -16 24 -18 24 -40 10
-29 -19 -54 -11 -58 21 -2 16 -7 21 -16 15 -10 -6 -10 -14 -2 -36 6 -16 9 -34
6 -42 -7 -18 -46 -17 -46 2 0 18 -16 20 -23 3 -3 -8 -6 -6 -6 5 -1 9 -9 17
-19 17 -25 0 -62 28 -72 56 -6 16 -15 22 -25 18 -11 -4 -18 3 -26 25 -6 17
-17 31 -25 31 -8 0 -14 9 -14 20 0 13 -5 18 -15 14 -9 -4 -15 0 -15 10 0 9 5
16 11 16 7 0 0 9 -14 20 -14 11 -29 29 -32 40 -4 11 -12 20 -19 20 -7 0 -19
16 -26 35 -8 20 -20 41 -27 47 -7 6 -13 19 -13 29 0 11 -9 36 -20 56 -11 21
-20 48 -20 60 0 12 -4 25 -10 28 -5 3 -10 19 -10 36 0 16 -4 29 -8 29 -11 0
-32 149 -25 183 3 15 0 34 -8 43 -10 13 -10 17 2 25 11 7 11 9 -3 9 -10 0 -18
7 -18 15 0 8 7 15 15 15 8 0 15 7 15 16 0 10 -6 14 -15 11 -8 -4 -17 -2 -20 3
-4 6 -3 10 2 10 4 0 9 17 11 38 1 20 7 39 12 40 16 6 12 76 -6 112 -33 66 -16
412 24 470 9 14 19 34 22 45 4 12 17 22 34 25 17 3 32 13 36 24 4 14 9 16 14
8 13 -22 23 -12 31 31 l7 42 10 -30 c6 -16 15 -36 21 -42z m801 -1145 c25 -32
27 -31 30 12 1 8 12 16 27 18 20 2 31 -5 52 -36 15 -21 27 -45 27 -53 1 -7 8
-1 16 15 12 21 19 25 27 17 6 -6 19 -11 28 -11 16 0 43 -26 82 -80 15 -23 17
-23 16 -5 -3 48 3 66 26 81 22 14 31 15 71 4 25 -7 48 -19 51 -27 3 -7 11 -13
19 -13 9 0 15 -12 15 -32 1 -24 3 -27 6 -10 2 12 8 22 13 22 5 0 12 9 15 21 8
24 80 60 104 52 35 -13 51 -36 51 -77 0 -40 0 -40 13 -16 48 91 93 131 112
100 3 -5 22 -1 46 12 22 11 42 18 45 15 14 -13 15 -88 3 -116 -14 -30 -60 -53
-67 -32 -6 19 -28 12 -55 -19 -33 -36 -74 -40 -86 -8 -8 23 -15 17 -25 -24 -3
-15 -15 -30 -28 -34 -24 -7 -115 -7 -128 1 -4 3 -24 -2 -44 -10 -38 -16 -103
-20 -124 -7 -7 5 -18 28 -26 53 l-13 44 -11 -27 c-9 -23 -18 -28 -45 -28 -43
0 -62 16 -77 63 -13 43 -21 46 -35 15 -6 -13 -18 -24 -29 -26 -25 -5 -64 17
-72 40 -3 12 -15 18 -34 18 -16 0 -30 7 -34 16 -9 25 -7 104 3 104 5 0 21 -15
35 -32z m116 -432 c36 -10 46 -15 30 -16 -18 -1 -11 -6 24 -15 26 -7 53 -12
60 -9 6 2 17 0 24 -5 12 -7 12 -12 1 -30 -16 -25 -36 -27 -67 -5 -20 14 -22
14 -22 -4 0 -27 -27 -35 -53 -17 -12 8 -29 15 -39 15 -22 0 -23 7 -1 28 16 16
14 17 -21 20 -42 4 -86 36 -86 64 0 23 16 23 29 1 9 -16 10 -15 11 5 l0 23 28
-20 c15 -11 52 -27 82 -35z m923 -153 c-3 -10 -10 -23 -15 -30 -5 -7 -11 -37
-13 -67 -2 -30 -6 -59 -8 -64 -3 -4 -4 -21 -2 -37 2 -20 -3 -34 -16 -43 -11
-7 -22 -31 -26 -55 -6 -41 -52 -97 -80 -97 -7 0 -13 -7 -13 -15 0 -8 -12 -22
-27 -32 -16 -10 -37 -26 -47 -35 -21 -19 -62 -25 -51 -8 3 6 1 10 -4 10 -6 0
-11 -7 -11 -15 0 -8 -8 -15 -18 -15 -10 0 -25 -8 -33 -18 -21 -25 -109 -36
-269 -34 -167 2 -315 34 -388 83 -24 16 -47 29 -52 29 -5 0 -14 9 -20 20 -6
11 -18 20 -26 20 -8 0 -12 5 -9 10 3 6 -2 13 -12 17 -10 4 -38 28 -61 55 -24
26 -50 48 -57 48 -16 0 -26 25 -18 47 4 10 2 14 -4 10 -6 -4 -25 -2 -42 4 -51
18 -36 37 27 35 19 -1 32 4 32 12 0 6 4 12 9 12 5 0 11 10 13 23 4 27 36 34
89 18 46 -14 119 -4 119 15 0 8 -5 14 -11 14 -5 0 -8 4 -4 10 8 13 35 1 63
-29 14 -16 25 -22 28 -15 3 8 15 9 37 4 18 -5 47 -12 65 -17 19 -4 33 -12 32
-17 -1 -5 4 -13 12 -17 18 -12 106 -11 113 1 3 6 1 10 -4 10 -6 0 -11 6 -11
14 0 14 63 32 78 22 5 -3 26 1 47 8 32 12 45 12 77 0 29 -10 38 -10 38 -1 0
17 73 39 81 25 5 -8 19 -6 46 5 21 8 52 13 67 10 21 -4 33 -1 43 12 13 18 13
18 27 -1 14 -19 15 -19 36 4 12 13 34 23 53 24 18 0 39 1 47 2 8 1 16 9 18 18
2 9 15 19 30 21 15 2 28 5 29 6 1 0 0 -7 -4 -16z m-752 -1353 c21 0 39 5 39
10 0 6 18 10 40 10 34 0 40 -3 40 -21 0 -18 -5 -20 -45 -18 -35 2 -50 -2 -68
-19 -24 -23 -43 -28 -49 -14 -1 5 -16 3 -33 -4 l-30 -13 33 -7 c45 -9 40 -24
-8 -24 -22 0 -40 5 -40 10 0 6 -10 10 -22 10 -17 0 -19 3 -10 9 10 6 8 10 -8
14 -12 3 -19 10 -16 15 6 10 -22 39 -33 35 -3 -2 -6 5 -6 15 0 13 10 18 48 20
46 3 47 3 47 -27 0 -17 5 -31 10 -31 6 0 10 6 10 14 0 7 12 26 28 42 l27 29 3
-27 c3 -25 7 -28 43 -28z m-1645 -435 c16 -8 53 -15 82 -15 33 0 51 -4 47 -10
-3 -5 -17 -10 -30 -10 -34 0 -55 -10 -55 -26 0 -18 39 -22 105 -10 26 5 35 3
35 -7 0 -7 -6 -14 -12 -15 -45 -6 -78 -16 -78 -24 0 -6 -9 -8 -20 -5 -11 3
-18 1 -14 -4 3 -5 -4 -9 -14 -9 -11 0 -35 -3 -53 -6 -31 -5 -32 -4 -17 9 24
19 10 30 -16 12 -11 -8 -26 -15 -33 -15 -16 0 -17 39 -2 60 8 12 9 10 4 -7 -8
-28 2 -29 34 -2 23 19 24 24 14 60 -5 21 -9 39 -8 39 2 0 16 -7 31 -15z"/>
<path d="M9278 10372 l-317 -2 -5 -43 c-3 -23 -15 -188 -26 -367 -11 -179 -23
-340 -26 -357 l-5 -33 46 0 c36 0 45 3 45 18 0 39 63 272 97 357 51 130 111
215 184 264 86 57 140 71 281 71 l118 0 0 -1080 c0 -594 1 -1083 3 -1087 1 -5
-85 -9 -190 -11 l-193 -2 0 -45 0 -45 570 0 570 0 0 45 0 45 -190 0 -190 0 0
1090 0 1090 118 0 c333 0 447 -138 567 -687 5 -19 12 -23 45 -23 25 0 40 5 40
13 0 13 -23 349 -41 615 -8 109 -16 172 -23 172 -90 3 -1243 4 -1478 2z"/>
<path d="M4960 1365 c-7 -19 -6 -34 5 -55 16 -32 20 -64 6 -56 -15 10 2 -49
18 -61 13 -10 14 -15 4 -32 -18 -29 -16 -61 3 -61 8 0 12 -5 9 -10 -4 -6 -1
-18 6 -26 9 -12 9 -20 -1 -38 -7 -13 -10 -29 -6 -34 3 -6 2 -13 -4 -17 -15
-10 -12 -25 6 -25 12 0 15 -9 13 -35 -2 -22 3 -42 13 -54 14 -16 14 -22 4 -37
-8 -10 -10 -29 -6 -48 5 -25 10 -30 28 -28 12 2 22 -2 22 -7 0 -6 -4 -11 -10
-11 -5 0 -10 -7 -10 -15 0 -8 4 -15 10 -15 5 0 15 -10 21 -22 9 -18 8 -24 -6
-34 -16 -12 -16 -15 4 -42 23 -33 27 -57 11 -67 -16 -10 -12 -28 5 -21 15 5
19 -4 16 -36 -1 -10 3 -18 8 -18 6 0 11 -4 11 -10 0 -5 -7 -10 -16 -10 -9 0
-14 -6 -11 -12 2 -7 14 -12 26 -11 20 3 30 -12 13 -19 -5 -1 -12 -15 -15 -29
-6 -23 -3 -27 18 -31 32 -7 35 13 16 102 -13 61 -39 206 -46 255 -4 22 -12 65
-20 95 -8 30 -21 96 -30 145 -13 75 -24 128 -30 155 -2 7 -23 113 -41 208 -18
90 -29 107 -44 67z"/>
<path d="M10233 1037 c-4 -7 -16 -16 -26 -20 -14 -5 -17 -18 -16 -69 1 -79 6
-98 26 -98 15 0 15 -2 0 -18 -22 -24 -13 -210 11 -229 11 -9 12 -13 3 -13 -11
0 -12 -23 -7 -112 15 -277 19 -367 20 -418 l1 -55 108 -3 c86 -2 111 0 123 13
9 8 11 15 5 15 -13 0 -7 46 8 64 11 12 9 41 -2 52 -10 10 -9 44 2 44 5 0 11 7
15 15 3 8 0 14 -7 12 -14 -2 -10 46 4 51 16 6 -1 22 -24 23 -20 0 -19 2 5 10
l27 10 -14 47 c-12 40 -12 50 0 74 7 15 9 28 4 28 -5 0 -9 9 -9 20 0 26 -18
25 -46 -1 -13 -12 -30 -19 -38 -16 -23 9 -20 25 6 33 13 4 28 14 35 23 11 14
14 14 23 1 8 -13 10 -13 10 3 0 9 -4 17 -10 17 -14 0 -12 37 3 43 8 4 8 8 2
14 -5 4 -10 17 -10 28 0 16 -7 20 -34 20 -22 0 -36 -6 -39 -15 -5 -13 -3 -13
12 -1 19 16 28 10 32 -22 2 -21 -2 -23 -49 -24 -34 0 -54 -6 -62 -17 -7 -9
-15 -13 -18 -10 -8 9 16 44 30 44 7 0 10 6 7 14 -3 8 3 23 15 32 21 19 19 37
-3 28 -8 -3 -17 0 -21 5 -3 6 -11 9 -16 6 -5 -4 -9 -1 -9 4 0 6 12 11 26 11
21 0 25 4 21 20 -6 24 17 39 53 35 14 -1 17 0 8 2 -10 2 -18 8 -18 12 0 13
-49 31 -67 24 -10 -3 -31 -15 -46 -26 -16 -10 -31 -16 -35 -13 -3 4 -1 11 7
15 7 5 12 12 12 17 -1 5 8 22 20 37 17 23 27 28 49 25 16 -3 27 -1 24 4 -3 4
-18 8 -33 8 -28 0 -71 35 -71 58 0 16 -17 15 -23 0 -4 -9 -6 -9 -6 -2 -1 7 6
24 14 40 11 22 12 30 2 36 -9 6 -9 12 0 27 7 12 9 22 3 26 -5 3 -12 -1 -17 -8z"/>
<path d="M2412 1023 c2 -5 13 -29 25 -54 12 -26 25 -48 30 -50 9 -4 24 -32
118 -213 37 -71 81 -156 99 -190 17 -34 38 -77 46 -96 7 -19 23 -57 36 -85 12
-27 34 -97 49 -155 14 -58 32 -116 39 -130 7 -14 11 -31 9 -37 -3 -10 14 -13
66 -13 39 0 71 4 71 10 0 5 -9 25 -20 45 -11 19 -17 35 -14 35 3 0 -4 13 -15
29 -12 16 -21 35 -21 42 0 7 -7 21 -17 31 -9 11 -11 18 -5 18 7 0 12 9 12 21
0 15 -5 19 -17 15 -13 -4 -23 4 -35 25 -10 17 -18 37 -18 45 0 8 -4 14 -10 14
-5 0 -10 7 -10 15 0 9 8 14 19 12 11 -1 20 3 21 8 0 6 -15 11 -35 13 -33 3
-50 20 -22 24 6 0 17 2 22 3 6 2 15 4 20 5 6 1 -1 5 -15 9 -14 4 -24 14 -22
21 2 9 -5 11 -28 7 -31 -7 -43 8 -12 16 14 3 12 6 -8 14 -17 7 -37 34 -59 77
-18 36 -37 69 -43 72 -5 3 -13 16 -19 27 -10 25 -25 49 -56 94 -13 17 -23 35
-23 39 0 4 -24 43 -53 88 -30 44 -64 98 -76 119 -12 20 -25 37 -28 37 -2 0 -3
-3 -1 -7z"/>
<path d="M2308 468 c-3 -7 4 -22 14 -33 10 -11 14 -21 9 -23 -6 -2 0 -18 14
-36 14 -18 25 -38 25 -43 0 -6 16 -18 35 -27 36 -17 49 -31 18 -19 -13 5 -15
2 -10 -11 4 -10 7 -24 7 -32 0 -8 7 -14 16 -14 10 0 14 -6 11 -14 -3 -8 1 -20
9 -27 12 -10 12 -14 2 -20 -10 -6 -7 -12 10 -24 12 -9 20 -20 17 -25 -3 -5 2
-18 11 -29 10 -11 18 -32 20 -47 4 -36 18 -44 82 -44 52 0 52 1 41 23 -7 12
-24 40 -39 62 -15 22 -53 80 -85 130 -32 50 -62 92 -67 93 -4 2 -8 8 -8 13 0
27 -126 167 -132 147z"/>
<path d="M3248 393 c-19 -5 -19 -44 -1 -50 5 -2 8 -17 5 -33 -3 -21 1 -32 17
-42 20 -12 29 -29 14 -27 -22 4 -25 -2 -8 -15 18 -13 18 -14 -5 -26 -20 -11
-21 -14 -9 -24 22 -16 50 -82 43 -99 -4 -11 2 -17 18 -20 l23 -4 -22 -2 c-22
-1 -34 -21 -13 -21 6 0 10 -7 10 -15 0 -11 12 -15 50 -15 52 0 61 10 41 48
-10 18 -43 117 -47 141 -5 25 -22 35 -39 21 -8 -7 -18 -10 -21 -7 -9 9 5 27
21 27 28 0 25 31 -5 48 -30 17 -39 32 -20 32 6 0 9 18 8 43 -3 43 -16 52 -60
40z"/>
<path d="M10610 178 c-33 -18 -56 -26 -58 -19 -7 22 -24 10 -20 -13 3 -14 0
-27 -7 -29 -6 -3 -10 -19 -9 -36 1 -17 -2 -33 -7 -36 -4 -3 1 -15 11 -25 16
-16 34 -20 80 -20 40 0 60 4 60 12 0 9 3 9 12 0 7 -7 23 -12 38 -12 18 0 21 3
11 9 -10 6 -11 13 -2 29 7 13 7 23 1 27 -5 3 -7 12 -3 20 4 11 -2 15 -21 15
-14 0 -26 5 -26 10 0 6 8 10 18 10 10 0 22 3 25 7 12 11 -15 33 -41 33 -24 0
-24 1 -9 18 18 20 22 32 10 31 -5 0 -33 -14 -63 -31z"/>
</g>
</svg>
