<?xml version="1.0" standalone="no"?>
<!DOCTYPE svg PUBLIC "-//W3C//DTD SVG 20010904//EN"
 "http://www.w3.org/TR/2001/REC-SVG-20010904/DTD/svg10.dtd">
<svg version="1.0" xmlns="http://www.w3.org/2000/svg"
 width="1901.000000pt" height="1771.000000pt" viewBox="0 0 1901.000000 1771.000000"
 preserveAspectRatio="xMidYMid meet">
<metadata>
Created by potrace 1.15, written by Peter Selinger 2001-2017
</metadata>
<g transform="translate(0.000000,1771.000000) scale(0.100000,-0.100000)"
fill="#000000" stroke="none">
<path d="M8655 12379 c-16 -5 -39 -7 -49 -5 -27 7 -117 -12 -135 -28 -17 -15
-185 -41 -201 -31 -14 9 -154 -31 -202 -58 -22 -12 -48 -26 -57 -31 -9 -5 -28
-24 -41 -42 -14 -18 -31 -34 -37 -34 -7 0 -13 -5 -13 -11 0 -6 -12 -20 -26
-31 -75 -60 -119 -230 -90 -348 l8 -35 -21 24 c-11 13 -21 30 -21 36 0 7 -7
16 -16 19 -23 9 -24 8 -24 -13 0 -24 -6 -28 -45 -32 -36 -5 -54 -25 -55 -60 0
-29 -46 -89 -67 -89 -7 0 -13 -4 -13 -10 0 -17 -44 -50 -60 -45 -33 11 -68
-50 -74 -131 -3 -33 -3 -51 0 -41 7 20 24 23 24 3 0 -8 14 -28 30 -45 29 -28
30 -33 24 -88 -4 -32 -10 -62 -15 -67 -5 -6 -9 -24 -9 -40 0 -17 -7 -44 -15
-60 -8 -16 -15 -50 -14 -75 0 -25 -4 -62 -10 -81 -6 -19 -11 -71 -11 -115 0
-53 -5 -87 -14 -101 -8 -11 -16 -51 -19 -89 -4 -69 -32 -179 -56 -223 -12 -22
-13 -22 -36 -5 -17 13 -22 25 -19 43 l4 25 -10 -25 c-6 -14 -9 -63 -6 -120 5
-103 -1 -122 -44 -135 -55 -16 -70 -33 -70 -79 0 -61 6 -73 51 -98 26 -14 41
-31 45 -48 4 -23 50 -178 61 -208 4 -8 0 -10 -11 -6 -12 4 -16 0 -16 -15 0
-12 -4 -21 -9 -21 -11 0 -71 58 -71 68 -1 4 -19 21 -40 37 -46 35 -48 42 -17
48 l22 4 -22 2 c-24 1 -31 15 -13 24 6 3 5 4 -2 3 -7 -2 -12 -11 -12 -20 2
-14 -4 -16 -26 -11 -25 5 -29 2 -48 -38 -25 -54 -40 -181 -30 -262 11 -94 26
-134 85 -230 7 -11 21 -37 33 -59 12 -21 39 -56 61 -78 22 -22 38 -42 35 -45
-3 -3 8 -21 24 -41 15 -19 26 -40 23 -48 -2 -7 7 -20 22 -30 37 -24 58 -69 50
-110 -3 -21 -2 -34 5 -34 5 0 10 -7 10 -16 0 -14 53 -91 74 -105 5 -4 6 -11 2
-17 -10 -16 13 -25 29 -12 26 21 44 -10 40 -66 -2 -26 1 -54 7 -61 5 -7 7 -25
4 -40 -5 -21 -4 -24 4 -13 8 12 10 10 10 -11 0 -16 14 -41 39 -66 24 -26 42
-58 50 -87 6 -25 16 -46 21 -46 6 0 10 -15 9 -32 -1 -33 39 -156 58 -180 14
-17 53 -104 53 -117 0 -6 3 -11 8 -11 4 0 20 -27 36 -60 16 -33 37 -68 45 -77
61 -67 109 -161 84 -164 -5 0 -21 -2 -38 -3 -16 -2 -39 -6 -50 -9 -11 -3 -56
-15 -100 -26 -44 -12 -81 -26 -83 -31 -2 -6 -10 -10 -18 -10 -8 0 -14 -4 -14
-8 0 -5 -27 -21 -60 -36 -57 -26 -67 -28 -143 -22 -66 6 -88 4 -115 -9 -71
-36 -197 -38 -238 -4 -23 19 -61 2 -72 -31 -6 -16 -16 -30 -22 -30 -6 0 -9 -4
-6 -9 6 -9 -40 -21 -80 -21 -13 0 -41 9 -61 20 -47 25 -84 25 -111 1 -12 -10
-22 -21 -22 -24 0 -3 -10 -17 -23 -31 -21 -23 -27 -24 -66 -15 -37 8 -52 6
-106 -16 -71 -28 -95 -30 -195 -14 -77 12 -105 4 -120 -36 -11 -29 -62 -55
-110 -55 -28 0 -45 8 -71 33 -61 60 -112 57 -182 -11 l-37 -36 -133 -6 c-135
-5 -172 -14 -146 -32 10 -7 7 -8 -11 -4 -31 6 -74 -4 -165 -39 -38 -15 -109
-33 -158 -40 -127 -19 -194 -64 -125 -84 l33 -9 -40 -1 c-31 -1 -52 -10 -90
-41 -27 -22 -60 -44 -72 -49 -16 -7 -21 -16 -16 -27 5 -13 3 -16 -10 -11 -19
7 -22 -4 -6 -20 9 -9 6 -10 -11 -6 -12 3 -25 1 -29 -6 -4 -6 -45 -51 -92 -99
-46 -49 -95 -103 -109 -121 -14 -17 -35 -42 -46 -55 -12 -12 -32 -41 -45 -63
-13 -23 -38 -61 -56 -86 -17 -25 -34 -55 -38 -66 -3 -12 -10 -21 -14 -21 -4 0
-14 -18 -21 -40 -7 -22 -17 -40 -21 -40 -7 0 -21 -26 -80 -142 -16 -32 -33
-58 -39 -58 -5 0 -10 -11 -10 -25 0 -14 -6 -25 -12 -25 -7 0 -23 -21 -36 -48
-40 -83 -89 -166 -101 -170 -6 -2 -11 -10 -11 -18 0 -15 -16 -47 -36 -74 -7
-8 -15 -26 -19 -40 -4 -14 -10 -27 -14 -30 -10 -8 -40 -61 -60 -105 -38 -82
-71 -150 -80 -165 -16 -26 -88 -183 -102 -222 -7 -21 -16 -38 -21 -38 -4 0
-12 -18 -18 -40 -6 -22 -15 -40 -20 -40 -6 0 -10 -4 -10 -10 0 -9 -44 -112
-60 -140 -5 -8 -23 -44 -40 -80 -94 -197 -113 -237 -121 -252 -14 -28 -62
-126 -102 -208 -20 -41 -39 -93 -43 -114 -4 -22 -13 -51 -20 -65 -8 -14 -14
-32 -14 -39 0 -20 -75 -197 -90 -212 -15 -15 -73 -136 -86 -180 -8 -28 -30
-68 -48 -88 -18 -20 -40 -50 -48 -67 -90 -177 -102 -196 -119 -205 -46 -25
-141 -192 -124 -220 9 -14 33 -1 41 22 3 12 11 17 20 14 8 -3 13 -2 10 2 -2 4
-1 14 5 22 6 11 9 11 9 2 0 -9 5 -10 19 -2 11 5 28 10 39 10 11 0 25 7 32 15
7 9 29 15 51 15 21 0 40 4 43 8 9 14 155 12 251 -4 91 -15 136 -26 190 -49 17
-6 48 -17 70 -24 43 -13 137 -52 145 -61 3 -3 13 -6 23 -8 26 -4 227 -109 322
-167 95 -58 306 -202 320 -219 6 -6 28 -24 50 -40 22 -16 78 -68 126 -117 140
-143 182 -250 143 -365 -10 -29 -22 -54 -26 -54 -5 0 -6 -11 -2 -25 3 -14 2
-25 -4 -25 -5 0 -12 -18 -16 -39 -3 -22 -11 -43 -17 -47 -12 -7 -8 20 7 60 4
9 1 16 -6 16 -6 0 -14 -9 -17 -21 -5 -16 -8 -18 -15 -7 -6 8 -8 -2 -4 -32 3
-26 2 -37 -3 -26 -5 14 -10 16 -15 8 -4 -7 -4 -17 -1 -22 4 -6 2 -17 -5 -24
-6 -8 -8 -27 -5 -43 4 -19 3 -22 -3 -10 -7 17 -9 17 -21 4 -7 -9 -18 -14 -25
-11 -10 4 -12 -2 -9 -20 3 -14 2 -34 -2 -43 -7 -17 -8 -17 -16 2 -8 18 -9 17
-5 -4 3 -13 -2 -30 -10 -38 -8 -8 -14 -27 -14 -43 0 -16 -7 -36 -17 -45 -12
-13 -13 -19 -4 -25 10 -5 8 -9 -4 -14 -25 -9 -37 -7 -29 6 4 6 3 8 -4 5 -5 -4
-8 -15 -5 -26 3 -11 -5 -28 -22 -45 -18 -18 -24 -33 -20 -46 5 -15 2 -18 -14
-15 -23 4 -28 -14 -9 -33 9 -9 9 -12 0 -12 -7 0 -12 5 -12 11 0 6 -6 9 -12 7
-7 -3 -13 -11 -13 -19 0 -21 -38 -79 -51 -79 -7 0 -24 -24 -38 -53 -14 -30
-39 -69 -56 -87 -16 -17 -30 -35 -30 -39 0 -4 -11 -18 -25 -31 -14 -13 -25
-31 -26 -39 0 -11 -2 -12 -6 -3 -10 26 -23 10 -23 -30 -1 -40 -2 -42 -15 -24
-15 19 -15 19 -15 -5 0 -14 -14 -37 -34 -56 -33 -33 -60 -41 -71 -23 -10 15
-45 12 -52 -5 -5 -14 -8 -14 -29 0 -14 9 -25 11 -29 5 -3 -6 0 -10 8 -10 25 0
39 -44 35 -109 -2 -46 0 -61 11 -61 8 0 11 -6 7 -16 -6 -17 29 -53 52 -54 6 0
12 -4 12 -8 0 -5 12 -15 28 -23 15 -8 29 -16 32 -19 3 -3 34 -20 70 -39 36
-18 72 -39 80 -46 8 -7 42 -27 75 -44 33 -17 74 -39 90 -49 17 -9 57 -32 90
-51 33 -18 137 -85 232 -147 94 -63 176 -114 182 -114 6 0 11 -4 11 -8 0 -9
71 -57 295 -199 l130 -83 1448 0 c1322 0 1447 1 1447 16 0 10 -6 14 -14 11 -9
-4 -17 2 -21 14 -4 10 -11 17 -16 13 -6 -3 -10 0 -8 7 3 28 -1 41 -13 37 -7
-3 -18 5 -24 16 -5 12 -18 20 -27 20 -9 -1 -17 4 -17 11 0 20 -57 58 -72 49
-9 -5 -9 -3 1 9 7 9 10 17 6 17 -4 0 -2 7 5 15 9 11 10 15 1 15 -8 0 -10 9 -7
23 6 20 5 20 -3 2 -5 -11 -13 -29 -17 -40 -7 -17 -9 -15 -12 11 -4 40 -49 86
-62 64 -7 -11 -10 -7 -16 14 -4 17 -11 25 -20 22 -8 -3 -11 0 -7 9 3 8 9 13
13 10 5 -3 11 -1 15 5 3 5 -3 10 -14 10 -23 0 -28 15 -8 24 6 3 1 4 -12 3 -31
-3 -39 19 -9 26 33 8 92 -7 124 -32 15 -11 33 -21 41 -21 10 0 13 -6 9 -16 -3
-9 -2 -12 5 -8 6 3 19 -3 29 -13 11 -13 37 -22 71 -26 44 -5 62 -2 113 21 77
34 133 34 246 0 47 -15 111 -31 142 -38 47 -9 61 -17 84 -48 16 -20 59 -68 96
-106 53 -54 65 -72 57 -83 -6 -7 -18 -13 -25 -13 -8 0 -14 -10 -14 -25 l0 -25
185 0 186 0 -12 23 c-16 30 -60 77 -74 77 -6 0 -22 10 -34 21 -18 17 -22 28
-17 52 3 17 13 38 21 47 8 9 15 33 15 54 0 31 3 36 18 32 9 -2 33 -8 52 -11
45 -10 122 -48 183 -93 44 -32 53 -34 100 -29 30 3 73 17 102 34 49 27 53 28
205 28 231 0 285 -23 391 -165 l52 -70 128 0 c123 0 129 1 129 20 0 12 9 38
20 60 11 22 20 55 20 74 0 51 21 66 93 66 66 0 134 -16 207 -47 54 -23 94 -18
143 20 101 76 204 99 363 79 127 -16 178 -44 261 -142 50 -59 62 -81 60 -103
l-4 -27 149 0 c81 0 148 3 148 8 -1 21 -33 43 -79 54 -69 16 -73 33 -42 153 5
22 12 52 15 66 4 17 14 29 28 32 46 12 204 -11 273 -38 62 -25 71 -26 109 -15
22 7 56 25 74 41 71 62 167 94 318 104 141 10 189 -5 272 -85 l63 -60 -16 -31
c-12 -23 -16 -54 -13 -130 l2 -99 723 0 c709 0 723 0 723 19 0 18 -37 131 -60
186 -39 92 -100 258 -100 273 0 7 -4 10 -10 7 -5 -3 -10 3 -10 15 0 12 -5 31
-12 43 -6 12 -12 65 -13 118 -1 78 -5 103 -23 132 -14 25 -17 37 -9 41 8 3 6
9 -5 19 -11 9 -18 28 -18 50 0 20 -6 42 -12 49 -15 16 -50 105 -52 133 -1 11
-6 29 -12 40 -6 11 -9 25 -7 32 2 6 -2 22 -10 35 -8 13 -20 43 -27 68 -8 25
-17 50 -21 55 -5 6 -11 30 -15 52 -3 23 -13 44 -20 47 -8 3 -14 15 -14 26 0
11 -6 20 -13 20 -8 0 -13 8 -13 18 1 9 -3 18 -9 20 -14 4 -34 44 -29 57 2 5
-5 16 -16 23 -19 12 -20 10 -21 -45 -3 -120 -1 -182 6 -200 13 -33 11 -111 -2
-106 -7 3 -13 13 -13 23 0 11 -4 22 -10 25 -5 3 -10 1 -10 -6 0 -10 -3 -10
-11 -2 -9 9 -9 19 0 40 8 21 8 37 0 63 -9 30 -19 100 -34 240 -2 19 -7 154
-10 300 -3 146 -9 274 -12 285 -4 11 -7 50 -7 86 -1 53 2 66 14 65 9 -1 13 5
11 14 -13 49 -12 62 3 79 14 15 17 38 16 107 0 49 4 107 9 129 6 22 13 62 16
90 4 27 11 55 17 62 5 7 7 16 4 22 -10 16 6 71 20 71 19 0 18 10 -3 25 -15 11
-15 15 -4 29 17 20 41 21 41 1 0 -8 -5 -15 -11 -15 -6 0 -8 -8 -4 -19 3 -11 1
-22 -5 -26 -5 -3 -10 -11 -10 -16 0 -6 4 -8 9 -5 4 3 6 -14 4 -37 -2 -23 -4
-79 -4 -125 1 -51 -3 -82 -10 -82 -5 0 -7 -5 -4 -10 13 -21 22 -8 29 43 3 28
14 108 25 177 10 69 16 133 13 143 -10 37 35 15 103 -52 85 -84 95 -96 95
-114 0 -8 9 -26 20 -40 11 -14 20 -32 20 -40 0 -8 6 -20 13 -26 8 -6 22 -40
32 -76 11 -36 22 -65 26 -65 3 0 9 -14 13 -31 8 -42 68 -129 120 -176 24 -21
73 -56 108 -77 53 -31 69 -46 87 -84 11 -26 39 -67 61 -92 22 -25 40 -52 40
-60 0 -8 6 -26 13 -40 7 -14 21 -52 31 -85 10 -33 21 -71 25 -85 6 -18 18 -27
55 -36 39 -10 61 -26 127 -95 53 -54 76 -85 69 -89 -9 -6 -9 -9 1 -13 21 -8
-9 -27 -43 -27 -28 0 -39 -22 -18 -35 15 -9 -13 -33 -57 -48 -27 -9 -37 -18
-35 -30 3 -19 6 -18 -68 -22 -43 -3 -69 3 -123 26 -38 16 -82 29 -97 29 -16 0
-32 5 -35 10 -3 6 -15 10 -26 10 -10 0 -19 7 -19 15 0 10 -10 15 -30 15 -19 0
-33 7 -40 20 -6 11 -17 20 -25 20 -7 0 -15 3 -17 8 -9 20 -59 54 -87 58 -28 5
-31 3 -31 -20 0 -30 -8 -33 -26 -8 -12 15 -13 13 -14 -20 0 -20 5 -40 10 -43
13 -8 13 -115 0 -115 -8 0 16 -66 30 -80 10 -10 31 -45 36 -62 4 -10 10 -18
14 -18 5 0 16 -26 25 -57 10 -32 24 -68 32 -80 7 -13 14 -53 15 -92 1 -61 3
-70 22 -75 12 -4 17 -9 11 -13 -5 -5 -10 -35 -9 -68 1 -93 2 -98 20 -91 14 5
15 4 5 -8 -7 -9 -16 -66 -20 -133 l-7 -118 28 -33 c15 -18 28 -39 28 -47 0 -8
7 -15 15 -15 9 0 20 -11 25 -25 5 -14 16 -25 24 -25 18 0 28 -122 17 -210 -5
-36 -9 -57 -10 -47 0 9 -8 17 -16 17 -8 0 -15 -8 -16 -17 0 -15 -2 -15 -8 2
-7 18 -9 16 -15 -11 -4 -17 -4 -44 -1 -60 4 -23 3 -25 -4 -9 -5 11 -10 31 -10
45 -1 14 -6 32 -12 40 -13 19 -5 -40 18 -122 l16 -58 598 0 c526 0 599 2 599
15 0 8 -6 15 -14 15 -8 0 -17 14 -21 32 -15 77 -26 100 -46 95 -14 -4 -19 0
-19 14 0 10 -7 19 -15 19 -8 0 -15 4 -15 10 0 5 -11 12 -25 16 -14 3 -25 12
-25 20 0 8 -8 14 -19 14 -10 0 -24 7 -31 15 -10 12 -8 21 10 50 22 36 35 44
42 23 3 -7 10 -8 17 -3 10 5 4 12 -19 21 -31 13 -37 33 -12 42 7 2 12 -6 12
-17 0 -18 6 -21 38 -21 39 0 72 24 85 61 3 9 18 19 34 22 15 3 42 9 58 13 27
7 29 6 16 -9 -7 -10 -9 -17 -4 -17 5 0 30 23 55 50 25 28 52 50 60 50 14 0 59
-47 86 -90 9 -14 30 -43 47 -65 42 -53 105 -204 105 -250 0 -18 5 -18 86 -4
38 7 69 18 80 30 9 10 25 19 36 19 10 0 18 5 18 10 0 6 11 10 24 10 13 0 26 6
29 13 3 8 36 19 75 26 52 9 77 19 98 40 16 15 37 31 47 34 11 4 21 16 24 27 6
23 23 27 23 5 0 -8 5 -15 10 -15 6 0 10 5 10 11 0 6 7 17 15 25 8 9 15 11 15
5 0 -6 9 -11 20 -11 15 0 20 7 20 29 0 16 7 37 16 46 20 20 11 33 -11 15 -13
-11 -15 -9 -15 10 0 13 6 31 14 39 10 12 11 23 4 41 -7 20 -11 22 -19 10 -8
-11 -9 -7 -5 18 3 20 1 32 -6 32 -7 0 -9 14 -5 40 3 22 1 40 -4 40 -5 0 -9 6
-9 14 0 21 -19 30 -35 16 -17 -14 -28 1 -24 33 2 12 -10 42 -26 67 -17 28 -30
64 -33 93 -4 46 -5 47 -27 33 -14 -9 -27 -11 -36 -5 -12 8 -12 10 1 19 8 5 24
10 34 10 20 0 20 0 0 15 -10 8 -29 15 -41 15 -23 0 -32 23 -13 35 15 9 12 25
-4 25 -16 0 -73 96 -68 116 1 7 -2 15 -8 19 -5 3 -10 15 -10 27 0 11 -18 36
-40 55 -22 20 -40 44 -40 53 0 24 -56 80 -80 80 -14 0 -23 12 -31 40 -9 31
-15 37 -25 29 -7 -6 -18 -8 -25 -4 -8 6 -8 9 1 15 9 6 10 19 4 46 -6 30 -9 34
-12 17 -4 -29 -38 -31 -47 -4 -4 14 -14 19 -33 18 -23 -2 -27 3 -36 41 -6 30
-14 42 -27 42 -11 0 -20 10 -24 30 -9 43 -22 45 -29 5 -9 -48 -26 -44 -26 5 0
27 -4 40 -13 40 -19 0 -77 30 -77 40 0 4 -11 11 -25 14 -14 4 -25 11 -25 16 0
6 -5 10 -11 10 -6 0 -27 16 -47 35 -29 27 -34 37 -23 44 19 12 -4 26 -44 26
-25 0 -30 4 -30 25 0 18 6 26 23 28 12 2 22 9 22 16 0 8 -9 12 -22 9 -27 -5
-58 39 -58 79 0 31 -29 58 -61 58 -47 0 -63 38 -31 73 12 15 14 21 5 24 -19 7
5 28 50 42 20 7 35 17 32 22 -8 13 55 49 73 41 12 -4 14 0 10 16 -5 18 -1 22
28 28 20 4 33 12 32 19 -4 15 48 60 82 70 14 4 31 16 38 26 7 11 20 19 28 19
8 0 14 4 14 8 0 4 12 13 28 19 29 13 49 25 100 61 17 13 37 20 42 17 6 -3 10
-2 10 4 0 5 26 24 58 42 31 18 59 36 60 41 2 4 12 8 23 8 10 0 19 4 19 10 0 5
12 13 28 16 15 4 33 16 40 26 7 10 21 18 30 18 20 0 122 68 122 81 0 5 7 9 15
9 19 0 53 19 79 45 48 47 224 107 251 85 6 -5 15 -7 18 -3 7 7 58 -42 75 -73
7 -12 20 -18 40 -16 19 1 32 -3 36 -14 4 -11 12 -13 27 -9 20 7 21 5 16 -24
-4 -18 -3 -30 2 -26 5 3 13 -9 16 -27 10 -41 28 -61 44 -45 8 8 11 6 11 -9 0
-27 30 -114 39 -114 4 0 17 -19 28 -42 65 -138 66 -140 52 -149 -10 -6 -8 -9
9 -9 12 0 23 -3 23 -7 1 -5 3 -21 5 -37 1 -15 10 -36 18 -45 9 -10 16 -25 16
-34 0 -15 19 -66 41 -109 5 -10 9 -32 9 -49 0 -25 3 -30 16 -25 13 5 15 1 10
-18 -6 -25 16 -81 27 -69 4 3 7 -3 7 -13 0 -26 39 -107 56 -117 8 -4 14 -15
14 -25 0 -30 33 -102 46 -102 8 0 14 -8 14 -17 0 -9 8 -35 19 -57 10 -23 26
-60 36 -83 10 -24 22 -43 27 -43 4 0 8 -11 8 -23 0 -13 9 -32 20 -42 12 -11
22 -37 26 -67 4 -28 10 -44 14 -38 5 8 12 0 19 -23 7 -19 21 -43 31 -52 11
-10 20 -24 20 -32 0 -7 7 -13 15 -13 14 0 20 -12 16 -33 -1 -4 8 -18 20 -30
11 -12 25 -41 31 -63 8 -28 16 -40 25 -37 9 3 13 -3 13 -21 0 -14 4 -26 9 -26
5 0 11 -13 15 -30 3 -16 11 -30 19 -30 18 0 37 -55 30 -93 -4 -28 2 -39 44
-84 26 -29 60 -55 76 -59 15 -3 27 -9 27 -13 0 -3 56 -7 125 -7 68 -1 123 2
120 6 -5 8 50 25 113 35 23 4 40 11 37 16 -4 5 1 6 9 3 9 -3 24 -3 34 2 9 4
39 8 65 8 26 1 51 6 55 12 4 7 42 15 84 19 72 7 78 9 78 30 0 22 3 23 100 23
55 0 102 -4 105 -9 10 -15 35 -10 35 6 0 8 4 23 9 33 5 9 12 25 15 35 6 20 42
23 49 5 3 -7 6 -3 6 10 1 17 7 22 26 22 l25 0 0 721 0 721 -24 -16 c-14 -9
-33 -13 -43 -9 -19 7 -76 46 -105 73 -35 31 -47 40 -58 40 -26 0 -73 37 -65
51 3 3 -13 9 -35 13 -22 3 -40 10 -40 14 0 4 -18 26 -40 50 -22 24 -40 51 -40
60 0 9 -9 23 -20 30 -12 7 -20 8 -20 2 0 -5 -5 -10 -11 -10 -5 0 -7 5 -4 10 4
6 1 17 -5 25 -7 8 -10 22 -6 30 3 9 0 15 -8 15 -8 0 -23 2 -33 5 -11 3 -9 1 5
-6 26 -14 31 -45 6 -35 -9 4 -22 2 -29 -4 -8 -7 -12 -6 -13 3 -2 22 -7 42 -16
55 -5 8 -4 18 2 24 12 12 -3 47 -25 61 -7 4 -13 19 -13 32 0 17 -7 26 -23 30
-15 4 -28 19 -35 39 -9 25 -20 35 -42 40 -25 5 -30 10 -30 35 0 21 6 32 20 36
11 3 20 13 20 21 0 7 9 19 20 26 13 9 20 24 20 45 0 32 -2 33 -40 33 -22 0
-40 -3 -40 -8 0 -4 -18 -6 -40 -4 -25 3 -39 9 -37 16 2 6 10 11 18 12 43 1 58
15 61 56 l3 41 34 -32 34 -32 15 31 c13 27 13 33 1 41 -11 7 -11 9 4 9 10 0
22 11 26 24 5 13 17 26 25 29 11 4 16 18 15 44 l-1 38 -10 -32 c-9 -27 -16
-33 -39 -33 -17 0 -29 -5 -29 -13 0 -7 -9 -18 -20 -25 -11 -7 -20 -19 -20 -27
0 -12 -13 -15 -59 -15 -33 0 -61 4 -63 9 -1 5 -23 11 -48 12 -44 3 -45 3 -42
-25 3 -25 0 -28 -18 -23 -13 3 -23 0 -27 -9 -3 -9 -13 -12 -23 -9 -13 4 -20
-1 -25 -16 -6 -19 -12 -21 -52 -16 -28 3 -40 1 -32 -4 10 -6 10 -9 2 -9 -7 0
-21 -10 -33 -22 -11 -12 -20 -16 -20 -10 0 7 -16 12 -40 12 -22 0 -40 -4 -40
-9 0 -4 -18 -20 -40 -35 -43 -28 -139 -39 -123 -13 4 6 -5 4 -20 -5 -14 -10
-40 -18 -58 -18 -28 0 -31 -3 -27 -25 4 -19 1 -25 -13 -25 -9 0 -20 6 -23 13
-5 10 -7 10 -12 0 -3 -7 -12 -13 -20 -13 -8 0 -14 -5 -14 -11 0 -7 -10 -9 -25
-7 -14 3 -25 2 -25 -2 0 -8 -26 -13 -155 -30 -43 -6 -82 -14 -85 -18 -18 -24
-110 -51 -110 -33 0 6 -8 11 -17 11 -10 0 -14 4 -8 8 19 13 16 54 -4 59 -10 2
-23 19 -28 36 -11 38 -48 60 -76 45 -14 -7 -22 -7 -26 1 -4 6 -18 10 -32 9
-27 -3 -27 -2 -15 97 4 38 3 55 -2 46 -8 -11 -11 -9 -17 8 -3 11 -11 21 -16
21 -5 0 -9 7 -9 16 0 9 -7 22 -16 28 -9 7 -17 24 -17 39 -1 15 -7 27 -13 27
-7 0 -19 11 -28 25 -9 14 -23 25 -31 25 -10 0 -15 10 -15 29 0 16 -6 36 -14
43 -7 8 -17 24 -20 36 -4 12 -12 22 -17 22 -5 0 -9 7 -9 15 0 8 -3 15 -8 15
-4 0 -18 20 -31 45 -13 25 -28 45 -34 45 -5 0 -7 9 -4 20 4 15 0 20 -13 20
-19 0 -32 21 -34 58 -1 13 -10 28 -19 34 -10 5 -27 29 -38 54 -12 24 -25 44
-31 44 -5 0 -6 5 -3 10 4 6 -5 20 -19 31 -14 11 -26 29 -26 40 0 10 -4 19 -10
19 -5 0 -10 5 -10 11 0 18 -41 70 -51 64 -8 -6 -11 2 -14 47 0 9 -10 27 -20
40 -11 13 -31 39 -43 60 -12 20 -29 39 -37 42 -8 3 -15 16 -15 30 0 14 -13 38
-31 55 -17 17 -28 31 -24 31 3 0 -3 10 -15 22 -11 12 -20 29 -20 37 -1 31 -48
70 -90 76 -18 2 -30 21 -30 48 0 25 3 29 11 17 8 -11 9 -9 4 10 -12 42 -32 57
-56 42 -12 -8 -24 -11 -27 -8 -3 3 0 6 6 6 7 0 12 11 12 25 0 18 -5 25 -19 25
-10 0 -21 -7 -25 -15 -6 -18 -42 -20 -52 -3 -4 6 -7 27 -6 46 1 20 -4 42 -10
50 -7 8 -11 26 -10 41 1 19 -4 29 -20 36 -13 6 -28 21 -34 33 -9 17 -14 20
-20 11 -4 -7 -3 -14 4 -17 18 -6 15 -62 -3 -62 -15 0 -26 31 -22 65 1 15 -3
19 -20 18 -19 -2 -23 2 -23 27 0 20 -5 30 -15 30 -8 0 -19 9 -25 20 -6 10 -26
22 -45 26 -19 3 -39 12 -46 20 -15 18 -29 18 -29 -1 0 -19 -30 -19 -58 1 -29
20 -28 34 4 34 17 0 28 6 31 19 9 36 32 33 39 -4 4 -24 12 -35 24 -35 16 0 16
3 5 38 -7 20 -20 38 -29 40 -9 2 -16 12 -16 23 0 10 -4 19 -10 19 -5 0 -10 9
-10 20 0 13 -7 20 -20 20 -26 0 -26 -27 1 -35 27 -9 22 -49 -7 -53 -15 -2 -23
4 -27 18 -6 23 -27 19 -27 -6 0 -8 -4 -14 -10 -14 -5 0 -10 9 -10 20 0 26 -27
37 -51 21 -17 -10 -19 -8 -19 18 0 28 -1 29 -42 25 -24 -2 -34 -1 -23 2 46 14
60 48 25 59 -22 7 -27 30 -9 41 17 10 59 -17 59 -38 0 -22 38 -25 46 -3 9 23
-16 47 -43 42 -18 -3 -31 4 -51 29 -32 40 -45 43 -36 9 6 -25 -10 -36 -19 -12
-3 8 -11 3 -25 -13 -20 -23 -21 -23 -21 -5 0 11 6 29 14 39 8 11 15 32 15 47
0 30 -24 57 -35 39 -9 -15 -38 -12 -61 5 -18 15 -17 16 16 9 29 -5 33 -4 24 7
-6 8 -14 26 -18 42 -4 18 -13 27 -26 27 -15 0 -20 7 -20 28 0 15 5 33 12 40 9
9 3 12 -30 12 -33 0 -42 -4 -42 -17 0 -30 -11 -6 -13 30 -6 67 -30 63 -31 -5
-1 -45 -22 -64 -29 -26 -3 17 -5 14 -6 -10 -1 -38 -21 -34 -21 4 0 13 -4 24
-9 24 -5 0 -8 -18 -7 -40 0 -31 5 -40 18 -40 10 0 18 -4 18 -10 0 -5 9 -10 20
-10 11 0 20 -4 20 -10 0 -5 9 -10 20 -10 14 0 20 -7 20 -21 0 -20 -1 -21 -25
-5 -25 17 -55 21 -55 9 0 -5 -7 -17 -16 -28 -13 -17 -16 -18 -24 -5 -8 13 -10
12 -10 -2 0 -10 -4 -18 -9 -18 -5 0 -13 -10 -16 -21 -6 -17 -9 -19 -16 -8 -13
21 -12 24 26 62 19 19 35 40 35 45 0 6 -16 10 -36 9 -28 -1 -38 -6 -45 -24 -6
-16 -14 -21 -31 -17 -28 5 -80 -5 -74 -15 10 -16 -12 -32 -37 -26 -23 6 -25
11 -23 56 2 31 -1 49 -8 49 -7 0 -12 -12 -11 -27 0 -22 -5 -27 -30 -30 -27 -3
-28 -2 -12 11 26 20 20 29 -15 22 -18 -4 -44 -7 -56 -6 -16 0 -26 -7 -29 -20
-7 -27 -15 -25 -36 8 -18 27 -18 27 -12 2 l7 -25 -17 24 c-10 13 -18 33 -19
45 -1 14 -9 22 -23 24 -13 2 -23 8 -23 14 0 6 -11 26 -25 44 -26 33 -30 50
-19 78 9 23 22 20 26 -6 4 -33 38 -37 38 -4 0 14 -4 28 -10 31 -5 3 -10 26
-10 50 0 24 5 47 10 50 6 3 10 19 10 36 0 16 -4 29 -10 29 -5 0 -10 5 -10 10
0 6 7 10 15 10 11 0 15 11 15 38 1 34 2 35 15 19 7 -11 11 -26 8 -34 -4 -11 0
-14 18 -11 16 2 22 9 19 18 -2 8 -4 31 -4 50 1 19 -1 29 -3 23 -7 -19 -31 -16
-37 5 -3 9 -6 35 -8 57 -2 30 1 40 12 40 8 0 16 9 18 19 3 14 0 17 -13 12 -9
-3 -24 -6 -32 -6 -11 0 -14 -7 -9 -24 3 -14 2 -28 -4 -31 -6 -4 -10 6 -10 22
l0 28 -20 -25 c-10 -14 -22 -21 -26 -17 -4 4 -3 7 3 7 5 0 8 12 6 28 -3 18 4
38 22 62 19 24 25 28 21 13 -4 -12 -2 -24 4 -28 5 -3 10 1 10 9 0 9 5 16 11
16 15 0 3 48 -16 67 -13 13 -15 12 -15 -2 0 -9 -5 -13 -11 -9 -15 9 -29 -14
-29 -48 0 -18 -5 -28 -15 -28 -10 0 -13 -8 -9 -27 3 -17 -1 -36 -9 -47 -13
-18 -15 -14 -21 48 -7 57 -10 65 -22 55 -10 -8 -18 -9 -25 -2 -12 12 20 103
37 103 13 0 28 46 19 60 -3 5 3 18 14 29 27 27 17 51 -20 51 -36 0 -40 31 -8
54 13 9 19 21 16 33 -4 16 -5 16 -12 -3 -11 -36 -125 -57 -125 -23 0 13 18 11
22 -3 3 -8 19 3 42 27 30 31 35 41 22 43 -12 3 -15 10 -11 23 4 11 2 19 -4 19
-6 0 -11 -8 -11 -18 0 -19 -18 -42 -32 -42 -17 0 -7 20 10 20 10 1 1 9 -22 21
-40 22 -39 28 8 53 l29 15 -36 6 c-20 4 -38 13 -41 20 -3 8 -20 17 -38 20 -33
6 -33 7 -35 68 -2 34 -8 64 -13 65 -6 2 -15 14 -20 27 -5 12 -22 29 -39 36
-17 8 -31 17 -31 21 0 5 -7 8 -16 8 -9 0 -22 7 -29 16 -10 15 -14 14 -36 -7
-13 -13 -38 -35 -55 -49 -16 -14 -33 -34 -38 -45 -6 -17 -9 -17 -17 -5 -8 12
-10 10 -6 -7 3 -13 0 -23 -5 -23 -6 0 -22 -12 -35 -27 -23 -24 -26 -25 -35
-10 -11 21 -28 22 -28 2 0 -9 -13 -29 -30 -45 -18 -18 -30 -40 -30 -56 0 -19
-4 -25 -15 -20 -8 3 -15 2 -16 -2 0 -4 -2 -20 -3 -37 -5 -55 -17 -95 -28 -89
-10 6 -8 48 8 144 3 19 5 49 5 67 0 17 6 37 14 43 9 7 15 29 15 51 l0 39 -45
0 c-25 0 -48 1 -52 3 -5 1 -9 -13 -11 -30 -2 -18 -7 -33 -12 -33 -5 0 -7 -7
-4 -15 11 -27 -6 -64 -36 -80 -41 -21 -50 -19 -50 15 0 20 -4 28 -13 24 -15
-6 -52 66 -45 88 3 7 -4 29 -14 49 -10 20 -22 54 -25 75 -3 22 -17 61 -30 88
-18 36 -25 67 -26 118 -2 64 -4 69 -23 65 -17 -3 -19 1 -16 25 5 32 -10 37
-30 10 -7 -10 -21 -23 -32 -29 -17 -9 -16 -11 13 -24 21 -10 29 -19 25 -29
-11 -27 -21 -135 -13 -138 12 -5 -9 -53 -29 -68 -12 -9 -21 -9 -30 -2 -16 13
-62 -8 -62 -29 0 -18 -27 -16 -34 3 -3 9 -6 32 -6 51 0 24 -7 42 -22 55 -24
20 -42 11 -32 -16 5 -14 9 -15 15 -4 6 8 9 -3 9 -30 0 -41 -1 -43 -27 -40 -25
3 -29 8 -38 58 -12 66 -20 80 -46 80 -11 0 -27 7 -35 15 -8 8 -21 12 -29 9
-11 -5 -15 2 -15 24 0 17 -7 37 -15 46 -8 8 -15 19 -15 25 0 11 -32 31 -50 31
-6 0 -10 -10 -9 -22 1 -13 1 -38 1 -56 -2 -29 -4 -32 -21 -22 -11 5 -21 20
-23 32 -2 18 -10 24 -38 26 -22 2 -30 -1 -22 -6 7 -5 14 -21 15 -37 2 -23 -3
-30 -23 -36 -14 -4 -21 -7 -16 -8 6 -1 2 -7 -9 -14 -12 -9 -16 -22 -13 -38 2
-14 -1 -31 -9 -37 -8 -8 -13 -9 -13 -2 0 5 -7 10 -16 10 -11 0 -13 6 -9 19 4
13 0 23 -11 29 -14 8 -15 14 -5 45 9 26 9 42 2 56 -15 27 -14 28 12 27 20 -1
22 3 19 39 -4 49 -24 66 -33 27 -4 -15 -7 -21 -8 -13 -2 24 -30 -20 -32 -49
-1 -23 -2 -23 -8 5 l-7 30 -7 -32 c-5 -26 -10 -30 -28 -26 -15 4 -20 3 -15 -5
8 -13 6 -14 -41 -18 -18 -1 -33 2 -33 7 0 5 6 9 14 9 25 0 29 21 7 36 -23 17
-28 50 -8 57 9 3 9 7 -2 21 -12 14 -11 19 4 36 10 11 14 20 10 20 -5 0 0 7 11
15 19 15 19 15 0 30 -24 18 -36 11 -36 -21 0 -13 -4 -24 -10 -24 -5 0 -17 -14
-26 -31 -11 -22 -18 -28 -24 -19 -12 20 -49 -5 -43 -30 3 -11 9 -23 14 -26 5
-3 9 -9 9 -15 0 -13 -44 -11 -57 2 -16 16 -36 0 -29 -24 3 -11 -2 -33 -10 -49
-13 -24 -13 -41 -5 -96 7 -42 7 -70 1 -77 -6 -7 -7 -15 -3 -19 9 -9 12 -26 18
-116 2 -41 8 -88 13 -105 5 -16 5 -41 2 -55 -4 -14 -5 -35 -3 -47 3 -13 1 -23
-4 -23 -12 0 -39 90 -35 120 2 18 0 21 -6 11 -12 -17 -19 -4 -20 40 -1 20 -6
48 -12 63 -5 15 -10 39 -10 54 0 15 -7 40 -15 56 -8 15 -12 33 -8 39 4 6 7 40
8 76 1 37 7 131 14 210 l13 144 -23 18 c-36 28 -67 24 -75 -8 -4 -16 -12 -31
-18 -35 -8 -5 -7 -14 2 -29 10 -15 11 -28 4 -48 -19 -49 -27 -86 -31 -138 0
-13 -7 -22 -13 -20 -7 1 -14 -10 -16 -25 -2 -19 -8 -25 -18 -21 -11 4 -12 9
-3 19 8 10 8 18 1 27 -9 11 -29 84 -36 129 -1 9 -7 22 -13 30 -6 7 -14 24 -18
38 -4 14 -27 45 -50 70 -31 32 -46 58 -52 89 -5 27 -16 48 -28 55 -11 6 -22
14 -25 17 -3 3 -12 9 -20 13 -20 8 19 1 42 -9 26 -10 74 71 87 149 30 173 6
532 -65 946 -22 127 -23 130 -36 105 -16 -30 -112 -159 -120 -163 -5 -2 -8
-10 -8 -17 0 -7 -3 -15 -7 -17 -5 -1 -26 -25 -48 -53 -83 -103 -203 -212 -252
-229 -52 -18 -213 -22 -213 -6 0 6 -8 10 -18 10 -31 0 -62 34 -62 68 0 17 -4
42 -10 57 -7 19 -6 35 4 59 9 21 12 51 9 80 -5 39 -2 49 16 65 11 10 21 24 21
30 0 7 6 11 14 9 8 -2 15 0 15 5 1 4 -2 7 -6 8 -11 1 -26 29 -19 36 3 4 6 0 6
-8 0 -8 9 6 21 31 11 25 25 52 30 60 5 8 12 22 15 30 3 8 11 27 19 43 12 23
12 46 3 135 -9 91 -8 112 4 142 l16 35 11 -25 c7 -14 23 -43 36 -65 13 -22 24
-50 24 -61 1 -20 31 -44 31 -25 0 5 14 4 30 -2 23 -9 30 -18 30 -37 0 -14 4
-30 9 -35 5 -6 13 -31 19 -57 9 -43 8 -48 -8 -48 -24 0 -34 -30 -17 -47 17
-18 98 -7 91 12 -3 8 11 17 40 26 25 7 46 19 46 26 0 7 14 22 30 35 17 12 30
26 30 31 0 6 7 15 16 22 24 17 39 173 19 196 -8 8 -15 23 -15 32 0 9 -4 17
-10 17 -5 0 -10 9 -10 19 0 11 -9 23 -20 26 -11 3 -20 11 -20 16 0 5 -9 9 -20
9 -19 0 -70 19 -80 30 -3 3 -25 14 -50 23 -25 10 -56 26 -70 37 l-25 19 23 23
c19 19 25 21 42 10 24 -15 66 -16 75 -2 3 6 14 10 23 10 22 0 96 68 110 102 7
16 24 30 46 38 52 17 101 -10 139 -75 28 -48 29 -55 31 -187 0 -76 2 -133 4
-128 2 6 7 10 12 10 13 0 20 -71 9 -92 -5 -10 -12 -35 -14 -56 -2 -20 -1 -31
2 -24 2 6 10 9 15 6 7 -4 8 -2 4 4 -4 6 2 17 14 24 11 7 20 21 20 31 0 10 7
25 15 33 8 9 15 24 15 35 0 24 20 26 20 2 1 -12 6 -9 17 12 11 19 17 53 17 90
0 33 2 50 4 38 2 -13 7 -23 10 -23 4 0 4 35 -1 78 -4 42 -7 88 -7 100 0 13 -6
33 -14 44 -8 10 -12 27 -9 36 7 29 -47 112 -95 147 -37 27 -53 32 -82 29 -69
-9 -162 -37 -167 -50 -3 -8 -11 -14 -18 -14 -20 0 -75 -49 -75 -67 0 -9 -6
-13 -14 -10 -7 3 -28 -10 -47 -29 -31 -32 -51 -43 -47 -26 4 20 -16 62 -29 60
-7 -2 -21 9 -30 23 -15 25 -14 27 28 87 30 42 51 62 65 62 27 0 92 51 86 68
-2 6 -10 12 -18 12 -8 0 -11 6 -8 15 4 8 -1 17 -10 21 -10 4 -16 18 -16 35 0
25 -5 30 -30 36 -16 3 -30 10 -30 14 0 5 -11 14 -25 19 -15 6 -27 20 -31 37
-11 44 -75 122 -101 123 -12 0 -27 9 -33 20 -6 10 -31 38 -56 62 -41 39 -46
49 -51 100 -6 56 -6 57 -34 51 -22 -4 -29 -2 -29 10 0 8 -20 27 -44 41 -48 28
-96 79 -96 102 0 7 -12 17 -27 20 -16 4 -42 17 -60 30 -17 13 -38 24 -47 24
-8 0 -21 9 -29 20 -12 17 -12 27 -2 58 7 20 20 38 28 40 9 2 14 9 11 17 -3 8
-12 11 -20 8 -8 -3 -14 1 -14 10 0 9 -8 21 -17 27 -16 9 -15 10 5 5 17 -5 22
-2 22 12 1 17 1 17 11 -1 9 -14 13 -15 19 -5 5 8 2 18 -8 26 -24 18 -32 16
-32 -7 0 -12 -5 -17 -14 -14 -8 3 -12 13 -9 25 10 36 -47 70 -60 37 -3 -7 -3
3 0 23 3 21 1 39 -6 43 -6 4 -11 2 -11 -3 0 -20 -29 -11 -42 12 -12 22 -12 22
-19 -8 l-7 -30 -1 28 c0 15 -6 27 -12 27 -6 0 -9 -15 -7 -37 2 -28 -1 -38 -17
-44 -31 -12 -45 -10 -45 6 0 8 -4 15 -9 15 -5 0 -13 9 -16 21 -6 16 -14 20
-43 18 -28 -2 -44 3 -66 24 -18 16 -36 25 -50 22 -11 -2 -29 -4 -38 -4 -11 -1
-18 -9 -18 -21 0 -11 -6 -20 -14 -20 -32 0 -27 31 7 43 26 10 24 74 -3 82 -11
3 -24 3 -30 0 -16 -10 -12 -55 6 -62 13 -5 12 -8 -5 -24 -21 -20 -51 -16 -51
7 0 8 -6 14 -14 14 -8 0 -39 25 -70 55 -32 30 -61 54 -67 52 -5 -1 -15 9 -22
23 -9 18 -26 28 -66 38 -30 7 -61 22 -70 33 -9 10 -33 21 -53 25 -34 5 -38 3
-38 -16 0 -12 -7 -28 -15 -36 -8 -9 -15 -28 -15 -42 0 -15 -8 -39 -17 -52 -10
-14 -17 -27 -15 -30 1 -3 -6 -5 -15 -5 -11 0 -19 11 -24 31 -4 24 -2 31 9 30
9 -1 21 17 31 44 9 25 19 46 23 48 11 5 30 81 23 92 -3 6 -2 10 3 10 13 0 18
74 9 125 -4 18 -11 20 -68 18 -104 -4 -223 -5 -234 -3 -5 1 4 5 20 9 29 6 30
8 27 59 -2 29 1 52 6 52 4 0 7 14 4 30 -2 17 0 30 5 30 11 0 12 10 17 157 2
68 0 125 -5 129 -5 3 -9 16 -9 29 0 13 -11 44 -24 67 -13 24 -32 59 -42 78
-17 32 -56 87 -94 133 -8 10 -37 32 -65 50 l-49 32 -191 2 c-104 1 -203 -2
-220 -8z m465 -877 c0 -4 19 -6 43 -4 38 3 40 2 24 -12 -11 -8 -26 -12 -35 -8
-15 5 -15 4 1 -12 21 -22 23 -76 2 -76 -8 0 -15 9 -15 20 0 11 -4 20 -10 20
-5 0 -10 -13 -10 -29 0 -27 -2 -28 -62 -34 -58 -6 -66 -4 -106 24 -24 16 -61
32 -84 34 -52 7 -61 13 -55 36 4 15 0 17 -22 15 -14 -2 -19 -1 -11 1 8 3 20 9
25 13 6 4 68 8 138 8 71 0 131 3 134 6 9 9 43 7 43 -2z m-1201 -260 c14 -40
17 -42 57 -42 40 0 41 -1 57 -47 14 -45 14 -49 -3 -67 -17 -17 -149 -48 -207
-48 -13 0 -23 -5 -23 -11 0 -6 -3 -8 -6 -4 -3 3 -17 2 -30 -3 -21 -9 -24 -7
-24 16 0 14 4 33 10 43 5 10 10 35 12 55 1 21 6 40 10 42 4 3 8 12 8 20 0 18
32 50 58 58 11 4 26 14 33 22 18 22 31 13 48 -34z m-199 -134 c-7 -46 -12 -84
-13 -85 -1 0 -11 -3 -21 -5 -15 -2 -21 5 -29 32 -11 44 -13 46 -32 27 -14 -14
-14 -17 0 -24 8 -5 19 -23 24 -41 l10 -32 -56 0 c-46 0 -56 -3 -60 -20 -3 -11
-9 -20 -14 -20 -5 0 -9 -6 -9 -14 0 -7 -8 -20 -17 -27 -15 -12 -16 -12 -10 4
16 44 20 70 8 63 -7 -5 -11 5 -11 33 0 50 37 96 69 86 14 -4 21 -2 21 6 0 7 3
10 6 6 8 -8 44 25 44 40 0 7 11 13 26 13 14 0 23 4 20 9 -3 5 4 21 16 36 32
41 41 13 28 -87z m1989 -123 c24 5 137 -15 181 -33 8 -3 49 -11 90 -18 156
-25 227 -52 307 -116 65 -52 190 -218 207 -275 4 -11 13 -24 21 -27 8 -3 15
-13 15 -22 0 -17 44 -64 60 -64 5 0 7 -7 4 -15 -4 -9 0 -15 8 -15 26 0 55 -47
88 -144 11 -33 29 -65 40 -73 10 -7 108 -58 217 -112 194 -96 263 -143 263
-175 0 -13 -6 -15 -27 -10 -16 4 -31 12 -35 18 -4 6 -10 7 -14 4 -3 -4 -22 -1
-41 7 -20 8 -46 15 -59 15 -13 0 -24 4 -24 8 0 5 -12 15 -27 23 -16 8 -30 16
-33 20 -18 19 -87 41 -117 36 -59 -10 -80 7 -88 71 -9 69 -14 82 -31 82 -36 0
-173 55 -304 122 -80 41 -181 87 -225 102 -95 32 -145 54 -145 64 0 7 -57 27
-110 40 -13 3 -13 2 0 -8 12 -9 12 -10 -5 -6 -37 9 -280 11 -294 2 -12 -8
-200 -18 -288 -17 -17 1 -21 -4 -17 -17 5 -14 3 -14 -10 2 -14 17 -16 18 -16
3 0 -9 -1 -17 -2 -18 -99 -23 -636 -12 -773 16 -127 27 -129 27 -142 37 -7 5
-16 7 -22 4 -5 -4 -36 9 -69 28 -32 19 -67 35 -78 35 -68 -2 -230 28 -259 48
-26 17 -35 16 -35 -3 0 -14 -2 -14 -22 0 -29 21 -33 20 -62 -9 -26 -26 -51
-31 -76 -15 -12 8 -9 10 12 10 30 0 68 27 68 47 0 7 11 13 25 13 17 0 29 8 35
23 15 35 52 74 57 60 6 -17 23 -16 23 1 0 7 15 19 33 25 17 7 49 21 70 32 22
12 46 17 57 14 11 -4 20 -2 20 4 0 18 60 43 129 52 44 7 94 6 152 -1 47 -6
101 -11 120 -11 19 0 47 -5 62 -11 18 -7 31 -8 35 -2 13 18 60 34 64 22 3 -7
11 -9 24 -3 25 10 214 15 214 5 0 -5 18 -6 40 -3 28 4 40 2 40 -6 0 -8 15 -12
45 -10 24 2 47 0 51 -4 11 -11 44 -8 44 3 0 6 7 10 16 10 17 0 47 12 150 61
34 16 72 29 85 29 13 0 33 7 43 15 11 8 28 15 37 15 10 0 23 8 29 18 8 12 13
13 16 5 7 -15 34 -17 34 -3 0 6 15 8 40 4 30 -5 40 -3 41 7 1 8 3 6 6 -4 4
-14 11 -17 32 -12z m-714 -646 c4 -5 18 -14 31 -19 34 -13 33 -49 -1 -42 -20
3 -25 0 -25 -16 0 -34 -21 -35 -102 -6 -10 4 -18 15 -18 26 0 15 -5 18 -20 13
-27 -8 -49 10 -43 34 4 17 16 19 88 20 49 1 87 -3 90 -10z m26 -299 c21 -27
59 -143 59 -180 0 -25 67 -197 100 -256 75 -133 156 -271 166 -281 7 -7 14
-18 17 -25 8 -23 15 -4 10 24 -3 15 -9 25 -14 22 -5 -3 -9 2 -9 11 0 14 5 13
38 -6 20 -13 42 -29 49 -35 7 -7 42 -28 78 -48 36 -21 65 -41 65 -46 0 -14
-41 -12 -71 4 -28 14 -59 5 -59 -18 0 -7 11 -25 25 -40 14 -15 25 -31 25 -37
0 -11 21 -48 38 -67 6 -7 12 -20 12 -27 0 -8 9 -25 21 -37 46 -51 79 -102 79
-124 0 -12 6 -29 14 -37 11 -11 12 -17 3 -26 -9 -9 -8 -17 2 -33 10 -16 10
-23 2 -26 -6 -2 -11 -13 -11 -25 0 -18 2 -20 11 -7 9 12 9 11 4 -5 -4 -11 -9
-28 -12 -37 -3 -9 -18 -21 -34 -27 -30 -10 -37 -29 -19 -47 7 -7 7 -19 1 -35
-5 -13 -10 -18 -10 -11 -1 6 0 14 2 17 6 11 -45 36 -63 30 -17 -5 -20 -2 -21
22 -1 27 -1 27 -11 -6 -6 -23 -6 -42 1 -57 7 -17 6 -24 -4 -28 -19 -7 -32 12
-40 64 -11 68 -21 79 -29 31 -3 -22 -11 -41 -16 -41 -6 0 -10 -10 -10 -22 0
-15 -3 -19 -10 -12 -7 7 -5 25 7 56 14 39 15 49 3 63 -10 13 -15 13 -21 3 -13
-20 -40 21 -36 55 2 15 0 27 -4 27 -16 0 18 49 37 54 22 6 34 32 34 72 0 27
-18 32 -154 44 -168 15 -182 14 -214 -19 -51 -54 -57 -73 -34 -120 15 -30 17
-41 7 -41 -7 0 -20 17 -29 38 -15 33 -14 18 1 -30 3 -10 -2 -18 -16 -23 -29
-9 -38 -1 -44 43 -2 22 -13 49 -23 61 -17 20 -19 20 -26 4 -4 -11 -7 -2 -7 25
-1 39 -2 41 -20 30 -17 -10 -23 -8 -43 12 -33 35 -107 70 -145 70 -23 0 -33 5
-33 15 0 17 -16 20 -24 6 -4 -5 0 -11 6 -14 7 -2 -4 -8 -24 -12 -21 -4 -36
-11 -33 -15 2 -4 -12 -12 -33 -18 -64 -18 -132 -11 -132 14 0 8 -4 12 -10 9
-13 -8 -13 10 1 58 5 21 17 41 25 44 7 3 12 9 9 13 -8 12 6 41 16 34 5 -3 9
-1 9 5 0 5 16 25 35 45 36 37 59 39 70 5 8 -24 14 -24 45 1 l25 20 -25 20
c-14 11 -19 20 -12 20 7 0 12 15 12 40 0 22 5 40 10 40 6 0 10 9 10 20 0 11 4
20 9 20 5 0 15 25 22 56 10 43 10 60 1 75 -10 15 -8 20 9 29 16 9 18 14 9 25
-8 10 -8 19 0 35 6 11 8 30 5 40 -4 12 -2 20 6 20 9 0 9 3 0 14 -9 11 -9 20
-2 35 6 11 11 35 11 55 0 19 5 38 10 41 6 4 8 11 5 16 -4 5 -1 9 4 9 6 0 11
13 11 29 0 17 4 33 10 36 13 8 36 61 50 112 6 24 23 54 38 69 25 23 33 25 105
22 70 -3 80 -6 98 -28z m1759 -87 c0 -12 -5 -42 -11 -65 -9 -35 -9 -55 4 -103
20 -78 65 -175 80 -175 5 0 5 -9 2 -20 -4 -11 -2 -20 4 -20 15 0 14 -46 -3
-78 -16 -33 -26 -185 -15 -226 10 -33 3 -48 -11 -26 -7 11 -10 6 -10 -18 0
-18 -8 -51 -19 -75 -27 -61 -52 -165 -66 -271 -4 -31 -15 -56 -29 -70 -13 -11
-29 -42 -37 -68 -7 -27 -17 -48 -21 -48 -4 0 -8 -20 -8 -44 0 -36 -4 -46 -21
-51 -21 -7 -23 -42 -1 -38 6 2 9 -4 6 -12 -8 -19 -20 -19 -28 1 -5 14 -8 14
-22 -1 -10 -9 -25 -14 -36 -12 -10 3 -16 1 -13 -3 3 -5 1 -11 -5 -15 -16 -10
-12 -33 8 -38 11 -3 7 -5 -10 -6 -14 0 -29 -7 -32 -13 -3 -7 -3 2 0 20 4 27 1
32 -16 32 -13 0 -20 -7 -20 -20 0 -11 5 -20 10 -20 6 0 10 -4 10 -9 0 -8 -20
-8 -60 -2 -3 1 1 5 9 10 23 15 4 28 -36 25 -29 -2 -34 0 -20 7 9 6 23 7 30 3
9 -5 9 -4 1 5 -9 10 -17 10 -33 1 -12 -6 -26 -8 -31 -5 -6 4 -9 1 -8 -7 2 -8
-4 -12 -15 -10 -9 2 -20 -5 -24 -14 -6 -16 -7 -16 -15 2 -6 14 -7 11 -5 -13 4
-35 -2 -40 -20 -22 -13 13 -47 4 -39 -9 3 -5 -1 -9 -9 -9 -11 0 -10 5 2 24 8
13 22 23 29 23 18 0 18 10 0 24 -13 10 -13 13 0 24 12 11 14 10 14 -3 0 -9 5
-13 10 -10 6 4 3 16 -10 32 -22 28 -26 53 -9 53 7 0 9 9 6 22 -4 14 0 29 10
40 15 17 15 18 -5 18 -27 0 -33 12 -36 62 -2 29 -8 45 -22 52 -48 27 -73 53
-61 65 16 16 -6 30 -39 23 -19 -3 -26 0 -31 17 -3 14 -13 21 -29 21 -18 0 -24
5 -24 23 0 29 -29 68 -36 50 -8 -18 -24 -16 -24 3 0 10 -6 14 -14 11 -10 -4
-13 -1 -10 8 3 7 12 16 20 19 9 3 12 10 9 16 -9 14 -52 12 -58 -2 -2 -7 -8
-10 -12 -6 -4 4 -3 14 4 21 6 8 9 21 5 30 -3 10 2 20 15 27 12 6 21 20 21 31
0 18 5 21 30 17 25 -4 31 -1 36 19 5 17 19 27 57 38 90 27 213 93 271 146 94
86 172 233 247 467 13 41 29 78 36 84 7 6 13 16 13 22 0 10 40 40 84 64 29 15
86 -15 86 -45z m-376 -262 c-3 -14 -25 -67 -50 -117 -61 -125 -110 -171 -267
-252 -61 -31 -247 -56 -247 -32 0 6 12 10 26 10 16 0 23 4 18 11 -3 6 -19 9
-34 6 -33 -7 -76 17 -49 28 9 3 36 1 60 -4 56 -13 68 -13 49 -1 -13 9 -13 11
-1 19 11 7 9 10 -10 13 -23 4 -23 5 6 13 16 5 38 19 48 32 10 13 29 23 42 23
13 0 27 5 30 10 3 6 17 10 31 10 16 0 24 6 24 18 0 10 5 23 12 30 7 7 20 12
30 12 10 0 18 7 18 15 0 8 5 15 10 15 6 0 10 8 11 18 0 13 2 14 6 2 4 -10 12
-2 24 25 13 30 18 35 18 18 1 -12 6 -25 12 -29 8 -5 10 3 7 24 -3 21 -1 29 8
25 7 -2 17 5 24 16 6 12 17 21 26 21 8 0 17 7 20 15 4 8 10 12 15 9 5 -3 9 2
9 10 0 11 11 15 40 14 38 0 39 -2 34 -27z m-3090 -32 c-4 -25 -3 -44 4 -48 11
-6 17 -60 14 -126 -2 -30 -5 -36 -12 -25 -8 12 -10 10 -11 -10 l-1 -25 -8 25
c-5 15 -8 18 -9 8 -1 -9 -14 -30 -30 -46 -16 -16 -34 -44 -38 -62 -20 -75 -28
-36 -29 133 -1 94 1 166 3 159 4 -10 9 -7 17 9 6 12 27 28 46 35 57 21 61 19
54 -27z m232 -317 c17 -15 47 -36 67 -45 19 -9 45 -28 58 -42 13 -13 29 -25
34 -25 6 0 3 5 -5 10 -21 14 -6 12 27 -2 37 -17 56 -35 41 -40 -6 -2 8 -10 31
-16 29 -9 41 -18 41 -32 0 -14 10 -20 40 -25 27 -5 40 -12 40 -22 0 -14 2 -14
18 0 23 21 32 21 32 1 0 -12 7 -14 30 -9 30 7 43 -8 18 -19 -7 -3 -2 -3 12 1
22 5 23 4 11 -11 -7 -9 -20 -16 -27 -16 -23 0 -16 -37 9 -45 21 -8 21 -8 -6
-12 -15 -2 -38 -15 -52 -29 -13 -13 -31 -24 -40 -24 -9 0 -26 -5 -37 -11 -17
-9 -18 -13 -7 -21 11 -8 10 -8 -4 -4 -10 3 -23 6 -28 6 -5 0 -9 7 -9 15 0 12
-7 14 -27 9 -16 -4 -36 -11 -45 -15 -33 -17 -48 -10 -48 20 0 35 -15 48 -28
26 -7 -14 -12 -12 -35 9 -15 14 -27 29 -27 34 0 5 -7 15 -15 22 -13 11 -15 8
-16 -16 -1 -22 -3 -18 -10 16 -5 25 -10 55 -11 68 -2 14 -7 21 -15 18 -7 -3
-13 -4 -13 -2 0 3 -3 11 -6 20 -4 11 -1 16 10 16 18 0 22 15 6 25 -5 3 -10 17
-10 30 0 13 -8 29 -17 35 -13 8 -14 13 -5 16 20 9 14 26 -7 19 -19 -6 -39 23
-24 34 12 9 9 35 -4 44 -7 4 -13 15 -13 23 0 19 22 7 66 -34z m1988 -967 c44
-4 63 -10 78 -27 16 -19 22 -20 38 -10 30 18 67 15 73 -7 2 -10 18 -24 36 -32
17 -8 31 -17 31 -22 0 -4 13 -6 29 -5 23 2 36 -5 53 -27 13 -16 24 -39 26 -50
1 -11 4 -36 7 -55 2 -19 11 -71 19 -115 9 -44 13 -88 10 -97 -7 -25 4 -58 19
-52 8 3 13 -11 14 -41 1 -27 -2 -45 -9 -45 -6 0 -4 -8 5 -18 19 -20 23 -62 7
-62 -5 0 -10 5 -10 10 0 6 -4 10 -9 10 -5 0 -11 -22 -15 -50 -4 -27 -11 -50
-16 -50 -6 0 -10 -11 -10 -25 0 -14 -4 -25 -10 -25 -5 0 -10 9 -10 19 0 27
-18 36 -22 11 -2 -12 -7 -20 -12 -20 -13 2 -26 -22 -26 -50 -1 -23 -2 -24 -14
-7 -12 16 -14 16 -20 2 -3 -9 -10 -13 -16 -10 -6 3 -10 -4 -10 -18 0 -17 -7
-26 -22 -31 -18 -4 -20 -8 -10 -18 15 -15 16 -28 2 -28 -5 0 -10 6 -10 13 0
15 -41 37 -68 37 -15 -1 -15 -2 2 -15 24 -18 21 -21 -26 -28 -31 -5 -40 -2
-52 15 -9 12 -19 17 -28 13 -10 -6 -11 -5 0 6 19 21 14 30 -11 18 -18 -8 -23
-17 -20 -37 3 -15 1 -23 -4 -17 -4 6 -21 17 -38 25 -16 8 -33 20 -37 26 -4 6
-29 9 -58 7 -37 -2 -56 2 -68 13 -14 15 -17 15 -27 1 -9 -13 -13 -11 -23 16
-11 30 -12 30 -26 12 -15 -20 -15 -20 -31 3 -9 12 -22 22 -29 22 -25 0 -66 41
-66 65 0 18 -4 23 -15 19 -20 -8 -29 19 -15 45 10 19 8 21 -22 22 -30 0 -31 1
-10 9 12 5 22 14 22 20 0 5 10 10 23 10 12 0 29 9 37 20 8 11 24 20 37 20 12
0 25 5 28 10 3 6 14 10 24 10 10 0 22 8 25 18 18 46 32 63 49 58 10 -2 21 2
24 10 3 8 11 14 19 14 9 0 14 10 12 28 -1 15 6 39 16 54 10 15 16 37 14 49 -4
29 -28 37 -28 10 0 -12 -4 -21 -10 -21 -5 0 -6 8 -3 17 5 12 2 15 -10 10 -9
-3 -24 -4 -32 -1 -22 9 -18 34 4 34 11 0 26 8 33 18 7 10 22 22 32 25 14 6 16
11 8 19 -13 13 -102 2 -102 -13 0 -6 -8 -6 -20 1 -12 7 -26 7 -36 2 -9 -5 -33
-5 -58 0 -87 19 -97 20 -111 8 -10 -9 -15 -9 -15 -1 0 6 -6 11 -14 11 -7 0
-19 7 -26 15 -10 12 -16 13 -26 4 -8 -6 -14 -17 -14 -24 0 -11 -6 -10 -30 1
-16 9 -39 12 -50 9 -13 -4 -34 1 -56 14 -19 12 -41 21 -48 21 -14 0 -56 45
-56 60 0 13 23 13 36 0 12 -12 182 6 200 21 8 7 14 2 19 -18 3 -15 9 -22 13
-16 4 6 24 18 45 26 20 9 37 20 37 25 0 6 23 15 50 22 28 7 52 16 55 20 3 5
24 11 48 15 23 4 47 11 52 15 22 18 83 19 259 5z m1237 -139 c-14 -98 -15
-413 -2 -544 10 -97 13 -105 48 -147 20 -25 43 -45 50 -45 7 0 13 -6 13 -14 0
-8 4 -18 10 -21 6 -3 7 1 4 9 -3 9 -2 16 3 16 11 0 50 -86 56 -125 3 -16 1
-70 -4 -120 -5 -49 -13 -184 -19 -300 -14 -295 -58 -502 -135 -628 -19 -32
-35 -61 -35 -65 0 -8 -14 -27 -57 -82 -13 -15 -23 -31 -23 -36 0 -4 -18 -24
-39 -46 -22 -21 -37 -38 -34 -38 3 0 -6 -12 -21 -27 -30 -30 -88 -44 -64 -16
11 14 11 16 -4 10 -12 -4 -15 -2 -12 8 3 7 -4 18 -15 25 -17 9 -22 8 -27 -5
-9 -23 -34 -18 -56 10 -11 14 -27 25 -36 25 -9 0 -24 15 -32 33 -11 24 -23 33
-45 35 -40 5 -58 22 -22 22 15 0 27 5 27 10 0 6 -10 9 -22 7 -13 -2 -17 -2
-10 0 16 6 16 33 -1 33 -8 0 -17 -3 -21 -7 -11 -11 -80 -10 -88 2 -4 5 -14 2
-26 -8 -10 -9 -26 -17 -35 -17 -9 0 -17 -4 -17 -10 0 -5 7 -10 15 -10 8 0 15
-6 15 -14 0 -7 -7 -19 -15 -26 -8 -7 -15 -21 -15 -31 0 -11 -9 -19 -22 -21
-15 -2 -24 -11 -26 -25 -2 -13 1 -23 6 -23 13 0 -9 -63 -28 -81 -31 -29 -82
-61 -87 -55 -4 3 -15 -1 -25 -10 -15 -14 -20 -15 -34 -3 -9 8 -26 13 -38 11
-29 -3 -51 12 -40 29 5 8 9 29 9 48 0 27 6 36 32 51 25 13 30 20 20 30 -10 10
-7 11 16 6 26 -6 40 8 15 16 -8 3 -7 11 5 28 21 31 22 70 2 70 -8 0 -15 5 -15
10 0 6 7 10 15 10 8 0 15 -3 15 -8 0 -8 119 -6 128 2 3 3 -18 6 -47 6 -68 0
-88 17 -70 60 8 16 23 33 34 39 20 10 20 10 -2 17 -31 9 -29 17 7 32 18 8 30
21 30 33 0 25 -16 24 -23 -1 -4 -17 -14 -20 -55 -20 -42 0 -52 -3 -57 -20 -6
-19 -35 -29 -35 -12 0 20 41 44 73 44 32 0 35 3 39 34 3 28 1 34 -14 34 -10 0
-18 5 -18 10 0 6 -11 15 -24 20 -15 5 -27 20 -31 39 -7 35 -34 49 -51 27 -15
-22 -24 -20 -24 5 0 16 -4 19 -17 14 -44 -18 -53 -18 -47 0 6 14 3 16 -14 11
-14 -5 -25 -1 -35 14 -7 11 -28 25 -46 31 -36 13 -31 26 13 31 23 2 29 8 32
31 1 16 8 35 14 42 6 8 7 16 2 19 -5 3 -9 17 -9 32 0 18 7 28 23 34 37 14 28
38 -11 30 -5 -1 -6 2 -2 7 5 4 14 8 20 9 41 3 78 18 73 30 -3 7 4 20 16 28 19
14 20 16 5 22 -23 8 -22 24 2 24 22 0 45 25 37 39 -3 5 8 14 24 20 17 5 30 15
30 20 0 6 15 14 33 19 18 4 36 17 42 30 11 24 25 29 25 10 0 -27 20 18 21 47
0 17 3 24 6 18 8 -21 23 -15 33 13 7 17 15 24 26 20 8 -3 17 1 20 9 4 8 12 15
20 15 17 0 18 17 2 23 -8 3 -6 6 5 6 9 1 22 12 29 26 6 13 14 22 18 20 5 -3
10 2 14 10 3 8 18 16 33 16 24 2 25 2 6 6 -31 6 -33 53 -3 53 20 0 24 9 21 42
-2 12 7 19 26 24 51 11 55 13 48 33 -3 11 -1 22 5 26 6 3 10 -3 10 -14 0 -12
6 -21 13 -21 12 0 59 61 70 93 4 10 11 15 17 12 6 -3 13 1 16 9 3 9 12 16 20
16 17 0 17 5 2 29 -10 16 -8 23 13 45 13 14 28 26 33 26 13 0 86 81 86 96 0 8
4 14 9 14 5 0 12 11 15 24 3 13 9 32 13 42 4 11 2 15 -4 11 -6 -4 -9 3 -8 16
4 32 4 33 15 17 7 -12 10 -8 10 15 1 27 38 132 39 111 1 -13 25 12 27 27 0 7
2 23 2 36 1 15 7 21 15 18 10 -4 12 3 9 24 -3 18 2 37 11 47 8 9 21 45 27 80
17 85 24 71 11 -22z m726 -598 c42 -86 47 -107 33 -133 -11 -20 -11 -27 0 -40
10 -12 10 -19 2 -27 -15 -15 -15 -51 -2 -64 8 -8 6 -15 -5 -24 -29 -24 -45 5
-45 80 0 36 -3 70 -7 74 -10 9 -13 32 -16 99 -1 31 -5 57 -9 57 -5 0 -8 5 -8
10 0 6 8 10 18 10 12 0 26 -15 39 -42z m-254 -57 c6 -11 13 -21 17 -21 4 0 6
-20 5 -45 -1 -25 1 -45 4 -45 9 0 7 -78 -2 -86 -12 -12 -8 -22 12 -29 14 -4
17 -12 13 -27 -5 -21 -6 -21 -28 6 -20 22 -27 25 -44 16 -16 -8 -20 -8 -20 4
0 8 -6 21 -12 28 -7 7 -14 31 -14 53 -1 22 -3 65 -4 96 -1 31 0 61 4 67 11 18
59 6 69 -17z m952 -4192 c50 -25 128 -104 159 -159 17 -31 19 -55 17 -210 -1
-160 -3 -181 -26 -245 -14 -38 -28 -86 -31 -105 -3 -19 -9 -37 -13 -40 -4 -3
-10 -13 -14 -22 -6 -18 -53 -35 -64 -24 -4 3 1 39 10 79 18 76 21 107 11 107
-13 0 -54 -55 -49 -67 2 -7 0 -15 -4 -18 -5 -3 -7 -13 -4 -23 6 -26 -43 -82
-73 -82 -29 0 -29 -4 1 99 14 47 25 88 25 92 0 9 -153 -1 -160 -10 -3 -3 -25
-7 -49 -8 -24 -2 -47 -5 -50 -9 -8 -8 -6 -97 4 -156 6 -40 5 -47 -13 -57 -33
-18 -50 -3 -62 55 -14 68 -25 70 -17 3 8 -63 -5 -93 -36 -83 -31 10 -36 22
-36 83 1 64 -16 92 -79 127 -23 13 -43 23 -45 21 -2 -1 -38 21 -80 48 -66 44
-81 59 -118 123 -56 97 -78 114 -148 110 -55 -3 -56 -3 -59 26 -2 16 8 57 21
90 14 34 28 79 31 100 10 69 31 81 149 81 85 0 111 -4 158 -24 68 -28 108 -24
165 17 122 89 202 114 341 108 71 -3 103 -10 138 -27z m-4514 -45 c26 -8 64
-28 85 -44 34 -25 48 -29 104 -30 46 0 74 6 95 18 51 31 81 34 123 13 64 -33
125 -103 157 -181 10 -25 37 -85 61 -135 45 -95 85 -191 111 -265 9 -25 20
-53 25 -64 7 -13 6 -21 -3 -27 -10 -6 -10 -20 -2 -64 11 -65 1 -102 -32 -107
-11 -2 -19 -9 -18 -16 2 -6 -2 -12 -7 -12 -6 0 -10 4 -10 9 0 5 -10 11 -21 14
-17 5 -20 10 -14 29 4 13 9 43 10 68 2 25 1 33 -2 18 -2 -16 -9 -28 -14 -28
-5 0 -9 -9 -9 -20 0 -48 -80 -74 -117 -38 -12 13 -10 23 17 79 33 71 41 121
15 99 -11 -9 -15 -9 -15 -1 0 7 -3 10 -8 7 -8 -5 -60 5 -150 29 -90 24 -97 17
-88 -97 7 -88 7 -88 -17 -88 -21 0 -25 7 -37 67 -11 57 -14 64 -22 43 -5 -13
-7 -44 -6 -69 3 -40 0 -46 -17 -46 -18 0 -21 8 -25 76 -5 71 -27 129 -49 129
-4 0 -39 31 -77 70 -75 77 -122 148 -148 228 -21 62 -60 112 -87 112 -34 0
-45 43 -26 104 9 29 17 69 17 89 0 24 6 39 18 46 21 12 122 4 183 -15z m1819
-180 c46 -15 68 -32 137 -104 77 -79 98 -113 73 -122 -5 -1 -17 -52 -25 -112
-18 -131 -25 -159 -74 -301 -31 -93 -41 -112 -65 -124 -15 -7 -32 -9 -36 -5
-4 5 3 41 16 79 28 86 29 95 5 90 -37 -7 -58 -24 -70 -57 -30 -81 -41 -98 -66
-104 -14 -3 -28 -4 -32 -1 -3 3 4 34 16 68 30 89 28 107 -11 114 -18 3 -80 5
-138 3 l-105 -3 1 -50 c1 -27 3 -72 5 -100 4 -46 2 -50 -20 -53 -27 -4 -41 12
-41 49 0 14 -6 33 -13 43 -12 16 -13 10 -13 -45 l1 -64 -34 -3 -34 -3 5 64 c8
96 -3 113 -116 181 -105 62 -155 115 -199 209 -34 71 -58 91 -120 97 -65 6
-70 24 -29 107 16 32 32 76 35 97 4 22 12 43 19 48 16 11 139 1 198 -17 25 -7
68 -25 97 -40 49 -26 55 -27 102 -15 28 7 54 16 57 21 8 14 83 51 134 65 62
19 267 11 340 -12z m1282 -35 c74 -13 143 -54 218 -128 60 -59 70 -73 70 -103
0 -19 -3 -37 -6 -41 -4 -3 -8 -32 -11 -63 -2 -31 -13 -77 -24 -101 -11 -24
-23 -67 -26 -94 -3 -27 -9 -49 -13 -49 -4 0 -10 -8 -14 -17 -37 -110 -46 -141
-46 -157 0 -25 -28 -45 -62 -46 -32 0 -36 21 -15 73 8 18 17 49 21 70 7 36 6
38 -16 35 -30 -4 -42 -21 -63 -93 -9 -32 -24 -65 -33 -72 -18 -13 -54 -17 -64
-7 -4 3 4 36 16 72 13 37 26 79 30 95 l6 27 -132 0 c-73 0 -140 -4 -148 -10
-12 -8 -12 -21 3 -100 10 -51 15 -95 12 -98 -3 -3 -16 -8 -30 -9 -24 -4 -27 1
-40 64 -12 58 -25 47 -19 -15 7 -64 1 -74 -33 -61 -20 7 -23 15 -23 69 0 89
-13 107 -109 158 -112 61 -184 136 -227 238 -19 46 -60 84 -90 84 -14 0 -30
10 -40 26 -16 24 -16 30 6 122 13 53 27 101 31 105 10 13 178 -22 238 -49 80
-36 120 -32 210 20 124 73 244 88 423 55z m-5131 -61 c23 -28 89 -160 89 -180
0 -8 9 -32 19 -53 10 -22 17 -45 14 -52 -3 -7 -1 -19 4 -26 5 -6 15 -39 22
-72 7 -33 17 -69 21 -80 19 -46 24 -61 26 -80 5 -36 15 -80 24 -100 5 -11 11
-31 14 -45 3 -14 19 -77 36 -140 18 -63 36 -137 40 -164 5 -26 14 -63 20 -80
6 -18 8 -40 4 -49 -3 -10 -1 -17 5 -17 6 0 11 -10 11 -22 l0 -21 -23 21 c-13
12 -31 22 -41 22 -13 0 -16 5 -11 23 5 16 4 18 -4 8 -8 -12 -12 -12 -25 -2
-13 11 -19 11 -30 2 -10 -9 -20 -9 -34 -2 -10 5 -34 9 -53 9 -19 0 -44 3 -56
7 -18 6 -23 4 -23 -9 0 -9 -4 -16 -10 -16 -5 0 -10 5 -10 10 0 20 -90 11 -122
-12 -21 -16 -32 -19 -35 -11 -3 8 -17 6 -49 -8 -25 -10 -61 -19 -80 -19 -19 0
-34 -5 -34 -10 0 -6 -23 -10 -57 -8 -32 1 -68 -4 -80 -10 -12 -7 -23 -8 -25
-3 -2 5 -20 12 -40 16 -31 6 -38 4 -38 -9 0 -9 -5 -16 -10 -16 -7 0 -7 6 0 19
13 25 14 102 1 82 -5 -8 -8 -23 -6 -33 2 -10 0 -18 -5 -18 -12 0 -18 23 -10
40 4 8 12 26 18 40 38 97 82 172 132 225 40 42 59 71 64 97 6 31 17 44 71 83
57 40 69 55 105 128 50 102 63 192 53 388 l-6 136 29 16 c42 22 73 20 95 -5z
m2049 -679 c0 -5 4 -8 9 -5 7 5 55 -27 81 -54 3 -3 26 -24 52 -47 56 -51 79
-53 166 -18 76 31 93 31 245 1 67 -13 139 -27 160 -31 27 -4 53 -21 94 -61 31
-29 53 -54 49 -54 -4 0 6 -13 23 -29 16 -15 32 -37 35 -49 4 -11 13 -23 21
-26 18 -7 9 -107 -11 -119 -8 -4 -14 -15 -14 -23 0 -8 -17 -52 -39 -97 -21
-45 -50 -109 -63 -142 -64 -150 -72 -165 -89 -165 -24 0 -28 17 -18 75 11 71
11 72 -13 78 -31 9 -46 -8 -50 -56 -2 -34 -7 -42 -23 -42 -18 0 -20 6 -17 67
l2 68 -42 19 c-91 41 -169 64 -180 53 -12 -12 9 -112 24 -112 4 0 8 -7 8 -16
0 -24 -18 -7 -50 49 l-31 52 7 -55 c8 -68 -3 -59 -40 31 -15 36 -38 77 -49 90
-12 13 -38 44 -57 69 -19 25 -37 47 -41 50 -11 10 -139 251 -145 275 -3 14
-10 25 -14 25 -4 0 -10 12 -13 28 -8 37 4 182 14 182 5 0 9 -5 9 -11z m4666
-19 c31 -10 64 -28 74 -40 9 -11 21 -20 26 -21 13 0 107 -117 120 -148 7 -16
8 -37 2 -56 -4 -16 -8 -67 -8 -113 0 -87 -16 -172 -32 -172 -5 0 -6 -10 -2
-22 3 -13 3 -20 -1 -16 -11 10 -37 -42 -31 -59 3 -7 2 -13 -3 -13 -5 0 -13
-25 -20 -56 -11 -60 -31 -83 -68 -84 -27 0 -27 -3 -3 89 25 93 25 100 1 94
-32 -8 -53 -39 -70 -105 -17 -65 -50 -98 -84 -85 -13 5 -12 15 9 84 35 113 34
117 -22 109 -26 -3 -80 -6 -120 -6 -61 0 -78 -4 -94 -20 -24 -24 -26 -68 -5
-129 20 -55 12 -81 -23 -81 -24 0 -29 6 -44 53 l-17 52 1 -40 c0 -84 0 -85
-31 -85 -28 0 -28 1 -34 68 -7 88 -12 97 -55 117 -158 71 -229 128 -275 216
-41 81 -46 85 -111 93 -94 11 -103 27 -62 121 14 30 28 74 31 99 6 39 11 46
48 62 60 27 190 25 247 -5 45 -23 118 -28 153 -10 12 7 36 23 52 37 34 29 120
69 174 81 71 17 217 12 277 -9z m-3457 -192 c25 -11 60 -31 77 -44 42 -33 91
-31 163 5 66 34 149 57 237 67 69 7 225 -11 265 -32 33 -16 154 -145 175 -185
12 -25 13 -36 5 -53 -7 -11 -14 -39 -16 -61 -3 -22 -7 -56 -10 -75 -4 -32 -20
-103 -47 -205 -6 -22 -14 -42 -19 -45 -4 -3 -16 -35 -25 -70 -9 -36 -25 -73
-37 -82 -20 -18 -77 -25 -77 -10 0 5 11 42 25 82 32 94 32 101 0 87 -14 -7
-25 -18 -25 -24 0 -7 -5 -13 -11 -13 -5 0 -9 -8 -8 -17 6 -51 -28 -107 -71
-117 -51 -12 -55 5 -21 92 17 45 31 88 31 96 0 12 -16 14 -92 10 -99 -6 -152
-20 -141 -37 4 -6 0 -8 -10 -4 -22 8 -22 -10 1 -48 28 -46 33 -84 12 -97 -11
-7 -16 -18 -12 -27 5 -13 1 -13 -22 2 -25 17 -29 17 -45 3 -16 -15 -20 -15
-39 3 -14 12 -22 30 -22 50 0 53 -37 123 -79 154 -22 15 -44 27 -50 27 -6 0
-11 3 -11 8 0 4 -16 18 -35 31 -48 33 -104 110 -140 195 -32 74 -32 74 -121
96 -53 13 -59 35 -31 109 11 31 23 74 26 95 5 34 11 41 41 52 43 16 98 10 159
-18z m1304 -20 c40 -11 102 -41 138 -65 36 -23 74 -43 84 -43 10 0 54 18 99
40 99 47 161 57 282 41 118 -16 172 -30 212 -56 50 -34 172 -155 172 -171 0
-8 -7 -29 -16 -46 -9 -17 -17 -58 -19 -92 -3 -76 -21 -159 -45 -206 -10 -20
-21 -54 -25 -75 -17 -98 -24 -115 -52 -115 -25 0 -25 0 -18 58 13 96 13 97
-17 97 -30 1 -41 -18 -53 -88 -4 -26 -13 -41 -28 -46 -34 -14 -40 1 -28 75 6
38 7 71 3 74 -23 20 -189 44 -232 35 -30 -7 -32 -9 -25 -42 3 -19 16 -55 28
-80 18 -37 19 -45 7 -53 -20 -12 -27 -6 -55 57 -14 30 -28 54 -30 51 -2 -2 2
-28 10 -58 8 -30 15 -56 15 -57 0 -2 -11 -3 -24 -3 -25 0 -36 16 -36 53 -1 61
-77 160 -162 213 -63 38 -111 96 -142 171 -32 77 -67 113 -112 113 -17 0 -37
7 -44 15 -12 15 -12 22 9 105 6 25 13 62 16 83 3 20 8 37 11 37 3 0 38 -10 77
-22z m-2395 -718 c55 -13 120 -44 155 -74 49 -43 81 -51 143 -36 30 7 57 17
60 22 3 4 29 8 59 8 41 0 81 -11 167 -46 62 -26 122 -52 132 -60 23 -16 124
-149 156 -206 19 -33 20 -40 7 -35 -12 5 -17 -1 -21 -26 -3 -18 -10 -62 -16
-99 -10 -65 -79 -291 -102 -335 -7 -14 -21 -23 -35 -23 -28 0 -29 22 -4 100
20 60 19 70 -8 70 -25 0 -48 -29 -67 -84 -10 -30 -24 -51 -38 -56 -36 -14 -40
5 -17 84 12 42 20 80 16 86 -3 5 -43 21 -88 34 -128 39 -132 39 -152 20 -14
-15 -16 -32 -14 -108 4 -91 4 -91 -21 -91 -28 0 -37 23 -39 95 -2 68 -21 29
-21 -42 0 -51 -2 -58 -19 -58 -29 0 -34 14 -35 104 -1 94 -19 132 -75 165 -80
46 -117 95 -155 199 -45 127 -65 152 -118 152 -28 0 -48 17 -48 40 0 8 16 40
36 70 20 30 43 74 51 98 17 47 29 50 111 32z m4642 -71 c102 -12 153 -38 233
-116 59 -57 61 -62 50 -101 -3 -15 -8 -19 -13 -12 -4 6 -10 -39 -13 -102 -6
-106 -23 -196 -47 -243 -5 -11 -20 -51 -33 -90 -17 -52 -30 -74 -49 -85 -15
-8 -29 -12 -32 -9 -3 3 6 38 19 79 20 64 21 76 8 78 -28 7 -83 -63 -83 -106 0
-24 -47 -72 -71 -72 -17 0 -16 5 7 72 13 39 24 80 24 90 0 21 -7 22 -140 7
-52 -5 -102 -11 -110 -11 -24 -2 -40 -24 -39 -55 0 -25 1 -26 10 -8 8 17 8 15
4 -7 -3 -15 0 -49 6 -74 11 -42 10 -48 -6 -60 -29 -21 -44 -17 -50 14 -4 15
-13 41 -21 57 -14 29 -14 28 -11 -35 2 -64 1 -65 -25 -68 -30 -4 -33 3 -43 89
-7 64 -30 96 -90 123 -22 10 -55 25 -73 34 -51 23 -140 110 -167 161 -32 63
-67 94 -117 100 -57 8 -67 28 -44 88 11 26 21 69 24 96 3 41 8 50 35 64 43 23
130 22 248 -1 114 -22 150 -18 216 28 110 75 223 97 393 75z m-3351 -110 c28
-6 67 -22 88 -36 63 -43 94 -45 160 -11 52 26 65 29 128 24 81 -5 222 -47 274
-81 39 -26 85 -73 144 -147 26 -32 37 -56 37 -80 0 -18 7 -46 16 -63 10 -20
12 -31 4 -33 -7 -3 -5 -11 6 -23 12 -13 14 -26 9 -46 -3 -15 -10 -57 -14 -93
-5 -36 -14 -84 -20 -108 -7 -23 -9 -47 -6 -52 15 -24 -54 -100 -91 -100 -39 0
-47 23 -30 81 9 29 16 64 16 78 0 22 -4 19 -24 -21 -13 -25 -26 -58 -30 -73
-4 -14 -10 -23 -15 -20 -5 2 -11 -2 -15 -10 -6 -17 -61 -21 -71 -5 -3 5 3 39
15 76 26 86 26 114 1 107 -11 -3 -58 0 -104 6 -60 8 -93 8 -112 1 l-28 -11 6
-85 c4 -75 3 -86 -13 -94 -34 -18 -49 -2 -56 61 -9 79 -24 75 -24 -6 0 -70
-11 -86 -48 -66 -17 9 -18 17 -11 67 4 31 4 67 -1 80 -5 13 -45 47 -92 77
-107 69 -169 138 -204 227 -15 39 -33 75 -40 81 -7 6 -38 14 -69 18 -31 4 -60
14 -65 21 -10 16 -2 47 25 90 26 42 43 86 47 120 2 19 13 28 48 42 53 20 91
22 159 7z m4632 -281 c7 -13 10 -46 7 -83 -3 -35 -1 -70 5 -81 6 -10 10 -47 9
-82 -1 -43 3 -70 14 -87 11 -17 13 -29 6 -42 -5 -10 -7 -32 -5 -50 4 -22 -1
-41 -15 -61 -14 -19 -18 -33 -11 -43 5 -7 9 -33 9 -56 0 -24 5 -43 13 -46 9
-3 9 -9 -1 -26 -8 -14 -10 -35 -6 -58 5 -28 4 -34 -6 -28 -10 6 -11 2 -6 -19
3 -14 2 -26 -3 -26 -5 0 -12 21 -16 48 -3 26 -10 70 -15 97 -6 28 -11 61 -12
74 -3 19 -19 37 -46 47 -9 4 12 32 21 28 18 -6 45 14 31 24 -24 15 -20 56 12
130 12 27 12 32 0 32 -8 0 -16 -4 -18 -10 -1 -5 -4 30 -4 78 -1 49 3 90 9 93
13 9 0 29 -19 29 -8 0 -14 7 -14 15 0 8 6 14 13 13 8 -2 13 15 15 55 3 60 14
71 33 35z"/>
<path d="M14885 5948 c-12 -16 -19 -19 -22 -10 -8 20 -29 14 -41 -12 -8 -18
-16 -23 -31 -19 -25 6 -30 -24 -6 -33 12 -5 12 -8 -2 -22 -12 -12 -13 -17 -3
-20 13 -5 22 4 46 44 6 10 15 14 22 10 14 -8 16 -93 3 -98 -10 -4 5 -48 17
-48 4 0 16 14 25 30 10 17 22 30 28 30 5 0 9 5 9 11 0 6 -9 9 -20 6 -11 -3
-20 -1 -20 4 0 5 9 18 20 29 11 11 20 23 20 28 1 4 3 17 6 29 8 29 -4 63 -21
63 -8 0 -21 -10 -30 -22z"/>
<path d="M2120 1641 c0 -6 -18 -11 -40 -11 -40 0 -65 -22 -58 -53 1 -6 -10
-25 -25 -41 -15 -16 -27 -37 -27 -47 0 -9 -3 -19 -7 -21 -16 -6 -43 -71 -44
-101 l-1 -32 -13 30 c-13 27 -14 28 -15 7 0 -13 -11 -34 -25 -48 -14 -14 -25
-36 -25 -50 0 -23 -2 -24 -15 -10 -16 16 -20 46 -7 46 5 0 15 23 22 51 8 27
18 52 22 55 4 3 8 14 8 25 0 10 4 19 9 19 5 0 7 9 4 20 -6 22 -18 26 -29 9 -3
-6 -1 -15 6 -19 8 -5 9 -10 2 -14 -6 -3 -13 -2 -17 4 -10 16 -45 12 -45 -5 0
-8 -4 -15 -10 -15 -5 0 -10 7 -10 15 0 8 -4 15 -10 15 -5 0 -10 7 -10 16 0 8
-5 12 -11 9 -6 -4 -8 -13 -5 -20 9 -25 -54 -33 -232 -31 -117 2 -176 6 -184
14 -15 15 -85 16 -94 1 -3 -6 -16 -8 -27 -5 -11 3 -40 0 -63 -6 -36 -10 -49
-9 -78 5 -33 15 -35 15 -41 -3 -9 -27 -42 -25 -51 2 -7 22 -7 22 -14 2 -5 -12
-25 -26 -50 -34 -25 -8 -45 -22 -48 -32 -3 -14 -8 -16 -17 -8 -15 13 -20 7
-29 -36 -6 -27 -95 -134 -112 -134 -18 0 -144 -67 -144 -76 0 -12 -30 -17
-183 -32 -48 -5 -93 -14 -99 -20 -16 -16 -115 -16 -122 1 -5 10 -7 10 -12 0
-9 -20 -34 -15 -70 12 -18 14 -42 25 -53 25 -21 0 -21 -1 -21 -560 l0 -560
1470 0 c1302 0 1469 2 1464 15 -4 9 -19 15 -39 15 -24 0 -34 5 -38 20 -7 27
-37 37 -51 18 -9 -12 -17 -13 -45 -3 -52 17 -53 37 -2 29 28 -4 41 -3 41 5 0
10 -51 17 -88 12 -20 -3 -72 23 -72 35 0 7 -17 16 -37 21 -22 6 -37 15 -35 22
1 7 -2 10 -8 6 -5 -3 -10 -24 -10 -46 0 -21 -4 -39 -8 -39 -10 0 -32 45 -32
65 0 8 -7 15 -15 15 -8 0 -15 8 -15 18 0 11 -11 24 -25 30 -25 12 -34 32 -14
32 5 0 7 5 4 10 -3 6 -22 10 -41 10 -19 0 -34 -4 -34 -10 0 -5 8 -10 18 -10
16 -1 16 -1 0 -11 -24 -13 -46 8 -40 38 3 16 0 23 -11 23 -22 0 -27 24 -12 54
8 14 10 26 4 26 -5 0 -9 7 -9 15 0 8 -4 15 -10 15 -5 0 -10 -5 -10 -11 0 -5
-4 -7 -10 -4 -5 3 -7 18 -4 33 4 22 -1 33 -27 56 -27 25 -41 29 -89 30 -57 1
-58 1 -77 41 -15 31 -26 41 -56 48 -26 6 -37 14 -37 27 0 10 -7 20 -15 24 -8
3 -15 18 -15 34 0 15 -11 50 -24 78 -15 30 -21 53 -15 58 16 18 9 33 -20 45
-32 14 -55 54 -46 82 4 13 1 19 -9 19 -24 0 -19 17 7 24 13 3 29 17 37 30 7
14 17 23 21 20 4 -2 10 0 13 5 4 5 2 12 -4 16 -5 3 -10 15 -10 26 0 10 -4 19
-10 19 -5 0 -10 5 -10 10 0 6 7 10 16 8 12 -2 22 10 32 39 10 27 23 44 36 46
19 4 19 4 -2 6 -27 1 -39 27 -24 51 6 10 7 22 1 31 -14 22 -10 59 7 77 15 15
16 15 10 -5 -9 -30 16 -48 32 -22 7 11 8 19 2 19 -5 0 -10 5 -10 10 0 6 6 10
13 10 7 0 20 15 28 34 16 35 16 35 -12 47 -16 6 -29 15 -29 19 0 4 19 15 41
26 23 10 36 20 30 22 -20 7 -12 42 12 51 12 5 25 7 28 5 12 -7 31 24 19 31 -5
3 -10 1 -10 -4z"/>
</g>
</svg>
