<?xml version="1.0" standalone="no"?>
<!DOCTYPE svg PUBLIC "-//W3C//DTD SVG 20010904//EN"
 "http://www.w3.org/TR/2001/REC-SVG-20010904/DTD/svg10.dtd">
<svg version="1.0" xmlns="http://www.w3.org/2000/svg"
 width="1385.000000pt" height="1243.000000pt" viewBox="0 0 1385.000000 1243.000000"
 preserveAspectRatio="xMidYMid meet">
<metadata>
Created by potrace 1.15, written by Peter Selinger 2001-2017
</metadata>
<g transform="translate(0.000000,1243.000000) scale(0.100000,-0.100000)"
fill="#000000" stroke="none">
<path d="M6642 10080 c-26 -34 -27 -46 -8 -57 8 -4 16 -12 18 -18 2 -5 11 -10
21 -10 27 -2 61 -40 53 -60 -3 -9 -11 -13 -17 -9 -20 12 -29 -19 -13 -44 13
-19 13 -23 0 -28 -19 -7 -91 13 -105 30 -6 7 -30 21 -53 31 -24 10 -52 26 -63
36 -11 10 -33 19 -50 22 -16 2 -46 14 -65 25 -19 11 -57 24 -85 27 -27 4 -54
11 -60 15 -33 24 -131 20 -121 -6 6 -17 -33 -29 -63 -19 -12 4 -21 2 -21 -4 0
-16 -51 -37 -95 -40 -21 -1 -60 -11 -85 -22 -73 -34 -132 -48 -184 -46 -45 2
-50 0 -56 -22 -4 -19 -18 -28 -65 -43 -33 -11 -67 -25 -75 -32 -8 -7 -45 -27
-82 -44 -38 -17 -68 -35 -68 -41 0 -5 -15 -14 -33 -20 -18 -6 -49 -27 -67 -46
-19 -19 -38 -35 -43 -35 -5 0 -33 -16 -62 -35 -29 -20 -66 -37 -82 -39 -29 -4
-92 -36 -128 -66 -11 -9 -46 -29 -77 -45 -32 -15 -65 -36 -74 -47 -10 -10 -22
-18 -29 -18 -19 0 -128 -85 -155 -120 -63 -83 -90 -112 -165 -173 -123 -101
-154 -131 -155 -146 0 -7 -11 -22 -25 -33 -14 -11 -25 -28 -25 -38 0 -9 -7
-24 -16 -31 -9 -7 -20 -24 -25 -37 -7 -18 -14 -22 -30 -17 -18 6 -21 4 -17
-11 7 -29 -24 -77 -60 -93 -29 -13 -32 -18 -32 -62 0 -53 18 -79 55 -79 32 0
39 -36 14 -72 -11 -15 -17 -28 -14 -28 4 0 -1 -12 -11 -27 -11 -17 -18 -48
-19 -78 -1 -27 -9 -75 -18 -105 -9 -30 -25 -87 -36 -126 l-20 -70 21 -44 c12
-24 21 -57 20 -74 -5 -155 -3 -465 4 -477 5 -8 18 -19 29 -25 14 -8 19 -20 17
-39 -2 -15 1 -32 6 -38 5 -7 12 -25 15 -42 13 -75 30 -121 48 -138 14 -13 19
-27 15 -40 -3 -14 3 -30 18 -47 19 -20 25 -39 29 -100 4 -61 8 -77 26 -88 11
-8 21 -24 21 -36 1 -11 7 -32 15 -46 8 -14 14 -35 15 -48 0 -12 4 -30 9 -40
14 -26 49 -133 55 -168 4 -28 1 -32 -39 -52 -41 -20 -44 -23 -50 -75 -4 -29
-2 -71 3 -93 6 -21 16 -93 22 -159 7 -66 15 -122 19 -125 8 -5 16 -32 28 -94
3 -16 16 -45 29 -64 13 -19 24 -42 24 -50 0 -9 6 -23 13 -31 8 -9 21 -47 30
-86 9 -38 23 -97 31 -130 9 -33 13 -68 10 -77 -4 -13 2 -21 20 -28 32 -12 43
-52 27 -96 -20 -55 -22 -101 -6 -114 8 -7 15 -27 15 -44 0 -29 44 -96 63 -96
14 0 54 -46 50 -57 -6 -18 -23 -16 -23 1 0 8 -10 16 -22 18 -12 2 -33 19 -45
38 -12 19 -27 40 -33 47 -5 7 -10 22 -10 34 0 12 -7 30 -16 40 -13 14 -14 28
-6 85 8 56 7 76 -6 104 -8 19 -16 41 -18 48 -7 36 -15 42 -52 42 -31 0 -42 6
-60 30 -13 17 -31 30 -42 30 -11 0 -32 14 -47 30 -18 21 -36 30 -57 30 -38 0
-120 40 -145 71 -10 12 -23 19 -29 15 -19 -11 -14 -33 8 -39 30 -8 24 -22 -16
-46 l-36 -22 -42 21 c-23 11 -51 20 -62 20 -11 0 -31 11 -44 25 -13 14 -35 25
-50 25 -14 0 -35 7 -47 15 -20 14 -74 16 -176 6 -5 -1 -5 -6 -2 -12 4 -6 19
-7 37 -4 20 5 35 2 46 -8 9 -8 28 -17 42 -19 14 -1 26 -10 28 -20 3 -13 -6
-16 -50 -16 -29 0 -74 -3 -100 -7 -45 -7 -48 -6 -58 19 -8 23 -13 25 -30 16
-11 -6 -20 -17 -20 -25 0 -22 -69 -19 -99 4 l-24 19 42 7 c50 8 59 24 34 61
-15 23 -19 25 -21 10 -3 -12 -11 -16 -30 -14 -21 2 -31 14 -51 63 -30 69 -40
80 -100 95 -45 11 -80 43 -81 73 0 18 -8 20 -80 17 -57 -1 -80 -8 -80 -23 0
-7 -12 -23 -25 -36 -14 -13 -25 -28 -25 -33 0 -6 -11 -8 -25 -5 -17 3 -30 -1
-38 -12 -7 -9 -23 -21 -37 -27 -18 -8 -24 -19 -25 -40 0 -26 -4 -29 -36 -32
-20 -2 -59 6 -87 17 -50 20 -52 20 -64 2 -12 -17 -26 -18 -123 -17 -66 1 -119
7 -133 15 -21 11 -26 9 -47 -13 -30 -32 -92 -36 -133 -7 -32 22 -212 41 -212
22 0 -6 -9 -20 -20 -31 -27 -27 -150 -29 -201 -3 -19 10 -51 17 -71 17 -21 0
-38 4 -38 8 0 5 7 8 16 8 8 0 12 5 9 10 -9 15 -51 12 -65 -5 -10 -12 -10 -18
0 -30 19 -23 6 -29 -34 -15 -40 13 -56 7 -56 -19 0 -28 -19 -40 -51 -31 -16 5
-29 5 -29 0 0 -4 -16 -17 -36 -29 -39 -23 -140 -29 -174 -11 -23 12 -120 20
-120 9 0 -3 14 -9 30 -12 34 -7 39 -30 13 -59 -10 -11 -22 -34 -28 -51 -9 -29
-15 -33 -60 -39 -129 -18 -161 -25 -180 -35 -11 -7 -42 -17 -70 -23 -54 -12
-354 -122 -396 -145 -14 -8 -35 -11 -47 -8 -16 4 -29 -3 -50 -25 -15 -17 -54
-51 -87 -75 -33 -24 -86 -73 -118 -109 l-57 -65 0 -1557 c0 -1689 -4 -1585 54
-1531 15 14 32 25 38 25 6 0 19 6 27 14 9 8 28 18 44 21 22 6 26 4 21 -9 -3
-8 -14 -18 -23 -21 -10 -3 -35 -21 -57 -41 -21 -20 -54 -42 -71 -50 l-33 -14
0 -390 c0 -217 4 -390 9 -390 5 0 14 7 21 15 7 8 16 15 21 15 4 0 19 10 33 23
22 21 37 24 96 18 13 -1 13 -2 0 -11 -8 -5 -24 -10 -35 -10 -11 0 -32 -11 -47
-25 -15 -14 -32 -25 -38 -25 -5 0 -10 -5 -10 -11 0 -7 -10 -9 -25 -7 l-25 5 0
-538 0 -539 151 0 c94 0 158 4 172 11 16 9 22 9 25 1 3 -9 64 -12 208 -12 195
1 204 2 218 22 10 13 21 18 32 14 16 -6 16 -8 -2 -21 -17 -13 -14 -14 38 -15
52 0 58 2 74 28 9 16 34 40 55 53 22 13 39 27 39 31 0 5 8 8 19 8 10 0 24 7
31 15 7 8 21 15 31 15 27 0 32 16 14 44 -16 24 -16 26 11 51 15 14 37 25 49
25 12 0 34 9 48 20 18 15 34 19 52 14 30 -7 21 -24 -14 -27 -12 -1 -21 -8 -21
-18 0 -26 -35 -60 -48 -47 -14 14 -42 3 -42 -16 0 -8 9 -18 20 -21 23 -7 26
-37 5 -55 -10 -8 -31 -10 -65 -5 -41 6 -50 4 -50 -8 0 -8 -12 -19 -27 -25 -16
-5 -46 -26 -68 -45 l-40 -36 262 0 c260 -1 262 0 265 21 5 32 28 35 28 4 l0
-26 204 0 c197 0 204 1 199 19 -3 11 -11 22 -19 25 -8 3 -14 16 -14 28 0 17
-6 24 -22 25 -13 1 -63 8 -111 14 -82 12 -91 11 -140 -9 -29 -11 -63 -22 -77
-24 -23 -3 -25 0 -22 36 5 55 18 75 60 94 50 22 158 32 210 19 39 -9 95 -50
118 -88 9 -14 132 -79 151 -79 4 0 40 -13 78 -30 l70 -29 291 -1 c250 0 293 2
298 15 3 8 17 15 32 15 14 0 38 6 52 14 34 17 240 83 318 101 33 7 82 19 109
25 67 15 110 38 135 72 11 15 28 28 37 28 17 0 116 95 126 122 7 19 86 73 149
103 21 9 38 21 38 26 0 5 9 9 19 9 10 0 21 6 24 14 3 7 16 16 29 19 97 22 222
88 270 143 17 20 41 40 52 45 12 5 39 20 61 34 22 14 51 30 64 35 13 6 37 20
53 31 27 20 74 40 173 75 22 8 54 21 70 29 103 48 124 54 245 80 126 26 228
53 251 66 13 7 76 23 139 36 187 39 192 41 260 58 98 24 137 32 316 64 29 5
74 17 100 26 76 26 223 65 284 75 30 5 73 14 95 19 22 6 63 15 90 21 81 19
129 33 140 42 5 4 23 8 40 8 16 0 39 7 49 15 11 8 30 15 42 15 13 0 44 11 70
25 26 14 51 25 55 25 4 0 28 -12 53 -28 48 -29 62 -62 25 -62 -11 0 -48 -11
-82 -24 -34 -13 -73 -26 -87 -29 -14 -3 -38 -10 -55 -15 -46 -17 -247 -62
-273 -62 -12 0 -55 -9 -95 -19 -39 -10 -103 -24 -142 -31 -38 -7 -81 -17 -95
-23 -14 -5 -68 -18 -120 -28 -135 -25 -193 -38 -290 -65 -47 -12 -114 -26
-150 -30 -35 -3 -83 -13 -105 -21 -22 -8 -60 -16 -85 -19 -25 -2 -54 -8 -65
-14 -11 -5 -65 -21 -119 -35 -55 -14 -104 -29 -110 -35 -5 -5 -24 -10 -41 -10
-36 -1 -111 -21 -142 -38 -12 -6 -28 -12 -35 -12 -7 0 -35 -11 -63 -25 -27
-13 -60 -25 -72 -25 -12 0 -24 -4 -28 -10 -3 -5 -38 -19 -78 -32 -48 -15 -86
-35 -113 -59 -23 -20 -52 -40 -65 -44 -45 -12 -93 -40 -156 -88 -34 -26 -66
-47 -69 -47 -4 0 -22 -11 -40 -25 -18 -14 -38 -25 -44 -25 -6 0 -28 -11 -48
-25 -20 -14 -47 -25 -59 -25 -12 0 -25 -5 -28 -10 -4 -6 -29 -23 -57 -38 -73
-39 -77 -42 -143 -95 -33 -26 -76 -67 -95 -90 -38 -46 -154 -147 -168 -147 -5
0 -15 -6 -21 -14 -6 -8 -46 -22 -89 -31 -42 -10 -103 -26 -134 -36 -32 -11
-68 -19 -80 -19 -13 0 -30 -5 -38 -10 -10 -6 74 -10 247 -10 l263 0 128 129
c70 71 141 135 158 144 16 8 39 23 51 34 55 47 64 53 88 59 15 4 36 19 47 35
12 16 27 29 34 29 6 0 14 7 17 14 3 8 23 18 44 21 21 3 56 14 78 24 22 11 51
22 65 25 14 4 49 13 77 21 90 25 164 37 257 41 49 2 95 9 103 16 10 8 27 8 67
-2 62 -15 156 -6 137 13 -15 15 40 38 109 43 30 3 77 9 103 15 26 5 63 9 81 9
18 0 41 7 52 15 10 8 42 15 69 15 28 0 84 7 125 15 41 8 107 19 146 24 40 6
88 16 107 25 20 8 62 17 94 21 62 6 127 21 155 36 10 5 32 9 49 9 17 0 45 6
62 14 83 37 237 78 437 117 63 12 151 35 195 51 175 63 193 68 273 68 90 0
101 -7 109 -68 6 -44 -13 -60 -47 -42 -10 6 -56 10 -102 10 -67 0 -93 -5 -136
-25 -30 -14 -62 -25 -71 -25 -9 0 -22 -5 -27 -10 -16 -16 -115 -50 -146 -50
-15 0 -39 -5 -55 -11 -15 -6 -46 -13 -68 -16 -21 -2 -42 -6 -46 -9 -4 -2 -53
-13 -110 -24 -110 -22 -178 -39 -194 -50 -5 -4 -37 -12 -70 -19 -33 -6 -81
-18 -106 -26 -26 -8 -55 -15 -65 -15 -18 0 -41 -6 -129 -34 -27 -9 -62 -16
-77 -16 -15 0 -30 -4 -33 -10 -3 -5 -22 -10 -41 -10 -19 0 -69 -9 -112 -19
-42 -10 -124 -24 -182 -30 -58 -6 -152 -16 -210 -22 -58 -6 -115 -11 -127 -10
-69 3 -61 4 -208 -29 -80 -19 -188 -50 -207 -60 -10 -6 -27 -10 -37 -10 -11 0
-30 -4 -43 -9 -13 -5 -61 -17 -108 -27 -47 -10 -94 -24 -105 -31 -11 -7 -29
-13 -42 -13 -12 0 -25 -5 -28 -10 -3 -6 -19 -10 -34 -10 -16 0 -34 -7 -41 -15
-7 -8 -18 -15 -25 -15 -7 0 -29 -11 -49 -25 -20 -14 -43 -25 -51 -25 -8 0 -26
-11 -41 -25 -14 -13 -36 -27 -48 -31 -11 -4 -49 -34 -84 -68 -35 -33 -69 -64
-76 -68 -8 -4 -17 -19 -20 -33 -4 -14 -13 -25 -21 -25 -8 0 -15 -5 -15 -11 0
-7 117 -9 378 -6 422 4 407 2 559 81 17 9 38 16 46 16 8 0 20 7 27 15 7 8 24
15 39 15 14 0 98 14 186 30 88 17 205 37 260 46 55 8 136 24 181 35 44 10 111
24 150 30 38 5 105 15 149 22 44 7 85 15 90 19 6 3 63 11 127 17 65 6 130 16
145 22 15 6 53 13 83 16 30 2 89 14 130 25 41 11 89 24 105 28 17 4 39 12 50
17 11 6 54 23 97 37 74 26 84 27 372 31 225 3 296 1 297 -8 0 -7 1 -28 2 -47
l2 -35 -42 3 c-23 1 -86 -6 -140 -17 -79 -15 -130 -18 -265 -15 -106 3 -169 1
-173 -6 -3 -5 -18 -10 -33 -10 -15 0 -52 -10 -82 -21 -30 -12 -73 -24 -95 -26
-22 -3 -44 -9 -50 -14 -5 -5 -21 -9 -36 -9 -15 0 -32 -7 -39 -15 -7 -8 -23
-15 -35 -15 -28 0 -117 -17 -164 -32 -19 -6 -75 -14 -125 -19 -146 -13 -196
-21 -202 -30 -3 -5 -22 -9 -42 -9 -54 0 -225 -29 -236 -40 -6 -6 -26 -10 -46
-10 -19 0 -51 -4 -70 -9 -19 -5 -69 -14 -110 -20 -41 -7 -97 -17 -125 -23 -27
-6 -75 -14 -105 -18 -30 -4 -82 -15 -115 -24 -33 -8 -86 -15 -117 -16 -31 0
-60 -5 -63 -10 -9 -15 3261 -13 3361 1 55 9 81 9 97 1 21 -11 203 -5 422 15
74 6 769 9 860 4 22 -2 189 0 370 3 266 4 338 8 368 21 35 14 37 14 49 -5 7
-11 19 -20 27 -20 8 0 23 -8 33 -17 17 -15 19 -15 32 3 13 17 16 17 42 4 23
-13 172 -15 1078 -15 1101 0 1097 0 1161 42 11 7 28 13 39 13 11 0 33 4 50 10
17 5 69 19 116 31 47 11 117 29 155 39 39 10 127 25 196 34 70 9 141 21 158
27 17 6 42 8 55 5 16 -4 30 0 40 9 8 8 22 15 31 15 9 0 13 5 9 11 -3 6 -15 9
-25 6 -23 -6 -61 67 -53 101 5 15 2 22 -8 22 -14 0 -56 130 -63 198 -5 47 -50
112 -77 112 -19 0 -113 -16 -303 -50 -33 -6 -85 -15 -115 -20 -30 -5 -79 -18
-108 -29 -29 -12 -85 -26 -124 -31 -79 -11 -121 -32 -137 -67 -9 -20 -17 -23
-48 -20 -41 5 -63 -3 -93 -33 -19 -19 -82 -51 -127 -64 -17 -6 -23 -3 -23 8 0
12 10 16 39 16 22 0 43 5 46 10 6 10 -12 14 -52 10 -15 -1 -23 4 -23 14 0 13
12 16 55 16 30 0 55 5 55 10 0 6 -7 10 -16 10 -25 0 -10 25 17 28 16 2 29 13
38 32 7 17 18 30 26 30 7 0 18 6 24 14 7 8 28 17 47 21 19 3 37 12 40 19 6 15
56 38 124 56 25 7 55 16 68 21 13 5 33 9 45 9 12 0 38 8 57 19 19 10 60 22 90
26 30 3 78 13 105 20 72 20 109 29 118 26 30 -6 163 11 175 24 3 3 -2 13 -11
23 -10 10 -17 28 -17 40 0 12 -4 22 -8 22 -10 0 -32 60 -32 87 0 11 -9 28 -20
38 -11 10 -20 28 -20 40 0 13 -7 28 -15 35 -8 7 -15 21 -15 32 0 30 -29 91
-57 120 -24 26 -30 27 -87 21 -34 -3 -74 -12 -89 -20 -16 -8 -35 -12 -43 -9
-8 3 -22 2 -32 -3 -30 -15 -86 -30 -141 -37 -42 -5 -59 -13 -81 -38 -21 -22
-45 -35 -87 -45 -32 -7 -69 -21 -83 -30 -14 -9 -44 -25 -67 -35 -23 -10 -52
-29 -64 -42 -12 -13 -36 -26 -53 -30 -32 -7 -61 -23 -111 -61 -16 -13 -34 -27
-40 -31 -27 -20 -110 -53 -129 -50 -15 2 -20 9 -18 26 4 30 -22 29 -36 -2 -13
-29 -7 -36 27 -37 22 0 18 -4 -24 -24 -45 -22 -51 -23 -67 -8 -14 13 -40 16
-140 14 l-123 -2 -53 46 c-31 26 -64 45 -77 45 -13 0 -36 5 -51 10 -50 19
-148 31 -293 35 -79 2 -157 8 -175 13 -17 6 -58 15 -91 21 -33 7 -80 19 -103
26 -32 11 -49 12 -64 4 -11 -6 -69 -9 -141 -8 -67 2 -165 2 -217 1 -52 -1
-212 -4 -355 -7 -143 -3 -276 -7 -295 -10 -19 -2 -111 -7 -205 -9 -93 -3 -231
-9 -305 -15 -177 -14 -367 -15 -405 -3 -17 5 -40 6 -51 2 -11 -5 -149 -10
-306 -12 -242 -2 -288 -1 -303 12 -13 11 -37 14 -87 12 -76 -3 -133 -4 -225
-2 -34 1 -71 -3 -81 -9 -35 -19 -58 15 -53 80 2 33 87 42 205 23 21 -4 54 -1
75 6 31 10 45 9 98 -9 58 -20 74 -20 340 -13 153 4 306 6 341 5 115 -4 146 -4
362 7 118 6 280 12 360 15 169 4 256 11 358 26 57 8 81 8 104 -2 23 -9 63 -9
186 0 86 6 247 11 357 10 110 0 207 2 215 5 9 4 52 -1 95 -10 44 -9 100 -20
125 -25 77 -15 203 -31 236 -30 17 1 46 -5 64 -13 24 -9 43 -11 66 -4 52 14
201 -8 227 -34 12 -11 40 -33 61 -49 37 -28 44 -29 143 -29 57 0 112 4 122 10
26 13 75 -3 79 -26 7 -36 21 -36 58 0 20 20 43 36 49 36 7 0 23 9 36 19 16 13
34 17 52 14 21 -4 27 -1 27 12 0 18 35 55 52 55 5 0 19 11 31 24 25 27 136 86
161 86 9 0 19 7 22 15 4 8 10 15 15 15 21 0 146 64 170 87 15 13 42 28 60 33
19 4 48 13 64 19 81 27 168 51 191 51 13 0 36 7 49 16 17 11 35 14 64 9 22 -4
42 -2 45 3 11 18 -13 62 -39 74 -14 6 -24 17 -21 24 3 7 -4 29 -15 50 -10 21
-19 44 -19 50 0 6 -11 19 -25 28 -20 13 -25 25 -25 56 0 29 -4 40 -15 40 -8 0
-15 9 -15 19 0 11 -7 32 -14 48 -8 15 -17 35 -20 44 -5 20 -61 32 -86 19 -10
-6 -32 -10 -49 -10 -17 0 -31 -4 -31 -9 0 -9 -63 -35 -111 -45 -14 -3 -38 -17
-55 -31 -16 -14 -34 -25 -39 -25 -16 0 -202 -96 -232 -120 -14 -11 -36 -20
-50 -20 -13 0 -26 -7 -29 -15 -4 -8 -15 -15 -26 -15 -11 0 -34 -10 -51 -22
-21 -15 -44 -22 -78 -21 -32 0 -50 -4 -53 -13 -3 -8 -2 -13 2 -11 4 1 8 -2 10
-8 2 -5 -7 -12 -20 -15 -14 -4 -24 -15 -26 -27 -3 -19 -10 -21 -58 -21 -43 1
-62 -5 -92 -25 -74 -52 -143 -68 -312 -72 -88 -2 -172 1 -195 6 -22 6 -74 15
-115 21 -41 5 -82 15 -90 22 -8 7 -48 26 -89 41 -73 27 -77 28 -225 22 -110
-5 -173 -3 -231 7 -59 10 -96 11 -142 4 -40 -6 -100 -6 -173 1 -71 7 -119 7
-130 1 -11 -6 -65 -6 -141 -1 -68 5 -128 7 -132 4 -4 -3 -301 -7 -660 -9 -359
-3 -697 -9 -752 -13 -55 -4 -143 -6 -195 -5 -314 6 -428 6 -452 -1 -25 -6 -28
-5 -28 18 0 14 12 38 27 54 l28 30 385 1 c212 1 417 5 455 9 39 3 79 5 90 5
18 -1 519 0 620 1 22 1 65 0 95 -2 99 -5 331 0 380 8 27 4 54 5 62 1 7 -4 153
-10 323 -14 171 -3 326 -11 345 -16 41 -12 215 -15 281 -5 46 7 163 -17 175
-36 3 -5 21 -9 40 -9 19 0 47 -6 62 -13 35 -18 150 -37 232 -38 223 -3 372 16
420 55 31 26 117 59 153 59 21 0 40 4 43 8 3 5 13 9 24 9 10 0 20 10 24 24 4
16 25 32 70 55 35 17 69 38 75 45 7 8 25 18 41 21 16 3 34 13 41 21 6 8 18 14
27 14 8 0 31 12 50 26 19 15 62 40 96 57 33 17 63 34 66 37 3 4 16 11 30 15
14 4 32 14 41 22 27 23 92 53 116 53 13 0 26 7 29 15 4 10 20 15 49 15 52 0
64 14 38 43 -11 12 -23 30 -26 40 -4 9 -13 17 -20 17 -9 0 -13 8 -10 22 3 17
-3 27 -25 40 -20 12 -32 29 -36 52 -6 33 -95 136 -117 136 -6 0 -15 13 -20 29
-6 16 -17 32 -25 35 -16 6 -117 -38 -135 -60 -6 -8 -19 -14 -28 -14 -9 0 -31
-9 -49 -20 -18 -11 -39 -20 -46 -20 -7 0 -24 -8 -37 -18 -45 -35 -106 -37 -64
-2 8 7 15 19 15 28 0 8 7 23 15 32 14 15 11 21 -34 58 -69 58 -88 64 -153 45
-29 -8 -68 -22 -86 -29 -19 -8 -68 -17 -110 -20 -42 -4 -101 -13 -130 -21 -28
-8 -62 -13 -75 -12 -12 1 -35 -1 -52 -5 -16 -4 -52 -12 -80 -18 -27 -6 -70
-16 -95 -23 -67 -19 -251 -38 -296 -31 -80 13 -258 12 -301 -2 -47 -15 -218
-12 -418 7 -60 6 -171 15 -245 21 -126 9 -383 38 -683 76 -70 9 -130 14 -133
11 -3 -3 -24 1 -46 9 -22 8 -77 14 -122 14 -79 0 -347 34 -367 46 -5 3 -15 1
-22 -4 -14 -11 -117 -26 -117 -16 0 18 47 68 74 79 36 15 308 10 338 -6 9 -5
60 -9 112 -9 52 0 117 -4 143 -10 26 -5 91 -14 143 -20 52 -5 131 -14 175 -20
44 -6 116 -14 160 -20 44 -5 127 -16 185 -25 268 -40 798 -70 834 -47 6 3 114
7 241 8 208 2 369 17 403 38 25 15 212 47 307 52 70 4 141 15 195 30 100 28
181 31 205 8 9 -9 33 -23 53 -29 25 -9 38 -20 40 -34 2 -12 5 -21 8 -21 7 0
57 33 73 48 7 7 26 16 42 19 16 3 34 11 40 19 14 17 2 54 -17 54 -8 0 -31 18
-52 40 -45 46 -114 72 -187 72 -27 0 -56 5 -63 11 -7 6 -36 12 -63 13 -28 1
-62 7 -77 13 -39 15 -328 7 -447 -13 -55 -9 -161 -18 -235 -20 -74 -3 -232
-10 -350 -16 -241 -13 -419 -8 -690 20 -102 10 -216 22 -255 25 -38 4 -83 8
-100 10 -16 2 -77 6 -135 10 -58 3 -116 8 -130 10 -14 2 -52 1 -85 -3 -62 -7
-217 8 -270 26 -16 6 -73 13 -125 16 -109 7 -136 21 -105 56 16 18 26 19 104
14 47 -3 129 -14 181 -24 67 -13 162 -20 325 -24 126 -3 254 -10 285 -16 68
-12 391 -38 650 -52 142 -8 244 -7 380 1 102 7 265 16 363 21 98 5 183 12 188
16 14 9 391 5 509 -6 58 -5 137 -16 175 -26 39 -9 86 -18 105 -21 31 -4 33 -3
18 10 -23 19 -23 27 2 27 24 0 51 -48 44 -77 -4 -16 6 -29 48 -58 51 -38 144
-120 177 -159 9 -10 23 -27 33 -37 9 -9 19 -26 23 -38 3 -11 28 -42 56 -68 27
-27 49 -54 49 -61 0 -19 38 -77 78 -117 12 -12 22 -30 22 -39 0 -22 17 -54 46
-85 13 -14 24 -32 24 -39 0 -7 16 -36 35 -65 19 -28 35 -60 35 -71 0 -10 8
-35 19 -55 10 -20 42 -83 71 -141 30 -58 63 -118 74 -133 17 -23 18 -31 8 -47
-10 -17 -8 -21 17 -34 30 -16 61 -77 66 -132 1 -17 10 -45 19 -62 9 -17 16
-37 16 -45 0 -8 9 -26 20 -40 11 -14 20 -31 20 -38 0 -14 28 -79 64 -149 13
-25 27 -61 31 -80 7 -34 41 -91 57 -98 4 -2 8 -14 8 -26 0 -12 7 -32 16 -45 9
-12 18 -35 19 -49 3 -34 21 -78 34 -87 14 -8 14 -52 1 -60 -5 -3 -10 -16 -10
-28 0 -13 3 -17 8 -11 5 8 15 7 36 -1 l30 -12 -24 -8 c-29 -9 -62 -38 -39 -34
22 3 49 -12 49 -27 0 -8 7 -14 15 -14 8 0 19 -17 26 -42 6 -24 15 -51 20 -60
5 -10 9 -29 9 -43 0 -25 0 -25 -20 -5 -25 25 -40 26 -40 2 0 -25 33 -55 46
-42 5 5 14 6 20 2 15 -10 64 -113 64 -134 0 -17 14 -18 195 -18 l195 0 0 2760
0 2759 -22 13 c-13 7 -45 13 -73 14 -91 4 -242 21 -253 28 -7 4 -12 20 -12 36
0 30 -4 32 -67 45 -17 3 -37 13 -44 21 -29 35 -75 49 -184 56 -60 4 -129 10
-153 13 -34 6 -47 3 -64 -11 -15 -15 -36 -19 -87 -19 -62 0 -66 -1 -65 -22 0
-19 -3 -22 -23 -17 -14 4 -33 -1 -49 -11 l-25 -16 21 -36 c11 -19 19 -37 18
-39 -2 -2 -27 4 -56 12 -47 14 -52 19 -58 50 -3 19 -14 44 -24 57 -9 12 -20
34 -24 50 -7 28 -36 38 -36 12 0 -8 -15 -21 -32 -28 -35 -15 -51 -30 -61 -60
-5 -14 0 -19 22 -23 22 -5 27 -10 23 -26 -3 -13 -10 -17 -21 -12 -9 3 -24 9
-34 11 -10 3 -16 12 -13 19 3 8 0 14 -7 14 -7 0 -24 6 -38 14 -48 25 -168 58
-188 51 -11 -3 -22 -1 -25 4 -4 6 -28 7 -57 4 -41 -5 -53 -2 -72 15 -19 17
-32 19 -103 16 -75 -3 -82 -2 -87 17 -4 13 1 24 14 32 22 14 26 47 6 47 -8 0
-22 -9 -32 -20 -18 -20 -19 -20 -36 -1 -10 10 -24 21 -31 24 -24 10 14 27 60
27 31 0 42 4 42 15 0 11 -12 15 -42 15 -24 1 -54 7 -68 15 -31 18 -99 19 -105
3 -3 -7 -1 -26 3 -43 7 -25 14 -31 41 -33 30 -3 33 -6 26 -30 -9 -37 -9 -54
-1 -73 5 -12 -1 -15 -34 -14 -22 0 -45 6 -52 13 -7 7 -19 12 -27 12 -10 0 -4
10 17 26 34 27 42 58 16 68 -28 11 -42 7 -47 -14 -3 -11 -12 -20 -21 -20 -11
0 -16 -9 -16 -30 0 -26 -3 -30 -29 -30 -16 0 -39 11 -55 25 -32 30 -58 26 -74
-9 -10 -22 -13 -23 -66 -14 -45 7 -63 5 -87 -8 -21 -10 -45 -14 -73 -11 -22 3
-49 2 -60 -2 -10 -4 -47 -3 -82 1 -43 6 -71 5 -85 -2 -11 -6 -47 -13 -80 -16
-33 -2 -79 -11 -102 -20 -83 -30 -149 -43 -176 -33 -14 6 -42 7 -62 4 -22 -4
-40 -2 -44 4 -3 6 -22 11 -41 11 -19 0 -46 7 -59 16 -28 18 -45 12 -45 -17 0
-16 -4 -18 -17 -10 -10 5 -49 12 -88 15 -38 3 -64 3 -57 0 31 -15 4 -20 -89
-17 -113 4 -207 -11 -216 -34 -6 -17 -61 -11 -94 10 -14 9 -24 9 -37 0 -26
-16 -38 -4 -46 46 -7 48 4 71 35 71 13 0 19 7 19 25 0 13 6 28 14 32 25 15 25
61 0 88 -19 21 -22 30 -14 51 6 14 10 27 10 30 0 8 -59 4 -87 -7 -28 -11 -28
-11 -5 -22 12 -5 22 -18 22 -29 0 -14 -6 -17 -22 -14 -147 30 -156 29 -135 -4
7 -12 23 -20 39 -20 23 0 32 -8 53 -50 14 -27 25 -52 25 -56 0 -3 -18 -3 -40
1 -36 6 -40 5 -40 -13 0 -21 24 -52 41 -52 5 0 9 -13 9 -29 0 -24 -6 -31 -45
-45 -40 -16 -44 -20 -39 -42 5 -20 3 -24 -17 -24 -13 1 -35 7 -49 15 -29 17
-80 20 -80 5 0 -16 -39 -12 -71 7 -29 18 -30 17 -53 -12 -23 -29 -25 -29 -43
-12 -11 9 -33 17 -50 17 -17 0 -36 7 -43 15 -17 20 -37 19 -49 -3 -5 -10 -21
-24 -35 -31 -22 -12 -29 -12 -51 3 -14 9 -25 23 -25 32 0 24 -31 64 -50 64
-49 0 -67 79 -20 90 29 7 39 39 16 52 -21 12 -20 29 2 67 13 23 14 33 5 39 -6
4 -16 20 -22 35 -9 24 -14 26 -30 17 -30 -16 -46 -13 -31 5 7 8 8 15 3 15 -6
0 -28 14 -49 30 -45 36 -84 37 -99 2 -8 -18 -17 -22 -40 -20 -26 3 -30 7 -30
33 0 28 -3 30 -35 30 -32 0 -35 3 -38 32 -2 17 8 97 23 178 23 130 25 155 16
238 -6 50 -18 121 -26 157 -9 36 -20 94 -25 130 -17 127 -48 161 -178 196 -10
3 -12 13 -6 36 4 18 8 65 9 103 1 39 12 118 25 177 21 92 23 110 11 131 -7 14
-11 30 -7 35 3 6 1 22 -6 37 -10 21 -9 32 4 58 26 54 38 101 38 149 0 30 6 53
17 63 14 14 14 18 2 26 -10 6 -14 32 -15 96 0 70 -5 98 -23 138 -27 57 -36
154 -19 201 9 24 7 41 -6 79 -9 27 -16 57 -16 67 0 10 -9 31 -20 46 -21 30
-37 82 -24 82 15 -1 40 -24 48 -45 6 -14 10 -16 13 -7 5 14 -26 82 -38 82 -14
0 -68 89 -74 122 l-7 36 41 -11 c23 -6 41 -16 41 -23 0 -7 7 -15 16 -18 13 -5
15 -1 10 20 -9 34 -24 49 -59 58 -23 5 -26 10 -21 31 4 17 2 25 -7 26 -24 2
44 17 84 18 20 0 37 5 37 10 0 19 -45 41 -82 41 -21 0 -38 5 -38 10 0 6 6 10
13 9 26 -3 37 2 37 16 0 8 -8 15 -19 15 -24 0 -45 25 -39 48 3 10 -1 23 -9 30
-25 24 -13 31 60 34 59 2 72 6 72 20 0 18 -104 78 -136 78 -25 0 -24 18 2 46
20 21 23 22 44 8 20 -13 24 -13 39 1 9 9 16 20 16 24 0 4 -20 27 -45 51 -25
24 -45 49 -45 55 0 14 -57 38 -70 30 -8 -5 -9 5 -4 30 5 28 4 36 -5 31 -25
-16 -40 13 -34 63 l5 48 -50 7 c-58 8 -106 42 -116 82 -6 22 -11 25 -31 20
-14 -4 -25 -2 -25 4 0 5 -12 10 -26 10 -14 0 -39 11 -56 25 -32 27 -43 30 -53
15 -3 -5 -17 -10 -30 -10 -18 0 -25 7 -30 30 -4 17 -11 30 -16 30 -20 0 -49
-21 -49 -35 0 -25 -17 -17 -30 15 -17 40 -48 40 -62 -1 -9 -26 -15 -30 -42
-27 -26 2 -35 11 -57 50 -22 42 -36 53 -115 94 -49 25 -93 49 -98 54 -4 4 -23
6 -41 3 -19 -3 -44 1 -63 11 -17 9 -51 16 -75 16 -39 0 -49 5 -81 40 -20 23
-41 38 -46 35 -13 -8 -13 -42 0 -50 6 -3 10 -11 10 -17 0 -21 -101 -1 -130 27
-14 14 -35 25 -46 25 -10 1 -50 30 -89 65 -38 36 -75 65 -81 65 -5 0 -20 -13
-32 -30z m1858 -4057 c0 -26 35 -93 50 -93 9 0 30 77 30 110 0 20 1 20 26 -3
l26 -24 -21 -41 c-16 -32 -21 -60 -21 -125 0 -53 -5 -88 -12 -95 -10 -10 -10
-15 2 -22 11 -7 12 -13 2 -35 -7 -14 -12 -35 -12 -46 0 -14 -5 -19 -17 -17
-10 2 -16 11 -15 19 10 39 6 205 -4 214 -21 17 -82 149 -89 189 l-6 38 30 -22
c21 -14 31 -30 31 -47z m1989 -1657 c15 -8 37 -13 48 -10 29 8 36 -10 19 -44
-14 -27 -17 -28 -78 -25 -81 6 -91 9 -84 31 8 24 -32 45 -58 30 -14 -8 -15
-12 -5 -24 20 -25 -2 -34 -55 -22 -35 7 -60 7 -86 -1 -49 -14 -177 -14 -186 0
-10 16 16 29 59 29 34 0 38 2 32 20 -9 29 21 26 41 -5 19 -30 68 -34 83 -8 5
10 24 23 43 29 48 18 193 17 227 0z m-1316 -95 c5 -21 67 -34 155 -33 38 0 52
-4 52 -14 0 -8 -3 -14 -7 -15 -5 0 -25 -2 -45 -5 -23 -3 -50 2 -67 11 -34 17
-71 20 -71 5 0 -5 -16 -10 -35 -10 -28 0 -35 4 -35 20 0 22 -15 27 -26 8 -4
-6 -2 -14 4 -16 20 -6 13 -32 -10 -41 -27 -10 -88 15 -88 35 0 7 16 16 36 20
24 4 38 13 41 25 6 22 8 22 33 9 14 -8 22 -6 32 5 17 19 25 19 31 -4z m-868
-469 c4 -48 39 -82 79 -76 17 3 38 8 46 11 8 3 47 7 85 9 39 2 89 6 112 9 69
10 153 -19 213 -74 27 -25 50 -50 50 -54 0 -4 12 -26 28 -50 15 -23 29 -55 32
-71 4 -22 17 -37 48 -55 24 -14 50 -37 58 -51 17 -32 18 -112 2 -129 -11 -10
-8 -17 15 -35 34 -27 34 -36 2 -36 -14 0 -25 -5 -25 -12 0 -6 -6 -19 -14 -27
-8 -9 -16 -24 -18 -35 -4 -25 49 -43 122 -41 33 1 59 -4 65 -11 25 -31 241
-73 410 -80 39 -1 133 -12 210 -24 167 -25 267 -38 395 -49 121 -11 224 -31
213 -42 -10 -10 -359 -13 -384 -5 -17 7 -155 21 -383 41 -93 8 -194 22 -225
29 -31 8 -90 18 -131 22 -41 4 -91 14 -110 24 -36 18 -226 44 -243 33 -5 -3
-7 -14 -4 -24 3 -10 -1 -23 -9 -30 -8 -6 -14 -18 -14 -25 0 -8 -5 -14 -10 -14
-17 0 -70 30 -70 39 0 5 -16 24 -35 42 -34 34 -86 64 -157 93 -42 16 -45 27
-23 70 8 15 15 32 15 36 0 5 15 35 34 67 38 68 52 138 62 295 6 103 5 107 -17
118 -22 13 -259 17 -308 6 -45 -10 -49 -43 -8 -61 12 -6 27 -20 32 -33 6 -13
21 -25 35 -28 50 -12 80 -29 80 -47 0 -16 -3 -16 -40 3 -22 11 -40 17 -40 14
0 -4 -10 1 -22 12 -20 17 -21 18 -15 1 5 -13 0 -20 -19 -27 -32 -13 -44 -6
-44 26 0 13 -4 24 -10 24 -5 0 -10 14 -10 31 0 24 -4 30 -16 25 -11 -4 -14 -1
-9 13 3 12 0 21 -10 25 -17 6 -65 105 -65 135 0 45 42 39 45 -7z m-4407 -477
c18 -5 32 -13 32 -17 0 -11 -48 -10 -52 2 -2 5 -23 2 -51 -8 -42 -15 -49 -15
-57 -2 -8 13 -13 12 -32 -7 l-22 -23 22 0 c13 0 21 -4 17 -9 -5 -9 19 -31 59
-56 11 -7 13 -15 7 -24 -8 -12 -16 -12 -56 0 -43 13 -46 16 -43 41 5 29 -9 39
-18 14 -6 -17 -62 -39 -75 -30 -14 8 -11 30 6 44 8 7 15 16 15 21 0 5 -7 6
-15 3 -8 -4 -15 -2 -15 3 0 32 114 73 153 56 23 -11 47 -7 47 7 0 5 -8 11 -17
14 -10 3 -3 4 15 2 23 -2 32 2 33 13 1 9 4 5 8 -9 4 -17 17 -28 39 -35z m5574
-20 c19 -16 42 -25 63 -25 18 0 35 -3 37 -7 6 -15 77 -45 92 -40 14 5 36 -18
36 -37 0 -11 -55 -6 -81 7 -14 8 -34 12 -45 11 -30 -5 -105 27 -148 63 -22 18
-47 33 -55 33 -14 0 -14 1 -1 10 27 17 71 11 102 -15z m-6281 -68 c25 -15 24
-34 -1 -42 -11 -3 -25 -15 -30 -26 -6 -10 -17 -19 -24 -19 -8 0 -16 -8 -19
-17 -10 -30 -52 -95 -62 -97 -5 0 -14 15 -20 34 -6 19 -16 45 -23 58 -20 35
-4 47 24 17 26 -28 44 -26 44 6 0 12 7 19 20 19 11 0 20 5 20 11 0 6 9 24 21
40 l20 29 -26 -10 c-14 -5 -36 -10 -47 -10 -20 0 -21 1 -3 20 10 11 26 20 35
20 9 0 23 12 31 28 l14 27 3 -38 c2 -24 10 -42 23 -50z m2149 -25 c0 -10 -7
-28 -16 -40 -8 -12 -12 -22 -9 -22 4 0 -12 -17 -34 -38 -23 -21 -41 -41 -41
-45 0 -3 -20 -27 -45 -52 -38 -39 -47 -45 -64 -36 -27 15 -34 14 -27 -5 9 -22
-21 -54 -50 -54 -12 0 -30 -7 -39 -16 -9 -9 -18 -14 -21 -11 -6 6 89 99 128
125 13 9 27 22 31 29 4 7 14 13 21 13 14 0 86 66 86 79 0 5 -7 12 -16 15 -19
7 -368 -26 -401 -39 -16 -5 -53 -83 -53 -110 0 -23 74 -89 150 -133 25 -15 51
-32 58 -39 7 -7 18 -13 23 -13 5 0 30 -15 56 -34 71 -50 153 -89 192 -90 43
-1 52 -21 12 -29 -24 -5 -34 -17 -60 -72 -17 -36 -31 -73 -31 -82 0 -26 -48
-101 -70 -108 -27 -9 -25 -33 4 -47 25 -11 41 -36 30 -47 -3 -3 -40 -5 -82 -4
-95 3 -136 -9 -176 -55 -17 -20 -37 -40 -44 -46 -7 -6 -18 -17 -25 -23 -15
-15 -180 -66 -263 -82 -33 -6 -85 -23 -115 -39 -30 -15 -73 -34 -97 -41 -24
-8 -46 -20 -50 -26 -4 -6 -20 -18 -37 -26 -16 -9 -39 -20 -50 -26 -11 -5 -64
-32 -119 -59 -54 -27 -106 -58 -115 -69 -30 -38 -99 -85 -114 -79 -8 3 -34 -4
-58 -15 -23 -11 -58 -24 -78 -27 -20 -4 -41 -10 -46 -15 -23 -17 -152 -40
-200 -35 -27 3 -106 2 -175 -3 -131 -9 -197 -29 -235 -71 -13 -14 -31 -20 -59
-20 -24 0 -52 -8 -66 -17 -26 -19 -99 -41 -162 -50 -27 -4 -38 -10 -38 -22 0
-19 -89 -41 -201 -48 -60 -4 -70 -8 -100 -39 -18 -19 -37 -34 -43 -34 -14 0
-169 -163 -203 -214 -31 -46 -42 -56 -61 -56 -28 0 -23 31 11 69 20 22 43 54
52 70 8 17 19 31 24 31 5 0 25 24 44 53 36 53 163 176 194 188 10 3 63 14 118
24 55 9 105 23 110 30 6 6 24 15 40 18 71 13 161 41 176 54 10 8 40 20 69 28
55 14 100 39 100 55 0 6 15 10 33 10 17 0 79 2 137 6 58 3 140 5 184 4 47 -1
97 5 125 14 25 8 87 27 136 42 112 34 157 57 217 111 26 24 53 43 61 43 8 0
22 9 32 20 10 11 25 20 34 20 9 0 32 8 51 18 141 75 218 111 285 132 22 7 56
20 75 28 19 9 71 19 115 22 94 8 134 22 194 67 24 18 48 33 53 33 4 0 8 9 8
19 0 11 8 22 18 25 11 4 24 17 31 30 12 22 18 23 76 18 128 -10 122 20 -13 62
-48 15 -98 32 -111 37 -13 5 -32 7 -42 4 -26 -8 -74 -55 -83 -80 -8 -19 -8
-19 -17 3 -9 23 -33 30 -44 12 -3 -5 -25 -10 -47 -10 -23 0 -49 -7 -58 -15
-10 -9 -41 -18 -70 -22 -50 -6 -59 -11 -122 -75 -37 -38 -79 -73 -93 -78 -33
-13 -32 -25 5 -36 22 -7 27 -12 20 -24 -7 -12 -13 -12 -33 -1 -15 8 -34 10
-48 6 -13 -5 -62 -9 -109 -9 -52 -1 -104 -9 -134 -19 -41 -15 -54 -16 -79 -6
-25 11 -31 10 -42 -4 -20 -27 -37 -22 -24 7 10 22 20 25 97 32 46 3 96 13 111
20 14 8 35 14 47 14 44 0 131 54 210 131 44 44 87 79 95 79 8 0 34 11 57 25
45 25 135 45 208 45 25 0 47 6 54 15 7 8 19 15 26 15 24 0 15 29 -13 47 -16
10 -38 27 -51 38 -29 25 -109 121 -114 136 -5 15 -56 -9 -63 -31 -3 -9 -31
-30 -62 -45 -31 -16 -72 -40 -92 -53 -46 -32 -183 -102 -197 -102 -7 0 -14 -7
-18 -15 -3 -8 -18 -15 -33 -15 -18 0 -38 -11 -56 -30 -19 -19 -39 -30 -57 -30
-15 0 -33 -7 -40 -15 -14 -17 -95 -55 -117 -55 -8 0 -13 6 -11 13 5 14 76 55
99 56 8 1 26 12 39 26 13 14 31 25 40 25 10 0 28 8 41 18 13 10 46 30 74 43
27 13 92 52 143 87 52 34 97 62 102 62 4 0 18 9 32 19 13 11 36 23 51 26 14 4
34 16 44 27 9 11 31 25 48 32 34 15 135 103 135 118 0 13 22 63 71 163 54 110
90 133 220 140 52 3 105 7 119 10 14 2 68 7 119 11 61 3 108 12 130 24 47 23
51 23 51 2z m4596 -25 c4 -4 2 -13 -4 -20 -16 -19 -5 -27 35 -27 18 0 33 -4
33 -8 0 -5 14 -8 31 -7 22 1 33 -3 36 -14 3 -12 17 -17 47 -19 51 -2 99 -18
92 -31 -3 -5 9 -11 27 -15 19 -4 33 -2 35 4 3 7 9 4 16 -6 12 -15 28 -18 158
-27 14 -1 30 -5 34 -9 4 -5 23 -8 41 -8 19 0 43 -5 55 -11 14 -8 28 -7 49 2
23 9 33 9 42 0 13 -13 57 -15 57 -2 0 5 -6 12 -12 14 -9 4 -8 6 2 6 8 1 29
-11 45 -25 17 -14 41 -31 55 -36 l25 -11 -32 -7 c-37 -8 -241 7 -264 20 -9 5
-26 6 -38 3 -34 -9 -70 5 -67 25 3 15 -6 17 -77 20 -44 1 -86 7 -93 13 -8 6
-21 8 -30 5 -10 -4 -26 1 -38 13 -12 11 -43 25 -71 32 -27 6 -62 18 -77 25
-14 8 -49 14 -77 14 -43 0 -53 4 -67 26 -11 16 -20 21 -24 14 -5 -8 -19 -9
-41 -5 -19 4 -49 8 -68 10 -18 1 -38 9 -42 18 -17 29 12 31 78 5 29 -11 36
-10 60 9 27 20 55 25 69 10z m-4242 -818 l50 -52 -30 -23 c-16 -13 -38 -31
-49 -41 -22 -20 -107 -33 -130 -21 -18 11 -45 60 -45 84 0 16 2 16 18 -2 10
-10 17 -27 14 -36 -5 -21 27 -25 46 -6 9 9 17 8 37 -2 21 -11 29 -11 50 0 22
12 24 18 19 49 -7 38 -20 61 -35 61 -5 0 -25 -18 -45 -40 -20 -22 -41 -40 -46
-40 -5 0 -8 17 -6 37 3 31 7 38 32 44 17 5 34 15 38 24 14 25 30 18 82 -36z
m-22 -224 c15 -20 7 -22 -99 -29 -93 -6 -115 -11 -159 -36 -29 -16 -54 -27
-57 -24 -2 3 -2 -7 0 -21 5 -22 2 -25 -21 -25 -14 0 -65 -20 -114 -44 -48 -25
-121 -60 -162 -79 -42 -19 -90 -47 -107 -61 -17 -14 -35 -26 -41 -26 -24 0
-68 -30 -135 -92 -21 -21 -43 -38 -47 -38 -4 0 -18 -8 -31 -19 -13 -10 -38
-22 -56 -25 -17 -4 -37 -13 -43 -21 -6 -8 -18 -11 -26 -8 -8 3 -36 -7 -64 -21
-27 -14 -56 -26 -63 -26 -7 0 -34 -13 -60 -29 -25 -17 -63 -33 -84 -37 -21 -4
-55 -14 -77 -22 -35 -14 -39 -14 -48 1 -13 25 -105 23 -132 -2 -19 -17 -64
-27 -212 -51 -28 -4 -72 -17 -97 -28 -25 -11 -60 -23 -78 -27 -19 -4 -47 -15
-64 -25 -16 -10 -58 -25 -92 -33 -55 -14 -90 -28 -143 -58 -8 -5 -31 -17 -50
-26 -33 -16 -85 -54 -137 -100 -12 -11 -50 -27 -85 -37 -35 -10 -87 -29 -116
-42 -29 -13 -59 -24 -68 -24 -8 0 -26 -8 -40 -17 -20 -13 -57 -17 -162 -21
l-137 -4 -37 -36 c-38 -36 -51 -83 -28 -97 12 -8 13 -55 1 -74 -7 -11 -13 -10
-34 4 -44 28 -48 75 -6 75 16 0 18 4 11 18 -13 25 -22 101 -15 135 9 47 63 67
180 67 101 1 165 13 220 43 18 9 42 17 54 17 12 0 36 8 53 19 17 10 50 21 74
25 42 6 175 83 217 126 12 11 26 20 34 20 7 0 27 11 44 23 28 20 149 57 188
57 7 0 33 9 58 21 96 44 150 59 212 59 46 0 132 24 209 57 35 16 52 18 80 10
48 -12 170 8 228 39 25 13 49 24 54 24 6 0 21 9 35 20 14 11 36 20 49 20 14 0
32 9 41 20 10 11 29 20 43 20 14 1 57 21 95 46 39 24 77 47 86 50 9 3 22 16
29 29 7 13 27 31 44 40 17 9 45 24 62 34 16 10 41 22 55 26 13 4 40 19 59 34
30 24 155 81 176 81 20 0 94 44 129 77 53 50 96 66 180 68 39 1 84 6 100 12
23 7 41 6 75 -6 25 -9 48 -20 52 -26z m-2786 -58 c4 -18 13 -37 21 -43 12 -8
0 -15 -58 -34 -41 -12 -78 -29 -82 -36 -4 -8 -14 -14 -22 -14 -8 0 -38 -11
-67 -24 -29 -14 -65 -27 -80 -31 -15 -4 -29 -12 -31 -19 -5 -12 -105 -66 -123
-66 -11 0 -60 -45 -65 -59 -2 -5 -16 -12 -30 -16 -24 -6 -25 -4 -22 22 4 23 0
31 -20 40 -14 7 -29 8 -38 2 -22 -14 -29 -11 -29 12 0 12 -4 17 -11 13 -6 -3
-9 -17 -6 -31 3 -18 1 -23 -10 -19 -22 9 -36 -3 -22 -20 17 -21 -4 -17 -34 6
-14 11 -32 20 -40 20 -9 0 -28 7 -44 14 -15 8 -36 17 -45 20 -11 3 -18 15 -18
31 0 36 35 33 67 -6 18 -21 29 -27 36 -20 16 16 24 13 30 -9 6 -23 37 -28 37
-6 0 8 8 17 18 21 16 6 16 7 -2 20 -18 13 -18 15 -2 21 11 4 22 0 31 -12 14
-18 14 -18 15 3 0 29 15 37 31 17 12 -14 14 -14 20 3 7 16 8 15 8 -4 1 -12 10
-27 21 -33 11 -6 20 -17 20 -25 0 -21 16 -19 40 5 11 11 33 20 50 20 36 0 37
11 8 50 -12 16 -18 33 -13 37 4 5 10 2 12 -4 3 -7 12 -13 21 -12 11 0 12 2 5
6 -7 2 -13 9 -13 14 0 12 37 12 45 -1 9 -14 75 -8 75 8 0 6 6 12 14 12 8 0 16
-6 19 -12 4 -10 7 -10 18 0 7 6 23 12 35 12 13 0 29 8 36 18 7 10 26 22 41 26
22 5 27 11 22 26 -8 25 11 26 36 4 22 -20 39 -11 32 17 -5 19 -4 20 16 9 28
-15 36 -8 22 18 -16 29 -14 52 3 46 8 -3 18 -20 22 -37z m8893 -31 c10 -11 10
-20 1 -36 -6 -12 -9 -28 -6 -36 8 -21 -21 -29 -50 -14 -19 11 -27 11 -36 2 -7
-7 -23 -12 -36 -12 -13 0 -41 -15 -62 -33 -35 -30 -79 -48 -190 -77 -25 -7
-57 -17 -72 -22 -15 -5 -39 -11 -55 -13 -15 -2 -52 -9 -82 -14 -30 -6 -180
-11 -335 -11 -268 -2 -283 -1 -331 20 -46 20 -66 22 -257 21 -147 -1 -255 5
-375 19 -92 11 -202 19 -243 18 -41 -1 -109 2 -150 6 -41 5 -151 10 -245 12
-93 2 -206 6 -250 8 -44 2 -138 7 -210 10 -71 4 -173 11 -225 16 -129 13 -521
12 -537 -2 -7 -6 -31 -8 -52 -5 -22 2 -44 0 -49 -5 -6 -6 -12 -6 -16 0 -3 5
11 28 32 51 36 41 39 42 132 53 167 20 616 10 940 -22 58 -6 188 -12 290 -14
102 -2 204 -8 227 -15 24 -7 94 -11 160 -10 65 1 154 -3 198 -10 131 -19 342
-28 465 -21 105 6 122 5 190 -17 88 -29 74 -28 325 -20 268 8 459 31 490 58 5
5 23 9 40 9 50 0 154 40 213 81 45 32 64 39 102 39 29 0 52 -6 59 -14z m-5567
-176 c13 -5 32 -16 43 -25 19 -16 19 -17 2 -30 -10 -7 -39 -13 -65 -12 -26 0
-48 -5 -50 -11 -2 -7 -12 -12 -22 -12 -10 0 -55 -13 -99 -28 -44 -16 -85 -26
-91 -22 -7 4 -36 6 -66 4 -30 -2 -54 -1 -54 2 0 4 17 24 38 44 27 26 49 39 82
44 24 4 50 12 57 17 7 6 36 11 64 11 30 -1 61 5 73 14 24 16 55 18 88 4z
m-3928 -113 c16 -12 16 -14 2 -26 -9 -8 -16 -20 -16 -27 0 -13 -36 -41 -113
-87 -17 -10 -51 -38 -75 -63 -25 -24 -49 -41 -53 -38 -5 3 -9 -6 -9 -20 0 -14
-4 -26 -9 -26 -4 0 -22 -22 -39 -50 -17 -27 -36 -50 -41 -50 -6 0 -20 -17 -31
-37 -11 -21 -26 -46 -32 -55 -10 -14 -9 -21 5 -36 16 -17 16 -20 2 -25 -19 -8
-20 -36 0 -43 19 -8 19 -34 0 -60 -8 -12 -24 -52 -35 -90 -12 -38 -33 -93 -46
-123 -14 -29 -24 -54 -22 -55 51 -36 102 -66 110 -66 6 0 19 -6 27 -14 17 -15
194 -106 207 -106 4 0 40 -16 81 -35 41 -19 83 -35 93 -35 11 0 20 -4 20 -9 0
-5 11 -12 25 -15 14 -4 25 -11 25 -16 0 -6 13 -10 29 -10 15 0 57 -15 92 -34
59 -32 64 -37 61 -64 -2 -19 2 -32 12 -35 18 -7 30 8 22 28 -3 8 -1 17 3 20 5
2 12 20 15 40 4 19 11 37 17 40 16 11 180 35 234 35 52 0 251 62 296 92 13 8
55 26 93 38 38 13 76 31 85 40 9 9 52 45 96 79 44 33 91 70 103 81 13 11 29
20 36 20 6 0 28 11 48 25 24 16 51 25 76 25 42 0 53 3 207 57 55 20 105 41
110 48 13 16 144 85 162 85 7 0 21 4 31 9 9 5 44 16 77 26 33 9 82 26 108 36
27 10 76 24 110 30 121 22 194 51 348 137 51 28 292 92 348 92 20 0 132 45
203 81 10 5 27 9 38 9 11 0 37 10 58 23 47 28 148 77 160 77 6 0 34 11 63 24
29 14 56 23 61 20 4 -3 8 0 8 6 0 8 6 7 21 -1 12 -6 35 -12 50 -13 32 -2 51
-16 31 -23 -7 -3 -26 -16 -41 -29 -16 -13 -36 -24 -44 -24 -9 0 -19 -4 -22
-10 -3 -5 -17 -10 -30 -10 -13 0 -25 -4 -27 -10 -1 -5 -30 -19 -63 -31 -33
-11 -67 -27 -76 -35 -8 -7 -31 -17 -50 -20 -19 -4 -39 -11 -45 -15 -22 -17
-182 -68 -250 -79 -101 -17 -204 -47 -224 -65 -9 -8 -26 -15 -37 -15 -11 0
-31 -8 -44 -18 -13 -11 -36 -22 -51 -26 -16 -3 -28 -11 -28 -16 0 -6 -5 -10
-10 -10 -6 0 -29 -8 -53 -19 -47 -20 -109 -38 -179 -51 -26 -5 -68 -18 -94
-29 -26 -12 -57 -21 -70 -21 -12 0 -36 -11 -52 -25 -20 -17 -47 -27 -86 -31
-32 -4 -63 -12 -69 -19 -7 -6 -34 -20 -60 -30 -26 -10 -50 -22 -53 -26 -3 -5
-14 -9 -26 -9 -11 0 -35 -13 -53 -28 -17 -16 -56 -37 -86 -46 -30 -10 -77 -29
-106 -42 -29 -13 -82 -26 -119 -30 -54 -6 -72 -12 -96 -36 -16 -15 -36 -28
-44 -28 -17 0 -66 -24 -92 -45 -106 -86 -175 -135 -188 -135 -8 0 -46 -18 -83
-40 -37 -22 -73 -40 -80 -40 -7 0 -45 -13 -84 -30 -96 -39 -143 -50 -269 -59
-121 -9 -168 -31 -168 -78 0 -23 -3 -25 -27 -19 -52 12 -147 43 -188 61 -49
22 -119 45 -137 45 -10 0 -18 4 -18 10 0 5 -12 12 -27 16 -28 6 -222 89 -278
118 -16 9 -35 16 -40 16 -6 0 -32 18 -59 40 -55 46 -104 54 -113 20 -5 -19 -9
-22 -43 -24 -11 -1 -14 -11 -12 -34 1 -20 -7 -50 -22 -77 -14 -24 -28 -60 -31
-79 -4 -21 -14 -38 -25 -41 -14 -5 -18 -13 -14 -38 3 -24 -2 -40 -20 -62 -14
-16 -28 -27 -31 -24 -9 10 15 107 31 120 8 6 14 23 14 38 0 14 11 49 25 76 13
28 25 65 25 82 0 18 11 56 24 85 45 99 56 129 56 147 0 10 7 24 15 31 9 7 14
21 13 30 -2 9 3 24 11 33 7 10 10 17 6 17 -3 0 3 16 15 35 13 22 20 46 17 60
-2 14 0 25 4 25 5 0 9 10 9 23 1 12 7 33 15 47 8 14 15 43 15 65 0 22 4 47 10
55 5 8 5 19 0 25 -5 6 17 44 56 95 36 47 67 95 70 108 4 13 11 21 18 19 16 -6
46 11 46 27 0 8 7 19 15 26 9 7 13 21 9 35 -5 18 -1 23 24 28 16 3 38 3 50 0
28 -7 94 47 112 92 15 39 19 41 44 22z m-819 -84 c-10 -15 -52 -61 -94 -103
-42 -41 -88 -93 -104 -116 -27 -40 -29 -41 -70 -34 -24 3 -48 9 -54 13 -6 4
-28 -2 -48 -14 -45 -27 -66 -14 -40 25 14 21 25 26 57 26 21 0 37 3 34 8 -2 4
2 15 9 25 10 15 27 19 79 19 51 0 66 4 66 15 0 21 149 156 179 162 2 1 -5 -11
-14 -26z m-607 -95 c-2 -15 -13 -24 -34 -30 -19 -5 -34 -16 -37 -28 -3 -11
-19 -28 -36 -37 -17 -10 -31 -23 -31 -29 0 -7 -25 -24 -55 -39 -30 -14 -55
-30 -55 -33 0 -11 -59 -34 -72 -29 -8 3 -1 9 15 16 15 6 27 18 27 26 0 21 48
65 70 65 9 0 28 12 43 28 47 49 82 79 112 95 42 23 57 21 53 -5z m6455 -88
c14 -11 30 -20 36 -20 19 0 32 -51 25 -97 -6 -41 -8 -43 -42 -43 -34 0 -72 23
-72 43 0 9 38 5 72 -8 13 -5 16 -2 15 17 -4 34 -22 61 -54 79 -55 32 -99 -16
-56 -63 15 -17 15 -18 -5 -18 -22 0 -62 43 -62 66 0 8 7 14 15 14 8 0 22 11
31 25 20 31 61 33 97 5z m2812 -915 c93 -3 220 -10 280 -15 61 -5 187 -14 281
-19 114 -6 183 -14 208 -25 21 -9 53 -16 71 -16 17 0 54 -7 81 -15 27 -8 58
-15 68 -15 29 0 85 -42 88 -65 2 -12 11 -21 23 -22 39 -3 64 -15 71 -36 4 -13
2 -23 -5 -25 -18 -6 7 -32 30 -32 10 0 21 -5 25 -11 5 -8 -11 -10 -56 -7 -51
4 -66 9 -78 26 -8 12 -20 22 -27 22 -8 0 -15 5 -17 12 -4 12 -184 59 -318 83
-47 8 -141 17 -210 20 -69 3 -165 10 -215 15 -49 6 -144 9 -210 8 -68 -1 -129
3 -140 9 -14 7 -65 8 -160 2 -77 -5 -228 -11 -335 -15 -107 -3 -215 -9 -239
-14 -25 -4 -55 -4 -68 1 -14 5 -102 6 -206 1 -187 -7 -248 -7 -612 3 -282 8
-386 7 -399 -4 -13 -10 -66 -19 -159 -27 -49 -5 -72 -3 -83 7 -24 19 -157 16
-216 -4 -25 -10 -53 -15 -61 -11 -18 7 -27 47 -18 82 6 23 15 27 72 38 146 26
162 26 190 0 25 -24 27 -24 85 -10 99 24 236 41 294 37 30 -1 154 -4 275 -6
121 -1 225 -5 230 -9 22 -14 86 -20 99 -9 10 8 107 13 308 17 338 6 700 21
773 34 28 4 63 6 80 4 16 -3 106 -7 200 -9z m1875 -271 c-6 -14 -10 -36 -10
-49 0 -32 -52 -57 -111 -53 -38 3 -44 0 -41 -15 2 -14 -2 -18 -15 -15 -11 2
-17 11 -15 21 2 12 -2 17 -14 15 -31 -5 -25 17 8 34 76 36 115 58 143 82 22
18 34 22 47 15 14 -8 15 -14 8 -35z m-364 -117 c1 -79 -10 -88 -62 -47 -20 17
-40 28 -44 25 -12 -8 -33 23 -27 40 4 8 2 17 -4 21 -6 4 -6 11 2 20 9 11 7 14
-9 14 -20 0 -36 13 -27 22 2 2 42 -3 87 -12 l83 -17 1 -66z"/>
<path d="M13205 78 c-33 -4 -70 -8 -83 -8 -13 0 -42 -5 -65 -11 -23 -6 -73
-15 -112 -20 -240 -29 -213 -39 109 -39 l276 0 0 26 c0 61 -14 66 -125 52z"/>
</g>
</svg>
