<?xml version="1.0" standalone="no"?>
<!DOCTYPE svg PUBLIC "-//W3C//DTD SVG 20010904//EN"
 "http://www.w3.org/TR/2001/REC-SVG-20010904/DTD/svg10.dtd">
<svg version="1.0" xmlns="http://www.w3.org/2000/svg"
 width="639.000000pt" height="567.000000pt" viewBox="0 0 639.000000 567.000000"
 preserveAspectRatio="xMidYMid meet">
<metadata>
Created by potrace 1.15, written by Peter Selinger 2001-2017
</metadata>
<g transform="translate(0.000000,567.000000) scale(0.100000,-0.100000)"
fill="#000000" stroke="none">
<path d="M0 2836 l0 -2836 218 1 217 0 -115 25 c-108 23 -118 23 -167 9 -28
-8 -70 -15 -92 -15 -37 0 -41 2 -41 25 0 22 4 25 38 26 l37 1 -38 10 c-20 6
-37 16 -37 24 0 11 11 13 58 7 56 -8 204 -9 292 -2 45 3 147 27 121 28 -8 1
-12 3 -9 6 3 3 18 1 33 -5 19 -7 52 -7 108 0 44 5 82 8 85 6 15 -16 -65 -37
-207 -55 -90 -11 -166 -23 -168 -25 -3 -3 12 -8 33 -11 22 -4 52 -11 68 -16
42 -13 154 -11 158 3 3 7 11 9 24 3 10 -4 26 -7 34 -6 12 2 13 0 2 -10 -6 -7
-12 -17 -12 -21 0 -5 204 -8 453 -7 248 1 446 3 440 6 -20 7 -15 23 7 23 11 0
23 -7 26 -15 5 -12 33 -15 165 -15 87 0 159 4 159 8 0 5 -6 16 -13 26 -12 16
-15 17 -29 3 -11 -12 -18 -13 -27 -4 -19 19 -12 27 27 28 23 1 28 3 15 6 -15
3 -23 12 -23 24 0 15 7 19 38 19 21 0 48 -9 62 -20 14 -11 33 -20 43 -20 31 0
20 -37 -13 -43 -53 -11 -33 -27 32 -27 l63 0 -28 26 c-16 14 -27 33 -25 42 5
25 45 27 60 3 16 -26 19 -26 48 -1 14 13 31 18 42 14 11 -3 33 0 49 6 37 16
75 6 82 -21 5 -19 10 -20 74 -14 68 7 68 7 91 -24 21 -28 62 -43 62 -22 0 18
32 20 73 6 28 -10 83 -15 169 -15 l127 0 4 28 4 27 2 -27 1 -28 335 0 c261 0
335 3 335 13 0 9 3 8 9 -2 7 -11 26 -12 92 -7 93 8 88 8 314 2 124 -4 153 -3
130 6 -16 6 -32 14 -35 18 -8 12 -124 21 -140 10 -10 -6 -20 -4 -33 7 -15 14
-23 15 -51 5 -37 -13 -66 -7 -66 13 0 8 -23 18 -57 26 -70 14 -133 17 -133 6
0 -5 -7 -2 -15 7 -19 19 -19 26 0 26 8 0 15 5 15 10 0 6 -4 10 -10 10 -6 0 -5
10 2 25 10 23 25 30 56 26 6 -1 12 3 12 9 0 5 -4 10 -9 10 -5 0 -13 15 -17 32
l-8 33 -7 -30 c-9 -42 -10 64 0 125 6 44 7 44 20 21 8 -14 9 -21 2 -17 -7 5
-11 -7 -10 -36 0 -33 2 -38 9 -23 7 17 9 16 9 -10 1 -21 4 -26 10 -16 7 11 9
11 13 0 5 -12 9 -12 27 -1 18 10 25 10 43 -2 21 -15 21 -15 -6 -22 -15 -3 -40
-7 -56 -8 -22 0 -30 -6 -30 -20 0 -14 5 -17 21 -13 12 3 22 0 26 -9 6 -16 43
-19 43 -4 0 6 5 10 10 10 6 0 10 -7 10 -15 0 -9 9 -15 24 -15 48 0 76 24 38
32 -9 3 19 3 63 1 76 -4 79 -3 58 13 -28 20 -30 44 -3 44 11 0 20 -7 20 -15 0
-31 42 -43 162 -47 64 -2 115 -1 112 1 -12 12 46 34 102 39 68 5 87 -8 36 -26
l-27 -10 27 -1 c14 -1 28 4 30 10 2 5 20 11 41 12 41 2 54 31 15 34 -51 3
-108 16 -108 24 0 5 7 9 16 9 8 0 12 5 9 11 -7 11 -137 7 -187 -6 -27 -7 -40
-35 -16 -35 6 0 9 -2 6 -5 -8 -9 -58 6 -58 16 0 5 8 9 17 9 9 0 13 3 9 7 -4 4
-38 8 -74 9 -37 0 -86 4 -109 8 -38 7 -43 6 -43 -11 0 -19 -30 -41 -60 -44
-34 -3 -50 2 -50 16 0 9 -9 15 -25 15 -14 0 -25 5 -25 11 0 8 -17 10 -51 7
l-51 -5 4 38 c2 21 -1 41 -7 43 -5 2 6 5 26 5 20 1 42 7 49 15 6 8 17 13 24
10 10 -4 12 2 8 23 -3 15 -7 22 -9 16 -8 -22 -19 -14 -21 13 -2 24 -1 24 15 9
12 -12 27 -16 52 -12 20 2 45 1 56 -4 17 -6 17 -8 3 -8 -13 -1 -18 -9 -18 -32
0 -29 2 -31 28 -25 15 4 40 10 56 13 l29 6 -29 12 -29 12 27 8 c16 4 36 4 45
1 15 -6 15 -8 3 -17 -11 -8 -6 -9 20 -5 112 17 162 19 170 5 7 -11 17 -11 54
-1 25 6 85 14 133 18 79 5 86 4 70 -9 -10 -8 -14 -18 -9 -21 14 -8 72 5 72 16
0 5 5 6 12 2 6 -4 39 -8 73 -9 39 -1 71 -8 88 -19 14 -10 32 -14 38 -10 17 10
103 5 107 -7 2 -5 21 -9 43 -9 28 0 39 4 39 15 0 11 -11 15 -42 15 -23 0 -39
3 -35 6 3 3 40 3 81 -1 65 -6 76 -10 76 -26 0 -19 44 -38 57 -25 4 3 -4 6 -16
6 -16 0 -21 5 -19 18 4 18 34 20 152 7 41 -5 61 -3 66 5 11 18 160 3 160 -16
0 -8 -7 -14 -17 -14 -9 0 -14 -2 -12 -5 3 -2 21 -2 41 1 25 4 35 11 34 23 -1
10 8 17 24 19 14 2 30 8 37 14 12 9 53 -9 53 -24 0 -5 9 -8 19 -8 26 0 36 -17
14 -22 -12 -3 -5 -8 20 -15 25 -8 67 -9 130 -2 127 12 137 11 137 -6 0 -20 47
-20 120 0 30 8 63 12 73 9 10 -3 24 0 32 6 13 10 15 8 15 -13 0 -23 -5 -27
-46 -33 -25 -3 -61 -4 -80 -1 -18 3 -34 2 -34 -4 0 -5 12 -9 27 -9 20 0 24 -3
16 -11 -8 -8 -17 -8 -31 0 -29 16 -95 14 -89 -1 2 -7 20 -13 40 -13 21 0 37
-2 37 -5 0 -3 18 -6 40 -7 30 -2 40 1 40 12 0 8 4 15 10 15 5 0 7 -7 4 -15 -4
-10 3 -18 21 -25 33 -13 98 -13 90 -1 -3 6 4 15 15 21 17 9 20 8 20 -9 0 -14
9 -20 35 -23 19 -2 38 -1 43 4 9 9 82 -2 82 -13 0 -4 -8 -10 -17 -12 -12 -3
-8 -5 9 -6 15 0 30 -5 33 -11 8 -13 45 -13 45 0 0 6 -10 15 -22 20 l-23 9 23
0 c26 1 27 7 7 27 -10 11 -34 14 -82 13 -37 -1 -79 3 -91 8 -21 8 -22 10 -8
22 14 12 19 11 36 -4 18 -17 20 -16 50 8 25 22 35 25 56 17 32 -13 69 -13 39
0 -18 7 -19 8 -2 15 14 6 17 21 17 91 l0 83 -32 5 c-18 3 -67 7 -108 10 -41 3
-120 10 -175 15 -55 5 -217 17 -360 26 -143 8 -310 20 -371 25 -60 6 -144 10
-185 11 -85 0 -72 11 36 30 36 6 65 15 65 20 0 5 11 15 25 21 14 6 25 17 25
25 0 7 7 13 16 13 8 0 12 -4 9 -10 -3 -5 1 -10 9 -10 9 0 16 4 16 8 0 4 16 6
35 4 19 -2 35 0 35 5 0 11 -3 11 115 22 50 5 92 7 94 5 2 -2 -6 -4 -18 -4 -12
0 -20 -3 -18 -8 3 -4 -20 -6 -51 -4 -36 2 -52 0 -44 -6 7 -5 90 -9 185 -10
115 -1 167 2 157 8 -10 7 39 9 145 7 108 -2 159 -6 158 -14 -3 -17 112 -35
175 -28 41 5 53 3 42 -4 -13 -9 -13 -11 3 -11 16 0 17 26 17 420 -1 263 -4
420 -10 420 -6 0 -10 5 -10 11 0 5 5 7 10 4 7 -4 10 243 10 734 0 718 -1 741
-19 741 -10 0 -35 7 -55 15 -30 13 -35 19 -27 32 11 20 48 25 76 10 20 -11 20
-11 -2 -16 l-22 -6 24 -12 25 -11 0 685 c0 603 -2 684 -15 679 -11 -4 -15 1
-15 19 0 13 -8 29 -17 34 -16 9 -16 12 -3 21 23 15 30 12 30 -14 0 -14 5 -28
10 -31 7 -5 10 20 8 76 -2 55 -7 84 -15 87 -7 2 -13 -2 -13 -10 0 -7 -9 -19
-20 -26 -17 -10 -20 -10 -20 3 0 17 -16 20 -25 5 -10 -16 -23 -12 -36 11 -9
18 -8 20 8 15 28 -9 61 28 43 49 -13 16 -6 18 24 6 26 -10 56 21 56 57 -1 31
-24 67 -39 58 -14 -9 -6 77 10 106 l13 23 7 -30 c6 -29 7 -29 8 -4 0 15 -6 32
-14 39 -13 11 -18 10 -30 -6 -14 -18 -14 -18 -15 4 0 14 -5 22 -12 19 -7 -2
-13 -13 -13 -24 0 -12 -8 -30 -18 -41 -11 -11 -14 -23 -9 -26 13 -8 4 -42 -14
-57 -8 -6 -14 -24 -14 -40 0 -21 -5 -29 -18 -29 -10 0 -23 5 -28 10 -14 14
-44 2 -44 -16 0 -8 -4 -14 -10 -14 -5 0 -10 11 -10 25 0 14 -4 25 -10 25 -5 0
-10 -9 -10 -20 0 -11 -4 -20 -10 -20 -5 0 -12 -11 -16 -25 -3 -14 -13 -25 -21
-25 -13 0 -13 3 -3 15 10 12 10 18 0 30 -9 10 -9 15 -1 15 6 0 11 5 11 10 0 6
-6 10 -13 10 -9 0 -12 11 -9 34 3 29 -1 37 -33 62 -37 28 -38 28 -52 9 -8 -11
-19 -19 -24 -18 -5 2 -9 -2 -9 -7 0 -6 -4 -10 -10 -10 -5 0 -6 8 -3 17 5 12 2
15 -10 10 -25 -9 -34 37 -13 68 13 20 14 25 3 25 -8 0 -20 11 -27 25 -7 14
-17 25 -22 25 -4 0 -8 11 -8 25 0 23 2 24 20 15 23 -12 29 4 6 17 -8 5 -19 19
-25 33 -5 14 -10 19 -10 11 -1 -8 -9 -19 -18 -26 -15 -11 -15 -15 -3 -30 12
-14 12 -18 -1 -26 -8 -4 -22 -6 -33 -3 -13 4 -17 2 -14 -7 3 -8 11 -14 19 -14
8 0 13 -9 12 -20 -1 -10 6 -33 15 -50 8 -16 15 -43 14 -59 -2 -15 1 -33 6 -40
13 -16 2 -86 -13 -86 -8 0 -21 -7 -30 -16 -12 -13 -19 -14 -28 -5 -8 8 -8 11
1 11 7 0 12 5 12 10 0 6 -11 3 -25 -6 -17 -11 -29 -13 -38 -6 -6 5 -20 8 -30
6 -12 -1 -17 2 -13 12 3 7 -3 18 -12 23 -16 10 -16 10 1 11 9 0 17 -4 17 -10
0 -5 6 -10 14 -10 11 0 12 5 3 24 -8 17 -14 21 -19 13 -6 -9 -11 -8 -18 3 -17
25 -11 48 13 53 22 4 -15 9 -71 10 -15 0 -21 4 -18 13 3 8 -1 14 -10 14 -9 0
-14 6 -11 13 2 7 16 11 33 9 23 -3 26 -1 17 9 -7 7 -29 14 -50 16 -28 2 -34 1
-23 -7 13 -8 13 -10 -2 -10 -10 0 -23 9 -30 20 -7 11 -23 20 -36 20 -13 0 -20
-4 -17 -10 9 -14 -8 -12 -41 5 -16 8 -37 15 -46 15 -23 0 -13 -25 13 -36 20
-9 20 -9 0 -36 -12 -14 -21 -32 -21 -39 0 -10 -3 -10 -11 -2 -9 9 -15 8 -26
-3 -21 -21 -26 -18 -51 27 -19 32 -26 38 -37 29 -8 -7 -19 -9 -25 -5 -5 3 -10
-1 -10 -10 0 -14 -5 -14 -37 5 -35 20 -36 20 -13 1 56 -46 79 -61 90 -61 10 0
9 4 0 15 -20 24 -2 31 21 8 l21 -21 -21 -7 c-11 -3 -21 -10 -21 -15 0 -16 21
-22 35 -10 13 10 15 8 15 -14 0 -19 4 -25 13 -20 8 5 8 2 -2 -9 -7 -9 -19 -17
-26 -17 -23 0 -25 -29 -3 -36 12 -3 42 -27 67 -52 25 -26 46 -41 49 -34 2 7 8
12 13 12 15 0 48 -33 42 -43 -3 -4 4 -18 15 -30 23 -25 35 -117 15 -117 -16 0
-43 -29 -43 -46 0 -8 4 -13 9 -10 5 4 6 -5 2 -21 -6 -22 -13 -28 -37 -29 -16
0 -40 7 -54 16 -134 89 -249 154 -258 145 -4 -4 3 -15 16 -25 12 -10 22 -23
22 -30 0 -6 4 -9 9 -5 6 3 24 -3 41 -14 21 -12 27 -21 18 -24 -7 -3 -3 -6 10
-6 14 -1 21 -5 16 -12 -4 -8 0 -9 15 -4 11 3 21 2 21 -3 0 -5 9 -12 20 -15 11
-3 20 -10 20 -16 0 -16 -57 -4 -89 18 -40 29 -114 66 -131 66 -18 0 -27 80
-11 99 12 15 -11 117 -34 153 -21 31 -55 40 -72 17 -15 -21 -17 -70 -3 -79 6
-4 8 -10 5 -15 -3 -4 1 -26 9 -48 11 -30 11 -43 3 -51 -9 -9 -8 -16 1 -31 19
-31 15 -43 -13 -36 -18 5 -25 2 -25 -8 0 -19 -16 -14 -92 31 -31 18 -59 33
-63 33 -13 0 6 -19 33 -33 86 -45 112 -63 118 -79 10 -32 12 -88 3 -88 -25 0
-246 122 -261 144 -12 17 -9 96 2 96 6 0 29 -9 50 -20 58 -30 49 -16 -11 17
l-51 27 4 53 c3 32 0 54 -6 56 -12 5 -13 42 -1 98 14 73 -42 199 -89 199 -53
0 -74 -57 -34 -90 22 -17 22 -19 6 -53 -16 -34 -16 -35 4 -29 16 4 19 1 16
-14 -3 -18 -19 -21 -71 -15 -18 2 -9 61 9 61 22 0 16 20 -11 42 -14 11 -25 25
-25 32 0 19 -61 71 -100 86 -19 8 -38 19 -43 24 -5 7 -11 5 -18 -6 -5 -10 -16
-18 -24 -18 -7 0 -26 -11 -42 -24 -26 -22 -31 -23 -53 -10 -35 19 -49 17 -20
-3 14 -9 26 -17 28 -19 2 -1 -8 -21 -23 -44 -18 -28 -28 -61 -32 -105 -3 -36
-7 -65 -9 -65 -5 0 -198 101 -203 106 -7 7 -4 244 3 252 4 4 21 -1 38 -11 17
-10 33 -16 35 -13 7 6 -53 36 -72 36 -12 0 -15 12 -15 59 0 33 4 62 9 65 15
10 -9 106 -40 156 -45 73 -101 89 -133 37 -9 -13 -6 -20 12 -33 44 -31 99
-182 72 -199 -6 -4 -8 -33 -4 -76 4 -38 4 -69 0 -69 -4 0 -29 11 -56 25 -59
30 -60 30 -60 5 0 -12 15 -29 40 -45 42 -26 59 -70 46 -120 -6 -22 0 -29 47
-59 l53 -34 -1 -58 c-1 -47 -6 -60 -23 -72 -26 -17 -28 -38 -4 -45 9 -2 25 -8
35 -12 14 -6 17 -2 17 19 0 30 -1 30 36 12 16 -8 47 -22 69 -32 84 -38 95 -51
95 -116 0 -32 -3 -58 -6 -58 -17 0 -194 95 -194 104 0 6 -23 22 -50 35 -28 13
-50 28 -50 32 0 5 -9 9 -20 9 -11 0 -36 9 -56 21 -26 14 -39 17 -44 9 -5 -8
-32 2 -84 30 -83 45 -76 44 -224 13 -40 -8 -84 -12 -98 -9 -36 9 -335 -53
-356 -75 -21 -22 -214 -56 -201 -36 3 5 -7 6 -26 2 l-31 -7 0 45 c0 24 6 49
13 55 6 5 48 17 92 27 44 9 90 21 103 26 13 5 32 9 43 9 16 0 19 -5 14 -20
-11 -34 2 -38 67 -24 35 8 97 21 138 29 127 27 140 33 140 64 0 32 24 42 162
66 76 14 84 13 126 -5 59 -27 63 -21 6 9 l-45 24 -92 -18 c-51 -9 -107 -20
-125 -22 l-32 -5 1 98 c1 102 -6 154 -22 154 -5 0 -9 5 -9 10 0 6 8 10 18 10
10 0 22 3 26 8 4 4 22 13 39 20 l32 12 -41 -5 -41 -5 5 53 c2 28 7 55 11 59 7
8 197 61 221 61 8 0 26 -3 40 -7 24 -7 25 -7 5 9 -27 22 -94 11 -257 -41 -15
-4 -18 1 -18 34 0 36 2 39 25 37 14 -2 27 1 31 6 3 5 16 9 30 9 13 0 24 5 24
10 0 6 6 10 13 8 22 -4 85 12 96 26 11 13 61 10 61 -4 0 -4 19 -18 43 -30 23
-12 44 -25 47 -29 11 -14 49 -30 54 -22 6 8 -65 61 -82 61 -5 0 -19 11 -32 25
-13 14 -34 25 -46 25 -13 0 -26 5 -29 11 -5 7 -14 4 -27 -8 -13 -12 -35 -18
-64 -17 -24 0 -41 -3 -38 -8 3 -4 -1 -10 -8 -12 -7 -2 -29 -8 -48 -14 -19 -6
-46 -13 -60 -15 -14 -3 -44 -10 -65 -17 -22 -6 -54 -10 -70 -8 l-29 3 25 26
c28 31 75 44 111 30 39 -15 45 13 13 55 -29 38 -59 49 -115 41 -65 -8 -123
-57 -163 -136 -20 -39 -32 -73 -26 -76 5 -4 9 -26 9 -50 0 -44 0 -44 -47 -58
-27 -8 -101 -27 -165 -43 -65 -15 -118 -32 -118 -36 0 -13 34 -9 96 12 32 11
70 20 85 20 14 0 29 4 35 9 5 5 28 12 52 16 l43 7 -3 -54 -3 -53 -130 -32
c-209 -52 -189 -50 -182 -15 3 16 4 32 1 34 -2 3 -37 -3 -77 -13 -98 -25 -103
-25 -111 12 -15 79 91 204 156 183 11 -3 24 -19 30 -36 8 -21 15 -27 27 -23
16 7 39 11 74 14 10 0 16 5 13 9 -3 5 5 8 17 7 12 -1 27 1 32 5 6 4 33 13 60
20 28 6 57 14 67 16 23 7 31 33 14 49 -12 12 -15 12 -20 0 -3 -8 -16 -15 -30
-15 -14 0 -28 -5 -31 -10 -3 -6 -25 -8 -48 -5 -31 4 -37 3 -22 -4 11 -5 15
-10 8 -10 -19 -1 -43 11 -38 19 10 16 -24 100 -50 124 -15 14 -32 26 -36 26
-18 0 -8 22 11 27 11 3 20 10 20 16 0 7 4 7 12 -1 20 -20 26 -14 33 29 4 22 9
38 12 35 14 -14 34 27 30 59 -3 20 0 35 5 35 5 0 42 10 81 22 57 17 67 23 52
29 -12 5 -3 7 25 3 33 -4 50 -1 65 11 11 9 14 14 8 10 -7 -3 -13 -1 -13 6 0 7
10 9 27 6 18 -3 32 1 41 11 8 11 15 13 18 6 5 -12 51 -7 60 7 8 14 -41 21 -77
11 -19 -5 -81 -24 -139 -40 -58 -17 -121 -32 -140 -34 -35 -3 -35 -3 -38 40
l-3 42 -231 0 c-196 0 -229 -2 -219 -14 10 -11 0 -18 -51 -36 -87 -30 -169
-49 -185 -43 -7 3 -13 -1 -13 -8 -1 -11 -4 -10 -13 2 -7 9 -27 20 -44 23 -40
9 -34 31 14 47 19 6 32 13 30 16 -3 2 -22 -3 -42 -12 -21 -8 -40 -13 -43 -10
-3 3 -10 1 -16 -4 -6 -4 -51 -21 -101 -36 -49 -16 -95 -33 -102 -38 -7 -5 -17
-6 -22 -3 -5 4 -12 2 -15 -3 -3 -5 -16 -7 -28 -3 -14 3 -19 2 -14 -6 5 -8 0
-12 -12 -12 -11 0 -37 -7 -58 -16 -62 -26 -95 -34 -88 -22 4 6 -3 4 -17 -5
-13 -9 -35 -17 -49 -17 -23 1 -23 2 9 18 26 13 36 25 38 47 3 16 10 33 16 37
7 5 2 8 -13 8 -25 1 -24 1 10 30 19 17 55 36 80 44 l45 14 -47 1 c-26 1 -59
-5 -74 -11 -22 -10 -28 -10 -32 0 -2 8 -31 12 -93 12 -73 0 -87 -3 -83 -14 3
-8 12 -12 20 -9 7 3 17 -2 20 -11 3 -9 13 -15 22 -14 9 2 18 -5 20 -14 4 -20
-32 -26 -43 -8 -3 6 -17 10 -31 10 -14 0 -22 -4 -19 -10 8 -13 -8 -13 -40 2
-14 6 -25 18 -25 26 0 12 3 12 15 2 12 -10 15 -10 15 3 0 23 -32 31 -47 11 -7
-10 -13 -13 -13 -6 0 6 -7 9 -15 6 -9 -4 -15 0 -15 10 0 9 -6 16 -14 16 -9 0
-12 -7 -9 -20 3 -11 0 -20 -6 -20 -6 0 -11 -7 -11 -15 0 -8 9 -15 21 -15 11 0
17 -4 14 -10 -3 -5 2 -10 12 -10 36 0 48 -16 35 -45 -11 -24 -10 -27 2 -22 9
4 18 2 22 -4 4 -7 10 -6 19 1 7 6 20 8 29 4 12 -5 15 -2 10 10 -6 16 6 22 19
10 10 -11 -17 -44 -36 -44 -11 0 -21 -9 -24 -20 -3 -11 -11 -20 -19 -20 -7 0
-11 6 -8 14 7 19 -28 26 -41 8 -9 -11 -15 -10 -37 7 -20 16 -32 19 -50 12 -16
-6 -32 -4 -53 7 -16 8 -57 23 -90 33 -53 16 -62 17 -82 4 -13 -9 -47 -15 -80
-16 -50 0 -54 -2 -32 -10 21 -8 28 -18 31 -44 3 -23 0 -35 -8 -35 -17 0 -27
17 -14 25 13 8 13 25 1 25 -6 0 -16 -12 -24 -27 -7 -16 -18 -27 -25 -26 -6 2
-19 -13 -28 -32 -9 -19 -23 -35 -30 -35 -17 0 -18 12 -2 28 9 9 7 12 -11 12
-12 0 -19 4 -16 10 11 18 -5 31 -25 20 -13 -7 -21 -7 -25 0 -9 15 15 42 31 36
7 -3 16 -1 19 4 6 9 66 -8 76 -22 3 -4 5 8 6 27 1 19 -3 32 -8 29 -5 -3 -23 5
-40 16 -16 12 -41 23 -55 24 -13 0 -24 6 -24 13 0 6 -8 9 -19 6 -16 -4 -19 -1
-14 15 2 11 0 23 -6 26 -6 4 -11 2 -11 -3 0 -6 -8 -11 -19 -11 -28 0 -47 -26
-31 -45 9 -10 9 -15 1 -15 -6 0 -11 4 -11 9 0 5 -8 7 -19 4 -10 -3 -32 2 -49
11 -41 21 -54 20 -80 -4 -12 -12 -22 -17 -22 -13 0 5 -9 14 -20 21 -16 10 -29
10 -60 1 -22 -7 -45 -18 -51 -26 -17 -20 -29 -16 -29 10 0 15 10 26 32 36 27
12 29 15 15 26 -24 17 -21 25 8 25 14 0 25 -4 25 -10 0 -5 7 -10 15 -10 22 0
18 17 -5 23 -11 3 -20 12 -20 19 0 12 -23 15 -115 17 l-115 2 0 -2835z m1560
2600 c0 -7 11 -21 25 -30 34 -23 31 -43 -7 -51 -18 -4 -46 -14 -61 -22 -38
-19 -61 -10 -76 34 -13 34 -12 37 10 54 13 10 38 20 54 22 17 2 36 5 43 5 6 1
12 -4 12 -12z m718 -115 c9 -5 29 -13 43 -19 14 -6 29 -20 32 -31 3 -14 1 -19
-6 -14 -6 4 -8 0 -4 -11 4 -10 1 -19 -8 -22 -8 -4 -15 -12 -15 -19 0 -6 -9
-20 -20 -30 -11 -10 -20 -27 -20 -37 0 -25 -18 -58 -43 -81 -24 -20 -43 -17
-39 7 2 9 -2 16 -8 16 -5 0 -10 5 -10 11 0 5 4 8 9 4 15 -9 22 10 25 72 3 42
0 60 -11 68 -12 9 -12 15 -1 40 13 29 36 54 51 55 4 0 15 -4 25 -9z m377 -16
c17 -8 37 -24 45 -36 8 -12 21 -28 28 -35 12 -12 11 -19 -3 -40 -12 -18 -13
-24 -4 -19 11 6 11 5 3 -4 -13 -14 -54 -11 -55 4 -3 41 -66 85 -121 85 -50 0
-113 -50 -159 -125 -34 -56 -69 -83 -69 -53 1 23 39 99 66 132 80 95 183 130
269 91z m-965 -95 c-11 -8 -8 -10 15 -8 23 2 30 -2 33 -17 2 -11 13 -30 24
-42 18 -19 19 -25 8 -38 -11 -13 -11 -18 0 -28 8 -7 10 -7 7 -1 -4 6 -1 23 6
37 9 20 17 25 32 21 30 -9 30 -9 -6 -54 -24 -29 -35 -37 -41 -28 -5 8 -6 3 -3
-12 4 -18 0 -34 -14 -52 -12 -14 -21 -33 -21 -42 0 -10 -6 -13 -15 -10 -8 4
-15 2 -15 -4 0 -17 27 -33 44 -26 12 5 15 2 10 -10 -3 -9 -1 -16 5 -16 6 0 11
-5 11 -11 0 -12 -61 23 -98 57 -35 34 -74 30 -40 -4 15 -15 4 -27 -14 -16 -7
5 -20 7 -28 6 -18 -3 -56 71 -40 76 17 6 11 30 -12 48 -17 12 -18 15 -5 10 15
-5 17 -2 12 13 -4 14 0 21 12 23 15 4 13 7 -9 18 -50 24 -38 37 72 84 8 3 4 4
-9 2 -14 -3 -20 -1 -15 4 10 9 70 28 94 29 13 1 13 0 0 -9z m1276 -292 c-3
-29 -6 -60 -6 -69 0 -12 -25 -21 -107 -39 -60 -12 -114 -24 -121 -26 -7 -2
-15 3 -19 12 -3 8 -20 21 -39 29 -31 13 -32 15 -22 43 9 23 19 31 47 35 48 8
65 12 136 36 56 18 90 26 124 30 11 1 12 -10 7 -51z m-6 -155 c0 -32 -4 -63
-8 -68 -6 -9 -107 -36 -192 -51 -14 -3 -33 -7 -42 -10 -16 -5 -18 2 -18 49 0
32 5 59 13 64 15 12 69 32 117 44 19 4 51 12 70 17 60 17 60 17 60 -45z m1083
-70 c45 -26 85 -51 89 -56 6 -10 4 -30 -8 -88 l-5 -26 -87 45 c-48 24 -90 47
-93 51 -4 3 -9 34 -11 69 -5 74 -9 74 115 5z m238 -19 c9 -11 22 -14 43 -10
23 4 43 -2 79 -24 26 -17 47 -37 47 -45 0 -17 18 -19 39 -6 8 5 12 18 8 31 -7
25 8 70 22 70 6 0 8 -7 5 -15 -4 -8 -1 -15 6 -15 6 0 8 -4 5 -10 -3 -5 -1 -10
4 -10 6 0 11 -9 11 -19 0 -11 5 -23 10 -26 17 -11 11 -28 -7 -20 -10 4 -24 9
-32 12 -10 4 -12 1 -7 -14 5 -17 2 -19 -24 -15 -29 4 -30 3 -32 -34 l-1 -39
-4 38 c-4 40 -22 50 -30 17 -3 -11 -12 -20 -19 -20 -12 0 -12 -3 0 -22 20 -31
0 -92 -30 -96 -21 -3 -21 -5 -7 -33 14 -28 33 -39 33 -20 0 11 44 22 89 23 17
1 40 -7 51 -17 11 -10 20 -16 21 -14 0 2 2 14 5 27 5 29 -26 42 -104 43 -31 0
-52 3 -46 5 6 3 9 17 6 31 -4 21 -2 25 12 20 9 -4 16 -1 16 5 0 7 4 7 13 1 6
-5 21 -10 33 -10 17 -1 20 3 16 23 -3 18 0 24 13 24 13 0 16 -6 11 -24 -10
-41 13 -74 71 -102 31 -14 58 -35 63 -47 7 -17 9 -18 9 -4 1 9 3 17 5 17 7 0
179 -92 219 -117 34 -21 37 -27 37 -68 0 -25 -4 -45 -9 -45 -4 0 -63 27 -130
60 l-121 60 0 37 c0 44 -8 40 -12 -5 -1 -22 -7 -32 -18 -32 -9 0 -27 -12 -39
-26 -19 -22 -20 -25 -4 -20 10 3 30 -1 46 -9 25 -13 27 -12 27 6 0 10 7 19 14
19 12 0 85 -35 166 -79 8 -4 29 -14 45 -22 19 -9 31 -23 33 -39 2 -19 16 -31
54 -50 79 -39 135 -78 141 -100 6 -23 -20 -28 -29 -6 -6 16 -126 76 -152 76
-30 0 -272 124 -267 137 2 7 -2 13 -10 13 -8 0 -47 16 -86 35 -40 19 -83 35
-95 35 -13 0 -90 33 -173 73 l-150 72 -1 63 c0 34 4 62 9 62 4 0 7 10 5 23
-11 80 -11 107 -1 107 7 0 52 -20 102 -44 49 -25 91 -43 94 -41 2 2 -31 21
-72 41 -75 37 -76 38 -72 73 2 20 4 39 4 44 1 13 28 7 42 -9z m1651 9 c2 -5
16 -15 32 -23 18 -9 30 -24 31 -38 1 -12 13 -34 26 -48 l24 -26 -30 2 c-43 4
-62 -8 -62 -36 0 -16 5 -24 18 -24 12 0 19 -9 21 -27 2 -21 9 -29 27 -31 16
-3 20 -6 12 -12 -10 -6 -10 -12 0 -31 31 -61 32 -62 15 -55 -45 18 -50 17 -25
-6 14 -12 35 -28 45 -34 10 -7 16 -15 12 -19 -4 -4 -25 3 -46 17 l-38 25 -11
-24 c-9 -19 -9 -25 2 -29 15 -6 15 -54 0 -52 -15 2 -45 -13 -45 -23 0 -5 7 -9
15 -9 8 0 15 -5 15 -11 0 -7 10 -9 25 -7 18 4 26 0 30 -13 4 -11 11 -19 16
-19 5 0 9 -4 9 -10 0 -5 -7 -7 -16 -3 -12 4 -15 2 -12 -8 3 -8 13 -13 22 -11
9 2 24 -2 34 -7 13 -8 14 -10 2 -11 -13 0 -13 -1 0 -11 12 -8 10 -9 -9 -7 -31
4 -39 -17 -12 -32 27 -14 27 -40 1 -40 -28 0 -48 -45 -32 -71 14 -23 3 -25
-24 -4 -25 19 -44 19 -44 0 0 -8 -5 -15 -11 -15 -6 0 -9 12 -7 28 3 28 7 29
47 17 23 -7 23 -7 7 16 -9 13 -16 36 -16 51 0 15 -4 29 -8 32 -4 3 -14 28 -22
56 -8 28 -20 56 -27 61 -9 8 -10 17 -3 29 14 25 2 54 -15 40 -9 -8 -15 -8 -20
0 -3 5 -2 10 3 10 5 0 10 11 10 25 0 22 -5 25 -34 25 -20 0 -34 5 -35 13 0 8
-2 8 -6 -2 -3 -7 7 -24 23 -37 22 -18 25 -23 12 -24 -12 0 -16 -6 -12 -17 5
-17 5 -17 -6 0 -6 9 -22 17 -35 17 -25 0 -33 18 -16 36 5 5 14 26 21 48 9 27
15 34 21 25 13 -21 22 -3 9 20 -16 30 5 27 60 -9 24 -16 46 -27 49 -25 2 3 2
6 0 8 -2 2 -28 20 -56 41 -56 40 -66 56 -33 56 11 0 20 -4 20 -9 0 -5 9 -11
21 -14 15 -4 19 -2 15 8 -3 8 -1 17 4 20 4 3 3 18 -3 35 -9 24 -8 32 6 48 16
18 15 19 -19 38 -41 21 -67 67 -36 62 11 -2 22 8 32 29 15 32 25 40 32 26z
m-2305 -82 c45 -22 83 -38 85 -35 3 2 38 -12 79 -32 103 -49 103 -49 114 -71
6 -11 15 -18 21 -16 14 5 179 -73 194 -93 10 -11 10 -25 -1 -63 l-14 -49 -76
37 c-104 50 -107 53 -103 106 1 26 -1 43 -7 40 -5 -4 -9 -30 -9 -58 1 -58 -10
-49 133 -108 67 -28 90 -55 62 -75 -10 -7 -23 -15 -28 -17 -7 -2 -4 -13 6 -27
27 -39 20 -41 -45 -10 -35 17 -68 30 -75 30 -26 0 -42 30 -37 70 3 22 0 48 -5
58 -9 14 -11 10 -12 -20 -2 -21 -3 -51 -4 -67 -2 -25 3 -32 29 -41 17 -7 64
-27 104 -46 l73 -34 -2 -47 c-1 -27 2 -57 6 -67 7 -17 6 -18 -11 -11 -10 4
-47 18 -82 31 -35 13 -76 31 -92 39 -16 8 -38 15 -50 15 -11 0 -20 4 -20 9 0
9 -113 62 -140 66 -16 2 -63 21 -141 56 -43 20 -52 20 -120 9 -41 -7 -99 -18
-129 -25 -30 -6 -66 -10 -79 -8 -28 4 -266 -33 -296 -47 -11 -4 -38 -11 -60
-14 -22 -3 -52 -8 -67 -12 -18 -4 -28 -2 -28 5 0 6 17 12 38 12 l37 2 -40 6
c-37 6 -38 7 -20 18 l20 12 -20 1 c-13 1 -15 4 -6 7 11 5 11 7 0 15 -10 6 0 8
29 5 41 -5 59 7 25 16 -14 4 -13 5 4 6 16 1 21 5 16 17 -4 12 0 15 18 12 17
-2 26 -11 30 -33 l6 -30 2 33 c0 18 7 35 14 38 8 3 11 18 9 45 -3 23 -1 92 3
154 l7 114 51 14 c90 26 241 57 272 57 17 0 48 5 70 11 47 13 120 26 156 28
14 0 62 -17 106 -38z m-681 -103 c-3 -13 -6 -42 -6 -65 l0 -42 -56 -11 c-31
-7 -68 -9 -82 -6 -20 5 -23 4 -12 -4 12 -8 11 -10 -7 -10 -28 0 -53 36 -53 76
0 30 3 32 63 49 150 40 161 41 153 13z m-10 -170 c-3 -24 -5 -53 -5 -64 -1
-23 -14 -27 -121 -39 -40 -5 -51 -4 -40 4 8 6 11 11 5 11 -5 0 -1 7 10 16 16
12 18 18 7 34 -11 18 -7 49 7 50 3 1 29 7 56 15 82 23 86 21 81 -27z m1403
-73 c84 -41 156 -75 161 -75 5 0 25 -8 45 -17 24 -12 31 -19 23 -25 -8 -5 -2
-8 17 -8 29 -1 30 -1 6 -11 -16 -6 -28 -6 -35 1 -5 5 -19 9 -30 9 -17 -1 -18
-2 -3 -6 17 -4 24 -23 9 -23 -5 0 -9 -7 -9 -15 0 -8 4 -15 9 -15 4 0 8 5 8 11
0 5 5 7 12 3 7 -4 8 -3 4 4 -4 7 -4 12 1 12 4 0 18 3 31 6 26 7 31 -12 5 -20
-10 -3 -3 -4 15 -2 19 1 35 -2 37 -8 9 -26 11 -196 3 -196 -5 0 -7 -4 -3 -9 3
-5 1 -12 -5 -16 -5 -3 -10 -2 -10 3 0 6 -11 13 -24 16 -14 3 -32 13 -41 22
-10 10 -20 13 -26 7 -5 -5 20 -22 66 -43 61 -29 75 -39 75 -58 0 -13 4 -21 10
-17 5 3 7 12 3 20 -3 9 1 15 10 15 17 0 143 -63 167 -84 8 -7 21 -11 28 -9 7
3 10 -1 7 -9 -3 -7 3 -18 14 -25 15 -10 22 -9 31 1 9 12 22 8 72 -19 51 -27
63 -37 65 -61 3 -27 1 -29 -29 -29 -18 0 -50 6 -70 13 -32 11 -38 18 -38 42 0
20 -6 29 -22 34 -13 3 -24 1 -26 -4 -2 -6 -11 -10 -20 -11 -10 -1 -7 -4 8 -9
19 -6 21 -8 6 -9 -23 -1 -199 67 -207 81 -3 5 -10 10 -15 10 -10 0 -32 8 -89
33 -22 9 -48 18 -57 20 -10 2 -57 20 -105 40 -49 20 -123 50 -165 67 -70 28
-78 33 -78 58 0 15 3 30 7 34 4 4 6 32 5 63 -1 36 4 65 13 80 19 29 19 43 -1
43 -8 0 -13 4 -9 9 3 6 44 -10 90 -34 47 -24 101 -49 120 -55 19 -6 41 -17 48
-24 20 -21 57 -30 57 -14 0 7 -33 26 -73 42 -39 16 -114 49 -165 74 -89 42
-92 45 -91 75 1 18 -2 44 -6 60 -4 16 -3 27 3 27 5 0 78 -34 161 -75z m-779
-99 c125 -47 140 -61 140 -134 0 -38 15 -72 32 -72 15 0 48 -40 48 -57 0 -10
6 -12 19 -8 19 6 20 0 23 -110 3 -99 1 -114 -12 -109 -8 4 -24 8 -35 9 -11 2
-32 8 -46 13 -15 6 -30 8 -33 5 -16 -16 -2 -33 38 -48 44 -17 64 -39 46 -50
-6 -4 -10 -42 -10 -86 0 -61 -3 -80 -13 -77 -7 2 -65 21 -128 42 l-115 40
-120 -13 c-144 -16 -144 -16 -144 -40 0 -17 4 -18 42 -9 24 5 51 7 60 4 10 -2
16 0 13 4 -3 5 14 12 37 16 65 11 82 12 93 5 6 -4 20 -8 33 -9 13 0 52 -10 88
-22 l64 -22 0 -58 c0 -68 -14 -86 -54 -70 -15 5 -38 10 -50 10 -13 0 -44 11
-69 25 -26 13 -46 19 -44 13 3 -17 -73 -29 -80 -12 -2 7 -11 15 -19 18 -8 3
-13 2 -10 -3 3 -5 -9 -11 -26 -15 -21 -4 -34 -2 -40 6 -6 10 -8 10 -8 0 0 -7
-5 -10 -10 -7 -6 4 -8 10 -5 15 3 4 -12 4 -32 0 -20 -5 -77 -12 -126 -16 l-90
-7 8 119 c4 65 7 140 6 166 -1 26 4 50 10 53 6 4 62 15 125 24 90 13 112 19
105 29 -7 12 -27 12 -120 1 -61 -7 -113 -11 -115 -8 -7 8 13 218 22 236 7 12
32 21 79 29 37 7 80 15 96 18 l27 6 1 -132 c0 -95 3 -126 10 -108 8 21 20 28
67 38 90 19 183 21 213 6 15 -7 41 -16 59 -19 18 -3 41 -10 51 -15 10 -6 20
-6 23 -1 7 11 -152 71 -190 71 -16 0 -69 -7 -119 -15 -49 -8 -93 -15 -97 -15
-5 0 -8 23 -8 50 0 45 2 50 23 51 16 1 18 2 5 6 -32 8 -19 30 22 37 107 17
215 18 265 1 102 -33 106 -34 103 -24 -2 6 -39 25 -83 42 -79 30 -80 30 -170
18 -49 -7 -105 -15 -122 -18 l-33 -5 0 76 c0 91 2 92 129 111 114 17 111 17
151 1z m1270 -138 l115 -56 1 -46 c0 -25 -3 -46 -7 -46 -7 0 -179 77 -229 103
-20 10 -26 21 -28 60 -4 59 -4 59 148 -15z m-1943 10 l32 2 0 -60 c0 -33 -1
-60 -2 -60 -1 0 -53 -7 -116 -15 -63 -9 -129 -13 -147 -9 -26 5 -33 2 -38 -13
-4 -16 -5 -16 -3 2 1 11 13 22 27 26 14 4 19 7 12 8 -7 1 -10 6 -7 11 4 7 11
8 18 1 14 -11 62 23 53 37 -3 5 12 12 34 16 23 4 39 11 37 18 -2 11 2 13 34
17 6 0 8 8 5 17 -5 13 -2 14 11 8 10 -4 32 -7 50 -6z m1130 -59 c43 -17 83
-35 89 -40 15 -12 19 -149 4 -149 -6 0 -50 16 -98 36 l-88 36 -2 74 c-1 41 3
74 8 74 5 0 44 -14 87 -31z m795 -68 c43 -21 74 -41 71 -45 -4 -4 1 -4 11 0
13 5 17 4 12 -4 -4 -8 -2 -10 7 -6 8 3 17 -3 21 -13 7 -17 8 -17 22 1 13 19
14 19 14 -7 0 -15 -4 -27 -9 -27 -5 0 -11 -9 -14 -21 -4 -16 2 -24 29 -36 33
-16 45 -33 24 -33 -5 0 -10 5 -10 11 0 5 -5 7 -11 3 -6 -3 -14 -2 -18 4 -3 6
-62 34 -131 62 -69 28 -131 54 -137 57 -8 3 -12 23 -11 55 3 47 4 49 28 43 14
-3 60 -23 102 -44z m-606 -9 c5 -5 25 -15 44 -22 19 -7 60 -24 90 -38 30 -13
78 -33 107 -44 29 -11 54 -27 58 -37 5 -17 5 -121 -1 -121 -4 0 -213 76 -269
98 l-50 20 -3 76 c-3 72 2 86 24 68z m-245 -86 c14 -7 42 -16 63 -20 20 -4 35
-10 32 -14 -2 -4 7 -8 21 -8 13 -1 26 -4 29 -6 2 -3 7 -33 10 -67 l7 -62 -28
7 c-15 4 -60 19 -99 34 l-71 28 -1 61 c0 33 2 61 5 61 3 0 18 -6 32 -14z m239
-95 c0 -5 10 -7 23 -4 18 4 19 3 7 -7 -12 -9 -11 -10 7 -5 13 4 35 0 50 -8 16
-9 43 -21 61 -28 25 -9 30 -14 20 -21 -9 -6 -6 -7 10 -3 12 3 22 2 22 -3 0 -6
10 -8 23 -5 18 4 19 3 7 -7 -13 -9 -12 -11 5 -8 11 1 31 -1 45 -5 23 -6 25
-11 26 -62 1 -30 -1 -55 -3 -55 -2 0 -25 9 -51 19 -26 11 -78 29 -117 41 -38
11 -89 28 -112 37 l-43 16 0 58 c0 33 4 59 10 59 6 0 10 -4 10 -9z m-197 -69
c92 -31 105 -44 109 -103 3 -50 4 -52 36 -54 l32 -3 0 49 c0 39 3 47 15 43 8
-4 15 -13 15 -22 0 -12 3 -13 11 -5 13 13 123 -23 157 -52 27 -24 110 -57 123
-50 5 4 9 -8 9 -24 0 -30 -13 -41 -25 -21 -3 6 -12 10 -18 9 -9 0 -9 -2 1 -6
6 -2 12 -11 12 -18 0 -7 7 -16 16 -19 9 -4 15 -9 12 -12 -3 -2 -30 3 -61 13
-40 12 -57 23 -61 37 -4 16 -14 21 -45 23 -22 1 -50 8 -63 16 -23 15 -109 32
-138 28 -9 -1 -47 10 -85 25 -39 14 -85 31 -102 37 -32 10 -33 13 -33 62 0 73
1 74 83 47z m29 -172 c24 -11 51 -20 61 -20 9 0 18 -6 18 -12 1 -7 3 -35 5
-62 l3 -48 -32 6 c-18 3 -62 16 -99 28 -73 23 -76 28 -69 101 3 38 4 39 37 32
19 -3 53 -15 76 -25z m226 -44 c35 -9 66 -16 68 -16 3 0 4 -22 3 -50 -3 -56
-9 -59 -84 -39 -22 6 -54 10 -72 9 -17 0 -35 5 -39 11 -5 9 1 10 20 5 24 -6
27 -4 24 16 -2 14 -12 25 -28 29 l-25 7 28 1 c24 1 27 5 27 34 0 17 4 27 8 21
4 -7 35 -19 70 -28z m-308 -87 c0 -6 8 -8 18 -5 9 3 46 -5 81 -17 56 -19 64
-25 67 -50 2 -18 -1 -25 -8 -21 -7 5 -8 2 -3 -7 5 -7 10 -22 10 -31 2 -24 3
-24 55 -31 32 -4 40 -3 28 4 -10 6 -18 21 -18 34 0 16 -8 26 -27 33 l-28 10
27 1 c21 1 29 -5 34 -24 4 -15 14 -26 25 -26 10 -1 22 -2 27 -3 4 -1 23 -5 42
-10 19 -4 52 -14 73 -23 20 -9 41 -13 45 -8 4 4 1 10 -5 12 -7 3 -13 12 -12
21 0 11 2 12 6 5 2 -7 13 -13 23 -13 37 0 26 -73 -13 -86 -43 -14 -167 17
-167 41 0 7 -8 12 -17 11 -10 -2 -21 1 -24 7 -4 5 -49 10 -100 10 -58 0 -86 3
-74 8 19 7 19 8 -2 8 -13 1 -23 6 -23 11 0 6 -16 10 -36 10 l-35 0 2 70 c1 51
6 70 16 70 7 0 13 -5 13 -11z m-470 -318 c0 -17 -80 -61 -112 -61 -18 0 -48
-4 -66 -9 -61 -18 -644 -50 -603 -34 7 3 21 13 30 22 19 19 218 45 481 62 126
8 255 21 268 28 1 0 2 -3 2 -8z m620 -36 c0 -8 -6 -15 -14 -15 -8 0 -18 -5
-21 -10 -4 -6 -1 -9 6 -8 7 2 18 -7 24 -19 7 -18 18 -23 46 -23 25 0 39 -5 43
-16 4 -12 15 -15 36 -12 17 3 30 1 30 -4 0 -4 8 -8 17 -8 9 0 14 -3 10 -6 -6
-6 -86 8 -120 21 -13 5 -17 2 -17 -13 0 -21 8 -26 70 -37 92 -17 110 -25 110
-48 -1 -51 1 -51 -167 -12 -15 4 -23 0 -25 -12 -3 -14 -10 -8 -31 22 l-27 39
31 32 c26 27 28 32 14 38 -9 3 -24 6 -34 6 -10 0 -28 11 -40 24 l-22 23 31 27
c36 30 50 33 50 11z m10 -480 l0 -165 48 -2 47 -2 -47 -3 c-27 -2 -48 -9 -48
-15 0 -6 -18 14 -40 46 -39 55 -40 60 -40 137 0 74 2 83 33 124 17 24 35 44
40 45 4 0 7 -74 7 -165z m215 108 c18 -20 25 -37 23 -60 -2 -38 7 -49 42 -56
23 -4 22 -4 -5 -6 l-30 -1 0 -92 0 -92 55 -13 c30 -6 59 -8 63 -4 4 4 7 48 5
97 l-3 89 -30 6 c-22 5 -24 7 -8 8 50 3 53 -4 53 -114 0 -57 -4 -106 -8 -109
-9 -6 -137 11 -162 21 -8 3 -18 5 -22 5 -5 -1 -8 5 -8 13 0 8 7 15 15 15 10 0
15 10 15 27 l0 27 -20 -20 c-12 -11 -22 -30 -23 -42 -2 -26 -16 -29 -19 -4 -5
56 -6 195 -1 245 4 49 8 57 25 57 14 0 18 5 14 15 -8 22 0 18 29 -12z m915
-1363 l-105 -6 105 -2 c58 -1 116 -5 130 -7 17 -4 19 -3 8 2 -9 5 60 7 155 6
218 -1 217 -1 217 -11 0 -11 -655 -37 -671 -26 -9 5 -8 9 7 15 14 6 15 8 3 8
-9 1 -16 8 -16 16 0 13 21 15 136 13 l136 -2 -105 -6z m-3572 -359 c2 -6 23
-11 47 -11 24 0 45 -5 47 -11 3 -8 33 -8 112 0 106 11 180 7 202 -11 6 -4 60
-6 120 -2 60 4 128 6 152 5 27 -1 42 3 42 10 0 14 173 5 216 -11 14 -6 45 -10
69 -10 47 0 47 0 60 -92 4 -27 11 -48 15 -48 7 0 40 -82 40 -98 0 -2 -10 -2
-23 2 -13 3 -68 10 -123 16 -147 15 -234 31 -234 41 0 5 -8 9 -17 9 -15 0 -16
-2 -3 -10 24 -15 6 -20 -31 -10 -19 6 -92 17 -164 25 -173 20 -449 53 -505 61
-25 4 -71 15 -102 25 -32 11 -72 19 -90 19 -40 0 -148 22 -148 30 0 3 -26 5
-57 4 -37 -2 -66 3 -80 12 -12 8 -34 14 -48 14 -14 0 -42 7 -62 15 -19 8 -53
15 -75 15 -26 0 -37 4 -32 11 7 13 103 4 140 -13 24 -11 144 7 144 21 0 12
384 4 388 -8z m2784 -18 c-33 -6 -16 -23 24 -23 20 0 44 -5 55 -11 12 -6 25
-7 32 -2 7 5 21 8 32 6 120 -16 267 -20 385 -10 47 4 130 10 185 12 55 3 107
6 115 7 32 3 164 -5 148 -9 -9 -2 -15 -10 -12 -18 4 -10 -10 -13 -66 -13 -39
0 -74 -3 -77 -6 -4 -3 -11 -2 -18 4 -7 6 -31 6 -66 0 -159 -29 -200 -35 -309
-44 -169 -14 -256 -27 -285 -41 -48 -22 -137 -48 -180 -51 -22 -1 -89 -8 -150
-14 -107 -10 -496 -29 -504 -24 -3 3 22 78 40 119 5 11 10 38 11 59 l3 39 75
4 c41 2 90 5 108 7 29 3 32 1 32 -24 0 -34 -15 -47 -60 -53 -33 -4 -33 -4 8
-5 23 -1 42 -6 42 -12 0 -18 44 -32 138 -46 102 -14 165 -4 169 26 1 8 5 40 8
72 l6 56 67 0 c37 -1 57 -3 44 -5z m-3087 -218 c88 -8 246 -22 350 -30 105 -9
278 -25 385 -36 249 -25 477 -46 608 -54 56 -4 102 -10 102 -14 0 -4 -8 -7
-17 -8 -35 -2 -239 -23 -290 -29 -36 -4 -53 -3 -53 5 0 6 18 11 42 11 73 0 36
8 -87 19 -66 6 -257 26 -425 45 -168 19 -363 39 -435 45 -221 19 -425 44 -425
53 0 12 63 10 245 -7z m502 5 c136 -11 374 -30 664 -55 96 -8 198 -15 226 -15
49 0 82 -18 70 -37 -5 -8 -404 25 -887 71 -91 9 -221 21 -290 27 -69 6 -127
13 -129 15 -8 8 221 4 346 -6z m-1207 -39 c118 -17 319 -42 445 -56 127 -14
262 -30 300 -35 39 -5 140 -19 225 -30 179 -23 333 -50 326 -58 -3 -2 -42 -8
-88 -13 -65 -7 -110 -4 -208 11 -180 28 -473 68 -571 79 -46 5 -136 18 -199
29 -138 24 -233 38 -360 52 -178 20 -309 43 -303 53 9 15 196 2 433 -32z m305
24 c66 -8 219 -24 340 -35 121 -11 317 -32 435 -46 118 -14 271 -32 340 -39
251 -29 303 -37 284 -48 -38 -21 -220 -11 -534 31 -173 23 -457 58 -630 77
-325 37 -510 61 -518 70 -11 10 167 4 283 -10z m-100 -145 c77 -11 235 -35
350 -53 128 -19 241 -31 289 -30 43 1 76 0 74 -2 -2 -2 -73 -11 -157 -21 -127
-13 -168 -14 -230 -5 -42 7 -121 19 -176 27 -55 9 -167 26 -250 39 -82 13
-175 27 -205 30 -82 11 -94 22 -30 29 141 16 127 16 335 -14z m-640 -20 c174
-21 214 -30 215 -45 0 -5 -32 -14 -72 -18 -69 -8 -128 -6 -280 9 l-68 6 0 40
c0 37 2 40 23 34 12 -3 94 -15 182 -26z m2518 -26 c60 -6 75 -10 67 -19 -8 -9
-7 -15 2 -19 7 -3 1 -3 -14 0 -17 4 -28 2 -28 -5 0 -6 17 -11 38 -11 66 0 83
-9 76 -39 -5 -25 -4 -25 10 4 l14 30 1 -51 c1 -35 -3 -54 -12 -57 -9 -3 -12
-16 -9 -36 3 -25 1 -31 -14 -31 -16 0 -17 2 -4 10 11 7 6 10 -21 10 -21 0 -42
7 -50 16 -9 11 -24 15 -50 11 -29 -4 -36 -2 -32 9 3 9 -7 15 -36 20 -35 6 -41
10 -41 30 0 30 -35 33 -50 4 -9 -17 -20 -20 -75 -18 -45 1 -66 6 -70 16 -4 12
-9 12 -30 -2 -14 -9 -25 -12 -25 -6 0 5 -8 10 -18 10 -18 0 -52 33 -52 50 0
12 -52 13 -65 1 -21 -18 -90 -21 -114 -4 -16 10 -44 16 -85 16 -90 0 -27 15
97 23 61 4 95 10 91 16 -4 6 1 8 12 5 49 -14 93 -17 99 -7 4 6 33 8 73 6 40
-3 81 1 102 9 41 15 107 18 213 9z m-2668 -124 c22 -5 81 -14 130 -20 50 -6
100 -14 112 -17 37 -9 15 -23 -35 -23 -54 0 -203 -23 -220 -34 -20 -12 -42 20
-42 63 0 23 3 41 8 41 4 0 25 -5 47 -10z"/>
<path d="M4604 5645 c-7 -30 -11 -30 -49 -5 -54 35 -64 16 -15 -28 30 -28 30
-28 22 -107 -10 -117 -7 -129 44 -172 29 -23 48 -33 52 -26 4 6 6 90 4 187
l-3 176 -24 0 c-18 0 -26 -7 -31 -25z"/>
<path d="M4930 5661 c0 -5 -3 -16 -6 -25 -4 -9 5 -25 21 -40 35 -32 76 -190
45 -171 -6 4 -10 -13 -10 -45 0 -48 -1 -50 -21 -40 -26 15 -37 5 -21 -20 7
-11 12 -35 12 -54 0 -49 9 -66 35 -66 12 0 30 -9 40 -20 10 -11 21 -17 26 -14
4 2 6 51 3 107 -10 212 -10 233 -3 267 8 33 5 38 -43 82 -47 45 -78 60 -78 39z"/>
<path d="M3145 5536 c-117 -37 -240 -176 -251 -285 -2 -20 -1 -31 2 -24 3 7
11 10 18 7 8 -3 16 4 19 16 4 17 3 19 -9 9 -11 -9 -14 -8 -14 2 1 21 36 95 50
104 7 4 5 -5 -4 -23 -9 -17 -16 -37 -16 -44 0 -7 9 5 19 27 23 52 105 135 154
158 20 10 56 22 80 26 41 9 41 9 8 10 -47 1 -34 11 17 13 23 1 39 5 36 10 -7
12 -62 9 -109 -6z"/>
<path d="M5536 190 c6 -6 42 -15 80 -20 38 -5 116 -17 174 -26 58 -9 119 -15
135 -14 51 3 58 3 125 -9 101 -19 149 -24 167 -17 29 11 1 25 -62 30 -33 3
-109 10 -170 16 -60 7 -144 14 -185 16 -141 9 -195 16 -204 25 -14 13 -73 12
-60 -1z"/>
<path d="M5745 80 c-4 -6 8 -10 28 -10 19 0 40 -7 47 -15 11 -13 8 -15 -16
-17 -16 0 -40 0 -54 1 l-25 2 25 -15 c46 -28 51 -29 77 -15 21 11 27 11 30 2
6 -16 55 -17 70 -2 9 9 26 9 69 1 42 -9 61 -9 71 -1 9 9 13 9 13 0 0 -8 47
-11 155 -11 148 0 155 1 155 20 0 11 -1 20 -2 21 -4 1 -162 18 -228 25 -67 7
-72 7 -138 0 -33 -3 -51 -2 -47 4 4 6 -8 10 -27 9 -30 -1 -31 -2 -8 -8 23 -7
23 -8 -13 -15 -21 -4 -45 -3 -55 3 -16 10 -15 10 3 11 l20 1 -20 9 c-28 12
-123 12 -130 0z"/>
</g>
</svg>
