<?xml version="1.0" standalone="no"?>
<!DOCTYPE svg PUBLIC "-//W3C//DTD SVG 20010904//EN"
 "http://www.w3.org/TR/2001/REC-SVG-20010904/DTD/svg10.dtd">
<svg version="1.0" xmlns="http://www.w3.org/2000/svg"
 width="1727.000000pt" height="1602.000000pt" viewBox="0 0 1727.000000 1602.000000"
 preserveAspectRatio="xMidYMid meet">
<metadata>
Created by potrace 1.15, written by Peter Selinger 2001-2017
</metadata>
<g transform="translate(0.000000,1602.000000) scale(0.100000,-0.100000)"
fill="#000000" stroke="none">
<path d="M15380 16010 c0 -6 -27 -167 -61 -358 -77 -445 -226 -1332 -279
-1667 -22 -143 -61 -388 -86 -545 -24 -157 -55 -352 -68 -435 -63 -394 -207
-1230 -214 -1237 -18 -18 -1528 -34 -1581 -18 -17 6 -30 -20 -61 -115 -12 -38
-31 -86 -40 -105 -10 -19 -24 -51 -31 -70 -7 -19 -19 -45 -27 -57 l-13 -22
-45 32 c-25 17 -40 33 -35 35 19 6 12 18 -16 31 -22 10 -24 14 -12 22 12 7 11
9 -3 9 -9 0 -25 10 -35 23 -10 12 -33 33 -50 45 -27 19 -31 27 -23 41 9 17 7
18 -28 5 -52 -18 -68 -18 -52 1 7 8 9 26 6 42 -6 26 -2 31 64 68 69 40 88 58
50 48 -36 -9 -21 13 20 32 23 10 51 28 63 39 13 12 35 27 50 33 15 7 27 17 27
23 0 15 -16 12 -30 -5 -7 -8 -17 -12 -22 -9 -15 10 23 44 49 44 16 0 23 6 23
19 0 10 10 26 23 35 29 20 85 70 70 62 -6 -4 -14 -2 -18 3 -3 6 4 15 16 21 15
8 19 9 15 1 -15 -24 24 -10 41 15 10 14 33 43 51 64 33 39 43 62 17 40 -14
-11 -14 -10 -5 16 6 15 15 33 19 39 19 22 61 144 61 173 0 18 4 32 9 32 11 0
21 49 11 55 -11 7 -11 103 1 110 6 4 7 29 3 67 -5 47 -4 59 5 54 18 -12 31
-51 33 -102 1 -25 5 -47 10 -50 5 -3 4 -12 -2 -19 -6 -8 -10 -24 -7 -37 4 -20
4 -20 6 5 0 17 7 27 16 27 18 0 18 -2 1 46 -7 22 -16 61 -21 89 -8 55 -33 125
-45 125 -4 0 -6 10 -6 23 1 12 -2 28 -7 35 -12 16 5 16 21 0 7 -7 12 -8 12 -2
0 5 5 2 10 -6 5 -8 10 -10 10 -4 0 5 -13 23 -30 39 -16 16 -30 34 -30 39 0 6
-21 31 -45 55 -26 27 -45 54 -45 67 0 12 -4 24 -8 26 -4 2 -19 21 -32 43 -13
22 -47 64 -74 93 -27 29 -50 62 -51 74 -1 16 -11 25 -35 31 -38 10 -88 42
-108 69 -16 22 -44 24 -36 3 9 -23 -8 -18 -35 11 -22 22 -30 25 -67 19 -24 -3
-51 -2 -61 4 -10 5 -30 12 -45 16 -15 3 -35 13 -45 23 -27 28 -97 52 -149 52
-51 0 -124 15 -169 35 -16 8 -34 11 -39 7 -6 -3 -47 -6 -93 -5 -62 0 -86 5
-98 17 -9 9 -22 16 -30 16 -17 0 -27 40 -14 56 7 9 0 26 -23 58 -29 43 -33 45
-40 26 -9 -25 -28 -18 -28 11 0 10 -7 19 -16 19 -8 0 -29 15 -47 34 -18 18
-44 37 -59 40 -16 4 -28 11 -28 16 0 17 56 11 105 -10 55 -24 72 -26 56 -6 -6
7 -31 21 -55 30 -58 22 -193 11 -188 -16 1 -10 -9 -20 -30 -28 l-33 -12 30 -9
c19 -5 33 -5 40 2 7 7 5 8 -7 4 -10 -4 -18 -3 -18 3 0 10 22 22 49 28 10 2 11
0 2 -9 -17 -17 -13 -29 5 -19 12 6 23 3 40 -13 29 -27 29 -29 2 -55 l-23 -22
28 13 c25 11 30 11 38 -3 6 -10 17 -14 30 -11 20 6 20 6 -2 17 -30 15 -36 36
-10 36 13 0 27 -12 37 -32 9 -18 20 -35 24 -38 11 -8 19 -50 9 -50 -5 0 -9 5
-9 10 0 6 -9 10 -19 10 -15 0 -18 -5 -13 -22 4 -18 2 -20 -14 -13 -10 4 -30 7
-43 6 -23 -1 -23 0 -8 17 19 21 22 32 7 32 -5 0 -10 -7 -10 -15 0 -16 -29 -10
-42 9 -6 8 -8 8 -8 0 0 -6 -26 -14 -59 -17 -32 -4 -71 -12 -86 -19 -24 -11
-28 -9 -50 18 -13 16 -24 35 -25 42 0 7 -6 15 -14 18 -8 3 -20 19 -26 35 -7
16 -20 34 -29 39 -29 17 16 12 50 -6 37 -19 68 -12 49 11 -7 8 -21 15 -31 15
-11 0 -19 5 -19 11 0 5 4 8 9 4 5 -3 12 -1 15 4 9 13 -55 18 -77 6 -14 -8 -21
-6 -31 7 -6 9 -20 16 -30 15 -10 -1 -23 7 -30 18 -6 11 -19 26 -29 33 -10 8
-16 21 -13 29 4 8 -4 23 -16 34 -28 22 -39 24 -32 4 7 -18 -4 -19 -43 -4 -22
8 -25 8 -16 -2 19 -20 3 -39 -33 -39 -19 0 -34 5 -34 11 0 5 -15 16 -32 24
-18 8 -44 30 -57 49 -13 20 -29 36 -36 36 -6 0 -41 28 -78 63 -57 54 -64 64
-50 73 10 6 14 17 10 26 -7 20 -103 48 -138 41 -30 -6 -39 13 -39 84 0 23 -4
45 -10 48 -5 3 -10 1 -10 -5 0 -7 -7 -10 -14 -7 -10 4 -13 1 -9 -9 6 -17 -15
-74 -28 -74 -5 0 -9 4 -9 8 0 5 -13 24 -30 42 -16 18 -30 37 -30 41 0 4 -13
12 -29 17 -16 6 -34 19 -39 29 -14 26 -69 56 -77 43 -4 -6 -14 -10 -23 -9 -40
4 -58 -2 -67 -23 -6 -13 -18 -22 -27 -22 -10 1 -14 -4 -11 -13 7 -18 -38 -113
-55 -113 -7 0 -17 11 -22 25 -5 14 -17 28 -25 32 -9 3 -14 12 -11 20 4 8 -4
17 -18 23 -27 10 -56 47 -56 71 0 9 -7 20 -16 23 -13 5 -14 9 -4 21 13 16 3
20 -24 9 -11 -4 -13 -14 -9 -35 4 -22 2 -29 -10 -29 -9 0 -19 5 -22 10 -4 6
-11 8 -16 5 -18 -12 -9 7 14 26 19 16 20 20 7 29 -8 5 -19 8 -25 7 -5 -2 -18
6 -27 18 -14 18 -32 23 -93 29 -48 4 -82 3 -96 -4 -15 -8 -24 -8 -34 0 -8 7
-59 13 -120 14 -64 2 -110 7 -114 14 -3 6 -49 13 -101 16 -113 7 -150 14 -150
28 0 13 -26 34 -65 52 -47 22 -67 27 -60 16 4 -6 -4 -14 -17 -19 -22 -9 -22
-10 5 -10 16 -1 26 3 22 9 -3 6 1 10 10 10 9 0 19 -9 22 -19 3 -12 15 -21 32
-23 33 -4 43 -43 12 -51 -12 -3 -21 -1 -21 4 0 5 -8 9 -18 9 -10 0 -28 7 -41
17 -19 13 -28 14 -42 5 -22 -14 -32 -15 -25 -4 3 5 -36 18 -87 29 -115 25
-255 18 -309 -15 -18 -11 -53 -23 -76 -26 -40 -4 -71 -16 -44 -16 22 0 12 -17
-15 -28 -43 -17 -68 -19 -65 -4 2 14 -14 16 -23 3 -3 -6 -25 -13 -50 -17 -33
-4 -46 -12 -51 -27 -12 -38 -74 -76 -74 -45 0 7 -6 5 -17 -4 -31 -27 -81 -48
-113 -48 -40 0 -81 -22 -113 -60 -15 -17 -35 -30 -49 -30 -13 0 -43 -7 -67
-16 -24 -8 -76 -17 -115 -20 -94 -6 -163 -22 -170 -39 -3 -10 11 -8 55 7 45
15 63 17 73 9 7 -6 21 -9 29 -5 9 3 22 2 29 -2 7 -5 24 -7 37 -5 15 2 21 -1
17 -8 -4 -6 -18 -11 -31 -11 -13 0 -31 -7 -39 -16 -9 -8 -20 -12 -26 -9 -5 3
-16 3 -22 -2 -7 -4 -33 -9 -58 -9 -25 -1 -81 -11 -125 -22 -44 -11 -82 -18
-85 -15 -7 7 29 32 73 50 28 11 35 19 27 27 -8 8 3 17 37 32 30 14 40 23 28
23 -11 1 -33 -8 -50 -19 -16 -11 -35 -20 -42 -20 -6 0 -37 -27 -69 -60 -31
-33 -63 -60 -70 -60 -7 0 -16 -9 -19 -20 -3 -11 -11 -20 -16 -20 -14 0 -93
-60 -152 -115 -26 -25 -52 -45 -57 -45 -13 0 -215 -261 -241 -311 -12 -24 -31
-55 -41 -70 -15 -20 -18 -31 -10 -45 9 -16 11 -15 22 7 8 13 12 26 11 29 -1 2
2 6 8 8 19 6 11 -22 -14 -50 -23 -26 -53 -40 -40 -18 3 6 -1 7 -9 4 -9 -3 -15
-9 -14 -12 4 -29 -18 -71 -46 -86 -17 -9 -58 -44 -91 -76 -32 -33 -62 -60 -66
-60 -4 0 -10 -13 -14 -29 -5 -24 -12 -30 -38 -33 -18 -2 -32 -7 -33 -13 0 -5
-9 -28 -19 -50 -10 -22 -18 -43 -17 -46 1 -4 -9 -10 -21 -13 -12 -3 -28 -18
-35 -33 -19 -44 -39 -74 -46 -73 -4 1 -21 -4 -38 -11 -26 -11 -32 -10 -40 4
-12 23 -28 21 -28 -3 0 -13 -7 -20 -19 -20 -10 0 -24 -7 -31 -15 -7 -8 -28
-15 -46 -15 -19 0 -42 -4 -52 -9 -9 -5 -37 -17 -62 -27 -25 -10 -54 -27 -65
-39 -11 -11 -42 -31 -70 -44 -27 -13 -62 -29 -77 -37 -22 -10 -29 -10 -38 1
-22 27 8 52 73 60 53 6 71 18 29 21 -10 1 -33 2 -52 3 -34 2 -34 2 -15 18 22
17 25 17 -48 -3 l-22 -7 23 25 c13 14 22 31 20 38 -2 8 16 24 40 38 37 21 41
26 30 40 -8 9 -8 13 -2 9 7 -4 14 0 18 8 9 26 -28 17 -69 -15 -21 -16 -42 -30
-46 -30 -5 0 -20 -18 -34 -39 -13 -22 -36 -51 -51 -64 -26 -25 -26 -51 0 -41
34 13 20 -44 -20 -81 -21 -20 -49 -71 -60 -110 -7 -25 -16 -40 -26 -39 -8 1
-20 -12 -25 -27 -6 -16 -8 -29 -3 -29 4 0 10 -9 13 -19 5 -22 -20 -51 -45 -51
-9 0 -21 -7 -28 -15 -11 -13 -10 -14 5 -8 17 6 17 5 -1 -20 -10 -14 -22 -27
-26 -27 -4 0 -16 -21 -27 -46 -15 -32 -25 -44 -36 -41 -8 4 -17 2 -20 -3 -4
-6 -1 -10 4 -10 7 0 8 -6 2 -17 -39 -74 -91 -188 -91 -198 0 -7 -6 -18 -14
-24 -8 -7 -18 -27 -21 -44 -4 -18 -20 -56 -36 -86 -21 -40 -26 -58 -18 -67 8
-10 6 -27 -6 -65 -10 -28 -18 -74 -20 -103 -1 -28 -10 -69 -19 -90 -9 -22 -14
-47 -11 -57 4 -12 -2 -23 -19 -34 -27 -18 -37 -36 -42 -80 -6 -53 -15 -80 -32
-98 -9 -11 -17 -24 -18 -30 -3 -32 -5 -37 -13 -37 -11 0 -25 69 -16 78 3 4 10
0 15 -8 6 -10 7 3 3 35 -3 28 -12 54 -20 58 -8 5 -12 17 -8 30 3 12 -3 6 -14
-13 -25 -43 -26 -51 -5 -43 12 4 14 0 8 -23 -3 -16 -15 -45 -26 -64 -16 -28
-19 -49 -16 -110 1 -41 9 -81 15 -88 17 -18 -2 -58 -20 -43 -8 6 -18 5 -30 -4
-15 -11 -15 -14 -2 -25 8 -7 15 -19 15 -26 0 -8 5 -14 11 -14 6 0 9 -6 6 -14
-3 -7 0 -19 6 -25 8 -8 8 -14 -1 -23 -9 -9 -15 -8 -27 8 -14 18 -14 18 -15 -8
0 -16 -5 -28 -12 -28 -6 0 -2 -10 10 -23 12 -13 22 -31 22 -41 0 -9 5 -26 10
-37 9 -16 7 -19 -10 -19 -24 0 -27 -15 -4 -24 8 -3 13 -9 11 -13 -11 -17 32
-181 62 -239 17 -34 31 -73 31 -86 0 -30 35 -78 57 -78 9 0 13 -6 9 -15 -3
-10 1 -19 12 -23 9 -4 19 -14 21 -22 2 -8 6 -24 9 -35 3 -11 1 -17 -3 -13 -5
5 -15 -1 -22 -12 -12 -17 -12 -30 -2 -75 11 -48 15 -55 36 -55 13 0 24 -6 24
-15 3 -27 4 -33 9 -39 3 -2 1 -40 -4 -83 -12 -99 -4 -137 26 -127 18 5 20 3
14 -12 -12 -29 -7 -175 5 -191 7 -7 9 -26 5 -43 -5 -25 -2 -30 15 -30 14 0 21
-9 25 -30 8 -38 24 -39 24 -2 0 19 3 23 9 13 5 -7 6 -21 4 -31 -3 -12 3 -22
16 -30 12 -6 19 -15 16 -20 -3 -5 4 -15 15 -23 13 -9 22 -30 26 -63 4 -27 11
-55 17 -62 5 -7 10 -30 10 -52 0 -22 3 -40 8 -40 4 0 11 -16 15 -36 3 -19 16
-45 29 -57 12 -12 27 -41 34 -64 6 -24 24 -52 41 -67 17 -13 30 -27 30 -30 0
-3 22 -38 48 -78 67 -102 102 -192 102 -265 0 -26 -7 -35 -44 -57 -76 -45
-108 -108 -75 -150 10 -13 19 -35 19 -48 0 -36 -26 -122 -45 -152 -15 -23 -17
-39 -11 -104 4 -42 8 -86 8 -97 1 -54 19 -256 28 -305 5 -30 16 -95 25 -145 9
-49 18 -117 20 -150 2 -33 11 -89 20 -125 10 -39 13 -80 9 -103 -4 -30 -2 -43
13 -59 14 -16 18 -36 18 -99 0 -43 3 -79 8 -79 11 0 8 -22 -7 -52 -8 -16 -11
-28 -6 -28 5 0 20 -11 34 -24 27 -24 33 -50 16 -61 -5 -3 -10 -19 -10 -35 0
-23 4 -28 16 -23 12 4 15 1 12 -13 -2 -10 -10 -18 -16 -17 -15 4 -16 -23 -1
-33 6 -3 14 -1 18 5 4 7 8 -2 8 -18 0 -17 -3 -28 -6 -26 -9 5 -7 -78 2 -93 5
-6 6 -12 2 -12 -3 0 4 -18 15 -40 11 -21 20 -51 20 -65 0 -14 5 -25 10 -25 19
0 10 -49 -10 -60 -22 -12 -23 -9 -20 49 1 18 -4 37 -10 41 -9 6 -9 13 0 29 10
19 9 22 -6 19 -13 -2 -19 4 -20 25 -2 15 2 27 7 27 6 0 7 5 4 10 -9 15 -25 2
-25 -20 0 -10 -6 -21 -12 -23 -10 -4 -10 -8 1 -15 12 -8 10 -15 -8 -37 -16
-21 -21 -41 -21 -86 0 -77 14 -113 41 -106 16 4 18 3 9 -8 -8 -10 -4 -28 15
-71 14 -32 32 -66 40 -74 13 -14 12 -19 -5 -38 -20 -21 -20 -22 -2 -22 21 0
56 -59 57 -97 1 -26 -22 -38 -41 -22 -8 6 -14 8 -14 3 0 -5 13 -18 29 -29 17
-11 28 -21 26 -24 -3 -2 0 -10 6 -17 7 -8 7 -19 1 -31 -10 -18 9 -49 22 -36 3
4 6 1 6 -6 0 -6 -13 -19 -28 -28 -46 -27 -64 -81 -38 -116 19 -25 30 -5 22 39
-9 44 6 44 40 -1 25 -33 30 -55 22 -100 -5 -29 -27 -40 -41 -21 -10 14 -12 9
-12 -28 0 -31 4 -42 13 -39 7 3 20 -1 30 -10 9 -8 30 -21 46 -29 60 -31 30
-102 -52 -129 -21 -6 -44 -17 -52 -23 -14 -12 -272 -140 -355 -177 -171 -77
-168 -76 -290 -84 -303 -20 -496 -76 -600 -175 -41 -38 -94 -69 -155 -91 -21
-7 -103 -13 -205 -15 -93 -1 -198 -5 -233 -9 -112 -12 -252 -68 -252 -100 0
-8 -5 -24 -10 -37 -11 -23 -12 -23 -238 -25 -238 -3 -356 -17 -501 -62 -63
-20 -195 -89 -386 -204 -55 -33 -127 -75 -160 -95 -33 -19 -82 -49 -110 -67
-27 -18 -84 -49 -125 -70 -41 -21 -100 -55 -132 -76 -79 -54 -299 -264 -442
-423 -39 -43 -114 -115 -166 -158 -186 -156 -387 -348 -555 -529 -83 -89 -97
-106 -172 -199 -25 -30 -71 -82 -102 -115 -69 -72 -86 -96 -141 -200 -48 -89
-74 -125 -170 -235 -36 -41 -83 -100 -105 -130 -22 -30 -42 -57 -46 -60 -25
-20 -149 -303 -149 -342 0 -13 -9 -43 -20 -67 -19 -42 -20 -67 -20 -817 l0
-774 8635 0 8635 0 0 1819 0 1819 -67 64 c-37 35 -94 89 -127 121 -67 64 -128
106 -316 219 -273 163 -350 202 -525 264 -114 41 -147 56 -200 95 -28 20 -69
46 -93 58 -23 12 -48 34 -57 50 -8 16 -35 46 -60 66 -25 21 -84 82 -132 138
-95 109 -149 144 -240 152 -26 3 -102 9 -168 15 -66 6 -190 26 -275 44 -201
44 -433 86 -540 97 -47 5 -112 13 -145 18 -33 6 -103 13 -155 17 -90 7 -97 9
-134 42 -21 19 -68 48 -105 66 -65 31 -68 31 -216 30 -179 -1 -310 -19 -542
-76 l-172 -42 -93 48 c-51 27 -160 93 -242 147 -102 69 -163 103 -195 110 -71
15 -251 26 -296 18 -22 -4 -45 -3 -51 2 -7 5 -16 9 -20 8 -16 -4 -44 13 -38
22 3 5 10 7 15 4 5 -4 9 2 9 12 0 28 47 123 65 129 25 10 16 104 -10 104 -16
0 -13 29 4 39 7 5 12 11 12 15 -3 20 0 26 10 20 7 -4 9 -21 6 -40 -3 -19 -2
-34 2 -34 5 0 11 -10 14 -22 11 -41 22 -7 23 75 3 97 11 142 30 158 18 15 18
29 0 29 -8 0 -18 -9 -21 -20 -7 -23 -35 -27 -35 -6 0 8 6 21 13 28 7 7 13 29
12 48 0 19 5 38 10 42 18 14 36 8 34 -9 -2 -29 0 -43 9 -43 5 0 9 20 8 45 0
25 -3 45 -8 45 -14 0 -9 37 7 50 8 7 15 21 15 31 0 10 9 34 19 53 17 30 18 36
5 47 -12 10 -13 9 -9 -4 4 -8 2 -18 -4 -22 -6 -3 -11 1 -11 9 0 9 -6 13 -14
10 -9 -4 -13 3 -13 21 0 33 16 43 34 19 12 -16 13 -13 12 31 -1 28 -6 64 -11
81 -14 40 -3 85 17 78 11 -5 14 -17 10 -48 -5 -36 -4 -38 6 -16 9 21 19 131
20 215 1 51 -14 115 -27 115 -9 0 -14 12 -14 35 0 19 5 35 10 35 6 0 10 16 10
36 0 21 4 33 10 29 14 -8 13 7 -3 44 -11 25 -16 29 -26 18 -11 -10 -12 -9 -4
7 9 16 5 24 -17 45 -41 39 -53 66 -34 81 12 11 17 10 29 -6 7 -10 12 -28 9
-39 -4 -15 2 -25 21 -35 15 -8 33 -27 41 -42 8 -15 16 -28 19 -28 6 0 -11 52
-30 88 -11 21 -16 49 -13 77 2 25 -1 45 -5 45 -14 0 -57 37 -51 43 3 3 -4 10
-15 17 -12 6 -21 15 -21 21 0 6 7 6 19 -1 28 -15 34 -13 28 10 -3 11 -2 20 3
20 4 0 10 9 13 21 3 12 11 19 18 17 17 -6 19 -57 3 -91 -12 -25 -11 -28 4 -25
12 2 20 19 26 53 6 28 12 52 15 55 3 3 6 33 6 68 0 42 4 65 14 71 21 13 28
286 8 333 -9 22 -12 41 -6 49 13 20 11 32 -4 26 -8 -3 -19 -2 -26 2 -11 7 -12
16 -11 110 1 35 -5 50 -26 72 -15 15 -31 27 -37 26 -5 -1 -13 11 -18 26 -6 24
-6 27 7 16 12 -9 18 -9 27 0 9 9 7 13 -10 17 -32 9 -33 24 -8 76 36 74 39 95
13 101 l-22 6 24 26 c13 14 22 25 19 26 -2 0 -14 2 -26 5 -15 2 -23 -1 -23
-10 0 -33 -110 -27 -123 8 -6 16 6 20 99 31 43 6 53 11 63 33 11 26 11 27 -6
7 -16 -18 -29 -20 -114 -18 -78 2 -96 -1 -96 -12 0 -8 4 -15 8 -15 4 0 4 -13
-1 -29 -7 -25 -6 -29 8 -24 14 4 14 3 3 -5 -20 -14 -21 -120 -2 -152 15 -23
15 -24 -2 -11 -15 12 -17 10 -17 -20 0 -19 -3 -58 -7 -87 l-6 -53 29 6 c25 5
27 4 13 -7 -23 -20 -30 -47 -17 -68 10 -15 9 -26 -5 -55 -23 -47 -22 -62 3
-40 26 23 37 13 22 -21 -7 -14 -10 -35 -6 -47 3 -13 0 -35 -5 -50 -6 -15 -7
-26 -3 -24 4 1 8 -2 10 -8 1 -5 -2 -10 -7 -10 -5 0 -13 -3 -17 -8 -9 -9 -13
-48 -4 -42 13 8 33 -15 36 -42 2 -15 6 -46 10 -68 9 -56 9 -72 0 -140 l-8 -60
22 20 22 20 -13 -27 c-6 -15 -19 -29 -28 -31 -14 -4 -13 -5 2 -6 20 -1 20 -5
8 -47 -5 -18 -5 -37 0 -45 7 -11 9 -10 9 4 0 23 24 17 28 -6 2 -12 -3 -17 -18
-17 -18 0 -19 -3 -10 -20 8 -14 7 -26 -1 -42 -10 -18 -9 -20 6 -14 14 5 16 3
10 -11 -26 -60 -37 -165 -26 -232 1 -3 8 4 16 15 9 12 14 14 15 5 0 -13 -49
-58 -60 -54 -4 1 -3 -22 1 -50 3 -29 2 -60 -3 -70 -5 -10 -7 -25 -4 -32 3 -8
0 -17 -6 -21 -7 -4 -8 -3 -4 4 4 7 3 12 -2 12 -5 0 -14 -11 -20 -24 -8 -18 -7
-28 4 -44 10 -15 12 -27 4 -46 -5 -14 -7 -39 -4 -55 3 -16 1 -32 -5 -35 -5 -4
-8 -14 -5 -24 5 -14 4 -14 -4 -2 -6 8 -8 18 -6 22 6 10 -10 11 -19 1 -4 -3 2
-17 14 -29 21 -22 20 -64 -2 -64 -12 0 -12 -37 1 -45 6 -3 10 -11 10 -16 0 -6
-12 -1 -27 10 -14 12 -28 19 -31 17 -2 -3 3 -25 11 -50 9 -26 12 -46 7 -46 -4
0 -10 6 -13 13 -2 6 -7 9 -10 6 -8 -7 -27 -152 -27 -201 1 -20 -4 -39 -9 -42
-12 -8 -23 26 -16 50 3 10 -2 4 -11 -15 -10 -22 -13 -47 -9 -67 4 -26 1 -35
-17 -48 -12 -9 -19 -16 -14 -16 5 0 3 -7 -4 -15 -20 -24 -33 -17 -28 15 5 36
-9 40 -22 5 -5 -14 -15 -25 -22 -25 -9 0 -9 -3 1 -9 12 -8 12 -12 2 -25 -7 -8
-9 -21 -5 -27 5 -8 2 -10 -9 -6 -13 5 -15 -2 -12 -48 2 -30 6 -59 10 -65 3 -5
4 -10 0 -10 -3 0 -1 -10 6 -21 7 -14 7 -19 0 -15 -10 7 -37 -71 -27 -81 2 -3
-13 -21 -35 -41 -27 -26 -39 -44 -39 -64 0 -15 -5 -28 -11 -28 -6 0 -9 7 -5
15 3 9 0 15 -9 15 -8 0 -15 -7 -15 -16 0 -11 -5 -14 -16 -10 -13 5 -14 3 -6
-7 8 -9 8 -30 -1 -75 -10 -52 -15 -62 -29 -58 -10 2 -21 -1 -25 -6 -3 -6 -1
-8 4 -5 6 4 13 1 16 -7 4 -9 -5 -19 -24 -26 -16 -7 -26 -16 -24 -20 3 -5 1
-11 -5 -15 -5 -3 -10 -14 -10 -24 0 -10 -15 -24 -35 -34 -29 -14 -35 -22 -35
-48 0 -26 -3 -29 -20 -24 -19 6 -25 -2 -21 -32 2 -16 -11 -17 -27 -1 -9 9 -12
3 -12 -30 0 -30 -6 -50 -21 -65 -28 -30 -41 -55 -31 -61 4 -2 17 9 27 25 22
32 30 36 38 15 3 -8 -5 -22 -19 -32 -13 -11 -24 -25 -24 -33 0 -11 -3 -10 -13
4 -22 29 -35 10 -29 -45 4 -41 2 -50 -12 -50 -9 0 -16 8 -16 20 0 14 -7 20
-22 20 -21 0 -23 -5 -23 -47 0 -40 -3 -48 -18 -48 -20 0 -47 -50 -40 -72 3 -7
1 -13 -5 -13 -11 0 -32 -44 -32 -68 -1 -17 -43 -72 -56 -72 -3 0 -4 9 -1 20 3
11 1 23 -5 26 -5 3 -7 13 -3 23 4 11 3 13 -5 5 -6 -6 -13 -20 -15 -32 -3 -12
-7 -32 -10 -44 -2 -12 -9 -26 -15 -32 -5 -5 -10 -25 -10 -43 0 -37 -15 -44
-23 -11 -6 22 -6 21 -28 -5 -17 -22 -24 -25 -35 -16 -8 6 -14 8 -14 5 0 -4 -9
-2 -20 4 -17 9 -20 8 -20 -14 0 -16 5 -23 16 -22 10 0 18 -8 20 -21 3 -15 -1
-23 -11 -23 -9 0 -15 -9 -15 -25 0 -14 -4 -25 -10 -25 -5 0 -7 7 -3 16 5 13 2
15 -16 9 -20 -6 -22 -4 -19 22 2 17 -4 35 -14 45 -10 10 -15 24 -12 33 5 11 0
15 -17 13 -21 -3 -24 1 -25 32 -2 75 -4 86 -13 70 -6 -8 -7 -28 -4 -45 3 -17
2 -27 -3 -22 -12 11 -32 137 -22 137 14 0 8 20 -18 60 -18 26 -24 47 -21 62 4
13 0 41 -8 63 -8 22 -14 34 -15 26 0 -11 -3 -11 -15 -1 -8 7 -12 16 -9 21 3 5
-7 25 -22 44 -24 32 -29 35 -42 21 -14 -14 -18 -10 -41 38 -16 32 -31 51 -39
48 -7 -2 -23 4 -35 14 -15 13 -13 9 6 -14 15 -19 25 -38 21 -43 -3 -5 2 -9 12
-9 11 0 15 -6 12 -18 -3 -11 0 -29 7 -42 12 -23 9 -60 -5 -60 -5 0 -13 13 -19
30 -5 16 -14 30 -20 30 -5 0 -11 12 -13 28 -2 22 -8 27 -33 28 -79 3 -83 4
-92 30 -8 25 -9 25 -30 6 -16 -13 -20 -25 -16 -42 4 -16 3 -21 -6 -16 -6 4
-22 1 -35 -8 -22 -14 -24 -14 -19 3 5 21 -18 42 -25 23 -6 -19 -18 -14 -31 14
-10 22 -14 24 -27 13 -10 -8 -12 -15 -4 -23 19 -19 10 -29 -20 -23 -33 7 -35
5 -20 -24 12 -21 1 -26 -19 -7 -10 11 -11 10 -5 -5 9 -25 -25 -11 -53 22 l-21
26 5 -27 c3 -16 9 -28 14 -28 5 0 9 -4 9 -8 0 -4 -15 -8 -34 -8 -25 0 -37 6
-44 21 -9 19 -10 18 -17 -8 l-7 -27 -26 25 c-29 30 -42 32 -42 7 0 -33 -13
-33 -48 0 -27 25 -31 27 -19 9 15 -23 15 -25 -1 -37 -25 -20 -29 -17 -36 24
-10 55 -16 72 -26 72 -5 0 -8 -6 -5 -13 11 -35 15 -117 5 -117 -5 0 -10 5 -10
10 0 6 -18 26 -40 46 -22 20 -40 42 -40 49 0 7 -7 16 -16 19 -34 13 -30 7 49
-84 16 -18 22 -90 8 -90 -5 0 -13 5 -16 10 -3 6 -1 10 6 10 7 0 9 3 5 8 -4 4
-12 7 -18 7 -6 0 -14 7 -18 15 -4 8 -16 32 -26 53 -17 35 -43 47 -35 16 2 -8
6 -32 9 -53 4 -30 2 -37 -7 -31 -7 4 -11 18 -8 31 2 13 0 24 -5 24 -5 0 -16 7
-25 15 -26 26 -27 9 -2 -32 21 -34 21 -36 3 -21 -26 22 -62 25 -45 4 10 -11 8
-17 -9 -29 -26 -18 -61 -11 -53 10 3 8 12 12 19 9 8 -3 14 -1 14 4 0 6 -4 11
-10 11 -5 1 -14 2 -19 3 -17 2 -24 16 -9 16 9 0 18 6 21 14 6 16 -11 36 -30
36 -8 0 -13 13 -13 36 0 20 -4 33 -10 29 -5 -3 -15 3 -22 15 -7 11 -18 20 -25
20 -17 0 -17 -27 0 -33 9 -3 9 -7 -1 -20 -20 -24 -10 -44 10 -23 15 15 17 15
23 -4 3 -11 11 -20 17 -20 5 0 8 -5 6 -12 -5 -15 -38 -20 -35 -5 1 8 -10 11
-30 9 -33 -2 -39 6 -33 47 1 10 -6 12 -25 7 -16 -4 -24 -3 -21 3 3 5 2 20 -3
33 -9 22 -10 22 -12 -7 0 -16 -1 -37 0 -46 1 -12 -6 -16 -25 -16 -18 0 -22 2
-13 8 10 6 11 11 2 20 -15 15 -57 -7 -49 -27 3 -8 9 -20 12 -28 8 -21 -28 -30
-43 -10 -7 10 -13 24 -13 31 0 7 -4 13 -10 13 -5 0 -10 -5 -10 -11 0 -21 -28
10 -33 37 -3 18 -1 22 6 15 17 -17 29 -13 22 9 -4 13 0 23 14 32 22 14 28 38
10 38 -6 0 -13 -9 -16 -19 -4 -16 -29 -30 -53 -31 -3 0 -5 11 -5 24 0 13 3 22
8 19 4 -2 7 1 7 6 0 6 -6 11 -14 11 -8 0 -17 6 -20 13 -3 6 -3 -5 -1 -25 5
-37 -10 -53 -21 -24 -3 8 -13 17 -22 21 -14 5 -14 4 0 -12 8 -10 18 -26 21
-36 9 -26 -21 -34 -38 -11 -13 17 -16 17 -24 4 -6 -8 -8 -27 -6 -42 4 -20 1
-28 -9 -28 -19 0 -30 31 -14 42 10 6 10 10 1 16 -9 6 -10 17 -3 41 6 20 6 50
1 72 -5 21 -6 40 -3 44 3 3 -4 5 -16 5 -11 0 -24 5 -27 10 -3 6 -1 10 6 10 6
0 21 10 33 23 21 22 87 59 103 56 19 -3 53 15 53 27 0 12 4 12 24 -1 20 -14
28 -14 45 -3 18 11 23 10 37 -7 13 -17 15 -17 10 -2 -6 19 6 22 35 6 14 -7 24
-7 33 0 9 8 19 5 36 -11 l23 -22 -5 22 c-5 19 -1 24 23 29 16 3 32 10 35 14 3
5 15 9 28 9 28 0 82 26 107 51 11 11 26 19 34 19 8 0 15 7 15 15 0 8 6 15 14
15 7 0 19 14 26 30 7 17 17 30 22 30 5 0 7 4 3 9 -3 5 -1 12 4 16 13 7 10 48
-4 58 -7 6 -6 10 3 14 6 2 12 14 11 26 0 12 -3 16 -6 10 -6 -17 -54 -16 -77 2
-11 8 -28 13 -38 9 -10 -3 -32 2 -50 10 -17 9 -43 16 -58 16 -15 0 -33 7 -40
15 -11 13 -16 13 -47 0 -25 -10 -40 -12 -48 -5 -8 7 -19 4 -34 -9 -12 -10 -37
-22 -57 -25 -19 -4 -38 -14 -41 -22 -3 -7 -11 -14 -18 -14 -7 0 -23 -8 -36
-18 -30 -24 -79 -37 -79 -21 0 7 -10 9 -25 5 -14 -3 -36 -9 -50 -12 -18 -5
-25 -3 -23 7 2 7 -10 19 -26 27 -16 8 -31 23 -33 33 -4 12 -14 19 -30 19 -13
0 -31 6 -38 14 -16 16 -65 10 -65 -8 0 -7 5 -17 12 -24 8 -8 8 -12 1 -12 -6 0
-16 7 -23 15 -12 14 -15 14 -36 0 -13 -8 -29 -15 -35 -15 -14 0 -89 76 -89 90
0 6 -4 10 -8 10 -5 0 -19 9 -32 20 -12 11 -27 17 -31 14 -5 -3 -9 2 -9 10 0 9
-4 16 -10 16 -12 0 -95 80 -103 100 -5 13 -8 12 -21 -4 -11 -14 -16 -15 -16
-6 0 9 -7 7 -20 -8 -11 -12 -20 -26 -20 -32 0 -5 -7 -10 -15 -10 -8 0 -15 -5
-15 -11 0 -6 8 -8 18 -5 14 5 17 0 17 -25 0 -37 -19 -49 -85 -53 -27 -2 -56
-9 -65 -16 -8 -7 -24 -10 -35 -7 -11 3 -22 2 -25 -3 -6 -10 -95 -12 -95 -2 0
4 -12 13 -27 20 -16 6 -35 26 -43 44 -15 33 -49 55 -37 25 3 -9 3 -19 -2 -21
-4 -3 -7 -15 -5 -28 1 -13 3 -26 3 -31 1 -4 7 -6 13 -5 7 2 14 -7 16 -20 3
-22 4 -23 17 -5 15 18 14 19 19 -22 1 -6 10 -27 19 -48 16 -32 16 -41 5 -54
-11 -14 -10 -16 9 -11 13 4 26 2 29 -4 9 -14 -16 -29 -41 -25 -15 1 -20 -4
-20 -23 0 -34 31 -39 39 -6 7 29 23 28 56 -2 28 -26 30 -26 56 -7 25 19 35 19
27 0 -3 -9 3 -25 13 -36 16 -17 16 -22 4 -29 -8 -6 -10 -10 -4 -10 5 0 14 4
20 9 5 4 23 11 40 14 26 5 33 2 44 -19 8 -14 19 -23 26 -20 7 3 20 -5 31 -16
16 -20 17 -21 1 -15 -10 4 -18 2 -18 -3 0 -6 -7 -10 -15 -10 -7 0 -18 -7 -23
-16 -8 -14 -10 -14 -22 1 -12 15 -12 18 3 26 9 6 17 19 17 29 0 17 -3 18 -25
8 -25 -11 -42 -48 -31 -67 3 -5 3 -11 -2 -13 -4 -1 -26 -31 -48 -65 -28 -43
-44 -59 -53 -54 -10 7 -6 19 18 52 29 39 36 62 18 60 -4 -1 -6 -2 -5 -3 2 -2
-14 -20 -34 -42 -41 -44 -72 -47 -38 -3 27 35 22 55 -8 27 -12 -11 -22 -18
-22 -14 0 3 -7 1 -15 -6 -9 -8 -12 -16 -6 -19 5 -3 -11 -34 -37 -68 -25 -35
-48 -60 -50 -58 -3 3 1 13 9 22 8 10 21 30 28 45 8 15 19 24 25 21 6 -4 4 2
-4 12 -14 17 -13 18 5 11 16 -6 18 -5 8 5 -10 10 -16 10 -25 1 -7 -7 -9 -12
-5 -12 3 0 -4 -11 -16 -24 -32 -35 -43 -50 -50 -66 -4 -12 -6 -11 -6 2 -1 9 3
19 8 22 5 3 18 26 30 51 12 25 27 45 35 45 7 0 16 10 20 23 8 32 7 47 -4 47
-5 0 -10 -5 -10 -10 0 -6 -12 -22 -27 -36 -16 -14 -21 -22 -13 -18 13 7 13 5
1 -9 -13 -17 -36 -14 -26 4 12 19 -12 8 -35 -16 -14 -15 -26 -21 -30 -15 -4 6
-15 2 -29 -11 -27 -26 -36 -19 -24 18 8 22 18 29 51 36 36 7 42 12 42 33 0 30
-29 33 -37 4 -3 -11 -9 -20 -14 -20 -5 0 -6 7 -3 15 4 9 0 15 -10 15 -9 0 -16
-8 -16 -20 0 -12 -16 -36 -35 -56 -40 -40 -42 -38 -15 18 23 48 23 48 10 48
-5 0 -10 -7 -10 -15 0 -22 -18 -18 -25 6 -4 12 -1 27 8 37 29 35 30 43 4 37
-14 -4 -28 -2 -31 3 -9 15 -46 2 -46 -15 0 -11 -7 -14 -21 -10 -17 5 -20 2
-16 -14 4 -14 -1 -23 -18 -31 -16 -7 -25 -21 -27 -41 -2 -25 -12 -34 -58 -58
-30 -16 -74 -49 -98 -74 -24 -25 -45 -45 -48 -45 -17 0 5 35 59 93 35 37 62
67 60 67 -2 0 -26 -12 -54 -27 -62 -34 -136 -96 -144 -123 -4 -11 -13 -20 -20
-20 -9 0 -12 6 -9 15 4 8 11 12 18 9 6 -4 4 1 -6 11 -18 19 -15 20 -82 -38
-21 -18 -37 -39 -34 -47 3 -9 15 -2 37 21 28 29 31 31 21 9 -15 -34 -77 -75
-94 -61 -7 6 -16 8 -20 4 -4 -4 -11 -1 -16 7 -8 13 -11 13 -22 1 -10 -11 -10
-12 0 -7 7 4 15 1 18 -8 3 -9 10 -13 15 -10 5 3 4 -6 -2 -20 -7 -15 -17 -22
-25 -19 -11 4 -12 9 -3 19 7 8 10 17 7 19 -11 12 -29 -26 -31 -64 -1 -30 -6
-41 -17 -41 -10 0 -17 -10 -18 -31 -2 -20 1 -28 8 -24 6 4 9 14 6 22 -4 11 -2
13 9 10 8 -4 21 1 30 9 13 14 16 14 21 1 3 -9 0 -25 -6 -36 -6 -12 -8 -26 -5
-31 3 -6 -1 -7 -9 -4 -9 3 -16 1 -16 -6 0 -6 -5 -8 -12 -4 -6 4 -8 3 -5 -3 4
-6 -3 -13 -16 -17 -12 -3 -23 -2 -25 3 -2 5 -11 7 -21 4 -19 -5 -26 27 -8 38
5 4 7 15 3 24 -5 15 -7 15 -22 1 -19 -20 -24 -20 -38 0 -11 14 -14 14 -24 1
-10 -12 -10 -18 3 -30 9 -10 11 -18 5 -22 -5 -3 -10 -15 -10 -26 0 -10 -4 -19
-10 -19 -5 0 -10 4 -10 9 0 5 -3 16 -6 24 -3 9 1 17 11 19 14 3 14 6 -5 26
-21 22 -19 48 3 36 7 -4 9 -4 5 1 -4 4 -3 14 4 22 6 7 8 17 4 20 -4 4 -10 2
-14 -4 -4 -7 -20 -16 -35 -22 -25 -10 -27 -9 -27 17 0 16 3 22 8 15 11 -18 34
1 26 21 -5 14 -9 15 -15 5 -4 -8 -11 -11 -14 -7 -10 9 25 58 41 58 17 0 18
-17 2 -23 -7 -3 4 -6 25 -6 37 -1 48 11 24 26 -19 11 -52 63 -40 63 13 0 53
38 53 50 0 6 -5 10 -11 10 -5 0 -8 -4 -5 -9 3 -5 -11 -17 -32 -27 -60 -29 -70
-27 -56 10 3 9 11 16 16 16 6 0 4 -7 -3 -17 -13 -15 -11 -16 16 -9 16 4 31 9
33 11 8 8 -25 45 -40 45 -27 0 -29 15 -6 40 12 13 22 30 23 39 0 9 5 22 9 29
5 9 1 19 -13 29 -17 12 -20 18 -10 29 14 17 5 18 -22 3 -18 -9 -20 -8 -17 13
2 15 -2 23 -12 23 -10 0 -14 -9 -13 -27 1 -19 -3 -28 -13 -28 -8 0 -14 -4 -14
-10 0 -5 -7 -7 -16 -3 -15 6 -15 7 1 19 20 15 12 34 -16 34 -10 0 -19 5 -19
10 0 6 -7 10 -15 10 -9 0 -12 6 -8 17 4 10 2 14 -5 9 -16 -10 -24 10 -8 23 17
14 9 61 -11 61 -9 0 -13 6 -9 15 3 8 -2 19 -12 24 -14 8 -13 10 10 16 25 6 45
32 33 43 -3 3 -5 0 -5 -6 0 -6 -14 -13 -31 -17 -17 -4 -33 -13 -36 -20 -4 -11
-9 -12 -23 -2 -11 6 -15 14 -10 17 5 3 5 11 1 18 -11 18 -65 -3 -58 -22 3 -8
-3 -22 -14 -32 -21 -19 -19 -21 -23 36 -1 8 -9 16 -19 18 -10 2 -17 12 -17 26
0 12 -5 27 -10 32 -16 16 9 67 29 59 8 -3 3 5 -12 19 -31 28 -30 27 -18 59 12
31 -2 58 -21 39 -21 -21 -28 -13 -25 28 1 25 6 39 14 36 16 -7 24 5 13 19 -7
8 -2 10 19 7 23 -3 32 1 41 18 10 18 9 24 -1 31 -21 13 -29 11 -23 -6 4 -8 -1
-17 -9 -21 -20 -7 -77 25 -77 44 0 7 -4 10 -10 7 -11 -7 -2 23 13 43 7 8 5 12
-7 12 -10 0 -15 4 -12 9 9 14 -13 65 -33 78 -15 10 -20 9 -25 -2 -3 -8 -13
-15 -23 -15 -16 1 -16 2 -3 13 9 7 14 20 12 30 -2 9 1 17 7 17 6 0 11 5 11 11
0 6 -7 9 -15 5 -8 -3 -15 -1 -15 5 0 6 -7 4 -15 -5 -8 -8 -15 -22 -15 -30 0
-9 -5 -16 -11 -16 -6 0 -9 9 -6 20 3 10 0 21 -7 24 -6 2 -2 5 9 5 13 1 16 4 8
9 -6 4 -13 21 -15 37 -2 18 -8 29 -16 27 -15 -3 -11 7 26 56 28 36 25 49 -7
32 -13 -7 -21 -7 -21 -1 0 6 -7 8 -15 5 -9 -4 -15 0 -15 10 0 9 6 16 13 16 14
0 41 39 32 48 -3 3 -18 6 -33 7 -17 0 -28 6 -30 18 -2 10 3 17 11 17 8 0 18 7
21 16 9 24 7 29 -6 16 -18 -18 -28 -15 -28 9 0 12 4 17 11 14 10 -7 38 21 39
39 0 4 -12 5 -27 1 -23 -5 -25 -4 -14 9 11 13 11 16 -2 16 -27 0 -29 19 -7 64
18 34 20 47 11 64 -13 25 -5 49 19 57 10 3 23 11 29 18 13 17 22 69 10 62 -5
-4 -9 0 -10 7 -1 24 -7 46 -17 63 -8 15 -10 14 -16 -10 -4 -16 -2 -33 5 -41
14 -18 7 -26 -25 -29 -14 -2 -29 -6 -35 -9 -5 -4 -8 5 -6 20 1 14 7 29 13 33
6 4 13 26 14 49 2 23 7 42 11 42 10 0 -1 61 -14 75 -5 5 -9 17 -9 27 0 10 -4
18 -9 18 -4 0 -7 17 -4 38 2 28 1 33 -7 22 -8 -11 -9 -7 -4 15 7 27 6 29 -9
16 -10 -7 -17 -12 -18 -10 0 2 -2 36 -3 74 -2 57 -6 70 -19 69 -9 -1 -13 4
-10 12 3 8 9 11 14 8 5 -3 9 -1 9 5 0 5 -5 11 -11 13 -9 3 -15 22 -18 51 -1 5
-6 5 -13 1 -6 -4 -8 -3 -5 3 4 6 -3 22 -14 37 -25 32 -10 35 17 4 32 -38 41
-60 74 -179 95 -348 180 -524 335 -698 32 -35 149 -133 200 -166 161 -105 336
-172 530 -201 121 -19 364 -14 470 9 103 23 263 82 368 135 4 2 -6 -10 -23
-26 -16 -17 -30 -40 -30 -51 0 -12 -6 -21 -14 -21 -8 0 -17 -13 -21 -30 -4
-16 -19 -39 -34 -50 -16 -11 -36 -31 -45 -44 -14 -23 -14 -26 0 -40 14 -15 14
-16 -3 -16 -17 -1 -17 -1 0 -11 9 -6 15 -15 12 -20 -4 -5 -10 -7 -15 -4 -15 9
-20 -12 -6 -30 11 -16 16 -16 42 -4 16 8 29 20 29 26 0 18 23 38 32 28 5 -4 2
-10 -4 -12 -24 -9 -13 -23 17 -23 17 0 30 5 30 11 0 5 4 8 8 5 5 -3 21 14 35
37 15 24 58 75 95 115 37 40 73 80 81 88 7 8 20 13 28 10 16 -6 43 15 43 34 0
6 5 8 10 5 19 -12 37 19 32 54 -3 26 0 38 14 49 14 11 15 13 3 9 -13 -4 -15
-1 -12 14 3 10 10 19 15 19 6 0 8 8 5 19 -6 24 10 52 27 45 7 -3 21 6 30 20
16 25 16 26 -9 24 -15 -2 -25 -9 -25 -17 0 -11 -5 -8 -16 7 -8 12 -13 30 -11
40 3 12 5 11 6 -5 0 -13 6 -23 12 -23 6 0 8 7 5 16 -3 8 -2 12 4 9 6 -3 10 4
10 15 0 16 -5 20 -15 16 -21 -8 -19 6 6 32 11 12 17 27 13 34 -5 8 -2 9 11 5
14 -6 16 -3 12 14 -4 15 -2 19 9 15 8 -3 14 1 14 10 0 8 -4 13 -10 9 -5 -3 -5
7 1 25 6 16 15 33 20 36 5 3 9 13 9 23 0 19 22 71 30 71 3 0 7 17 8 37 3 32
46 180 88 300 10 27 35 60 68 90 47 43 62 51 147 72 77 18 111 22 181 17 47
-3 97 -10 111 -15 76 -29 145 -135 242 -374 31 -77 94 -215 141 -309 46 -93
105 -222 130 -286 63 -161 90 -218 127 -271 18 -25 34 -48 37 -51 17 -17 60
-80 60 -88 0 -6 27 -9 60 -9 33 1 60 -2 60 -6 0 -5 10 -5 23 -1 12 4 37 6 55
5 20 -1 32 3 32 11 0 10 2 10 9 0 6 -11 22 -12 67 -6 33 4 96 7 141 7 54 0 80
3 76 10 -4 6 -1 7 7 2 15 -9 267 -9 342 1 29 4 63 8 76 8 12 1 22 4 22 7 0 3
11 4 24 2 29 -6 42 12 25 33 -8 10 -21 13 -36 9 -13 -3 -23 -1 -23 4 0 5 -9 7
-20 4 -12 -3 -20 0 -20 7 0 9 -10 10 -35 6 -20 -4 -44 -2 -57 5 -13 7 -29 15
-36 18 -8 3 -51 3 -95 0 -90 -7 -104 -4 -86 17 9 11 8 14 -4 14 -8 0 -17 -8
-19 -18 -4 -15 -15 -19 -52 -18 -26 1 -50 6 -54 13 -4 6 -20 13 -37 15 -21 2
-31 10 -36 28 -6 22 -14 10 -10 -14 1 -4 -10 -5 -25 -2 -21 6 -25 4 -21 -8 7
-18 -18 -23 -28 -6 -4 6 -18 10 -33 10 -66 0 -87 6 -100 27 -14 26 -56 28 -84
6 -10 -9 -18 -11 -22 -4 -4 6 -13 8 -20 5 -13 -5 -85 32 -98 50 -11 16 0 20
17 6 13 -11 18 -11 28 0 9 10 9 12 -3 8 -17 -5 -50 21 -50 39 0 7 -4 13 -10
13 -20 0 -25 3 -38 21 -7 11 -20 19 -29 19 -13 0 -14 -2 -2 -17 12 -14 12 -16
-1 -11 -10 3 -14 15 -12 34 2 18 -3 33 -14 41 -10 7 -15 13 -12 13 10 0 -23
93 -40 113 -10 11 -11 17 -4 17 7 0 12 -5 12 -12 0 -6 3 -9 6 -6 4 5 167 -97
211 -132 7 -6 17 -10 23 -10 6 0 32 -11 58 -24 230 -117 624 -138 930 -50 230
66 474 235 619 429 116 155 188 332 242 598 46 231 78 280 206 326 33 12 67
28 75 34 14 11 80 136 80 151 0 3 10 23 23 44 26 42 25 69 -3 74 -15 2 -17 7
-10 18 8 12 12 13 19 1 5 -8 9 17 9 65 1 44 4 125 8 182 6 97 5 104 -13 108
-15 4 -18 12 -15 36 4 23 9 29 23 25 17 -5 19 2 20 81 1 48 1 91 0 96 -4 19
11 45 23 40 7 -2 29 13 49 35 20 22 32 41 27 43 -11 3 28 88 41 88 4 0 15 23
24 52 17 57 40 89 60 82 18 -7 25 19 30 112 7 114 14 167 22 173 23 17 63 176
63 249 0 20 5 23 27 20 26 -3 27 0 38 57 6 33 24 90 38 126 15 36 27 73 27 82
0 10 9 25 20 34 16 14 18 25 13 61 -4 32 -3 43 5 38 7 -4 10 2 10 16 -3 56 3
80 21 85 14 4 19 14 19 46 1 134 4 162 15 175 6 9 13 45 14 81 1 36 2 77 3 91
1 49 10 72 26 66 11 -4 12 -2 5 13 -11 19 -4 64 8 56 4 -2 9 -30 10 -61 1 -32
4 -62 7 -66 3 -5 7 -26 9 -47 6 -54 43 -167 61 -182 17 -14 56 -11 504 36 179
19 480 48 670 65 190 17 487 44 660 60 173 17 434 41 580 55 146 13 411 38
590 54 179 17 408 37 510 46 174 14 793 45 908 45 l52 0 0 62 0 61 -162 -6
c-90 -4 -180 -10 -200 -13 -31 -5 -38 -4 -38 9 0 44 193 138 343 167 l57 11 0
95 c0 106 2 103 -83 85 -23 -5 -73 -14 -112 -21 -38 -6 -129 -27 -202 -46
l-131 -36 -79 83 c-43 45 -107 105 -143 134 -36 29 -110 97 -165 151 -176 174
-245 331 -245 555 0 94 1 100 23 108 20 8 163 27 382 51 75 8 392 33 585 45
47 3 104 8 128 12 l42 5 0 74 c0 67 -2 74 -20 74 -21 0 -490 -32 -730 -50
-264 -20 -455 -28 -464 -19 -5 5 -4 32 2 66 7 32 23 114 36 183 25 125 84 431
171 885 67 348 205 1032 264 1308 28 132 60 287 71 345 11 59 29 150 40 202
11 52 24 118 29 145 6 28 14 73 20 100 5 28 19 102 30 165 11 63 23 129 27
145 3 17 14 82 24 145 10 63 23 140 29 170 6 30 17 92 25 138 l13 82 -143 0
c-141 0 -144 0 -148 -22 -79 -383 -171 -907 -316 -1793 -16 -99 -50 -304 -75
-455 -136 -831 -290 -1449 -448 -1802 -25 -55 -47 -75 -47 -43 0 9 33 160 74
338 95 409 125 550 247 1152 55 270 116 567 135 660 30 149 57 284 134 690 11
55 45 237 76 405 51 280 61 340 79 470 3 25 10 63 15 85 6 22 12 58 14 80 5
44 23 165 32 208 5 26 4 27 -40 27 -25 0 -46 -3 -46 -7 0 -12 -105 -655 -171
-1048 -91 -547 -289 -1577 -374 -1950 -82 -362 -169 -687 -261 -980 -46 -147
-54 -165 -70 -165 -8 0 -14 2 -14 5 0 19 57 261 100 425 161 617 184 718 220
965 23 160 25 343 6 455 -8 41 -14 69 -15 63 0 -7 -7 -13 -14 -13 -7 0 -21
-12 -32 -27 -11 -15 -34 -43 -51 -63 -48 -54 -109 -165 -149 -268 -60 -157
-104 -350 -195 -862 -52 -294 -113 -513 -180 -650 -40 -83 -51 -100 -64 -100
-7 0 -24 12 -38 28 -72 75 -67 166 27 452 24 74 60 196 80 270 76 287 226 735
394 1175 71 187 185 527 300 900 31 98 108 380 137 500 19 77 38 154 43 170 5
17 12 46 16 65 4 19 16 73 26 119 11 46 29 122 39 170 10 47 30 140 44 206 35
159 34 165 -6 165 l-33 0 -33 -128 c-44 -171 -110 -420 -167 -632 -26 -96 -69
-263 -96 -370 -110 -429 -208 -739 -414 -1305 -104 -288 -240 -690 -280 -830
-10 -33 -28 -94 -40 -135 -27 -91 -55 -217 -90 -408 -29 -160 -63 -264 -110
-337 -40 -62 -80 -101 -90 -86 -17 29 81 581 161 906 70 282 165 608 263 905
74 222 168 514 232 715 26 85 54 177 113 375 30 102 87 305 116 415 19 72 35
131 60 220 5 17 23 84 40 150 17 66 40 152 50 190 39 150 81 311 87 333 5 20
2 22 -35 22 -38 0 -41 -2 -47 -32 -9 -47 -109 -429 -196 -753 -202 -748 -359
-1289 -491 -1695 -47 -142 -67 -185 -76 -160 -5 13 34 366 59 535 11 77 25
169 30 205 37 254 148 833 209 1085 5 22 48 198 96 390 48 193 90 367 94 388
l7 37 -108 0 c-69 0 -109 -4 -109 -10z m-4758 -2409 c9 -11 24 -31 34 -46 9
-14 19 -23 22 -20 6 6 42 -92 42 -116 0 -10 7 -16 17 -15 10 0 19 -8 21 -19 6
-32 22 -42 22 -14 0 14 -6 31 -12 38 -11 11 -10 12 1 6 10 -6 12 -2 7 16 -7
23 -7 23 8 5 19 -24 21 -74 3 -95 -8 -10 -11 -29 -8 -50 6 -33 7 -34 23 -18
25 25 29 21 22 -22 -5 -28 -2 -46 10 -62 20 -30 21 -56 0 -56 -10 0 -14 7 -10
20 6 23 -13 57 -33 57 -11 0 -11 -3 -1 -15 10 -13 9 -15 -9 -15 -24 0 -49 46
-56 102 -2 17 -6 33 -9 36 -3 3 -1 11 4 18 8 8 4 23 -15 49 -14 21 -25 45 -25
54 0 22 -61 144 -77 154 -14 9 -18 27 -5 27 4 0 15 -9 24 -19z m5124 -68 c-32
-368 -115 -858 -193 -1138 -80 -292 -217 -605 -249 -572 -16 16 129 800 202
1092 60 236 162 560 210 660 27 58 37 43 30 -42z m-3111 -155 c14 -6 25 -14
25 -18 0 -4 16 -15 35 -26 19 -10 34 -23 34 -29 -3 -22 1 -35 11 -35 6 0 10
11 10 25 0 16 6 25 15 25 9 0 20 -11 25 -25 5 -14 14 -25 19 -25 14 0 22 -31
11 -45 -8 -9 -4 -11 15 -7 17 3 25 0 25 -9 0 -8 3 -25 6 -39 5 -23 4 -24 -9
-8 -8 10 -17 15 -20 12 -9 -9 4 -34 18 -34 7 0 15 -9 18 -20 3 -12 0 -20 -8
-20 -7 0 -15 10 -18 21 -5 17 -12 21 -35 17 -29 -4 -30 -3 -20 21 8 21 6 29
-12 43 -15 12 -20 24 -15 38 8 24 -12 27 -41 5 -27 -21 -39 -18 -52 10 -14 31
-15 46 -2 25 8 -13 10 -12 10 3 0 13 -8 17 -32 17 -17 0 -28 3 -25 7 4 3 1 16
-6 27 -34 53 -29 66 18 44z m-570 -54 c8 3 29 3 45 -1 25 -5 30 -10 30 -35 0
-30 0 -30 -25 -14 -29 19 -31 16 -9 -25 13 -25 13 -33 2 -46 -7 -9 -12 -24
-10 -35 3 -19 -5 -23 -24 -10 -15 9 -21 43 -11 58 8 14 -11 74 -24 74 -6 0 -9
-7 -7 -16 2 -10 -5 -18 -17 -20 -11 -2 -21 -8 -23 -14 -5 -14 -91 -130 -97
-130 -2 0 1 11 7 25 6 14 14 25 18 25 4 0 13 14 20 30 7 17 16 30 21 30 4 0
13 17 18 37 8 28 7 39 -2 45 -7 5 0 6 16 2 15 -3 27 -2 26 2 -5 27 1 36 16 24
8 -7 22 -10 30 -6z m157 -99 c6 -14 15 -25 19 -25 10 0 6 -181 -4 -198 -13
-21 -39 -15 -32 8 3 11 -1 30 -11 45 -13 20 -14 29 -5 38 17 17 13 45 -9 70
-16 17 -23 19 -29 9 -7 -11 -9 -10 -14 2 -4 9 -2 16 4 16 6 0 6 7 -1 20 -8 15
-8 21 2 24 7 3 20 7 28 9 30 10 41 7 52 -18z m342 -69 c4 -15 8 -17 18 -8 11
8 17 6 28 -11 12 -20 12 -21 -3 -9 -13 11 -15 10 -10 -8 3 -13 11 -19 19 -16
8 3 14 -1 14 -9 0 -8 6 -12 14 -9 8 3 18 -7 26 -26 7 -17 28 -43 47 -59 23
-19 32 -33 27 -44 -3 -10 -10 -17 -15 -17 -5 0 -9 -17 -8 -37 0 -38 1 -38 33
31 30 64 33 67 49 51 20 -20 22 -8 3 18 -7 9 -22 17 -32 18 -11 0 -13 3 -6 6
21 8 13 23 -13 23 -16 0 -25 6 -25 15 0 25 37 17 70 -16 35 -36 55 -31 22 4
-26 27 -29 67 -7 67 9 0 18 -6 21 -14 3 -8 14 -16 25 -19 13 -3 20 -13 18 -24
-1 -10 1 -31 6 -46 5 -20 3 -33 -10 -47 -11 -12 -14 -26 -10 -39 4 -12 2 -21
-4 -21 -6 0 -11 -13 -11 -30 0 -40 11 -38 35 8 27 50 45 69 45 47 0 -9 -5 -25
-10 -36 -8 -13 -7 -19 0 -19 7 0 10 -6 7 -12 -2 -7 -9 -12 -14 -11 -6 1 -15
-9 -21 -22 -15 -33 2 -33 30 0 11 13 25 22 30 19 5 -4 4 3 -3 14 -11 17 -8 24
24 56 20 20 39 36 42 36 9 0 6 -78 -4 -84 -4 -3 -11 -20 -14 -38 -3 -18 -9
-42 -13 -52 -5 -14 -4 -17 4 -12 7 4 12 16 12 27 0 10 5 19 11 19 6 0 8 9 4
22 -6 17 -4 20 10 15 9 -4 26 -2 37 4 20 11 20 9 13 -27 -4 -22 -8 -58 -10
-82 -2 -24 -9 -59 -15 -78 -6 -19 -10 -39 -8 -45 4 -13 24 25 32 61 3 14 13
30 23 36 17 10 18 6 16 -67 0 -43 -4 -83 -8 -89 -3 -5 -2 -10 4 -10 14 0 31
34 31 64 0 13 6 27 13 29 6 3 3 6 -7 6 -16 1 -17 4 -8 13 7 7 12 23 12 36 0
35 23 22 31 -18 4 -18 5 -61 3 -94 -3 -34 -4 -68 -3 -76 4 -48 -2 -135 -11
-144 -5 -5 -10 -16 -10 -23 0 -19 -47 -118 -80 -166 -16 -24 -49 -62 -74 -85
-24 -22 -41 -43 -38 -46 3 -3 -7 -6 -21 -6 -19 0 -25 4 -21 15 4 8 11 15 18
15 8 0 8 2 -1 8 -8 5 -5 21 12 57 30 62 30 68 5 55 -32 -17 -26 26 11 67 17
19 28 41 25 49 -3 7 -1 16 4 19 6 4 10 11 10 18 0 17 -29 -26 -30 -44 0 -25
-33 -49 -57 -43 -15 4 -23 0 -28 -15 -4 -12 -12 -18 -21 -14 -16 6 -18 -10 -4
-37 7 -13 5 -21 -6 -31 -13 -11 -14 -9 -9 14 6 23 4 27 -15 27 -21 0 -22 1 -7
23 8 12 24 21 35 20 24 -3 37 24 21 43 -6 8 -8 21 -5 30 4 12 -4 8 -29 -10
l-35 -27 21 41 c15 29 19 44 11 52 -6 6 -8 17 -5 24 6 17 -9 18 -26 2 -8 -7
-6 -1 4 15 17 26 17 28 0 47 -10 11 -24 20 -31 20 -10 0 -7 10 8 36 11 19 26
33 32 31 8 -3 11 6 10 29 -2 25 2 36 17 45 11 6 18 16 16 23 -8 20 30 96 48
96 8 0 15 5 15 10 0 6 -4 10 -9 10 -5 0 -17 3 -25 6 -12 5 -20 -4 -32 -32 -9
-22 -23 -47 -31 -56 -8 -9 -12 -21 -9 -26 6 -11 -37 -94 -58 -111 -10 -9 -15
-8 -20 5 -4 10 8 40 32 78 21 33 36 69 34 79 -2 10 8 34 23 53 15 19 24 38 21
41 -3 4 -6 1 -6 -5 0 -7 -6 -12 -14 -12 -7 0 -19 -7 -27 -16 -7 -8 -21 -13
-32 -10 -14 3 -22 -4 -33 -29 -8 -19 -23 -39 -34 -45 -11 -6 -17 -16 -14 -22
4 -7 3 -8 -4 -4 -7 4 -9 20 -6 39 5 30 5 31 -10 13 -9 -11 -16 -26 -16 -33 0
-15 -2 -15 -24 -7 -8 3 -20 21 -26 40 -6 19 -16 34 -21 34 -5 0 -9 9 -9 20 0
14 -7 20 -21 20 -20 0 -21 4 -17 45 3 25 3 45 -1 45 -3 0 -12 9 -19 21 -11 18
-11 24 2 38 19 21 20 32 4 29 -13 -3 -14 5 -3 34 12 30 -29 15 -44 -17 -14
-29 -15 -29 -19 -7 -2 13 4 32 12 41 9 10 16 27 16 39 0 12 5 23 10 23 6 1 16
2 23 3 6 1 11 10 9 21 -1 11 -4 32 -5 48 -1 20 -7 27 -22 27 -16 0 -17 2 -6 9
18 12 48 -6 55 -33z m-780 -101 c3 -8 16 -15 28 -15 15 0 31 -12 46 -35 l24
-34 -43 -51 c-31 -37 -40 -53 -31 -62 8 -8 17 -3 35 16 31 33 37 33 37 -4 0
-18 6 -33 15 -36 8 -4 15 -11 15 -17 0 -14 -80 -87 -97 -87 -15 0 -17 28 -3
50 6 10 4 20 -6 32 -9 9 -13 21 -10 27 4 6 -5 7 -26 0 -57 -16 -78 -12 -78 15
0 14 5 28 10 31 13 8 13 35 0 35 -6 0 -13 -13 -16 -30 -9 -40 -22 -38 -30 5
-5 27 -2 41 12 56 13 15 15 22 6 31 -19 19 -14 31 9 25 26 -7 59 12 59 34 0
30 33 41 44 14z m4144 -932 c6 -117 -45 -267 -94 -279 -51 -13 -47 31 14 173
17 37 33 88 37 113 9 53 13 62 28 57 7 -2 13 -30 15 -64z m112 -523 c49 -241
133 -465 234 -618 l46 -71 99 -31 c144 -44 220 -110 209 -181 -4 -33 -71 -69
-128 -69 -91 0 -174 68 -277 225 -75 114 -129 195 -158 235 -41 58 -111 153
-142 193 -18 23 -49 64 -70 92 -65 84 -196 208 -261 245 -34 19 -62 41 -62 47
0 14 39 36 85 48 27 7 317 23 374 21 22 -1 25 -9 51 -136z m-795 69 c101 -21
262 -95 341 -157 73 -56 202 -181 245 -237 21 -27 64 -79 94 -115 112 -131
118 -160 22 -106 -34 19 -186 97 -337 173 -329 167 -572 266 -947 388 -33 11
5 33 80 49 189 39 336 40 502 5z m-1265 -49 c368 -25 593 -59 815 -122 312
-88 514 -171 700 -288 44 -27 99 -59 121 -70 45 -21 58 -41 49 -71 -8 -26 -41
-24 -128 5 -452 151 -1039 218 -2045 233 -249 3 -455 10 -458 14 -2 4 22 20
53 35 37 18 52 29 41 32 -10 2 -33 -4 -53 -14 -20 -9 -37 -15 -39 -13 -8 9 26
101 40 106 25 9 124 -17 146 -39 15 -15 23 -17 32 -8 17 17 -31 50 -76 50 -48
0 -88 19 -88 41 0 10 5 40 12 68 l11 50 76 3 c145 6 637 -1 791 -12z m-1380
-240 c19 -7 44 -17 55 -21 11 -4 39 -9 62 -11 39 -3 41 -2 31 17 -11 20 -11
20 11 1 14 -13 18 -23 12 -29 -6 -6 -6 -17 -2 -26 5 -9 11 -33 14 -54 8 -50
-9 -56 -63 -22 -35 22 -40 23 -31 7 6 -11 26 -29 46 -41 32 -18 45 -48 29 -64
-9 -9 -34 4 -34 18 0 7 -11 16 -25 19 -25 6 -75 53 -75 70 0 5 -8 15 -17 22
-17 13 -17 14 2 7 19 -7 18 -6 -2 21 -23 29 -82 79 -69 58 5 -8 0 -12 -16 -12
-18 0 -20 2 -8 10 12 7 12 12 -4 28 -17 20 -16 20 16 17 18 -1 49 -8 68 -15z
m1510 -180 c750 -43 1322 -153 1735 -335 33 -14 72 -32 87 -38 15 -6 30 -18
33 -26 6 -15 22 -16 -430 14 -462 31 -568 35 -990 35 -452 0 -707 -13 -1035
-51 -304 -35 -294 -35 -307 -7 -7 16 -39 39 -85 63 -40 21 -84 46 -98 55 -14
9 -42 28 -62 41 -20 13 -35 25 -32 28 2 2 -2 11 -8 19 -22 26 -19 44 7 39 14
-2 22 0 19 4 -2 5 4 17 14 27 14 14 25 16 47 10 16 -4 30 -6 32 -4 7 7 -10 36
-18 30 -5 -2 -18 0 -29 6 -26 14 -27 57 -1 65 11 3 22 13 25 21 4 10 13 13 25
9 11 -3 23 0 27 6 8 14 743 6 1044 -11z m-1308 -235 c14 -31 4 -43 -18 -24
-16 13 -16 12 -6 -8 7 -12 21 -25 32 -28 15 -5 20 -15 20 -41 0 -19 5 -34 10
-34 6 0 10 5 10 10 0 6 13 4 30 -5 36 -18 38 -32 7 -44 -23 -9 -111 -97 -118
-120 -5 -15 -39 -4 -39 14 0 18 -23 25 -37 10 -9 -10 -6 -15 12 -23 18 -8 24
-20 26 -56 l4 -45 -33 1 c-23 1 -29 4 -20 10 10 8 10 11 1 15 -9 3 -10 10 -3
23 7 13 6 27 -2 45 -9 21 -9 28 2 35 8 5 11 20 8 41 -3 19 -2 45 2 59 9 35 2
49 -22 42 -14 -3 -19 -1 -14 6 10 16 73 15 79 0 2 -7 8 -10 12 -6 4 4 2 15 -5
23 -11 13 -10 18 6 31 10 9 13 12 5 8 -17 -8 -31 13 -31 49 0 25 2 27 20 17
16 -9 20 -8 20 5 0 24 29 17 42 -10z m-2137 -15 c3 -5 13 -10 21 -10 8 0 12 5
9 10 -9 15 6 12 19 -4 17 -21 76 -29 76 -11 0 8 9 15 20 15 22 0 26 -10 9 -27
-8 -8 -5 -13 10 -18 27 -8 27 -35 0 -35 -11 0 -17 -5 -14 -10 4 -6 16 -10 28
-9 38 3 58 -1 52 -10 -3 -6 2 -14 11 -19 10 -5 17 -24 17 -48 2 -34 5 -39 24
-36 18 3 21 -1 17 -13 -4 -10 -14 -15 -25 -12 -21 6 -23 -1 -9 -23 8 -12 16
-8 45 24 19 22 35 43 35 46 0 4 -11 12 -24 18 -17 8 -27 7 -36 -1 -10 -9 -11
-9 -6 1 4 7 1 23 -7 35 -7 12 -12 28 -10 35 7 18 50 15 58 -5 6 -16 8 -15 16
6 7 18 14 22 33 17 14 -3 28 -1 31 4 11 18 26 -1 20 -23 -5 -17 -4 -19 4 -7
10 13 11 13 11 0 0 -11 2 -12 8 -2 6 9 13 7 29 -7 11 -11 24 -17 27 -14 3 4 6
1 6 -5 0 -7 -4 -12 -10 -12 -5 0 -10 -12 -10 -26 0 -30 23 -28 29 2 3 19 18
34 34 34 4 0 3 -8 -2 -19 -6 -10 -7 -21 -3 -25 3 -4 0 -12 -8 -17 -13 -8 -12
-9 2 -7 10 2 29 -12 45 -30 15 -18 35 -34 43 -36 45 -9 70 -20 70 -31 0 -8 8
-11 18 -9 10 3 22 -4 30 -17 8 -11 9 -18 3 -14 -7 4 -11 -4 -11 -22 l0 -28
-18 22 c-16 21 -43 26 -58 11 -3 -4 6 -14 20 -23 14 -10 26 -26 26 -36 0 -17
11 -24 32 -20 4 0 15 -13 23 -29 9 -17 12 -30 8 -30 -3 0 11 -16 33 -36 21
-20 33 -33 27 -30 -8 5 -13 1 -13 -9 0 -25 -23 -12 -40 22 -17 35 -67 79 -78
68 -4 -4 3 -14 16 -22 12 -9 22 -23 22 -32 0 -9 19 -33 42 -53 l43 -37 -32
-13 c-34 -13 -44 -28 -19 -28 8 0 16 6 19 13 2 7 10 0 17 -15 7 -16 17 -28 21
-28 5 0 6 -7 3 -15 -3 -8 2 -22 12 -32 17 -17 17 -18 -5 -21 -32 -5 -54 6 -48
22 6 16 -11 26 -30 18 -17 -6 -17 -22 0 -22 17 0 61 -46 50 -53 -4 -2 -21 -3
-36 -1 -32 3 -33 -15 -1 -31 45 -23 61 -41 60 -65 -1 -14 4 -24 10 -23 7 1 10
-6 7 -18 -4 -14 -9 -17 -18 -9 -6 5 -15 7 -18 3 -12 -11 -8 -23 7 -23 8 0 17
-7 20 -16 5 -13 1 -15 -18 -10 -13 3 -31 9 -40 12 -27 10 -18 -11 14 -34 17
-13 30 -31 30 -42 0 -11 9 -28 21 -38 19 -18 19 -20 2 -27 -10 -5 -26 -7 -35
-6 -30 4 -19 -13 20 -31 48 -23 112 -84 112 -108 0 -10 5 -20 11 -22 6 -2 11
-20 12 -40 1 -28 6 -39 24 -47 27 -12 30 -26 7 -35 -24 -9 -10 -19 39 -25 29
-4 43 -11 45 -23 2 -13 -3 -18 -17 -18 -29 0 -27 -6 17 -48 20 -20 37 -42 37
-48 0 -7 15 -26 32 -43 18 -17 39 -46 46 -63 16 -37 63 -88 82 -88 8 0 12 -14
11 -37 -1 -29 3 -38 18 -41 42 -9 53 -33 60 -137 14 -186 9 -365 -9 -395 -4
-6 -4 -17 -2 -24 3 -8 2 -31 -3 -52 -5 -22 -11 -50 -14 -64 -11 -50 -47 -174
-56 -191 -6 -10 -10 -28 -10 -40 0 -31 -17 -84 -51 -155 -16 -34 -29 -66 -29
-73 0 -6 -5 -11 -11 -11 -6 0 -9 -11 -7 -24 1 -13 -2 -29 -8 -37 -6 -8 -14
-23 -17 -34 -6 -17 -3 -16 15 5 17 19 19 21 13 5 -5 -11 -9 -40 -10 -65 l-1
-45 -84 0 c-67 0 -98 5 -145 24 -58 24 -177 93 -203 118 -6 6 -20 14 -31 18
-10 3 -27 22 -37 43 -10 20 -22 38 -26 40 -5 2 -3 12 3 23 5 11 7 24 4 29 -3
6 0 10 8 10 8 0 17 -10 20 -22 5 -16 9 -19 19 -11 7 6 27 9 43 8 17 -2 37 0
45 5 12 7 9 13 -13 34 -31 29 -33 39 -11 60 16 17 11 38 -9 35 -30 -4 -37 3
-37 32 0 24 -4 30 -15 25 -13 -5 -14 -2 -4 15 8 16 8 19 0 15 -6 -4 -14 0 -17
8 -3 9 -14 16 -24 16 -9 0 -29 9 -43 20 -14 11 -30 20 -35 20 -5 0 -12 -9 -15
-20 -7 -26 -20 -25 -53 5 -27 25 -51 34 -39 15 3 -5 -3 -10 -14 -10 -12 0 -21
5 -21 11 0 6 -9 9 -19 6 -13 -3 -18 0 -15 8 6 15 -46 29 -94 26 -22 -2 -34 3
-38 13 -3 9 -10 16 -15 16 -4 0 -6 -7 -3 -15 8 -19 -3 -19 -22 -1 -18 18 -18
21 4 42 16 17 16 17 -5 12 -12 -3 -24 -1 -26 5 -2 7 -16 11 -30 9 -15 -1 -27
3 -27 8 0 5 -6 7 -13 4 -7 -2 -27 7 -46 20 -18 14 -40 22 -49 19 -9 -4 -13 -2
-9 4 5 7 -6 14 -25 18 -18 4 -42 13 -53 21 -11 7 -41 16 -67 19 -38 6 -48 11
-48 26 0 22 32 39 38 21 5 -15 52 -16 52 -1 0 5 -4 7 -10 4 -5 -3 -10 1 -10
10 0 9 5 13 10 10 17 -11 11 13 -7 27 -23 17 -29 48 -8 48 8 0 15 -8 15 -17 0
-15 2 -16 10 -3 6 10 10 11 10 3 0 -8 14 -13 35 -13 19 0 35 3 35 6 0 11 -28
33 -34 27 -3 -4 -6 -1 -6 5 0 12 42 36 112 65 21 9 37 12 35 7 -4 -17 25 -9
96 25 25 13 28 13 14 1 -19 -14 -7 -33 13 -21 6 3 10 1 10 -5 0 -6 -14 -13
-30 -17 -46 -9 -50 -30 -5 -24 6 1 1 -6 -10 -15 -21 -18 -16 -17 53 11 23 9
42 23 42 31 0 15 38 39 47 30 3 -3 0 -12 -7 -21 -11 -13 -8 -15 16 -16 25 0
26 -1 9 -9 -11 -5 -16 -9 -12 -9 4 -1 3 -10 -3 -22 -11 -20 -11 -20 22 -3 18
9 39 25 46 35 7 11 23 19 34 19 21 0 21 0 2 -21 -16 -17 -16 -22 -4 -30 8 -5
25 -7 38 -4 15 4 22 1 22 -10 0 -22 50 -19 80 5 14 11 33 20 43 20 15 0 16 -3
6 -22 -6 -13 -23 -33 -37 -46 -21 -18 -23 -21 -7 -16 11 4 28 14 38 22 14 13
23 13 59 3 23 -7 51 -19 63 -27 28 -18 61 -13 80 12 8 10 15 14 15 8 0 -5 -5
-15 -11 -21 -19 -19 -3 -44 25 -37 13 3 27 1 31 -5 4 -8 16 -5 36 9 16 12 45
24 64 27 50 8 43 23 -10 23 -25 0 -45 5 -45 10 0 18 29 23 48 9 15 -13 16 -12
3 4 -8 9 -15 27 -16 40 -1 12 -3 26 -4 30 0 4 -17 15 -37 23 -20 8 -38 23 -41
33 -3 11 -22 23 -46 31 -23 7 -67 25 -98 41 -31 15 -59 25 -63 22 -3 -3 -15 2
-26 12 -12 11 -20 13 -20 6 0 -7 -9 -6 -26 5 -14 9 -23 23 -20 30 4 10 -1 11
-19 4 -24 -9 -42 1 -31 19 3 4 -12 16 -34 26 -36 16 -45 26 -41 48 0 4 -7 7
-17 7 -10 0 -23 5 -29 11 -6 6 -33 12 -61 13 -42 1 -54 6 -79 33 -22 24 -35
30 -56 26 -17 -3 -36 2 -56 16 -33 24 -129 56 -139 47 -3 -3 1 -6 9 -6 11 0
11 -2 -1 -10 -13 -9 -13 -10 0 -10 24 0 130 -34 130 -43 0 -4 -3 -6 -7 -5 -5
1 -18 -3 -30 -10 -13 -7 -24 -8 -27 -3 -4 5 -23 12 -44 16 -24 4 -45 15 -56
31 -11 13 -25 24 -32 24 -7 0 -14 5 -16 12 -3 7 -12 9 -22 5 -12 -5 -15 -13
-11 -26 5 -17 3 -18 -32 -10 -64 16 -93 19 -93 9 0 -6 10 -10 23 -10 12 0 40
-7 62 -14 34 -12 44 -12 67 0 25 13 28 12 49 -18 21 -29 21 -31 3 -25 -10 3
-29 9 -41 13 -14 4 -23 2 -23 -5 0 -6 7 -11 15 -11 8 0 15 -4 15 -10 0 -5 -4
-10 -10 -10 -5 0 -10 -5 -10 -11 0 -5 4 -8 9 -4 11 6 26 -33 17 -42 -3 -4 -6
1 -6 9 0 9 -7 18 -15 22 -8 3 -15 11 -15 17 0 20 -34 38 -62 32 -27 -5 -88 15
-88 29 0 5 -8 8 -18 8 -10 0 -28 7 -40 16 -19 13 -22 13 -22 1 0 -20 -39 -26
-74 -12 -16 7 -50 10 -77 8 -39 -3 -49 -1 -49 12 0 9 9 15 23 16 21 0 21 1 2
9 -13 5 -24 3 -31 -6 -12 -15 -44 -19 -44 -6 0 4 -16 6 -35 4 -42 -5 -47 -22
-6 -22 17 0 33 -5 36 -10 4 -6 11 -8 16 -5 5 4 9 1 9 -4 0 -17 -87 -14 -93 3
-4 9 -14 12 -27 9 -19 -5 -19 -7 -4 -18 10 -6 14 -17 10 -23 -10 -17 -63 -15
-69 3 -7 16 8 29 23 20 6 -3 10 1 10 9 0 8 -8 17 -17 19 -11 3 -7 5 10 6 15 0
27 6 27 11 0 13 -26 13 -50 0 -10 -5 -56 -11 -102 -11 -46 -1 -87 -5 -93 -9
-5 -4 -30 -10 -55 -12 -41 -5 -113 -29 -182 -63 -23 -11 -26 -11 -21 1 3 8 9
14 14 14 4 0 25 11 45 25 20 14 45 25 55 25 11 0 19 4 19 9 0 12 -54 -3 -86
-24 -13 -8 -32 -15 -44 -15 -11 0 -20 -4 -20 -10 0 -5 -19 -19 -42 -30 -24
-12 -59 -30 -78 -41 -33 -19 -34 -20 -7 -16 32 5 34 -3 6 -29 -12 -10 -41 -49
-66 -86 -25 -38 -48 -68 -51 -68 -15 0 8 94 29 116 12 13 17 24 11 24 -6 0
-19 -11 -28 -25 -26 -39 -35 -30 -29 28 5 38 4 48 -4 37 -6 -8 -11 -33 -11
-56 0 -46 -17 -104 -31 -104 -5 0 -9 -10 -9 -22 0 -13 -4 -29 -8 -36 -11 -16
-32 50 -32 99 -1 33 -1 32 -19 -16 -10 -28 -23 -60 -29 -71 -6 -12 -7 -26 -2
-34 7 -12 0 -34 -28 -79 -1 -3 -13 6 -27 19 -28 26 -32 18 -10 -20 8 -14 14
-46 15 -72 0 -27 4 -48 8 -48 16 0 40 -74 46 -137 5 -52 3 -62 -11 -65 -11 -2
-16 -14 -17 -40 -1 -20 2 -34 5 -32 8 4 30 -68 23 -75 -3 -3 -8 -1 -12 4 -4 6
-15 11 -26 13 -17 3 -17 2 -2 -19 9 -13 13 -32 10 -46 -4 -16 -1 -25 11 -29 9
-4 14 -13 10 -22 -3 -8 1 -24 8 -36 8 -12 17 -41 21 -66 4 -24 11 -49 17 -56
7 -9 3 -17 -13 -28 -19 -14 -21 -18 -8 -26 8 -5 16 -15 16 -22 1 -7 2 -19 3
-25 0 -7 10 -13 21 -13 12 0 20 -7 20 -16 0 -10 6 -14 15 -10 18 7 20 -5 3
-22 -15 -15 -18 -54 -4 -67 19 -17 133 -25 211 -13 l40 6 -91 -88 c-76 -72
-98 -88 -130 -92 -48 -6 -502 -3 -509 3 -2 3 -6 81 -9 175 -2 93 -1 163 1 157
11 -31 23 -8 22 42 -1 30 -6 55 -10 55 -5 0 -9 7 -9 15 0 15 16 20 53 17 14
-2 9 7 -17 32 -20 18 -36 39 -36 45 0 6 -12 17 -27 24 -16 6 -36 22 -47 35
-11 15 -24 21 -36 17 -10 -3 -21 -1 -25 5 -3 5 0 10 8 10 22 0 44 30 29 39 -9
5 -7 13 9 27 11 10 28 32 36 49 l16 30 -29 -25 c-16 -14 -32 -29 -36 -34 -4
-6 -17 -5 -33 2 -15 7 -31 10 -36 7 -5 -3 -6 1 -3 9 3 9 11 13 18 9 6 -4 19
-9 29 -10 16 -3 17 -1 4 12 -9 8 -17 19 -19 25 -2 6 -16 12 -31 14 -35 4 -41
10 -22 26 16 13 22 100 7 100 -5 0 -7 -15 -6 -34 3 -29 0 -34 -16 -33 -10 1
-16 5 -13 10 8 14 10 90 2 119 -6 22 -4 26 8 21 13 -5 15 -1 9 23 -4 16 -14
34 -22 40 -7 6 -14 16 -14 21 0 5 -10 18 -22 29 -23 19 -23 19 -5 -2 32 -38
17 -40 -17 -2 -18 21 -37 34 -41 30 -5 -4 -5 2 0 13 4 11 8 26 8 33 0 9 4 9
11 2 12 -12 26 -13 26 -2 0 4 -16 17 -35 30 -22 14 -35 18 -35 10 0 -7 -8 -1
-17 12 -26 39 -61 56 -49 25 7 -19 -8 -20 -23 -1 -6 8 -21 16 -31 19 -33 9
-23 -19 15 -43 39 -24 41 -27 20 -27 -8 0 -15 4 -15 8 0 6 -27 18 -52 23 -3 0
-25 21 -48 46 -30 33 -43 41 -49 31 -9 -14 -38 -4 -60 22 -9 12 -8 16 3 20 8
3 20 -1 26 -9 14 -15 30 -19 30 -6 0 5 -21 22 -47 39 -46 30 -91 38 -105 19
-3 -5 -17 2 -30 16 -12 14 -34 27 -48 30 -14 3 -32 9 -42 12 -11 5 -17 2 -20
-8 -2 -13 -9 -11 -35 10 -18 14 -33 33 -33 41 0 14 3 14 20 -2 16 -14 23 -16
32 -7 9 9 5 17 -17 36 -24 21 -35 23 -89 20 l-61 -5 38 17 c20 9 37 20 37 25
0 14 -40 11 -41 -3 0 -10 -2 -10 -5 -1 -6 14 -34 6 -34 -11 0 -6 -18 -12 -41
-13 -37 -2 -40 -1 -28 14 13 14 9 15 -39 10 -46 -5 -53 -3 -48 10 5 12 0 14
-24 11 -25 -4 -35 1 -56 28 -25 31 -55 36 -71 11 -4 -6 3 -8 19 -4 32 8 42
-11 17 -35 -9 -9 -19 -14 -22 -12 -2 3 -31 -11 -63 -31 -60 -35 -84 -43 -84
-25 0 10 84 50 106 50 16 0 19 26 3 35 -5 4 -18 0 -27 -8 -25 -21 -72 -44
-112 -52 -31 -7 -33 -6 -21 9 8 10 9 16 3 16 -16 0 -125 -41 -137 -51 -5 -5
-16 -9 -24 -9 -13 0 -13 2 0 16 9 8 22 16 30 18 23 4 171 78 166 83 -3 2 -37
-9 -75 -26 -39 -17 -79 -31 -89 -31 -10 0 -25 -4 -32 -9 -9 -6 -22 -6 -33 0
-12 7 -18 6 -18 -1 0 -6 -4 -8 -10 -5 -5 3 -19 1 -30 -5 -16 -9 -20 -8 -20 6
0 11 5 14 16 10 12 -4 15 -2 10 9 -6 18 -7 18 33 4 17 -6 39 -8 49 -3 9 4 19
8 22 9 3 1 25 11 50 23 25 12 51 22 58 22 8 0 12 6 9 13 -4 12 -57 12 -67 -1
-16 -22 -100 -42 -100 -24 0 8 22 21 83 48 20 9 37 20 37 23 0 4 11 8 25 9 14
1 25 -3 25 -8 0 -6 5 -10 11 -10 8 0 8 5 -1 15 -7 8 -23 15 -36 15 -17 0 -22
4 -18 15 4 9 0 15 -10 15 -9 0 -16 5 -16 10 0 15 16 12 34 -5 19 -20 51 -19
83 2 18 12 50 18 105 19 44 1 85 7 91 13 6 6 19 11 30 11 10 0 16 4 12 9 -3 5
-22 7 -42 4 -26 -4 -34 -3 -29 5 5 8 -1 12 -17 12 -28 0 -41 22 -24 39 17 17
78 13 92 -5 9 -13 16 -14 30 -7 12 7 14 13 6 17 -6 4 -11 11 -11 17 0 12 63
12 77 -2 13 -13 66 0 60 15 -3 7 1 20 8 30 8 10 11 24 8 32 -7 19 11 18 27 -1
7 -8 17 -12 23 -8 6 4 8 -2 5 -15 -4 -12 -3 -22 2 -22 10 0 31 26 25 31 -2 3
5 10 15 17 12 7 20 8 20 2 0 -5 -4 -10 -10 -10 -5 0 -10 -4 -10 -10 0 -19 89
-11 110 10 23 23 38 27 20 5 -11 -13 -8 -15 14 -15 24 0 26 3 20 23 -4 12 -7
29 -7 37 0 8 -4 21 -10 28 -8 10 -1 12 34 7 24 -3 38 -2 31 1 -17 8 -5 24 13
17 8 -3 15 -1 15 5 0 6 -6 12 -12 15 -7 2 8 8 35 12 52 8 120 -11 95 -26 -8
-6 -2 -9 20 -9 17 0 32 -4 32 -9 0 -11 35 -7 75 9 27 11 43 9 140 -23 123 -40
212 -57 201 -38 -4 6 -15 11 -24 11 -31 0 -84 39 -78 57 5 13 4 14 -8 3 -13
-10 -19 -9 -32 4 -8 9 -20 14 -25 11 -5 -4 -6 0 -4 7 4 9 -7 18 -30 27 -30 11
-34 15 -24 28 10 12 10 16 -1 23 -8 5 -11 13 -6 17 4 4 16 -2 26 -14 9 -12 20
-19 24 -16 3 4 13 -2 21 -13 11 -14 13 -14 9 -3 -3 10 2 19 13 23 15 6 15 8 3
16 -13 8 -12 12 5 24 17 13 18 17 5 25 -8 6 -12 12 -10 14 13 10 92 27 101 22
5 -4 82 -9 170 -11 145 -4 168 -2 262 21 156 39 235 66 442 155 101 43 178 67
245 75 25 3 63 10 85 15 22 5 72 16 110 25 101 23 165 47 165 62 0 17 -4 17
-52 -7 -23 -11 -52 -20 -66 -20 -13 0 -32 -5 -42 -10 -11 -6 -43 -12 -71 -14
-29 -3 -55 -8 -58 -13 -3 -4 -15 -9 -26 -9 -11 -1 -54 -9 -95 -19 -41 -9 -95
-21 -119 -26 -25 -5 -63 -18 -86 -29 -22 -11 -56 -23 -75 -26 -19 -4 -47 -13
-63 -21 -15 -7 -46 -18 -70 -22 -23 -5 -73 -21 -112 -36 -38 -15 -90 -29 -115
-32 -24 -3 -57 -11 -72 -19 -37 -19 -42 -18 -24 8 9 12 16 32 15 43 0 11 -3
14 -6 7 -2 -6 -10 -9 -15 -6 -6 4 -16 0 -22 -8 -6 -8 -21 -17 -34 -20 -19 -5
-22 -3 -20 22 1 17 7 26 14 23 7 -2 15 0 19 6 3 6 -2 11 -12 11 -14 0 -15 2
-4 9 10 6 19 3 31 -12 l17 -20 21 21 22 22 -25 0 c-14 0 -25 5 -25 10 0 14 44
30 48 19 7 -18 20 -8 51 42 27 44 35 50 56 45 14 -4 25 -2 25 3 0 5 3 16 6 25
4 11 1 16 -10 16 -9 0 -16 -4 -16 -10 0 -5 -7 -10 -15 -10 -8 0 -15 8 -15 18
0 12 13 22 44 31 36 10 43 16 39 32 -7 24 30 99 63 130 l24 22 0 -22 c0 -16 5
-21 18 -19 11 2 16 11 14 25 -3 22 10 35 38 39 8 1 38 5 65 9 28 3 56 8 64 11
9 3 11 -1 7 -12 -4 -11 -2 -15 8 -11 10 4 13 1 9 -8 -4 -12 0 -13 26 -4 17 6
31 17 31 25 0 8 5 14 10 14 6 0 10 5 10 12 0 9 -3 9 -12 0 -14 -14 -38 -16
-38 -3 0 5 17 12 38 16 20 4 45 14 55 22 9 9 17 13 17 9 0 -4 8 -2 18 3 13 7
22 7 30 -1 9 -9 18 -8 37 0 14 7 41 12 60 12 19 0 38 6 42 13 8 13 16 15 103
23 30 3 63 10 74 16 11 6 52 14 92 19 41 4 84 14 96 21 l23 13 -24 3 c-13 2
-44 -2 -70 -8 -25 -6 -68 -14 -95 -16 -28 -3 -54 -8 -60 -12 -6 -3 -24 -7 -41
-7 -16 -1 -47 -9 -67 -18 -52 -24 -68 -22 -68 8 0 17 -5 25 -18 25 -10 0 -23
5 -30 12 -9 9 -12 8 -12 -4 0 -10 -11 -17 -30 -20 -16 -3 -30 0 -30 5 0 4 -13
-5 -30 -21 -16 -16 -50 -36 -75 -43 -25 -7 -45 -17 -45 -21 0 -12 -38 -10 -46
3 -4 7 -11 2 -18 -13 -10 -20 -20 -23 -73 -26 -55 -3 -62 -1 -68 18 -5 15 0
28 20 46 14 13 29 24 33 24 4 0 13 14 20 30 18 39 44 40 42 3 -3 -43 -1 -50
16 -57 11 -4 15 -2 11 8 -7 17 21 58 34 51 13 -8 11 2 -3 25 -10 15 -10 24 -1
38 7 12 8 24 2 35 -15 26 29 80 58 72 18 -4 23 -1 23 15 0 11 5 29 12 39 9 15
15 16 40 7 23 -9 31 -8 38 4 8 13 13 12 32 -7 12 -13 18 -23 12 -23 -6 0 -9
-11 -7 -23 4 -22 2 -23 -26 -19 -17 2 -31 9 -31 16 -1 6 -9 1 -19 -10 -9 -12
-37 -32 -60 -44 -52 -26 -49 -35 6 -16 25 9 45 11 54 5 23 -14 31 -10 24 12
-6 17 -3 20 17 18 12 -2 33 3 46 10 20 11 27 10 43 -5 10 -9 19 -23 19 -31 0
-8 5 -11 10 -8 6 4 10 -7 10 -25 0 -25 4 -31 18 -28 12 3 16 11 14 28 -2 14
-4 35 -5 47 -1 15 -5 19 -14 11 -17 -13 -29 -4 -58 46 -34 58 -27 71 37 71 56
0 75 -18 43 -41 -17 -12 -16 -14 9 -23 14 -6 26 -13 26 -16 0 -4 -4 -3 -10 0
-15 10 -30 -4 -23 -21 4 -11 14 -14 34 -10 17 3 32 0 39 -9 7 -8 17 -15 23
-15 5 0 3 8 -6 18 -10 11 -13 27 -10 45 4 22 2 26 -11 21 -9 -4 -16 -1 -16 6
0 6 -10 20 -22 29 -13 11 -17 20 -10 24 6 4 17 0 26 -8 20 -20 48 -7 72 33 12
22 22 28 40 24 15 -3 24 -12 25 -23 2 -32 4 -37 12 -45 4 -4 7 -15 7 -24 0 -8
13 -23 29 -33 29 -17 30 -17 33 5 2 13 -1 33 -6 46 -13 31 4 48 34 32 15 -8
21 -19 18 -34 -4 -20 0 -23 33 -24 38 -2 38 -2 26 26 -6 15 -16 30 -20 33 -5
4 10 7 33 7 32 1 40 -2 36 -14 -5 -13 40 -64 57 -64 5 0 21 -8 35 -18 15 -10
43 -25 62 -32 19 -7 42 -19 51 -27 9 -7 19 -10 24 -6 4 5 5 2 0 -6 -4 -8 -2
-17 6 -21 19 -12 31 -2 24 21 -8 24 21 26 52 4 20 -14 24 -14 43 2 11 10 41
23 67 28 62 13 74 40 13 30 -31 -5 -45 -4 -51 6 -4 7 -11 10 -15 6 -4 -4 -1
-13 7 -20 8 -6 12 -11 10 -10 -2 1 -13 -3 -24 -8 -15 -8 -22 -8 -28 2 -7 11
-9 11 -9 -1 0 -9 -3 -11 -8 -5 -10 15 -59 45 -73 45 -7 0 -5 -8 6 -20 18 -19
17 -20 -7 -20 -14 0 -31 6 -37 14 -7 8 -28 17 -47 21 -19 3 -44 15 -54 25 -11
11 -25 17 -32 15 -25 -9 -63 43 -54 73 4 12 -3 21 -24 30 -32 15 -41 42 -14
42 9 0 37 -15 63 -33 65 -46 102 -60 145 -52 25 5 36 4 36 -4 0 -7 4 -10 8 -7
5 3 19 -9 32 -26 23 -31 23 -31 31 -10 9 23 21 26 53 13 14 -5 16 -10 8 -15
-7 -4 -12 -12 -12 -17 0 -5 16 6 36 26 19 19 40 32 46 29 7 -4 8 -2 4 5 -4 6
-11 9 -16 6 -4 -3 -10 0 -12 7 -3 7 9 27 26 44 23 25 34 30 44 22 9 -8 20 -7
40 1 26 13 27 13 8 -8 -15 -17 -16 -23 -6 -36 10 -12 10 -15 0 -15 -9 0 -9 -4
1 -17 11 -13 11 -17 2 -20 -7 -3 -13 -9 -13 -14 0 -13 37 -11 46 2 3 6 15 9
25 6 11 -3 19 -2 19 2 0 4 7 8 14 8 16 0 17 -18 1 -30 -6 -4 -3 -13 9 -22 19
-14 41 -11 31 5 -3 5 -1 11 5 15 5 3 10 15 10 26 0 12 -4 17 -11 14 -5 -4 -19
1 -30 11 -10 9 -19 14 -19 9 0 -4 -6 -2 -14 4 -13 11 -11 19 7 56 21 43 40 55
52 35z m4445 -190 c234 -13 348 -25 530 -56 253 -43 476 -106 645 -182 93 -42
105 -49 105 -69 0 -13 -20 -15 -137 -11 -131 5 -147 8 -328 61 -230 67 -342
92 -506 111 -601 73 -1429 26 -2100 -118 -63 -13 -150 -32 -194 -41 -96 -20
-185 -47 -180 -54 2 -3 -11 -7 -28 -7 -18 -1 -49 -6 -69 -12 -44 -12 -44 -11
-27 84 14 74 52 160 78 173 11 6 39 11 63 11 24 0 61 5 83 10 22 4 114 16 205
24 789 74 1419 100 1860 76z m2118 -47 c-2 -11 -21 -21 -58 -30 -30 -7 -77
-18 -105 -24 -55 -13 -62 -17 -185 -99 -47 -32 -110 -71 -141 -89 -63 -35
-148 -52 -150 -30 -3 32 4 53 32 97 16 25 29 54 29 64 0 10 10 24 23 32 48 32
370 92 505 95 45 1 53 -2 50 -16z m-2433 -152 c154 -11 107 -46 -95 -71 -47
-6 -276 -12 -510 -14 -234 -2 -437 -6 -452 -9 -16 -3 -31 0 -35 5 -3 6 -1 8 5
4 5 -3 12 -2 14 4 7 22 328 65 593 79 186 10 362 11 480 2z m1048 -101 c48
-16 100 -30 116 -30 17 0 33 -5 36 -10 12 -20 -15 -37 -73 -49 -64 -12 -117
-3 -227 43 -65 26 -75 44 -35 63 41 20 91 15 183 -17z m-443 -45 c107 -8 196
-15 198 -15 4 0 2 -30 -3 -30 -3 0 -47 -7 -98 -15 -309 -49 -908 -108 -1607
-160 -249 -18 -467 -41 -575 -59 -191 -33 -236 -38 -301 -34 -102 6 -210 66
-179 97 15 15 429 97 655 131 260 38 566 70 865 89 225 14 838 12 1045 -4z
m-5006 -2126 c-4 -8 0 -8 13 0 11 6 23 8 26 5 3 -4 30 -8 59 -11 29 -3 55 -9
56 -14 2 -6 10 -5 18 2 10 8 25 7 61 -5 26 -8 62 -16 78 -18 17 -2 32 -5 35
-8 3 -3 44 -18 93 -34 48 -16 92 -35 98 -42 6 -8 16 -14 21 -14 11 0 124 -86
134 -102 7 -12 -20 -9 -98 11 -21 5 -38 6 -38 2 0 -7 68 -26 120 -35 8 -1 49
-19 90 -40 41 -20 66 -35 55 -32 -11 2 -69 18 -130 34 -130 34 -197 47 -322
63 -51 6 -93 16 -93 20 0 11 6 11 84 9 40 -1 56 2 51 9 -4 7 -38 11 -88 10
-45 -1 -86 0 -92 1 -5 1 -32 1 -60 0 -27 -1 -76 -3 -107 -4 -32 -1 -63 1 -70
5 -7 4 -17 4 -23 -1 -5 -4 -45 -10 -87 -13 -42 -3 -81 -7 -85 -10 -5 -3 -46
-11 -93 -17 -46 -6 -92 -16 -102 -21 -12 -6 -18 -6 -18 1 0 5 7 10 15 10 18 0
20 16 3 23 -8 4 -7 6 4 6 9 1 18 -5 21 -11 3 -10 7 -10 19 0 9 7 22 11 29 10
8 -2 14 5 14 17 0 13 -6 20 -17 19 -10 -1 -18 2 -18 8 0 5 -4 7 -9 4 -5 -3
-11 1 -15 9 -3 9 3 19 17 26 12 7 34 24 50 38 15 14 33 27 40 27 6 1 17 2 23
3 5 0 19 9 30 19 31 27 64 43 74 37 6 -3 16 -2 24 2 23 13 118 14 110 2z m472
-308 c235 -44 410 -117 538 -227 80 -68 125 -129 157 -213 34 -87 38 -300 10
-447 -34 -180 -98 -332 -198 -474 -140 -199 -466 -401 -728 -449 -22 -5 -60
-14 -85 -20 -24 -7 -62 -10 -84 -7 -26 5 -42 3 -47 -6 -11 -18 -248 7 -357 38
-118 34 -259 106 -375 193 -221 164 -360 412 -385 685 -8 83 -5 205 4 215 2 2
4 -15 4 -39 0 -66 28 -247 51 -325 45 -155 182 -372 281 -445 31 -23 31 -22
-8 23 -59 67 -95 143 -149 307 -25 80 -65 201 -87 270 -22 69 -53 153 -69 187
-28 58 -29 65 -18 110 47 195 190 354 426 472 169 84 252 110 483 151 198 34
453 35 636 1z m-3062 -92 c155 -46 378 -171 516 -289 31 -26 64 -49 73 -51 10
-2 18 -8 18 -14 1 -20 -17 -14 -52 18 -20 17 -42 33 -48 35 -7 1 -22 11 -33
22 -20 18 -91 63 -193 120 -75 43 -150 77 -270 125 -66 26 -122 49 -124 51
-12 11 50 2 113 -17z m-724 -6 c-88 -9 -347 -58 -390 -74 -14 -5 -35 -11 -48
-14 -57 -10 -301 -149 -287 -163 2 -3 -6 -13 -18 -23 l-22 -18 38 -1 c46 0 48
-16 5 -36 -26 -12 -28 -14 -8 -10 19 4 29 0 39 -17 21 -32 31 -87 17 -87 -18
-1 26 -30 46 -30 10 0 18 -5 18 -11 0 -5 5 -7 10 -4 11 6 15 -14 11 -54 -1
-13 4 -28 11 -32 11 -7 11 -9 0 -9 -24 0 15 -30 42 -32 14 -1 26 -6 26 -11 0
-4 -17 -5 -37 -2 -34 5 -36 4 -13 -6 l25 -11 -25 -11 c-25 -10 -25 -10 -2 -14
29 -6 28 -21 -3 -33 -36 -14 -31 -21 13 -17 31 2 37 6 36 25 -1 24 4 26 25 13
8 -6 24 -6 38 0 12 5 23 5 23 1 -1 -13 -27 -42 -39 -42 -19 0 -43 -28 -35 -41
5 -8 9 -7 14 2 7 10 11 10 24 0 14 -11 16 -11 16 4 0 16 2 16 25 1 16 -10 34
-14 50 -10 15 4 25 2 25 -4 0 -6 8 -12 17 -14 16 -3 16 -4 0 -20 -22 -21 -21
-28 1 -28 58 -1 151 -53 165 -93 3 -7 8 -8 13 -3 5 5 4 11 -3 13 -10 4 -10 7
0 17 17 17 102 13 102 -5 0 -8 -10 -14 -21 -13 -18 0 -21 -5 -20 -30 2 -26 6
-31 25 -28 17 1 22 -2 18 -12 -4 -10 2 -18 16 -22 12 -4 27 -14 33 -23 9 -12
15 -13 26 -3 8 6 19 8 24 4 4 -4 3 0 -4 9 -10 14 -10 18 4 23 25 10 34 7 34
-9 0 -8 2 -15 4 -15 2 0 12 -3 22 -7 12 -4 15 -3 10 5 -4 7 -2 10 7 7 21 -9
87 23 81 38 -4 10 4 13 27 12 21 -1 39 5 52 18 11 11 34 21 51 22 36 2 57 8
107 35 19 10 53 22 75 25 21 4 45 13 53 19 12 9 13 8 8 -6 -3 -10 -2 -18 3
-18 5 0 11 -8 14 -18 4 -10 12 -19 19 -19 7 0 14 9 14 19 1 10 -2 18 -8 18 -5
0 -9 -5 -9 -12 0 -6 -2 -9 -5 -6 -11 11 9 40 34 49 19 8 22 12 11 19 -11 7 41
7 81 1 3 -1 3 -15 1 -32 -3 -20 -1 -29 5 -26 6 4 8 -4 5 -19 -4 -23 -2 -25 24
-18 49 11 98 34 121 56 20 18 23 19 23 5 0 -9 -4 -17 -8 -17 -5 0 -8 -10 -7
-22 1 -18 7 -22 26 -19 13 1 32 7 42 12 9 6 22 7 28 3 6 -3 18 1 28 10 10 9
25 14 33 11 9 -4 22 4 32 20 12 19 23 24 37 20 14 -5 19 -2 19 14 0 11 5 23
12 27 7 5 9 2 6 -7 -4 -11 1 -15 18 -15 26 0 52 45 38 67 -4 7 -3 10 4 5 5 -3
13 0 15 6 4 9 6 8 6 -2 1 -25 -39 -174 -49 -184 -6 -6 -10 -27 -10 -47 0 -38
-20 -69 -45 -69 -7 0 -20 -3 -29 -6 -9 -3 -16 -1 -16 5 0 6 9 11 20 11 18 0
66 58 56 67 -7 7 -57 -18 -52 -26 3 -4 -9 -24 -26 -44 -33 -36 -66 -137 -45
-137 5 0 4 -7 -3 -15 -6 -8 -9 -19 -5 -25 5 -8 -1 -10 -16 -8 -15 2 -23 -2
-21 -10 1 -6 -22 -36 -51 -65 -62 -61 -73 -82 -49 -96 23 -14 6 -14 -20 0 -15
8 -19 8 -14 0 4 -6 1 -11 -8 -11 -9 0 -14 -8 -13 -20 1 -17 3 -18 17 -5 19 17
30 19 30 5 0 -5 -7 -10 -15 -10 -8 0 -15 -5 -15 -10 0 -6 -12 -23 -27 -38 -16
-15 -33 -37 -40 -49 -10 -20 -9 -23 7 -23 22 0 39 -22 22 -28 -21 -7 -13 -23
11 -20 52 8 203 146 275 254 68 101 84 128 104 178 27 68 68 205 68 228 0 10
4 18 9 18 9 0 -7 -99 -29 -180 -17 -62 -86 -205 -133 -275 -48 -71 -176 -205
-232 -244 -206 -143 -490 -208 -794 -182 -239 20 -372 63 -551 179 -62 41
-190 166 -190 187 0 8 -13 29 -29 47 -170 196 -261 458 -261 753 0 173 30 256
133 362 33 35 64 63 68 63 4 0 34 17 66 38 95 62 188 102 312 132 135 33 230
47 321 47 36 0 49 -2 30 -4z m734 -84 c84 -29 193 -82 262 -128 74 -49 222
-206 208 -220 -2 -3 -12 6 -21 20 -9 13 -46 54 -84 91 -59 60 -86 76 -231 147
-157 76 -255 112 -345 126 -24 4 -45 11 -49 16 -3 5 -10 6 -16 3 -6 -4 -8 -3
-5 3 7 11 182 -25 281 -58z m-702 39 c2 -6 -4 -27 -14 -47 -28 -55 -24 -135
11 -207 52 -107 126 -156 247 -162 61 -3 78 0 120 22 59 31 114 80 134 121 16
35 38 128 39 168 1 15 7 30 14 33 23 9 67 -15 77 -41 5 -14 14 -25 20 -25 5 0
10 -9 10 -20 0 -11 7 -20 15 -20 29 0 14 -19 -20 -26 -19 -3 -35 -10 -35 -15
0 -5 7 -6 16 -2 8 3 33 0 55 -7 30 -10 38 -17 34 -29 -4 -9 -9 -31 -12 -48 -3
-18 -11 -33 -18 -33 -7 0 -24 -9 -39 -21 -15 -11 -32 -22 -39 -23 -6 -1 -31
-14 -54 -29 -23 -14 -62 -32 -87 -38 -49 -12 -75 -33 -35 -27 22 3 24 0 23
-39 -1 -24 3 -43 8 -43 4 0 8 -7 8 -15 0 -8 -4 -15 -8 -15 -15 0 -30 23 -25
37 5 12 1 11 -15 -2 -28 -24 -92 -31 -92 -10 0 21 -18 19 -38 -4 -19 -22 -92
-45 -92 -30 0 5 11 14 24 18 23 10 44 41 26 41 -6 0 -20 -10 -32 -22 -12 -12
-23 -17 -25 -12 -2 6 -16 9 -32 6 -16 -2 -32 1 -35 7 -4 6 -16 11 -27 11 -10
0 -19 5 -19 10 0 6 8 10 18 10 30 0 92 21 92 30 0 6 -33 10 -74 10 -40 0 -92
6 -114 14 -22 8 -42 11 -44 6 -4 -12 -100 53 -130 88 -13 15 -34 34 -48 43
-14 9 -41 42 -60 73 -19 30 -42 56 -50 56 -11 1 -9 4 6 13 13 8 19 21 18 38
-3 27 39 89 52 77 4 -5 8 -25 9 -45 1 -31 5 -38 20 -38 16 0 19 6 17 25 -13
95 3 120 77 120 25 0 57 7 71 14 32 18 47 19 52 4z m1964 -439 c74 -14 134
-85 134 -156 0 -21 -28 -15 -35 7 -17 52 -153 130 -221 126 -24 -1 -44 1 -44
6 0 5 -9 4 -19 -2 -11 -5 -22 -6 -25 -2 -5 9 -77 7 -163 -3 -47 -5 -123 -35
-123 -49 0 -4 -7 -3 -15 4 -8 6 -19 9 -25 5 -5 -3 -10 -4 -10 -1 0 3 19 15 42
27 33 17 72 24 168 30 69 5 136 10 150 12 72 7 140 5 186 -4z m574 -2963 c7
-10 18 -12 32 -7 30 11 66 2 83 -22 10 -14 19 -17 32 -12 10 5 24 7 31 6 6 -1
12 3 12 8 0 6 7 8 15 5 8 -4 21 -1 28 5 23 18 170 -5 193 -30 9 -11 22 -19 29
-19 7 0 20 -9 30 -20 10 -11 25 -20 32 -20 8 0 17 9 20 20 3 11 8 20 12 20 11
-1 61 -49 61 -60 0 -5 5 -10 10 -10 17 0 61 -48 58 -62 -3 -13 17 -88 33 -123
8 -17 9 -16 6 8 -3 15 -1 27 4 27 11 0 39 -30 39 -42 0 -5 11 -32 25 -60 14
-27 25 -60 25 -74 0 -17 4 -22 15 -18 27 11 16 -23 -19 -60 -36 -39 -32 -51
16 -48 14 1 30 -3 33 -9 4 -6 0 -9 -11 -7 -11 2 -19 -3 -20 -12 -2 -30 -4 -31
-26 -16 -32 23 -60 21 -30 -2 15 -11 21 -24 17 -34 -5 -13 -2 -16 17 -12 20 4
20 3 4 -4 -12 -5 -20 -20 -22 -38 -2 -37 -14 -74 -24 -74 -5 0 -6 -8 -4 -17 6
-23 -33 -86 -49 -80 -6 2 -12 10 -13 18 0 8 -2 24 -2 35 -1 12 -10 24 -20 26
-22 6 -22 -18 -1 -67 7 -16 13 -38 14 -47 1 -10 8 -26 16 -35 7 -10 9 -15 4
-10 -4 4 -17 -1 -28 -10 -19 -17 -20 -17 -9 3 9 17 6 27 -18 56 -16 19 -27 38
-23 41 3 3 -2 13 -11 22 -9 9 -16 23 -16 31 0 21 -16 17 -33 -9 -10 -15 -12
-29 -6 -38 15 -23 11 -52 -6 -45 -12 4 -13 2 -5 -13 5 -11 13 -21 17 -23 5 -1
19 -19 32 -38 l24 -35 -30 28 c-20 19 -33 25 -38 18 -3 -6 -11 -8 -17 -5 -6 4
-17 -1 -25 -11 -10 -15 -16 -16 -25 -7 -15 15 -28 16 -28 2 0 -5 5 -10 12 -10
6 0 20 -8 31 -17 15 -15 19 -15 17 -3 -5 32 1 45 10 23 13 -31 -6 -78 -35 -91
-14 -7 -26 -16 -26 -22 -1 -5 -2 -14 -3 -19 -2 -18 -16 -24 -28 -13 -11 8 -13
1 -12 -36 2 -57 -3 -69 -22 -45 -13 17 -14 16 -12 -11 2 -19 -2 -31 -12 -34
-13 -5 -13 -3 -1 11 18 23 6 22 -17 -1 -13 -13 -16 -23 -9 -34 12 -18 2 -52
-13 -43 -5 3 -10 17 -10 30 0 13 -4 27 -10 30 -5 3 -10 11 -10 16 0 6 4 8 9 5
5 -3 11 4 14 15 5 19 4 20 -12 5 -23 -21 -28 -20 -34 4 -3 11 -10 20 -17 20
-7 0 -6 -8 4 -22 14 -20 14 -23 -4 -35 -11 -8 -17 -20 -13 -28 4 -11 1 -13
-11 -9 -8 3 -18 21 -22 40 -3 19 -10 37 -15 40 -12 7 0 -67 13 -83 8 -10 4
-13 -15 -13 -14 0 -28 6 -30 13 -3 6 -3 -2 0 -19 4 -26 1 -32 -16 -37 -12 -3
-19 -1 -15 4 3 6 -1 21 -10 34 -9 13 -16 34 -16 47 0 13 -4 18 -9 13 -12 -13
-17 -57 -8 -71 4 -7 0 -14 -8 -18 -8 -3 -12 -12 -9 -21 3 -8 3 -26 0 -40 -6
-24 -7 -24 -41 -8 -18 9 -34 19 -33 22 2 20 -5 21 -28 6 -14 -9 -28 -14 -32
-11 -3 3 0 6 7 6 16 0 10 52 -7 58 -7 2 -10 -2 -6 -11 7 -20 -13 -57 -31 -57
-8 0 -15 -7 -15 -15 0 -8 -7 -15 -15 -15 -9 0 -15 9 -15 24 0 26 -19 47 -21
24 -1 -7 -2 -17 -4 -23 -1 -5 -3 -22 -3 -37 -2 -22 -7 -28 -26 -28 -33 0 -53
-25 -36 -45 8 -9 8 -15 2 -15 -17 0 -25 39 -12 55 15 18 -5 49 -26 41 -8 -3
-13 -2 -13 2 4 24 -3 23 -17 -3 -8 -16 -16 -42 -16 -57 -1 -26 -18 -30 -18 -4
0 17 -28 16 -34 -1 -9 -24 -33 -14 -33 13 0 23 3 25 28 22 19 -3 29 0 29 8 0
16 -32 27 -54 18 -12 -5 -16 0 -16 18 0 13 5 29 11 35 6 6 9 17 7 23 -3 9 -10
7 -22 -6 -23 -23 -68 -54 -78 -54 -5 0 -8 9 -8 20 0 13 -5 18 -15 14 -8 -3
-29 -1 -46 5 -27 9 -32 8 -36 -8 -3 -11 -14 -22 -26 -25 -25 -6 -37 2 -18 13
9 6 5 10 -15 14 -17 3 -33 -1 -41 -9 -18 -17 -25 -18 -41 -2 -10 10 -14 8 -19
-10 -7 -27 -28 -24 -28 4 -1 10 -7 18 -14 16 -7 -1 -19 2 -25 8 -7 5 -16 7
-20 3 -4 -4 -16 3 -26 17 -17 22 -19 23 -25 7 -4 -9 -15 -17 -25 -17 -10 0
-20 -7 -24 -15 -11 -28 -25 -15 -28 27 -2 23 -9 43 -16 46 -7 2 -10 -2 -6 -12
3 -9 1 -16 -6 -16 -6 0 -8 -5 -5 -10 10 -16 -24 -23 -42 -9 -15 13 -15 12 -5
-8 16 -29 16 -30 -14 -49 -22 -15 -27 -15 -35 -3 -6 10 -9 10 -9 2 0 -7 -8
-13 -19 -13 -19 0 -31 34 -31 87 0 22 -1 23 -21 10 -16 -12 -26 -12 -50 -4
-24 10 -32 9 -39 -3 -14 -21 -12 -3 1 23 12 21 11 21 -8 5 -33 -30 -49 -15
-18 16 8 8 11 17 6 20 -5 3 -12 -1 -15 -9 -4 -12 -11 -13 -23 -7 -10 5 -24 7
-30 5 -7 -3 -13 0 -13 7 0 6 5 8 10 5 6 -3 10 -2 10 3 0 6 -7 12 -15 16 -8 3
-15 1 -15 -4 0 -6 -6 -10 -12 -10 -8 0 -13 14 -14 35 0 27 2 32 12 24 10 -8
10 -5 1 15 -7 14 -20 26 -29 26 -19 0 -24 15 -9 24 5 3 7 15 4 26 -4 15 0 20
13 20 18 1 18 1 1 11 -18 10 -18 11 0 25 12 8 13 13 5 14 -7 0 -11 4 -7 9 3 5
0 13 -6 17 -7 4 -9 3 -6 -3 4 -6 0 -16 -7 -22 -11 -10 -16 -8 -21 8 -5 16 -12
20 -31 15 -14 -4 -24 -2 -24 5 0 6 11 11 25 11 14 0 25 6 26 13 0 9 2 9 6 0 7
-18 34 -16 61 3 13 9 32 14 42 11 11 -3 24 0 29 7 6 6 28 10 56 8 40 -4 44 -6
33 -19 -11 -14 -8 -15 27 -9 22 4 59 8 82 9 34 2 43 6 43 20 0 19 13 22 41 7
15 -8 19 -7 19 4 0 8 5 18 10 21 7 4 8 -3 4 -22 l-7 -28 27 24 c31 29 40 24
26 -14 -12 -31 -4 -47 11 -25 8 11 9 8 4 -13 -8 -40 14 -31 39 15 10 20 29 41
43 47 22 10 23 9 13 -8 -14 -27 -13 -44 3 -38 6 2 12 10 12 18 0 19 38 56 53
51 7 -2 12 4 12 13 0 9 5 13 10 10 7 -4 7 -13 0 -26 -9 -16 -7 -19 10 -19 11
0 20 -5 20 -12 0 -9 3 -9 12 0 8 8 8 15 -1 26 -13 15 -7 36 10 36 5 0 9 -7 9
-15 0 -20 32 -85 42 -85 5 0 4 9 -1 19 -8 15 -7 20 7 26 16 6 16 7 0 19 -10 7
-18 19 -18 26 0 10 4 9 17 -1 14 -12 16 -12 9 1 -4 8 2 3 14 -12 12 -16 28
-28 36 -28 17 0 17 5 4 29 -7 14 -5 23 8 34 16 15 21 13 55 -18 43 -40 63 -46
47 -14 -15 27 -10 31 29 19 18 -5 39 -6 47 -3 8 3 22 2 32 -2 33 -15 49 -15
30 -1 -24 17 -12 27 19 15 17 -6 22 -6 17 2 -3 6 0 15 7 20 11 6 11 11 1 21
-6 6 -12 21 -12 31 0 15 5 18 25 13 14 -4 25 -2 25 3 0 6 7 8 15 5 8 -4 15 -1
15 6 0 19 29 42 45 36 8 -3 15 -1 15 4 0 6 -4 10 -9 10 -11 0 -24 31 -16 38 3
3 13 -4 23 -16 11 -12 22 -19 25 -16 3 3 18 0 34 -8 28 -14 83 -5 83 14 0 7
-21 12 -41 10 -11 -2 -28 68 -18 74 5 3 9 0 9 -7 0 -8 3 -9 13 0 8 6 17 8 20
4 4 -3 7 -2 7 4 0 15 -42 24 -56 12 -8 -7 -14 -6 -19 2 -6 8 -9 8 -15 0 -10
-18 -34 -4 -48 29 -14 31 -50 44 -38 14 9 -24 -3 -36 -20 -20 -8 9 -21 13 -29
10 -10 -4 -15 0 -15 11 0 12 -5 15 -17 10 -10 -4 -41 -7 -70 -8 -39 -2 -58 3
-78 19 -24 19 -25 22 -11 37 22 22 21 23 -16 21 -18 -1 -41 4 -52 12 -23 16
-62 19 -71 4 -8 -13 -151 -6 -169 9 -16 14 -56 6 -56 -11 0 -14 -119 0 -147
18 -26 16 -37 18 -28 5 6 -10 -137 -7 -154 3 -5 3 -14 -1 -21 -9 -11 -14 -14
-13 -24 6 -13 27 -42 40 -33 16 3 -9 1 -19 -5 -23 -7 -4 -6 -9 3 -15 7 -4 11
-11 7 -14 -3 -4 -17 0 -30 8 -14 9 -31 12 -42 8 -12 -5 -32 -1 -49 7 -25 12
-28 19 -23 43 4 21 2 29 -8 29 -8 0 -16 -4 -18 -9 -1 -5 -19 -11 -38 -13 -32
-3 -35 -1 -38 26 -3 23 0 28 12 23 23 -9 20 8 -9 40 -20 23 -24 25 -25 10 0
-10 5 -15 10 -12 15 9 12 -17 -5 -38 -13 -18 -14 -18 -25 2 -6 11 -16 20 -22
18 -7 -1 -13 7 -15 18 -3 15 -2 16 5 7 7 -10 14 -3 30 28 11 22 22 35 24 28 3
-7 17 -12 31 -10 18 1 27 -3 27 -13 0 -8 5 -15 11 -15 12 0 34 -20 40 -37 3
-8 9 -8 23 2 14 11 16 18 8 28 -6 7 -7 18 -3 26 6 10 10 10 16 1 4 -7 17 -9
31 -6 18 5 31 0 49 -18 38 -38 30 -10 -11 40 -20 24 -44 44 -53 44 -22 0 -41
19 -35 35 3 7 -4 33 -15 58 -22 49 -29 84 -11 57 9 -13 12 -13 24 3 7 9 24 17
37 17 14 0 35 7 47 16 12 8 26 12 32 9 5 -3 18 -1 29 5 11 5 22 6 25 2 3 -5
29 -7 57 -6 31 2 65 -2 83 -11 17 -8 56 -16 86 -19 77 -7 113 -16 125 -31 9
-10 18 -9 47 5 35 17 63 24 153 37 22 3 44 12 48 19 9 16 43 19 52 4 4 -7 14
-6 28 1 16 9 22 9 25 0 2 -6 11 -11 20 -11 15 0 15 2 2 10 -13 9 -13 11 0 20
8 5 33 10 56 10 22 0 44 3 48 8 4 4 57 7 118 7 108 0 109 0 105 -22 -6 -32 1
-29 43 17 39 42 60 49 80 26z m718 -2283 c-8 -10 -24 -29 -34 -42 -10 -13 -26
-30 -35 -39 -9 -8 -15 -22 -12 -31 2 -9 -12 -33 -32 -54 -41 -44 -58 -74 -50
-87 3 -5 1 -11 -4 -14 -5 -3 -23 -34 -41 -68 -18 -35 -38 -70 -44 -78 -6 -8
-20 -31 -31 -50 -10 -19 -23 -39 -28 -45 -5 -5 -18 -26 -30 -46 -185 -307
-390 -500 -610 -575 -40 -14 -84 -27 -100 -29 -26 -5 -27 -5 -10 15 10 11 23
20 30 20 7 0 13 5 13 11 0 8 4 8 13 0 11 -8 13 -6 13 12 -1 18 4 21 26 19 31
-4 71 15 63 29 -4 5 -1 9 5 9 6 0 8 5 5 10 -3 6 0 10 9 10 8 0 22 3 32 7 13 5
15 3 9 -7 -5 -8 -3 -11 5 -8 14 4 19 25 23 93 1 22 6 46 10 53 5 7 3 12 -3 12
-6 0 -8 5 -4 11 3 6 15 9 25 6 11 -3 17 -1 14 3 -3 5 1 12 8 17 8 4 22 20 32
36 9 15 23 27 29 27 6 0 12 9 12 19 0 11 -4 17 -8 15 -4 -3 -8 6 -8 19 0 27
24 54 34 38 11 -17 34 -1 29 20 -4 13 0 19 11 19 9 0 16 5 16 10 0 10 -14 14
-39 10 -10 -1 -12 5 -7 22 3 13 6 28 6 35 0 7 7 10 15 7 8 -4 12 -11 9 -16 -4
-6 -1 -8 7 -6 8 3 13 11 11 18 -4 19 18 39 35 33 9 -4 14 -2 10 3 -3 6 3 15
14 22 11 7 19 8 19 2 0 -21 16 -9 34 25 11 19 25 35 33 35 7 0 13 6 13 13 0 9
2 9 8 0 4 -7 13 -9 21 -4 7 5 10 14 6 20 -4 7 -2 17 3 24 5 7 12 23 15 37 4
17 19 32 42 43 19 9 44 31 55 49 11 18 20 29 20 25 0 -4 10 2 22 13 12 11 28
18 34 16 14 -5 74 36 87 60 8 14 6 14 -15 4 -12 -7 -33 -23 -45 -37 -12 -13
-24 -20 -27 -14 -4 5 13 25 36 45 24 19 79 64 123 100 81 67 100 80 73 49z"/>
<path d="M10325 7973 c-235 -29 -410 -79 -588 -169 -135 -68 -223 -137 -237
-184 -11 -38 2 -51 70 -76 27 -10 50 -22 50 -27 0 -5 14 -7 32 -5 36 3 50 -17
19 -27 -14 -4 -21 -15 -21 -33 0 -36 -54 -56 -95 -34 -15 7 -29 11 -32 9 -7
-8 9 -77 17 -72 5 3 6 -4 3 -15 -3 -11 -1 -20 4 -20 5 0 9 -9 10 -20 1 -11 27
-43 57 -71 31 -28 53 -55 50 -60 -3 -5 -1 -9 5 -9 5 0 25 -16 44 -36 l35 -37
-3 28 -3 27 31 -28 c18 -16 34 -30 36 -31 2 -2 -2 -10 -10 -20 -8 -9 -9 -14
-3 -10 7 4 15 -1 18 -10 5 -12 9 -14 18 -5 15 15 28 15 28 1 0 -18 30 -42 58
-45 14 -1 32 -11 39 -20 7 -10 13 -15 13 -11 0 4 9 -2 20 -13 11 -11 29 -20
40 -20 11 0 20 -4 20 -10 0 -5 -4 -10 -9 -10 -5 0 -11 -7 -14 -15 -5 -10 1
-14 21 -13 15 1 37 -1 50 -6 14 -4 22 -3 22 3 0 6 -9 11 -20 11 -11 0 -20 7
-20 15 0 8 9 15 20 15 12 0 17 5 14 14 -8 20 43 35 84 24 21 -6 52 -5 83 1 28
6 90 11 139 11 50 0 90 4 90 9 0 6 8 10 18 10 35 0 86 11 96 21 6 6 18 10 28
10 10 0 18 5 18 10 0 6 12 10 28 10 17 0 22 3 15 8 -8 5 3 12 31 20 31 8 45
18 49 33 4 15 11 20 22 16 12 -5 14 -1 9 17 -4 19 0 28 25 42 17 10 29 24 27
31 -3 7 -1 13 3 13 5 0 7 9 4 20 -3 11 -9 17 -14 14 -5 -3 -7 -10 -4 -15 4 -5
-3 -21 -14 -35 -19 -24 -25 -24 -23 -3 1 4 -12 13 -29 20 -31 12 -40 8 -52
-26 -2 -5 -22 -9 -45 -8 -31 1 -42 -2 -42 -12 0 -12 -4 -11 -20 2 -27 23 -25
29 10 42 33 11 36 19 17 46 -10 12 -16 14 -21 7 -4 -7 -1 -12 6 -13 7 -1 2 -4
-12 -8 -17 -5 -31 -3 -43 7 -26 22 -29 10 -8 -31 20 -39 13 -57 -24 -57 -16 0
-21 6 -21 23 1 12 7 26 14 30 20 13 14 27 -12 27 -13 0 -29 6 -36 14 -15 19
-40 9 -40 -14 0 -11 -4 -22 -10 -25 -13 -8 -13 8 2 40 6 14 18 25 27 25 13 0
13 2 2 9 -15 10 -94 -6 -99 -19 -2 -6 -10 -3 -19 5 -8 9 -12 22 -9 30 3 8 1
17 -4 20 -6 4 -10 2 -10 -2 0 -5 -7 -18 -16 -29 -15 -18 -15 -17 -10 14 3 18
1 32 -4 32 -6 0 -9 -3 -9 -7 5 -29 -2 -33 -28 -16 -15 10 -24 13 -20 7 8 -13
-19 -27 -34 -18 -5 3 -7 17 -4 32 l6 27 -17 -29 c-15 -26 -18 -28 -29 -13 -10
15 -13 14 -32 -5 -28 -28 -62 -17 -55 17 2 14 8 28 13 31 18 11 8 24 -17 24
-21 0 -24 -3 -16 -13 17 -20 -13 -57 -45 -57 -18 0 -24 4 -19 15 4 12 0 14
-19 9 -16 -4 -25 -2 -25 6 0 6 4 9 9 6 14 -9 41 4 41 19 0 9 -8 11 -22 7 -22
-5 -22 -5 -6 12 10 9 23 14 29 10 7 -4 9 -3 6 3 -7 12 40 36 54 28 14 -9 118
-26 189 -31 36 -2 72 -5 80 -7 8 -1 17 3 20 8 3 6 -8 11 -25 12 -67 6 -176 26
-181 35 -3 4 -15 6 -27 3 -12 -3 -39 3 -61 14 -21 11 -43 18 -47 15 -5 -3 -9
-1 -9 3 0 8 -69 44 -92 49 -5 1 -11 2 -15 3 -5 1 -1 6 7 11 11 7 11 10 2 10
-7 0 -11 4 -8 9 3 5 0 11 -7 14 -9 3 -12 16 -9 37 3 22 -1 35 -14 45 -11 7
-16 17 -12 21 4 4 2 14 -5 22 -10 13 -8 14 16 8 27 -6 39 8 15 17 -8 3 -7 6 4
6 9 1 20 -4 23 -9 10 -16 45 8 38 26 -5 13 -7 13 -14 2 -7 -10 -9 -9 -9 4 0 9
10 20 23 24 12 3 30 13 39 21 11 10 26 13 43 9 24 -6 35 7 15 19 -19 11 -10
23 20 27 37 6 48 -7 21 -24 -16 -9 -17 -16 -9 -31 7 -14 7 -17 -1 -13 -6 4
-16 4 -23 0 -8 -5 -5 -11 7 -20 13 -10 20 -30 22 -70 4 -68 29 -119 82 -167
56 -50 103 -68 189 -71 60 -3 80 1 120 21 59 30 110 79 141 136 30 55 24 79
-17 68 -26 -8 -28 -7 -24 15 3 16 12 24 31 26 29 3 32 19 19 105 -6 42 -6 43
20 36 15 -3 30 -11 34 -17 4 -6 8 -8 8 -4 0 12 88 -23 106 -43 9 -10 25 -19
36 -19 10 0 18 -4 18 -9 0 -5 12 -11 27 -13 35 -4 62 -51 43 -73 -13 -16 -7
-45 10 -45 6 0 15 12 20 26 9 22 15 25 37 21 15 -3 38 0 51 6 20 9 27 8 39 -8
10 -13 17 -16 20 -8 3 8 24 10 69 6 40 -3 69 -1 78 6 7 6 16 8 19 5 6 -7 56
46 57 60 0 4 -6 6 -14 3 -8 -3 -21 4 -30 18 -17 25 -99 67 -125 64 -9 -1 -29
3 -45 10 -16 6 -36 9 -44 6 -8 -3 -20 0 -28 5 -7 6 -27 12 -44 12 -21 1 -27 4
-18 10 20 13 -8 27 -44 21 -16 -2 -36 1 -44 7 -7 7 -21 10 -29 6 -9 -3 -27 1
-40 10 -16 10 -43 15 -83 13 -32 -1 -64 1 -70 5 -21 13 -210 20 -225 8 -8 -7
-18 -7 -27 -2 -15 10 -38 10 -95 3z"/>
<path d="M11530 7298 c-7 -24 -22 -52 -32 -64 -10 -11 -18 -25 -18 -31 0 -6
-23 -33 -50 -59 -62 -60 -78 -90 -74 -140 1 -22 3 -56 3 -76 1 -31 5 -38 20
-38 11 0 23 9 27 22 7 25 24 44 39 45 5 1 11 7 14 14 2 6 -1 9 -7 5 -6 -3 -4
7 4 24 9 17 20 28 25 25 5 -4 10 11 10 32 1 21 3 30 6 21 8 -30 18 -20 32 30
13 46 28 232 19 232 -3 0 -11 -19 -18 -42z"/>
<path d="M16881 15893 c-13 -71 -27 -144 -32 -164 -5 -20 -34 -157 -64 -305
-30 -148 -68 -334 -85 -414 -183 -861 -276 -1313 -364 -1755 -173 -871 -253
-1280 -251 -1283 2 -2 388 23 790 52 110 8 244 18 298 22 l97 6 0 1984 0 1984
-183 0 -182 0 -24 -127z"/>
<path d="M17086 9528 c-29 -44 -46 -98 -61 -190 -22 -133 -46 -231 -59 -244
-6 -6 -69 -30 -141 -53 -431 -141 -764 -346 -963 -595 -213 -265 -311 -523
-344 -899 -25 -288 32 -602 151 -832 45 -87 156 -203 224 -234 92 -42 219 -63
377 -63 146 0 196 6 370 43 169 36 423 140 573 234 55 36 57 38 57 81 l0 45
-57 -38 c-147 -95 -358 -188 -528 -233 -195 -51 -438 -66 -560 -35 -176 45
-326 168 -407 336 -137 281 -140 640 -8 1049 81 253 216 474 400 661 63 64
145 137 181 162 154 108 378 203 539 228 84 13 117 3 143 -40 9 -15 32 -45 51
-66 30 -32 43 -39 85 -43 60 -5 99 9 135 49 21 24 26 39 26 85 l0 55 -30 -21
c-16 -11 -52 -23 -79 -27 -47 -5 -50 -4 -65 25 -44 85 6 202 119 276 48 33 55
41 55 71 l0 33 -47 -15 c-27 -9 -60 -18 -75 -20 -27 -5 -28 -3 -28 35 0 22 7
59 15 82 8 23 15 60 15 81 0 35 -3 39 -25 39 -14 0 -31 -9 -39 -22z"/>
<path d="M12442 8576 c-18 -24 -32 -50 -32 -58 -1 -7 -7 -30 -14 -50 -8 -21
-10 -38 -5 -38 5 0 6 -6 3 -13 -3 -8 2 -34 11 -58 9 -24 19 -59 21 -78 3 -19
17 -46 34 -63 32 -31 55 -29 45 3 -4 11 -8 35 -10 53 -1 18 -8 43 -14 54 -6
12 -10 25 -9 29 1 4 -6 32 -15 62 -11 36 -14 59 -7 71 5 9 7 19 5 22 -3 3 2
26 11 52 9 26 14 49 12 52 -3 2 -19 -16 -36 -40z"/>
<path d="M16336 8304 c-50 -18 -75 -40 -92 -81 -21 -48 -10 -60 64 -73 74 -14
122 -5 180 30 27 17 31 23 22 39 -15 29 -12 61 5 61 8 0 15 6 15 14 0 28 -127
35 -194 10z"/>
<path d="M16056 8080 c-39 -12 -85 -57 -107 -105 -25 -54 -26 -146 -1 -168 29
-26 50 -21 57 14 8 36 38 37 43 1 4 -29 16 -28 38 6 33 47 45 85 51 153 8 99
-9 120 -81 99z"/>
<path d="M16303 8050 c-30 -12 -53 -71 -53 -135 0 -93 65 -145 123 -98 20 16
36 21 57 17 28 -6 28 -5 35 51 8 64 -5 123 -33 148 -22 20 -99 30 -129 17z"/>
<path d="M17160 7864 c-225 -77 -480 -219 -675 -379 -182 -147 -313 -298 -383
-440 -104 -209 -70 -351 103 -432 54 -25 70 -28 170 -28 96 0 120 4 193 29 45
16 82 33 82 37 0 3 -57 9 -127 11 -192 7 -290 50 -340 148 -30 57 -29 110 2
201 33 98 114 216 232 335 210 213 498 396 747 475 94 30 106 36 106 56 0 13
-1 23 -2 23 -2 0 -50 -16 -108 -36z"/>
</g>
</svg>
