<svg xmlns="http://www.w3.org/2000/svg" width="1920" height="8153.44" viewBox="0 0 1920 8153.44"><g transform="translate(-19646 -864.104)"><path d="M2337,1424.353s9.594-46.633,50.362-71.788,79.367,10.409,79.367,10.409,9.108-15.179,23.42-17.348,24.287,2.6,24.287,2.6,3.9-18.649,28.19-16.48,28.624,20.818,28.624,20.818,11.276-47.273,63.32-39.033,49.441,49.442,49.441,49.442,8.24-23.42,35.564-17.348S2743,1374.25,2743,1374.25s1.3-47.707,47.273-41.2,45.1,45.1,45.1,45.1,4.337-53.779,56.815-54.646,65.055,43.8,65.055,43.8-.867-38.166,29.058-40.768,39.033,13.878,39.033,13.878-7.373-27.323,14.312-33.395,32.094,19.516,32.094,19.516,39.033-50.743,81.1-19.516,23.42,71.56,23.42,71.56,6.072-33.395,45.1-30.792,45.539,28.624,45.539,28.624,2.168-26.456,29.925-26.456c.382.091,0,5.638,0,5.638v160.418L2337,1514.91Z" transform="translate(18269 -432.766)" fill="#9cf1eb" opacity="0.78"/><path d="M3297,1424.353s-9.594-46.633-50.362-71.788-79.367,10.409-79.367,10.409-9.108-15.179-23.42-17.348-24.287,2.6-24.287,2.6-3.9-18.649-28.19-16.48-28.624,20.818-28.624,20.818-11.276-47.273-63.32-39.033-49.441,49.442-49.441,49.442-8.24-23.42-35.564-17.348S2891,1374.25,2891,1374.25s-1.3-47.707-47.273-41.2-45.1,45.1-45.1,45.1-4.337-53.779-56.815-54.646-65.055,43.8-65.055,43.8.867-38.166-29.058-40.768-39.033,13.878-39.033,13.878,7.373-27.323-14.312-33.395-32.094,19.516-32.094,19.516-39.033-50.743-81.1-19.516-23.42,71.56-23.42,71.56-6.072-33.395-45.1-30.792-45.539,28.624-45.539,28.624-2.168-26.456-29.925-26.456c-.382.091,0,5.638,0,5.638v153.526H3297Z" transform="translate(17309 -426.87)" fill="#9cf1eb" opacity="0.78"/><rect width="1920" height="7935.545" transform="translate(19646 1082)" fill="#9cf1eb" opacity="0.78"/></g></svg>