<svg xmlns="http://www.w3.org/2000/svg" width="1920" height="8095.443" viewBox="0 0 1920 8095.443"><g transform="translate(-21824 -660.08)"><path d="M2337,1408v-89.923a83.606,83.606,0,0,1,15.081,19.929c5.957,11.423,8.749,25.762,8.749,25.762s22.359-10.451,36.455-5.833,19.929,24.3,19.929,24.3,21.873-32.081,52.5-21.873,37.427,39.858,37.427,39.858,20.415-36.455,64.647-34.025,54.44,41.8,54.44,41.8,8.073-25.61,39.372-25.762,34.025,17.984,34.025,17.984-3.739-26.888,21.873-27.706,26.248,27.706,26.248,27.706,20.9-34.511,65.62-21.387,43.746,62.7,43.746,62.7,6.319-42.774,46.177-41.316,45.691,26.248,45.691,26.248,10.208-23.817,27.706-23.817a54.329,54.329,0,0,1,29.164,8.263s10.208-40.344,51.037-44.232,57.356,30.136,57.356,30.136,10.694-20.9,35.483-19.443,26.734,12.152,26.734,12.152,16.04-9.235,29.164,0,15.554,18.957,15.554,18.957,13.124-27.22,37.427-31.109,38.4,6.319,38.4,6.319v94.4H2337Z" transform="translate(19487 -658.001)" fill="#9cf1eb"/><path d="M3297,1408v-89.923a83.606,83.606,0,0,0-15.081,19.929c-5.957,11.423-8.749,25.762-8.749,25.762s-22.359-10.451-36.455-5.833-19.929,24.3-19.929,24.3-21.873-32.081-52.5-21.873-37.427,39.858-37.427,39.858-20.415-36.455-64.647-34.025-54.44,41.8-54.44,41.8-8.073-25.61-39.372-25.762-34.025,17.984-34.025,17.984,3.739-26.888-21.873-27.706-26.248,27.706-26.248,27.706-20.9-34.511-65.62-21.387-43.746,62.7-43.746,62.7-6.319-42.774-46.177-41.316-45.691,26.248-45.691,26.248-10.208-23.817-27.706-23.817a54.329,54.329,0,0,0-29.164,8.263s-10.208-40.344-51.037-44.232-57.356,30.136-57.356,30.136-10.694-20.9-35.483-19.443-26.734,12.152-26.734,12.152-16.04-9.235-29.164,0-15.554,18.957-15.554,18.957-21.232-40.8-77.225-40.8-74.551,40.8-74.551,40.8L2337,1478.1h960Z" transform="translate(20447 -658.001)" fill="#9cf1eb"/><rect width="1920" height="7935.545" transform="translate(21824 819.978)" fill="#9cf1eb"/></g></svg>