<svg xmlns="http://www.w3.org/2000/svg" width="1920" height="8124.523" viewBox="0 0 1920 8124.523"><g transform="translate(-17376 -820)"><g transform="translate(17376 820)"><path d="M2368.321,1316.273h0s25.755-68.931,96.958-74.234,96.2,33.329,96.2,33.329,5.3-25.755,30.3-21.21,15.907,34.087,15.907,34.087,12.12-21.21,43.934-12.877,25,40.9,25,40.9,6.817-44.692,62.114-46.207,61.357,59.841,61.357,59.841-1.515-45.449,43.177-46.964,47.722,36.359,47.722,36.359-3.03-16.665,22.725-26.512,34.844,8.333,34.844,8.333,16.665-44.692,57.569-40.147,55.3,44.692,55.3,44.692,20.452-28.784,59.841-22.724,44.692,36.359,44.692,36.359,11.362-34.844,46.964-31.057,52.267,41.662,52.267,41.662,6.438-24.24,14.392-46.964S3297,1239.009,3297,1239.009v195.013H2337Z" transform="translate(-1377 -1239.009)" fill="#9cf1eb" opacity="0.54"/><path d="M3328.423,1316.273s-8.326-31.144-33.862-27.259-28.883,27.259-28.883,27.259-25.755-68.931-96.958-74.234-96.2,33.329-96.2,33.329-5.3-25.755-30.3-21.21-15.907,34.087-15.907,34.087-12.12-21.21-43.934-12.877-25,40.9-25,40.9-6.817-44.692-62.114-46.207-61.357,59.841-61.357,59.841,1.515-45.449-43.177-46.964-47.722,36.359-47.722,36.359,3.03-16.665-22.725-26.512-34.844,8.333-34.844,8.333-16.665-44.692-57.569-40.147-55.3,44.692-55.3,44.692-20.452-28.784-59.841-22.724-44.692,36.359-44.692,36.359-11.362-34.844-46.964-31.057-52.267,41.662-52.267,41.662-6.438-24.24-14.392-46.964S2337,1239.009,2337,1239.009v195.013h960Z" transform="translate(-2337 -1239.009)" fill="#9cf1eb" opacity="0.54"/></g><path d="M2337,1424.353s9.594-46.633,50.362-71.788,79.367,10.409,79.367,10.409,9.108-15.179,23.42-17.348,24.287,2.6,24.287,2.6,3.9-18.649,28.19-16.48,28.624,20.818,28.624,20.818,11.276-47.273,63.32-39.033,49.441,49.442,49.441,49.442,8.24-23.42,35.564-17.348S2743,1374.25,2743,1374.25s1.3-47.707,47.273-41.2,45.1,45.1,45.1,45.1,4.337-53.779,56.815-54.646,65.055,43.8,65.055,43.8-.867-38.166,29.058-40.768,39.033,13.878,39.033,13.878-7.373-27.323,14.312-33.395,32.094,19.516,32.094,19.516,39.033-50.743,81.1-19.516,23.42,71.56,23.42,71.56,6.072-33.395,45.1-30.792,45.539,28.624,45.539,28.624,2.168-26.456,29.925-26.456c.382.091,0,5.638,0,5.638v153.526H2337Z" transform="translate(15999 -432.766)" fill="#9cf1eb" opacity="0.78"/><path d="M3297,1424.353s-9.594-46.633-50.362-71.788-79.367,10.409-79.367,10.409-9.108-15.179-23.42-17.348-24.287,2.6-24.287,2.6-3.9-18.649-28.19-16.48-28.624,20.818-28.624,20.818-11.276-47.273-63.32-39.033-49.441,49.442-49.441,49.442-8.24-23.42-35.564-17.348S2891,1374.25,2891,1374.25s-1.3-47.707-47.273-41.2-45.1,45.1-45.1,45.1-4.337-53.779-56.815-54.646-65.055,43.8-65.055,43.8.867-38.166-29.058-40.768-39.033,13.878-39.033,13.878,7.373-27.323-14.312-33.395-32.094,19.516-32.094,19.516-39.033-50.743-81.1-19.516-23.42,71.56-23.42,71.56-6.072-33.395-45.1-30.792-45.539,28.624-45.539,28.624-2.168-26.456-29.925-26.456c-.382.091,0,5.638,0,5.638v153.526H3297Z" transform="translate(15039 -426.766)" fill="#9cf1eb" opacity="0.78"/><g transform="translate(17376 889.08)"><path d="M2337,1408v-89.923a83.606,83.606,0,0,1,15.081,19.929c5.957,11.423,8.749,25.762,8.749,25.762s22.359-10.451,36.455-5.833,19.929,24.3,19.929,24.3,21.873-32.081,52.5-21.873,37.427,39.858,37.427,39.858,20.415-36.455,64.647-34.025,54.44,41.8,54.44,41.8,8.073-25.61,39.372-25.762,34.025,17.984,34.025,17.984-3.739-26.888,21.873-27.706,26.248,27.706,26.248,27.706,20.9-34.511,65.62-21.387,43.746,62.7,43.746,62.7,6.319-42.774,46.177-41.316,45.691,26.248,45.691,26.248,10.208-23.817,27.706-23.817a54.329,54.329,0,0,1,29.164,8.263s10.208-40.344,51.037-44.232,57.356,30.136,57.356,30.136,10.694-20.9,35.483-19.443,26.734,12.152,26.734,12.152,16.04-9.235,29.164,0,15.554,18.957,15.554,18.957,13.124-27.22,37.427-31.109,38.4,6.319,38.4,6.319v94.4H2337Z" transform="translate(-2337 -1318.081)" fill="#9cf1eb"/><path d="M3297,1408v-89.923a83.606,83.606,0,0,0-15.081,19.929c-5.957,11.423-8.749,25.762-8.749,25.762s-22.359-10.451-36.455-5.833-19.929,24.3-19.929,24.3-21.873-32.081-52.5-21.873-37.427,39.858-37.427,39.858-20.415-36.455-64.647-34.025-54.44,41.8-54.44,41.8-8.073-25.61-39.372-25.762-34.025,17.984-34.025,17.984,3.739-26.888-21.873-27.706-26.248,27.706-26.248,27.706-20.9-34.511-65.62-21.387-43.746,62.7-43.746,62.7-6.319-42.774-46.177-41.316-45.691,26.248-45.691,26.248-10.208-23.817-27.706-23.817a54.329,54.329,0,0,0-29.164,8.263s-10.208-40.344-51.037-44.232-57.356,30.136-57.356,30.136-10.694-20.9-35.483-19.443-26.734,12.152-26.734,12.152-16.04-9.235-29.164,0-15.554,18.957-15.554,18.957-21.232-40.8-77.225-40.8-74.551,40.8-74.551,40.8L2337,1478.1h960Z" transform="translate(-1377 -1318.081)" fill="#9cf1eb"/></g><rect width="1920" height="7935.545" transform="translate(17376 1008.978)" fill="#9cf1eb"/></g></svg>