<svg xmlns="http://www.w3.org/2000/svg" width="1920" height="8130.523" viewBox="0 0 1920 8130.523"><g transform="translate(-21566 -918)"><path d="M2368.321,1316.273h0s25.755-68.931,96.958-74.234,96.2,33.329,96.2,33.329,5.3-25.755,30.3-21.21,15.907,34.087,15.907,34.087,12.12-21.21,43.934-12.877,25,40.9,25,40.9,6.817-44.692,62.114-46.207,61.357,59.841,61.357,59.841-1.515-45.449,43.177-46.964,47.722,36.359,47.722,36.359-3.03-16.665,22.725-26.512,34.844,8.333,34.844,8.333,16.665-44.692,57.569-40.147,55.3,44.692,55.3,44.692,20.452-28.784,59.841-22.724,44.692,36.359,44.692,36.359,11.362-34.844,46.964-31.057,52.267,41.662,52.267,41.662,6.438-24.24,14.392-46.964S3297,1239.009,3297,1239.009v195.013H2337Z" transform="translate(20189 -321.009)" fill="#9cf1eb" opacity="0.54"/><path d="M3328.423,1316.273s-8.326-31.144-33.862-27.259-28.883,27.259-28.883,27.259-25.755-68.931-96.958-74.234-96.2,33.329-96.2,33.329-5.3-25.755-30.3-21.21-15.907,34.087-15.907,34.087-12.12-21.21-43.934-12.877-25,40.9-25,40.9-6.817-44.692-62.114-46.207-61.357,59.841-61.357,59.841,1.515-45.449-43.177-46.964-47.722,36.359-47.722,36.359,3.03-16.665-22.725-26.512-34.844,8.333-34.844,8.333-16.665-44.692-57.569-40.147-55.3,44.692-55.3,44.692-20.452-28.784-59.841-22.724-44.692,36.359-44.692,36.359-11.362-34.844-46.964-31.057-52.267,41.662-52.267,41.662-6.438-24.24-14.392-46.964S2337,1239.009,2337,1239.009v195.013h960Z" transform="translate(19229 -321.009)" fill="#9cf1eb" opacity="0.54"/><rect width="1920" height="7935.545" transform="translate(21566 1112.978)" fill="#9cf1eb" opacity="0.54"/></g></svg>