<svg xmlns="http://www.w3.org/2000/svg" width="1920" height="8445.579" viewBox="0 0 1920 8445.579"><g transform="translate(-22740 -20.421)"><path d="M2645,3517.811v-96.236l6.233-8.02,15.917,2.736,12.741-10.424,33.2,23.165h22.778l13.9,13.513,8.107-5.019,7.722,5.019h37.449l43.178-20.97,17.621,15.951,44.426-52.145h19.5l17.337-9.752,83.434,45.946,26.006-5.284,71.514,41.688,30.34-10.835,18.42,17.336,26.006-17.336h21.671l26.005-25.569,23.838,10.4,26.005,20.587,22.755-5.417,28.172,17.336,63.929-42.906h16.254l31.423-28.609,17.337,9.752,10.835,18.857,23.838-5.284,20.588,24.352,26.006-24.352,18.42-4.9,19.5-18.421,7.61,5.785v153.337L2645,3552.05Z" transform="translate(20094.998 -3332.208)" fill="#101a41" opacity="0.78"/><path d="M2645,3517.811v-96.236l6.233-8.02,15.917,2.736,12.741-10.424,33.2,23.165h22.778l13.9,13.513,8.107-5.019,7.722,5.019h37.449l43.178-20.97,17.621,15.951,44.426-52.145h19.5l17.337-9.752,83.434,45.946,26.006-5.284,71.514,41.688,30.34-10.835,18.42,17.336,26.006-17.336h21.671l26.005-25.569,23.838,10.4,26.005,20.587,22.755-5.417,28.172,17.336,63.929-42.906h16.254l31.423-28.609,17.337,9.752,10.835,18.857,23.838-5.284,20.588,24.352,26.006-24.352,18.42-4.9,19.5-18.421,7.584,5.418V3575H2645Z" transform="translate(21054.998 -3355.208)" fill="#101a41" opacity="0.78"/><rect width="1920" height="8246.346" transform="translate(22740 219.655)" fill="#101a41" opacity="0.78"/></g></svg>