<svg xmlns="http://www.w3.org/2000/svg" width="1920" height="8431" viewBox="0 0 1920 8431"><g transform="translate(-20597 -64)"><path d="M2644,3538.59V3433.466l59.966-27.825,44.327,33.034,34.013-8.647,36.894-34.012,51.883,10.377,54.188-20.177,67.447-32.282,36.187,39.813c-.048-.28,27.866,2.627,27.866,2.627l36.055,41.289,29.077,11.049,93.483-32.183,19.3,16.549,24.892,4.585L3295,3457.969l99.564-41.439h26.806L3497,3377.552l18.189,7.659h13.4L3604,3457.969l-.125,80.642Z" transform="translate(17953 -3289.934)" fill="#101a41" opacity="0.54"/><path d="M2643.875,3511.611l.125-78.145,59.966-27.825,44.327,33.034,34.013-8.647,36.894-34.012,51.883,10.377,54.188-20.177,67.447-32.282,36.187,39.813c-.048-.28,27.866,2.627,27.866,2.627l36.055,41.289,29.077,11.049,93.483-32.183,19.3,16.549,24.892,4.585L3295,3457.969l99.564-41.439h26.806L3497,3377.552l18.189,7.659h13.4L3604,3457.969v53.948Z" transform="translate(18913 -3262.934)" fill="#101a41" opacity="0.54"/><rect width="1920" height="8246.346" transform="translate(20597 248.655)" fill="#101a41" opacity="0.54"/></g></svg>