<svg xmlns="http://www.w3.org/2000/svg" width="1920" height="8382.658" viewBox="0 0 1920 8382.658"><g transform="translate(-18312 -64.342)"><g transform="translate(18312 64.342)"><path d="M2645,3435.354l12.7-6.331,28.137,16.882,15.476,16.882,24.62-11.255,21.806-22.509,30.951-9.848L2815.272,3403l18.289,20.4h16.179l30.248,33.766h15.475l25.324-28.138,12.662-5.628,3.517,17.586,11.255,10.551L2984.1,3423.4l11.958-4.22L3008.716,3403h14.772l3.517,16.179,11.959,4.22,4.924,17.586,18.993,10.551,11.254,11.255,25.324,4.924,30.248-10.551,14.069,10.551,25.323-10.551,9.144,5.627,23.214-16.882,9.848,5.627,11.959,11.255,27.185-5.627,18.827,10.551,31.38-4.924,16.038-16.882,20.222-4.924,3.486-11.958,13.947-9.848,9.065-12.346,14.643-3.833,15.208,16.179,16.843,4.22,43.31,28.137,24.863-28.137,11.229,5.628,20.052,28.138H3525.6l34.487,10.551,22.457-4.924,22.458,4.924v72.235H2645Z" transform="translate(-2645.002 -3402.996)" fill="#101a41"/><path d="M3605,3435.354l-12.7-6.331-28.137,16.882-15.476,16.882-24.62-11.255-21.806-22.509-30.951-9.848L3434.731,3403l-18.289,20.4h-16.179l-30.248,33.766H3354.54l-25.324-28.138-12.662-5.628-3.517,17.586-11.255,10.551-35.875-28.137-11.958-4.22L3241.287,3403h-14.772L3223,3419.175l-11.959,4.22-4.924,17.586-18.993,10.551-11.254,11.255-25.324,4.924-30.248-10.551-14.069,10.551-25.323-10.551-9.144,5.627-23.214-16.882-9.848,5.627-11.959,11.255-27.185-5.627-18.827,10.551-31.38-4.924-16.038-16.882-20.222-4.924-3.486-11.958-13.947-9.848-9.065-12.346L2871.948,3403l-15.208,16.179-16.843,4.22-43.31,28.137-24.863-28.137-11.229,5.628-20.052,28.138H2724.4l-34.487,10.551-22.457-4.924L2645,3467.712v72.235h960Z" transform="translate(-1685.001 -3402.996)" fill="#101a41"/></g><rect width="1920" height="8246.346" transform="translate(18312 200.655)" fill="#101a41"/></g></svg>