<svg xmlns="http://www.w3.org/2000/svg" width="1921" height="8581.211" viewBox="0 0 1921 8581.211"><g transform="translate(-22536 -71.631)"><g transform="translate(22537 -5686.159)"><path d="M973,668.037c-72.671-28.937-129.227-32.585-166.271-30.964-74.85,3.243-93.043,28.937-162.471,25.795-72.468-3.243-84.985-32.687-148.433-29.241-55.289,3.041-58.583,26.1-114.125,27.518-57.569,1.47-70.34-22.906-127.3-20.068-52.7,2.635-55.593,24.173-100.037,22.349-45.255-1.875-63.194-25.187-115.544-24.072A187.933,187.933,0,0,0,0,644.523V922.791l973-2.849Z" transform="translate(0 5125.178)" fill="#101a41"/><path d="M973,668.037c-72.671-28.937-129.227-32.585-166.271-30.964-74.85,3.243-93.043,28.937-162.471,25.795-72.468-3.243-84.985-32.687-148.433-29.241-55.289,3.041-58.583,26.1-114.125,27.518-57.569,1.47-70.34-22.906-127.3-20.068-52.7,2.635-55.593,24.173-100.037,22.349-45.255-1.875-15.493-2.547-115.544-24.072s-194.238-4.409-203.309-2.28L0,913.7H973Z" transform="translate(947 5129.178)" fill="#101a41"/></g><rect width="1920" height="8296" transform="translate(22536 356.841)" fill="#101a41"/></g></svg>