<svg xmlns="http://www.w3.org/2000/svg" width="1920" height="8652.842" viewBox="0 0 1920 8652.842"><g transform="translate(-18321 -53)"><path d="M0,481.9c29.849,16.065,71,32.839,116.507,28.329,45.255-4.46,52.653-25.947,96.438-29.139,61.066-4.46,77.029,34.967,140.933,34.055,57.721-.811,61.978-33.244,123.044-36.234,64.36-3.142,76.776,32.079,144.835,30.508,61.775-1.368,65.83-30.71,124.97-29.849,59.292.862,77.807,22.726,137.977,41.24,46.946,13.224,136.871,28.432,193.736-10.682L972.949,835.877H0Z" transform="translate(18321 -425.708)" fill="#101a41" opacity="0.54"/><path d="M131.346,510.272c37.689-22.48,46.378-31.123,81.6-29.186s77.029,34.967,140.933,34.055c57.721-.811,61.978-33.244,123.044-36.234,64.36-3.142,76.776,32.079,144.835,30.508,61.775-1.368,65.83-30.71,124.97-29.849,59.292.862,76.32,30.66,136.423,30.558,39.123-.1,70.34-12.821,89.8-22.7V835.877L25.818,835.5Z" transform="translate(19268 -425.708)" fill="#101a41" opacity="0.54"/><rect width="1920" height="8296" transform="translate(18321 409.841)" fill="#101a41" opacity="0.54"/></g></svg>