<svg xmlns="http://www.w3.org/2000/svg" width="1920.035" height="8420.842" viewBox="0 0 1920.035 8420.842"><g transform="translate(-16351 0)"><g transform="translate(16351 -5141.159)"><path d="M0,481.9c29.849,16.065,71,32.839,116.507,28.329,45.255-4.46,52.653-25.947,96.438-29.139,61.066-4.46,77.029,34.967,140.933,34.055,57.721-.811,61.978-33.244,123.044-36.234,64.36-3.142,76.776,32.079,144.835,30.508,61.775-1.368,65.83-30.71,124.97-29.849,59.292.862,77.807,22.726,137.977,41.24,46.946,13.224,136.871,28.432,193.736-10.682L972.949,835.877H0Z" transform="translate(0 4662.45)" fill="#101a41" opacity="0.54"/><path d="M131.346,510.272c37.689-22.48,46.378-31.123,81.6-29.186s77.029,34.967,140.933,34.055c57.721-.811,61.978-33.244,123.044-36.234,64.36-3.142,76.776,32.079,144.835,30.508,61.775-1.368,65.83-30.71,124.97-29.849,59.292.862,76.32,30.66,136.423,30.558,39.123-.1,70.34-12.821,89.8-22.7V835.877l-946.642-.994Z" transform="translate(947 4662.45)" fill="#101a41" opacity="0.54"/></g><g transform="translate(16352 18.352)"><path d="M1022.7,578.272c-23.007-12.619-58.887-28.075-101.962-27.163-45.153.963-56.049,18.5-109.006,22.5-55.593,4.206-62.84-13.885-121.169-12.112-67.1,2.078-70.289,26.3-126.237,26.149-69.022-.2-78.7-37.2-146.558-37.552-62.637-.3-69.326,31.166-131.3,29.7-61.421-1.47-77.333-32.94-137.234-33.295C105.847,546.244,85.9,580.4,2,546.5L50.659,869.311l972.037,7.741Z" transform="translate(896.341 -538.494)" fill="#101a41" opacity="0.78"/><path d="M924.008,554.342c-1.928-1.044-13.274-4.143-28.26-3.234-45.153.963-56.049,18.5-109.006,22.5-55.593,4.206-62.84-13.886-121.169-12.112-67.1,2.078-70.289,26.3-126.237,26.149-69.022-.2-78.7-37.2-146.558-37.552-62.637-.3-69.326,31.166-131.3,29.7-61.421-1.47-77.333-32.94-137.234-33.295-43.38-.253-77.789,16.014-98.567,28.329V869.311l948.364,14.727Z" transform="translate(-25.673 -546.494)" fill="#101a41" opacity="0.78"/></g><g transform="translate(16351 -5713.159)"><path d="M973,668.037c-72.671-28.937-129.227-32.585-166.271-30.964-74.85,3.243-93.043,28.937-162.471,25.795-72.468-3.243-84.985-32.687-148.433-29.241-55.289,3.041-58.583,26.1-114.125,27.518-57.569,1.47-70.34-22.906-127.3-20.068-52.7,2.635-55.593,24.173-100.037,22.349-45.255-1.875-63.194-25.187-115.544-24.072A187.933,187.933,0,0,0,0,644.523V913.7H973Z" transform="translate(0 5125.178)" fill="#101a41"/><path d="M973,668.037c-72.671-28.937-129.227-32.585-166.271-30.964-74.85,3.243-93.043,28.937-162.471,25.795-72.468-3.243-84.985-32.687-148.433-29.241-55.289,3.041-58.583,26.1-114.125,27.518-57.569,1.47-70.34-22.906-127.3-20.068-52.7,2.635-55.593,24.173-100.037,22.349-45.255-1.875-15.493-2.547-115.544-24.072s-194.238-4.409-203.309-2.28L0,913.7H973Z" transform="translate(947 5129.178)" fill="#101a41"/></g><rect width="1920" height="8296" transform="translate(16351 124.841)" fill="#101a41"/></g></svg>