<svg xmlns="http://www.w3.org/2000/svg" width="1920" height="8634.49" viewBox="0 0 1920 8634.49"><g transform="translate(-20374 -63.352)"><g transform="translate(20374 63.352)"><path d="M1022.7,578.272c-23.007-12.619-58.887-28.075-101.962-27.163-45.153.963-56.049,18.5-109.006,22.5-55.593,4.206-62.84-13.885-121.169-12.112-67.1,2.078-70.289,26.3-126.237,26.149-69.022-.2-78.7-37.2-146.558-37.552-62.637-.3-69.326,31.166-131.3,29.7-61.421-1.47-77.333-32.94-137.234-33.295C105.847,546.244,85.9,580.4,2,546.5L52.429,876.968l971.205.033Z" transform="translate(896.341 -538.494)" fill="#101a41" opacity="0.78"/><path d="M924.008,554.342c-1.928-1.044-13.274-4.143-28.26-3.234-45.153.963-56.049,18.5-109.006,22.5-55.593,4.206-62.84-13.886-121.169-12.112-67.1,2.078-70.289,26.3-126.237,26.149-69.022-.2-78.7-37.2-146.558-37.552-62.637-.3-69.326,31.166-131.3,29.7-61.421-1.47-77.333-32.94-137.234-33.295-43.38-.253-77.789,16.014-98.567,28.329l.016,310.161,949.008.237Z" transform="translate(-25.673 -546.494)" fill="#101a41" opacity="0.78"/></g><rect width="1920" height="8296" transform="translate(20374 401.841)" fill="#101a41" opacity="0.78"/></g></svg>