<svg xmlns="http://www.w3.org/2000/svg" width="144" height="144" viewBox="0 0 144 144"><defs><style>.a{fill:none;}.b{fill:#132d46;}</style></defs><g transform="translate(0)"><rect class="a" width="144" height="144"/><g transform="translate(15.47 14.024)"><g transform="translate(0 0)"><path class="b" d="M44.884,146.019v14.926a2.176,2.176,0,0,0,4.352,0V147.383l-6.893-7.276a6.426,6.426,0,0,1-1.588-5.939l1.659-6.913H40.474l1.454-2.206a4.457,4.457,0,0,0,.968.32,6.4,6.4,0,0,1,5.415-4.33c.212-.022.426-.037.644-.038v-7.121a2.176,2.176,0,0,0-4.351,0v2.626a4.3,4.3,0,0,0-1.607,0v-6.2a2.176,2.176,0,0,0-4.352,0v11.814l-1.054,1.6-1.054-1.6V110.311a2.176,2.176,0,1,0-4.351,0v6.2a4.565,4.565,0,0,0-.806-.076,4.493,4.493,0,0,0-1.578.289V106.6a2.176,2.176,0,0,0-4.352,0v11.814l-1.336,2.027V110.311a2.176,2.176,0,0,0-4.351,0v2.7a4.515,4.515,0,1,0,0,8.451v1.315a2.173,2.173,0,0,0,.146.769H14.3l-3.381-5.13V106.6a2.176,2.176,0,0,0-4.351,0v12.467a2.175,2.175,0,0,0,.359,1.2l5.868,8.9v9.512a2.2,2.2,0,0,0-.043.431v18.124a2.176,2.176,0,0,0,4.352,0V142.31h2.163v14.926a2.176,2.176,0,0,0,4.352,0V139.112a2.2,2.2,0,0,0-.043-.431v-9.467l2.415,3.663v9.512a2.2,2.2,0,0,0-.043.431v18.124a2.176,2.176,0,0,0,4.352,0V146.019h2.163v14.926a2.176,2.176,0,0,0,4.351,0V142.82a2.218,2.218,0,0,0-.043-.431v-9.512l.821-1.247.821,1.247v9.512a2.2,2.2,0,0,0-.043.431v18.124a2.176,2.176,0,0,0,4.352,0V146.019h2.161ZM31.379,127.255H27.494l-1.329-2.017,1.324-2.009a4.5,4.5,0,0,0,5.763,1.82l1.454,2.206H31.379Z" transform="translate(-6.568 -82.08)"/><path class="b" d="M229.723,137.947a10.781,10.781,0,0,1,.726-1.032,10.773,10.773,0,0,1,4.352-3.263v-3.489a2.165,2.165,0,0,0-3.575-1.653v-3.547a2.176,2.176,0,0,0-4.352,0V136a6.45,6.45,0,0,1,2.848,1.949Z" transform="translate(-180.977 -97.17)"/><path class="b" d="M227.184,326.995l-1.7-1.795v12.993l1.7-2.078Z" transform="translate(-179.956 -257.4)"/><path class="b" d="M422.508,112.5a2.176,2.176,0,0,0-2.176,2.176v11.814l-3.381,5.13h-5.608a2.175,2.175,0,0,0,.146-.769v-1.315a4.515,4.515,0,1,0,0-8.451v-2.7a2.176,2.176,0,0,0-4.352,0v10.133l-1.337-2.027V114.674a2.176,2.176,0,0,0-4.352,0v10.117a4.4,4.4,0,0,0-2.384-.213v-6.2a2.176,2.176,0,1,0-4.351,0V130.2l-1.054,1.6-.166-.251v8.409l.166-.251.821,1.247v9.512a2.219,2.219,0,0,0-.043.431v18.124a2.176,2.176,0,0,0,4.352,0V154.091h2.163v14.925a2.176,2.176,0,0,0,4.352,0V150.892a2.19,2.19,0,0,0-.043-.431v-9.512l2.415-3.663v9.467a2.219,2.219,0,0,0-.043.431v18.124a2.176,2.176,0,0,0,4.352,0V150.383h2.163v14.926a2.176,2.176,0,0,0,4.352,0V147.184a2.185,2.185,0,0,0-.043-.431v-9.512l5.868-8.9a2.175,2.175,0,0,0,.359-1.2V114.674A2.175,2.175,0,0,0,422.508,112.5Zm-18.751,22.829h-7.211L398,133.121a4.5,4.5,0,0,0,5.763-1.82l1.324,2.009Z" transform="translate(-312.134 -88.424)"/><path class="b" d="M354.885,263.3a6.392,6.392,0,0,1-.408.729L345.933,277v13.487a6.469,6.469,0,0,1,.067.925v.1a2.132,2.132,0,0,0,.237.024,2.176,2.176,0,0,0,2.176-2.176V274.437h2.163v14.926a2.176,2.176,0,0,0,4.352,0V271.238a2.187,2.187,0,0,0-.043-.431v-7.5Z" transform="translate(-275.209 -208.1)"/><path class="b" d="M296.28,133.035a2.176,2.176,0,0,0-4.352,0v.285a2.165,2.165,0,0,0-3.575,1.653V139.3a10.744,10.744,0,0,1,3.575.743c.264.1.522.222.776.346a10.888,10.888,0,0,1,3.575,2.8V133.035Z" transform="translate(-229.647 -103.582)"/><path class="b" d="M67.4,28.56a5.461,5.461,0,0,0,.283-5.973c-1.161-2.027-6.234-5.887-3.432-8.133,1.555-1.247-.647-3.419-2.186-2.186-1.825,1.462-2,3.707-1.363,5.833.846,2.833,6.4,5.78,4.03,8.9C63.52,28.585,66.206,30.122,67.4,28.56Z" transform="translate(-49.498 -9.498)"/><path class="b" d="M465.181,17.007c1.983-.2,1.316-3.221-.646-3.022-2.327.236-3.693,2.025-4.315,4.155-.83,2.838,2.233,8.334-1.455,9.659-1.877.674-.458,3.424,1.391,2.76a5.462,5.462,0,0,0,3.485-4.859C463.767,23.367,461.608,17.369,465.181,17.007Z" transform="translate(-363.515 -11.153)"/><path class="b" d="M179.638,46.987a5.462,5.462,0,0,0,3.951,4.489c1.906.477,3.045-2.4,1.111-2.885-3.8-.952-1.3-6.725-2.408-9.467-.831-2.058-2.368-3.7-4.707-3.705-1.972,0-2.336,3.069-.342,3.071C180.831,38.5,179.279,44.68,179.638,46.987Z" transform="translate(-140.614 -28.266)"/><path class="b" d="M347.067,12.282c.909-2.025,1.031-4.273-.587-5.962-1.363-1.425-3.832.44-2.453,1.88,2.483,2.594-3.053,5.756-4.469,7.612a5.46,5.46,0,0,0-.5,5.959c.976,1.705,3.84.535,2.85-1.2C339.96,17.173,345.857,14.98,347.067,12.282Z" transform="translate(-269.234 -4.637)"/><path class="b" d="M219.516,10.884a5.46,5.46,0,0,0,4.9,3.425c1.965.012,2.39-3.053.4-3.066-3.919-.025-2.856-6.226-4.582-8.627-1.3-1.8-3.178-3.036-5.451-2.485-1.917.465-1.543,3.535.394,3.065C218.665,2.352,218.621,8.727,219.516,10.884Z" transform="translate(-170.34 0)"/><path class="b" d="M126.861,78.637c2.79,0,2.79-4.327,0-4.327S124.071,78.637,126.861,78.637Z" transform="translate(-100.17 -59.3)"/><path class="b" d="M24.351,48.037c2.79,0,2.79-4.327,0-4.327S21.561,48.037,24.351,48.037Z" transform="translate(-19.089 -34.881)"/><path class="b" d="M311.991,16.17c-2.79,0-2.79,4.327,0,4.327S314.781,16.17,311.991,16.17Z" transform="translate(-246.773 -12.904)"/><path class="b" d="M292.1,75.577c2.79,0,2.79-4.327,0-4.327S289.311,75.577,292.1,75.577Z" transform="translate(-231.021 -56.858)"/><path class="b" d="M409.911,43.448c2.79,0,2.79-4.327,0-4.327S407.121,43.448,409.911,43.448Z" transform="translate(-324.314 -31.219)"/><path class="b" d="M532.311,62.07c-2.79,0-2.79,4.327,0,4.327S535.1,62.07,532.311,62.07Z" transform="translate(-421.242 -49.533)"/><path class="b" d="M219.816,156.246l7.835-11.888a3.353,3.353,0,0,0,.554-1.847V118.826c0-.082-.006-.163-.012-.244a3.355,3.355,0,0,0-6.7.244V141.5l-1.632,2.475-3.584,5.44H202.9l-5.61-5.923,1.113-4.635.436-1.818c0-.006,0-.013,0-.019.02-.089.037-.177.049-.265,0-.044.012-.086.017-.13a3.318,3.318,0,0,0-.067-1.128A3.35,3.35,0,0,0,196.353,133l-.064-.012a3.356,3.356,0,0,0-.724-.083c-.013,0-.025,0-.038,0a3.356,3.356,0,0,0-3.221,2.571l-.142.59-.219.912-1.613,6.722a3.358,3.358,0,0,0,.827,3.093l4.649,4.908,1.595,1.684,4.747,5.012V169.85l-.439.536-3.684,4.5L191,183.48a3.358,3.358,0,0,0,.321,4.593l8.553,7.9a3.357,3.357,0,0,0,4.553-4.934l-6.229-5.75,5.659-6.915h8.1V201.4a3.357,3.357,0,0,0,6.714,0V173.435a3.368,3.368,0,0,0-.067-.666V158.1Z" transform="translate(-151.488 -88.94)"/><path class="b" d="M248.3,197.405a7.732,7.732,0,0,0,14.454,1.631,7.661,7.661,0,0,0,.658-1.9,7.725,7.725,0,0,0-7.2-9.257c-.13-.007-.26-.02-.392-.02a7.763,7.763,0,0,0-7.7,6.9c0,.044-.005.088-.012.132q-.029.312-.032.632c0,.026,0,.051,0,.078,0,.25.014.5.038.741A7.653,7.653,0,0,0,248.3,197.405Z" transform="translate(-197.645 -148.662)"/></g></g></g></svg>