<svg xmlns="http://www.w3.org/2000/svg" width="87.571" height="170.294" viewBox="0 0 87.571 170.294"><defs><style>.a,.b,.c,.d,.f{fill:#70def1;}.a,.b,.c,.d,.e{stroke:#1e2954;}.a,.f{stroke-linejoin:bevel;}.a,.c,.e,.f,.g{stroke-width:4px;}.b{stroke-linejoin:round;}.b,.d{stroke-width:3px;}.e,.g,.i{fill:none;}.e{stroke-linecap:round;}.f,.g{stroke:#70def1;}.g{stroke-linecap:square;}.h{stroke:none;}</style></defs><g transform="translate(2 1.5)"><path class="a" d="M-760.826,4137.92h55.292l6.753-78.928h-68.8Z" transform="translate(775.177 -3971.127)"/><path class="b" d="M-762.013,3810.1v-38.9s-.849-17.727,18.566-18.149,18.571,18.149,18.571,18.149v14.773h-5.487v2.955h-5.487s2.532,5.486,5.487,5.486,0,3.8,0,3.8h-16.883V3810.1Z" transform="translate(771.304 -3753.05)"/><g class="c" transform="translate(5.041 59.936)"><rect class="h" width="36.728" height="22.765"/><rect class="i" x="2" y="2" width="32.728" height="18.765"/></g><path class="a" d="M-787,3919.938v10.974h38.817Z" transform="translate(789.31 -3869.205)"/><g class="d" transform="translate(1.703 56.901)"><rect class="h" width="15.177" height="30.353" rx="7.588"/><rect class="i" x="1.5" y="1.5" width="12.177" height="27.353" rx="6.088"/></g><path class="a" d="M-792.609,3989.612v12.24h83.571v-24.9Z" transform="translate(792.609 -3910.655)"/><path class="e" d="M-670.241,3818.428s4.643,4.643,8.864,0" transform="translate(707.384 -3798.583)"/><g class="f" transform="translate(46.929 36.564)"><circle class="h" cx="7.285" cy="7.285" r="7.285"/><circle class="i" cx="7.285" cy="7.285" r="5.285"/></g><path class="g" d="M-593,3914.375s7.366,3.8,7.366,8.864v13.084" transform="translate(653.285 -3867.074)"/></g></svg>