<svg xmlns="http://www.w3.org/2000/svg" xmlns:xlink="http://www.w3.org/1999/xlink" width="267.732" height="184.632" viewBox="0 0 267.732 184.632"><defs><style>.a{fill:#70def1;}.b{fill:#ccdcf2;}.b,.c{opacity:0.34;}.d{fill:rgba(0,0,0,0.34);}.e{opacity:0.35;}.f,.g{opacity:0.17;}.g{fill:#010101;}.h{filter:url(#a);}</style><filter id="a" x="89.207" y="0" width="114.583" height="184.632" filterUnits="userSpaceOnUse"><feOffset dy="3" input="SourceAlpha"/><feGaussianBlur stdDeviation="6" result="b"/><feFlood flood-color="#01c38d"/><feComposite operator="in" in2="b"/><feComposite in="SourceGraphic"/></filter></defs><g transform="translate(0 15)"><g class="h" transform="matrix(1, 0, 0, 1, 0, -15)"><path class="a" d="M2284.017,3945l-19.646,49.02h19.646l-19.646,43.442h19.646l-19.646,56.17,65.578-78.306H2310.3l29.054-38.739h-16.049L2342.954,3945Z" transform="translate(-2157.16 -3930)"/></g><g transform="translate(0 32.211)"><g transform="translate(210.957)"><path class="a" d="M2505.12,4050.427l21.192,4.448-19.1,17.268,3.663,2.093-13.6,11.512,4.186,2.878-31.657,20.93,14.913-18.576-5.232-2.354,13.866-13.343-6.279-3.14Z" transform="translate(-2469.8 -4050.427)"/><path class="b" d="M2549.2,4059.887l18.053-4.448-21.192-4.448Z" transform="translate(-2510.743 -4050.73)"/><path class="c" d="M2542.091,4077.3h-7.326v-2.878L2543.4,4065l18.053-4.971Z" transform="translate(-2504.677 -4055.583)"/><path class="d" d="M2535.146,4102.6h-10.109s-2.478,4.459-4.955,5.748-4.856,5.451-4.856,5.451h6.64Z" transform="translate(-2494.188 -4078.434)"/><path class="e" d="M2501.72,4132.982h-10.505s-.5,2.478-5.352,6.74-15.361,14.073-15.361,14.073Z" transform="translate(-2470.177 -4094.748)"/><path class="f" d="M2507.094,4094.176l12.488-2.708-6.046,5.847Z" transform="translate(-2489.822 -4072.46)"/><path class="g" d="M2491.045,4130.914l10.505-1.784-5.352,4.063Z" transform="translate(-2481.206 -4092.68)"/></g><g transform="translate(0 0.463)"><path class="a" d="M2490.992,4050.427l-21.192,4.448,19.1,17.268-3.663,2.093,13.6,11.512-4.186,2.878,31.657,20.93L2511.4,4090.98l5.233-2.354-13.866-13.343,6.279-3.14Z" transform="translate(-2469.538 -4050.427)"/><path class="b" d="M2564.116,4059.887l-18.052-4.448,21.192-4.448Z" transform="translate(-2545.802 -4050.73)"/><path class="c" d="M2554.126,4077.3h7.326v-2.878l-8.634-9.419-18.053-4.971Z" transform="translate(-2534.765 -4055.583)"/><path class="d" d="M2515.226,4102.6h10.109s2.478,4.459,4.956,5.748,4.856,5.451,4.856,5.451h-6.64Z" transform="translate(-2499.41 -4078.434)"/><path class="e" d="M2470.5,4132.982h10.505s.5,2.478,5.352,6.74,15.362,14.073,15.362,14.073Z" transform="translate(-2445.272 -4094.748)"/><path class="f" d="M2519.582,4094.176l-12.488-2.708,6.046,5.847Z" transform="translate(-2480.08 -4072.46)"/><path class="g" d="M2501.55,4130.914l-10.505-1.784,5.352,4.063Z" transform="translate(-2454.615 -4092.68)"/></g></g></g></svg>