<svg xmlns="http://www.w3.org/2000/svg" xmlns:xlink="http://www.w3.org/1999/xlink" width="1938" height="2122" viewBox="0 0 1938 2122"><defs><style>.a,.b,.c{fill:#17224d;}.a{opacity:0.54;}.b{opacity:0.78;}.d{filter:url(#c);}.e{filter:url(#a);}</style><filter id="a" x="0" y="0" width="978" height="202.413" filterUnits="userSpaceOnUse"><feOffset dy="3" input="SourceAlpha"/><feGaussianBlur stdDeviation="3" result="b"/><feFlood flood-color="#01c38d" flood-opacity="0.161"/><feComposite operator="in" in2="b"/><feComposite in="SourceGraphic"/></filter><filter id="c" x="960" y="27" width="978" height="202.413" filterUnits="userSpaceOnUse"><feOffset dy="3" input="SourceAlpha"/><feGaussianBlur stdDeviation="3" result="d"/><feFlood flood-color="#01c38d" flood-opacity="0.161"/><feComposite operator="in" in2="d"/><feComposite in="SourceGraphic"/></filter></defs><g transform="translate(-3333 -3512.345)"><g transform="translate(3342 3518.345)"><g class="e" transform="matrix(1, 0, 0, 1, -9, -6)"><path class="a" d="M2644,3538.346v-104.88l59.966-27.825,44.327,33.034,34.013-8.647,36.894-34.012,51.883,10.377,54.188-20.177,67.447-32.282,36.187,39.813c-.048-.28,27.866,2.627,27.866,2.627l36.055,41.289,29.077,11.049,93.483-32.183,19.3,16.549,24.892,4.585L3295,3457.969l99.564-41.439h26.806L3497,3377.552l18.189,7.659h13.4L3604,3457.969v77.839Z" transform="translate(-2635 -3347.93)"/></g><g class="d" transform="matrix(1, 0, 0, 1, -9, -6)"><path class="a" d="M2644,3538.346v-104.88l59.966-27.825,44.327,33.034,34.013-8.647,36.894-34.012,51.883,10.377,54.188-20.177,67.447-32.282,36.187,39.813c-.048-.28,27.866,2.627,27.866,2.627l36.055,41.289,29.077,11.049,93.483-32.183,19.3,16.549,24.892,4.585L3295,3457.969l99.564-41.439h26.806L3497,3377.552l18.189,7.659h13.4L3604,3457.969v77.839Z" transform="translate(-1675 -3320.93)"/></g></g><g transform="translate(3342 3556.766)"><path class="b" d="M2645,3517.811v-96.236l6.233-8.02,15.917,2.736,12.741-10.424,33.2,23.165h22.778l13.9,13.513,8.107-5.019,7.722,5.019h37.449l43.178-20.97,17.621,15.951,44.426-52.145h19.5l17.337-9.752,83.434,45.946,26.006-5.284,71.514,41.688,30.34-10.835,18.42,17.336,26.006-17.336h21.671l26.005-25.569,23.838,10.4,26.005,20.587,22.755-5.417,28.172,17.336,63.929-42.906h16.254l31.423-28.609,17.337,9.752,10.835,18.857,23.838-5.284,20.588,24.352,26.006-24.352,18.42-4.9,19.5-18.421,7.584,5.418V3575H2645Z" transform="translate(-2645.002 -3352.629)"/><path class="b" d="M2645,3517.811v-96.236l6.233-8.02,15.917,2.736,12.741-10.424,33.2,23.165h22.778l13.9,13.513,8.107-5.019,7.722,5.019h37.449l43.178-20.97,17.621,15.951,44.426-52.145h19.5l17.337-9.752,83.434,45.946,26.006-5.284,71.514,41.688,30.34-10.835,18.42,17.336,26.006-17.336h21.671l26.005-25.569,23.838,10.4,26.005,20.587,22.755-5.417,28.172,17.336,63.929-42.906h16.254l31.423-28.609,17.337,9.752,10.835,18.857,23.838-5.284,20.588,24.352,26.006-24.352,18.42-4.9,19.5-18.421,7.584,5.418V3575H2645Z" transform="translate(-1685.002 -3375.629)"/></g><g transform="translate(3342 3612.688)"><path class="c" d="M2645,3435.354l12.7-6.331,28.137,16.882,15.476,16.882,24.62-11.255,21.806-22.509,30.951-9.848L2815.272,3403l18.289,20.4h16.179l30.248,33.766h15.475l25.324-28.138,12.662-5.628,3.517,17.586,11.255,10.551L2984.1,3423.4l11.958-4.22L3008.716,3403h14.772l3.517,16.179,11.959,4.22,4.924,17.586,18.993,10.551,11.254,11.255,25.324,4.924,30.248-10.551,14.069,10.551,25.323-10.551,9.144,5.627,23.214-16.882,9.848,5.627,11.959,11.255,27.185-5.627,18.827,10.551,31.38-4.924,16.038-16.882,20.222-4.924,3.486-11.958,13.947-9.848,9.065-12.346,14.643-3.833,15.208,16.179,16.843,4.22,43.31,28.137,24.863-28.137,11.229,5.628,20.052,28.138H3525.6l34.487,10.551,22.457-4.924,22.458,4.924v72.235H2645Z" transform="translate(-2645.002 -3402.996)"/><path class="c" d="M3605,3435.354l-12.7-6.331-28.137,16.882-15.476,16.882-24.62-11.255-21.806-22.509-30.951-9.848L3434.731,3403l-18.289,20.4h-16.179l-30.248,33.766H3354.54l-25.324-28.138-12.662-5.628-3.517,17.586-11.255,10.551-35.875-28.137-11.958-4.22L3241.287,3403h-14.772L3223,3419.175l-11.959,4.22-4.924,17.586-18.993,10.551-11.254,11.255-25.324,4.924-30.248-10.551-14.069,10.551-25.323-10.551-9.144,5.627-23.214-16.882-9.848,5.627-11.959,11.255-27.185-5.627-18.827,10.551-31.38-4.924-16.038-16.882-20.222-4.924-3.486-11.958-13.947-9.848-9.065-12.346L2871.948,3403l-15.208,16.179-16.843,4.22-43.31,28.137-24.863-28.137-11.229,5.628-20.052,28.138H2724.4l-34.487,10.551-22.457-4.924L2645,3467.712v72.235h960Z" transform="translate(-1685.001 -3402.996)"/></g><rect class="c" width="1920" height="1939.345" transform="translate(3342 3695)"/></g></svg>