<svg xmlns="http://www.w3.org/2000/svg" width="144" height="144" viewBox="0 0 144 144"><defs><style>.a{fill:none;}.b{fill:#132d46;}</style></defs><rect class="a" width="144" height="144"/><g transform="translate(14.003 20.868)"><g transform="translate(28.142 18.553)"><g transform="translate(0 0)"><path class="b" d="M147.7,112.065h-22.75a1.647,1.647,0,1,0,0,3.293H147.7a1.647,1.647,0,0,0,0-3.293Z" transform="translate(-123.304 -112.065)"/></g></g><g transform="translate(70.982 75.921)"><path class="b" d="M326.131,364.364H313.952a1.647,1.647,0,1,0,0,3.293h12.179a1.647,1.647,0,1,0,0-3.293Z" transform="translate(-312.305 -364.364)"/></g><g transform="translate(0 0)"><path class="b" d="M107.735,54.513a1.693,1.693,0,0,0,2.306-.666A45.234,45.234,0,0,0,115.818,36.1a1.718,1.718,0,0,0-1.83-1.836c-6.473.531-13.562,3.16-20.351,7.4a23.038,23.038,0,0,0-2.816-7.1c-1.773-2.716-4.086-4.093-6.874-4.093H9.906c-3.506,0-6.154,1.131-7.868,3.363C-1.29,38.164.441,44.976.516,45.264a1.7,1.7,0,0,0,1.641,1.271H17.092c1.517,9.693,1.44,23.477,1.368,36.164-.036,6.442-.074,13.1.08,19.173a1.7,1.7,0,1,0,3.392-.087c-.152-6.017-.115-12.651-.079-19.066.086-15.2.169-29.828-1.95-39.706-.2-.94-.431-1.876-.7-2.8A19.725,19.725,0,0,0,16.3,33.878H83.948c3.074,0,5.26,3.2,6.666,9.776-1.831,1.293-3.617,2.7-5.348,4.2A71.179,71.179,0,0,0,74.742,59.185H29.59a1.7,1.7,0,0,0,0,3.407H72.378a60.95,60.95,0,0,0-3.363,5.856H29.59a1.7,1.7,0,0,0,0,3.407H67.45a46.572,46.572,0,0,0-2.01,5.856H29.59a1.7,1.7,0,0,0,0,3.407H64.681c-.141.812-.25,1.615-.33,2.411l-5.24,5.261a1.7,1.7,0,1,0,2.4,2.409l5.238-5.259a39.1,39.1,0,0,0,9.208-2.163,53.783,53.783,0,0,0,8.821-4.142,64.874,64.874,0,0,0,7.757-5.308c0,2.788-.017,5.612-.033,8.37-.069,12.243-.141,24.873,1.107,34.154H37.338a1.715,1.715,0,0,0-1.652,2.082c0,.017.006.034.01.051l.007.028c.094.394,1.241,5.454-.851,8.345l-.019.026c-1.2,1.643-3.335,2.135-5.265,2.124-4.123-.023-6.532-6.883-7.362-20.968a1.7,1.7,0,1,0-3.387.2c.663,11.255,2.487,24.173,10.77,24.173h74.042c3.506,0,6.154-1.131,7.868-3.363,3.327-4.331,1.6-11.143,1.521-11.431a1.7,1.7,0,0,0-1.641-1.271H97.036c-1.282-9.067-1.21-21.8-1.141-34.134.021-3.715.042-7.547.027-11.261q1.415-1.276,2.778-2.642a70.457,70.457,0,0,0,7.64-9.065,1.7,1.7,0,1,0-2.769-1.969A67.05,67.05,0,0,1,96.3,66.4a67.462,67.462,0,0,1-6.782,5.958,52.49,52.49,0,0,1-18.026,9.244c-.191.05-.383.1-.575.145l30.151-30.271a1.7,1.7,0,0,0-2.4-2.409L68.519,79.344c.043-.176.085-.352.131-.528a51.137,51.137,0,0,1,9.217-18.142l0-.006.039-.051A67.693,67.693,0,0,1,91.54,47.187c6.758-4.975,14.006-8.263,20.652-9.281a43.869,43.869,0,0,1-5.12,14.292A1.707,1.707,0,0,0,107.735,54.513ZM16.451,43.128H3.56a16.454,16.454,0,0,1-.167-2,8.506,8.506,0,0,1,1.337-5.22c1.04-1.349,2.7-2.013,5.085-2.029L10.926,34l.048.012c2.244.587,4,3.292,5.224,8.058C16.288,42.421,16.372,42.774,16.451,43.128Zm93.522,77.13c.257,1.805.445,5.125-1.16,7.214-1.053,1.37-2.748,2.037-5.181,2.037H37.492c2.182-2.881,2.153-6.837,1.867-9.25Z" transform="translate(0 -30.471)"/></g></g></svg>