<svg width="1915" height="2122" xmlns="http://www.w3.org/2000/svg">
 <defs>
  <filter primitiveUnits="userSpaceOnUse" filterUnits="userSpaceOnUse" height="202.413" width="978" y="0" x="0" id="a">
   <feGaussianBlur stdDeviation="3 3"/>
  </filter>
  <filter primitiveUnits="userSpaceOnUse" filterUnits="userSpaceOnUse" height="202.413" width="978" y="27" x="960" id="c">
   <feGaussianBlur stdDeviation="3 3"/>
  </filter>
 </defs>
 <g>
  <title>background</title>
  <rect fill="none" id="canvas_background" height="2124" width="1917" y="-1" x="-1"/>
 </g>
 <g>
  <title>Layer 1</title>
  <g id="svg_1">
   <g id="svg_2">
    <g id="svg_3" filter="url(#a)">
     <path id="svg_4" opacity="0.54" fill="#17224D" d="m0,190.420068l0,-104.88l59.97,-27.83l44.32,33.04l34.02,-8.65l36.89,-34.01l51.88,10.37l54.19,-20.17l67.45,-32.29l36.19,39.82c-0.05,-0.28 27.86,2.62 27.86,2.62l36.06,41.29l29.07,11.05l93.49,-32.18l19.3,16.55l24.89,4.58l35.42,20.31l99.56,-41.44l26.81,0l75.63,-38.98l18.19,7.66l13.4,0l75.41,72.76l0,77.84l-960,2.54z"/>
    </g>
    <g id="svg_5" filter="url(#c)">
     <path id="svg_6" opacity="0.54" fill="#17224D" d="m960,217.420068l0,-104.88l59.97,-27.83l44.32,33.04l34.02,-8.65l36.89,-34.01l51.88,10.37l54.19,-20.17l67.45,-32.29l36.19,39.82c-0.05,-0.28 27.86,2.62 27.86,2.62l36.06,41.29l29.07,11.05l93.49,-32.18l19.3,16.55l24.89,4.58l35.42,20.31l99.56,-41.44l26.81,0l75.63,-38.98l18.19,7.66l13.4,0l75.41,72.76l0,77.84l-960,2.54z"/>
    </g>
   </g>
   <g id="svg_7">
    <path id="svg_8" opacity="0.78" fill="#17224D" d="m0,209.610049l0,-96.24l6.23,-8.02l15.92,2.74l12.74,-10.42l33.2,23.16l22.78,0l13.9,13.51l8.11,-5.01l7.72,5.01l37.45,0l43.18,-20.97l17.62,15.96l44.42,-52.15l19.5,0l17.34,-9.75l83.43,45.94l26.01,-5.28l71.51,41.69l30.34,-10.84l18.42,17.34l26.01,-17.34l21.67,0l26,-25.57l23.84,10.41l26.01,20.58l22.75,-5.41l28.17,17.33l63.93,-42.91l16.26,0l31.42,-28.6l17.34,9.75l10.83,18.85l23.84,-5.28l20.59,24.35l26.01,-24.35l18.42,-4.9l19.5,-18.42l7.58,5.42l0,176.61l-959.99,0l0,-57.19z"/>
    <path id="svg_9" opacity="0.78" fill="#17224D" d="m960,186.610049l0,-96.24l6.23,-8.02l15.92,2.74l12.74,-10.42l33.2,23.16l22.78,0l13.9,13.51l8.11,-5.01l7.72,5.01l37.45,0l43.18,-20.97l17.62,15.96l44.42,-52.15l19.5,0l17.34,-9.75l83.43,45.94l26.01,-5.28l71.51,41.69l30.34,-10.84l18.42,17.34l26.01,-17.34l21.67,0l26,-25.57l23.84,10.41l26.01,20.58l22.75,-5.41l28.17,17.33l63.93,-42.91l16.26,0l31.42,-28.6l17.34,9.75l10.83,18.85l23.84,-5.28l20.59,24.35l26.01,-24.35l18.42,-4.9l19.5,-18.42l7.58,5.42l0,176.61l-959.99,0l0,-57.19z"/>
   </g>
   <g id="svg_10">
    <path id="svg_11" fill="#17224D" d="m0,132.699854l12.7,-6.33l28.14,16.89l15.47,16.88l24.62,-11.26l21.81,-22.51l30.95,-9.84l36.58,-16.18l18.29,20.4l16.18,0l30.25,33.77l15.47,0l25.33,-28.14l12.66,-5.63l3.52,17.59l11.25,10.55l35.88,-28.14l11.96,-4.22l12.66,-16.18l14.77,0l3.51,16.18l11.96,4.22l4.93,17.59l18.99,10.55l11.26,11.25l25.32,4.93l30.25,-10.56l14.07,10.56l25.32,-10.56l9.14,5.63l23.22,-16.88l9.84,5.63l11.96,11.25l27.19,-5.63l18.83,10.56l31.38,-4.93l16.03,-16.88l20.23,-4.92l3.48,-11.96l13.95,-9.85l9.06,-12.35l14.65,-3.83l15.2,16.18l16.85,4.22l43.31,28.14l24.86,-28.14l11.23,5.63l20.05,28.14l16.04,0l34.49,10.55l22.45,-4.93l22.46,4.93l0,72.23l-960,0l0,-104.6z"/>
    <path id="svg_12" fill="#17224D" d="m1920,132.699854l-12.7,-6.33l-28.14,16.89l-15.47,16.88l-24.62,-11.26l-21.81,-22.51l-30.95,-9.84l-36.58,-16.18l-18.29,20.4l-16.18,0l-30.25,33.77l-15.47,0l-25.32,-28.14l-12.67,-5.63l-3.51,17.59l-11.26,10.55l-35.87,-28.14l-11.96,-4.22l-12.66,-16.18l-14.78,0l-3.51,16.18l-11.96,4.22l-4.92,17.58l-19,10.55l-11.25,11.26l-25.32,4.92l-30.25,-10.55l-14.07,10.55l-25.32,-10.55l-9.15,5.63l-23.21,-16.88l-9.85,5.62l-11.96,11.26l-27.18,-5.63l-18.83,10.55l-31.38,-4.92l-16.04,-16.88l-20.22,-4.93l-3.49,-11.96l-13.94,-9.84l-9.07,-12.35l-14.64,-3.83l-15.21,16.18l-16.84,4.22l-43.31,28.14l-24.87,-28.14l-11.22,5.63l-20.06,28.14l-16.04,0l-34.49,10.55l-22.45,-4.93l-22.46,4.92l0,72.24l960,0l0,-104.6z"/>
   </g>
   <rect id="svg_13" fill="#17224D" height="1939.35" width="1920" y="182.659912" x="0"/>
  </g>
 </g>
</svg>