<svg xmlns="http://www.w3.org/2000/svg" width="144" height="144" viewBox="0 0 144 144"><defs><style>.a{fill:none;}.b{fill:#132d46;}</style></defs><rect class="a" width="144" height="144"/><g transform="translate(20.037 14.204)"><g transform="translate(0)"><path class="b" d="M126.405,32.677H116.194l-8.96,7.114-2.7.548L98.2,35.367l-6.4,6.965L75.57,36.058v-5.1l-4.286-7.238L75.6,12.031,68.088,6,58.007,5.269,51.963,0,39.654,6.873l5.6,7.789v4.757l4.759,6.36L48.3,31.9l-5.1,5.151-4.7-.449-5.89,6.348,3.31,8.309-7.085,4.228L32.74,66.383l7.937,4.37,3.092-2.473.292,1.189v5.814l10.739,28.4,2.406,10.689,1.531.706a7.01,7.01,0,0,0,2.854.571,8.293,8.293,0,0,0,5.486-2.124c2.334-2.018,4.978-8.114,5.733-9.935,3.454-8.331,2.709-10.785,2.464-11.591-.189-.644.609-2.714,1.608-4.23A19.2,19.2,0,0,1,80.6,84.826c2.383-.766,4.443-3.788,5.887-6.562L94.161,74.7l1.693-3.679,6.484-5.367-1.806-9.045,2.22-.383.282,3.85L116.1,70.53l2.19-11.211h2.8l2.774-10.476,8.85-3.534Zm-8.3,11.158L115.8,52.542h-3.171l-1.1,5.611-1.871-1.5-.614-8.4-16.6,2.863,2.377,11.909-4.569,3.781-1.295,2.814-7.593,3.529-.526,1.1a18.9,18.9,0,0,1-2.67,4.234c-2.347.9-5.207,3.561-6.363,4.7l-.212.21-.172.243c-.674.951-3.939,5.862-2.764,10.129.012.791-.593,3.448-2.335,7.578a37.916,37.916,0,0,1-3.5,6.745l-1.43-6.351L50.922,74.058v-5.4L47.881,56.271,39.966,62.6l-1.623-.894-1.174-3.274,7.256-4.33-3.861-9.693.682-.735,4.562.436,8.639-8.72L57.516,24.4l-5.4-7.216V12.5L49.653,9.074l1.434-.8L55.2,11.859l10.235.744,2.047,1.643L63.734,24.393l4.976,8.4v7.887l25,9.662,5.256-5.725,3.818,3,7.46-1.517,8.369-6.645h3.532l1.154,2.308Z" transform="translate(-28.835)"/></g></g></svg>