<svg xmlns="http://www.w3.org/2000/svg" width="144" height="144" viewBox="0 0 144 144"><defs><style>.a{fill:none;}.b{fill:#132d46;}</style></defs><rect class="a" width="144" height="144"/><g transform="translate(13.877 13.877)"><g transform="translate(6.17)"><path class="b" d="M133.055,52.283c0-.047,0-.093-.007-.139,0-.03,0-.061-.006-.091s-.011-.072-.016-.108-.011-.078-.02-.117c0-.022-.012-.044-.017-.066-.012-.05-.024-.1-.04-.149,0-.011-.008-.021-.012-.032-.02-.058-.04-.117-.065-.173-.008-.019-.019-.037-.027-.056-.022-.047-.043-.093-.068-.138s-.058-.1-.089-.145c-.008-.013-.016-.027-.024-.04-.036-.054-.076-.105-.118-.156l-.014-.019c-.034-.041-.071-.08-.108-.118-.014-.015-.028-.031-.043-.046s-.06-.055-.091-.082-.052-.048-.079-.07-.05-.037-.076-.056-.074-.055-.112-.08l-.016-.011L83.3,19.227V17.494l16.852-6.269a2.268,2.268,0,0,0,0-4.258L81.816.145,81.779.133c-.061-.022-.124-.041-.188-.057l-.07-.018c-.065-.015-.131-.026-.2-.035l-.06-.009A2.315,2.315,0,0,0,81.011,0h0l-.043,0c-.072,0-.144.006-.215.014l-.074.011c-.061.009-.122.02-.182.033L80.417.08c-.061.016-.12.035-.179.055L80.171.16q-.1.039-.2.088l-.038.018A2.326,2.326,0,0,0,79.714.4L79.7.4l-.031.024q-.083.059-.161.126c-.021.018-.042.037-.062.056q-.064.059-.124.123c-.019.02-.038.04-.056.061-.046.053-.089.108-.13.166l-.023.031a2.311,2.311,0,0,0-.133.219c-.007.013-.012.025-.019.038q-.048.094-.087.193c-.008.021-.016.043-.024.064-.021.059-.04.119-.057.18-.006.024-.013.048-.019.072-.014.062-.026.125-.035.188,0,.023-.008.045-.011.068a2.253,2.253,0,0,0-.016.259V19.226l-48.7,31.165L30,50.4c-.039.025-.075.053-.112.08s-.051.036-.076.056-.053.046-.079.07-.062.053-.091.082-.028.031-.043.046c-.037.039-.074.077-.108.118l-.014.019c-.041.051-.081.1-.118.156-.009.013-.016.027-.024.04-.031.048-.062.1-.089.145s-.046.092-.068.138c-.009.019-.019.037-.027.056-.024.056-.045.115-.065.173,0,.011-.008.021-.012.032-.016.049-.028.1-.04.149-.005.022-.012.044-.017.066-.008.038-.014.078-.02.117s-.012.071-.017.108,0,.061-.006.091c0,.046-.007.093-.007.139,0,.006,0,.013,0,.019v9.1c0,.019,0,.038,0,.057,0,.051,0,.1.008.154,0,.036.009.071.014.106s.01.075.017.113.022.1.034.144c.005.02.008.04.014.06l.007.021.014.043a14.276,14.276,0,0,0,7.145,8.467L33.04,111.882H31.259a2.274,2.274,0,1,0,0,4.548h99.5a2.274,2.274,0,1,0,0-4.548h-1.781L125.8,70.564a14.276,14.276,0,0,0,7.145-8.467l.014-.043.007-.021c.006-.02.009-.04.014-.06.013-.048.025-.1.034-.144s.012-.075.017-.113.011-.07.014-.106c0-.052.006-.1.008-.154,0-.019,0-.038,0-.057V52.3C133.056,52.3,133.055,52.29,133.055,52.283ZM83.3,5.555,92.822,9.1,83.3,12.637Zm39.678,44.473h-15.97L91.041,29.59ZM83.3,27.112,101.21,50.028H83.3Zm0,27.465H103.6v6.473c-1.328,4.018-5.452,6.8-10.146,6.8a10.76,10.76,0,0,1-9.508-5.33c-.159-.473-.318-.953-.477-1.436l-.16-1.754ZM78.719,27.112V50.028H60.813Zm0,27.465v4.531l-.1,2.006q-.164.5-.327.988a10.687,10.687,0,0,1-9.721,5.748c-4.694,0-8.818-2.781-10.146-6.8V54.577H78.719ZM70.981,29.59,55.011,50.028H39.042ZM33.551,61.05V54.577H53.843V61.05c-1.328,4.018-5.452,6.8-10.146,6.8S34.879,65.068,33.551,61.05Zm14.028,50.832H37.638L40,81.249h7.283a2.274,2.274,0,1,0,0-4.548H40.349l.353-4.583a16.269,16.269,0,0,0,3,.279,15.587,15.587,0,0,0,12.438-6.014A15.587,15.587,0,0,0,68.573,72.4a16.112,16.112,0,0,0,6.559-1.387C72.458,78.082,70,83.506,68.178,87.2,61.163,101.47,54.047,109.989,47.579,111.882Zm8.921,0c5.306-4.515,10.594-12.1,15.8-22.684a199.083,199.083,0,0,0,8.752-21.027,198.774,198.774,0,0,0,8.673,20.806c5.291,10.761,10.668,18.419,16.062,22.905H56.5Zm58.594,0a2.3,2.3,0,0,0-.389-.144c-6.538-1.738-13.752-10.3-20.86-24.755-1.8-3.653-4.218-8.989-6.854-15.93A16.118,16.118,0,0,0,93.449,72.4a15.587,15.587,0,0,0,12.438-6.014A15.587,15.587,0,0,0,118.326,72.4a16.268,16.268,0,0,0,3-.279L122.5,87.469h-6.933a2.274,2.274,0,1,0,0,4.548h7.283l1.531,19.865ZM128.471,61.05c-1.328,4.018-5.452,6.8-10.146,6.8s-8.817-2.781-10.146-6.8V54.577h20.291Z" transform="translate(-28.966)"/></g><g transform="translate(0 112.17)"><path class="b" d="M2.181,492H2.13a2.13,2.13,0,1,0,0,4.26h.05a2.13,2.13,0,0,0,0-4.26Z" transform="translate(0 -492.001)"/></g><g transform="translate(112.12 112.17)"><path class="b" d="M493.944,492h-.05a2.13,2.13,0,1,0,0,4.26h.05a2.13,2.13,0,1,0,0-4.26Z" transform="translate(-491.764 -492.001)"/></g><g transform="translate(29.09 76.899)"><path class="b" d="M129.772,337.295h-.05a2.13,2.13,0,1,0,0,4.26h.05a2.13,2.13,0,1,0,0-4.26Z" transform="translate(-127.592 -337.295)"/></g><g transform="translate(83.855 87.695)"><path class="b" d="M369.975,384.647h-.05a2.13,2.13,0,0,0,0,4.26h.05a2.13,2.13,0,1,0,0-4.26Z" transform="translate(-367.795 -384.647)"/></g></g></svg>