<svg xmlns="http://www.w3.org/2000/svg" width="75.502" height="193.994" viewBox="0 0 75.502 193.994"><defs><style>.a{fill:#70def1;}</style></defs><g transform="translate(0 0)"><path class="a" d="M704.2,427.384a435.73,435.73,0,0,0,3.256-72.18c-.848.441-1.609.785-2.3,1.233-.189.121-.234.558-.234.85,0,10.262,0,20.524-.147,30.8a330.84,330.84,0,0,1-6.567-33.764c-1.857,1.226-3.562,2.49-5.4,3.522a23.274,23.274,0,0,1-4.087,1.621,1.66,1.66,0,0,1-2.2-1.527c-.22-1.782.808-3.083,1.766-4.384.551-.75,1.224-1.4,1.943-2.221-1.474.6-2.791,1.207-4.162,1.654a6.639,6.639,0,0,1-2.73.425,3.286,3.286,0,0,0-2.606.986c-1.84,1.429-3.774,2.735-5.684,4.068a1.249,1.249,0,0,1-1.824-.738,10.992,10.992,0,0,1,.187-6.287,88.046,88.046,0,0,1,13.655-30.515,77.587,77.587,0,0,1,8.989-10.318c3.526-3.438,7.053-6.878,10.472-10.461-1.49.946-2.961,1.927-4.477,2.828-1.469.873-2.985,1.661-4.774.871a1.4,1.4,0,0,1-.607-2.356c2.677-3.524,6.184-6.1,9.73-8.641a12.477,12.477,0,0,0,2.237-1.922c-.467.18-.953.374-1.434.542-2.947,1.032-5.89,2.079-8.851,3.073a7.5,7.5,0,0,1-1.913.311,1.451,1.451,0,0,1-1.665-1.611,10.3,10.3,0,0,1,1.215-3.148c1.254-2.1,3.386-3.288,5.257-4.741.276-.215.558-.423.995-.752-1.822.467-3.44.934-5.08,1.3a1.63,1.63,0,0,1-1.322-.234,1.764,1.764,0,0,1-.234-1.523,24.065,24.065,0,0,1,3.2-4.655,55.553,55.553,0,0,1,5.449-4.4,8.081,8.081,0,0,0,1.469-1.247c-1.749.876-3.473,1.808-5.252,2.618-3.008,1.369-6.046,2.672-9.083,3.97-.488.208-1.058.217-1.565.388a2.354,2.354,0,0,1-3.059-1.32,19.142,19.142,0,0,1,3.987-5.25c5.089-5.294,11.21-9.045,17.733-12.31a33.592,33.592,0,0,1,10.2-2.889,7.871,7.871,0,0,1,3.386.392c2.1.656,2.789,1.985,1.931,3.97a2.306,2.306,0,0,0,.336,2.868.7.7,0,0,1,.154.283,2.328,2.328,0,0,0,2.492,1.99c1.527.042,2.188,1.471,1.661,2.94-1.294,3.608-3.935,6.14-6.787,8.485-1.593,1.308-1.728,1.541-1.329,3.8a5.611,5.611,0,0,1,.808.145,1.308,1.308,0,0,1,.684,1.927,13.6,13.6,0,0,0-2.648,6.82,13.265,13.265,0,0,1,2.1.624c3.888,1.868,7.723,3.835,11.642,5.631,1.808.829,3.769,1.322,5.649,2a22.87,22.87,0,0,1,3.667,1.488,12.488,12.488,0,0,1,4.475,4.589c-.771-.425-1.558-.822-2.307-1.28-2.765-1.686-5.93-2.1-8.985-2.884a88.1,88.1,0,0,1-15.743-5.189c-1.1-.516-2.144-1.137-3.085-1.635-1.868,2.1-3.622,4.251-5.544,6.231-1.576,1.623-3.468,2.94-5,4.6-3.842,4.141-7.688,8.291-11.294,12.637a57.083,57.083,0,0,0-8.361,14.657c-.021.051.026.131.049.234,1.53-2.1,3.09-4.176,4.559-6.306,3.557-5.138,8.249-9.071,13.261-12.714a68.165,68.165,0,0,1,11.29-7.135c.974-.448,2.009-.766,3.017-1.135.234-.086.483-.131.722-.206a6.393,6.393,0,0,1,1.256-.392c.367.619.958,1.439.787,1.978a17.112,17.112,0,0,1-2.282,5.388c-2.6,3.349-5.526,6.444-8.377,9.575-1.887,2.076-3.874,4.061-5.738,6.191,1.766-1.306,3.519-2.627,5.3-3.912a195.134,195.134,0,0,1,19.863-12.992,21.868,21.868,0,0,1,7.611-2.6,3.848,3.848,0,0,1,3.608.934,1.885,1.885,0,0,1,.439,1.383,8.381,8.381,0,0,1-2.569,4.648c-1.051,1.065-2.142,2.09-3.435,3.347,4.087-.521,7.973-2.191,11.348,1.263-3.2,5.813-8.527,9.239-13.578,13.37,1-.3,1.749-.525,2.5-.736q1.194-.35,2.394-.64a12.237,12.237,0,0,1,6.371-.318,11.745,11.745,0,0,1,2.679,1.455c.771.467.78,1.186.539,1.992a7.224,7.224,0,0,1-2.831,3.725c-2.87,2.1-5.8,4.129-8.8,6.028-3.436,2.17-6.983,4.162-10.479,6.24a2.775,2.775,0,0,0-.894.822c1.892-.684,3.753-1.476,5.682-2.032,3.242-.934,6.5-1.857,9.809-2.49a9.969,9.969,0,0,1,4.094.528c.61.156,1.088.834,1.714,1.345-3.228,3.527-7.214,5.759-10.769,8.767.318.416.67.88.934,1.231-2.335.89-4.657,1.805-7.006,2.627a1.7,1.7,0,0,1-1.212-.392c-.467-.32-.2-.64.11-1.007,2.707-3.2,6.145-5.509,9.6-7.782,1.555-1.023,3.246-1.843,4.83-2.908-1.838.558-3.718,1-5.5,1.7-6.306,2.436-12.541,5.012-18.857,7.4a2.555,2.555,0,0,0-1.838,2.354c-1.635,9.389-3.246,18.784-5.04,28.142-1.733,9.036-3.671,18.032-5.535,27.045C705.566,421.216,704.865,424.3,704.2,427.384Zm13.98-73.415c.353-.215.535-.308.7-.43,2.646-1.922,5.185-4.012,7.957-5.731,3.662-2.27,7.527-4.2,11.264-6.366,2.674-1.541,5.294-3.181,7.905-4.827a7.862,7.862,0,0,0,1.289-1.308,1.191,1.191,0,0,0-.859-.04c-9.484,2.973-18.252,7.5-26.837,12.42-.234.131-.521.367-.558.593C718.731,350.107,718.476,351.949,718.177,353.969Zm2.146-16.171,18.791-12.357-.135-.234c-5.839,3.365-11.677,6.749-17.532,10.077A1.92,1.92,0,0,0,720.324,337.8Zm-13.4,9.078c-2.1,1.011-2.494,1.686-2.027,3.7C705.839,349.4,707.7,348.913,706.927,346.877Z" transform="translate(-672.83 -233.39)"/><path class="a" d="M746.678,167.356c-1.168.334-2.149.546-3.078.9a1.974,1.974,0,0,0-1.352,2.2c.184,1.833.7,3.44,2.417,4.454.848.507.862,1.025-.056,1.357-1.953.7-3.97,1.266-5.958,1.838a13.9,13.9,0,0,1-2.429.467c-1.312.128-1.684-.39-1.144-1.576a15.128,15.128,0,0,1,1.074-1.868c1.667-2.618,1.154-4.54-1.78-5.582a13.235,13.235,0,0,0-4.944-.808c-4.862.234-8.053-2.1-10.337-6.1-.355-.621-.612-1.3-.958-1.929-1.826-3.328-.467-6.1,2.191-8.074a15.026,15.026,0,0,1,7.473-2.866,60.2,60.2,0,0,1,6.672-.42,8.041,8.041,0,0,1,7.219,4.381,46.538,46.538,0,0,1,4.732,11.652A15.2,15.2,0,0,1,746.678,167.356Z" transform="translate(-706.912 -149.35)"/></g></svg>