<svg xmlns="http://www.w3.org/2000/svg" width="170.696" height="139.119" viewBox="0 0 170.696 139.119"><defs><style>.a{fill:#70def1;}</style></defs><path class="a" d="M830.483,477.27a17.093,17.093,0,0,0-4.092-1.359c-2.093-.162-3.747-.719-4.674-2.711a4.755,4.755,0,0,1,.953-5.638A4.53,4.53,0,0,0,824,464.224c.511-11.931-5.322-19.974-15.5-25.364-.719-.378-1.438-.7-2.449-1.179,3.031-1.543,5.71-1.118,8.454-.23l-1.406-1.1a7.842,7.842,0,0,1,7.691,1.079,8.653,8.653,0,0,1,1.938-.3c3.477.478,5.843,2.564,7.591,5.462a35.2,35.2,0,0,1,4.243,26.278c-.047.223-.083.453-.144.773,3.894-4.1,1.136-20.384-5.074-29.88,4.34,1.223,6.328,4.5,8.3,7.943-.111-.36-.216-.744-.338-1.115a2.624,2.624,0,0,1-.147-1.5,18.138,18.138,0,0,1,2.157,1.521c2.7,2.549,3.542,5.861,3.722,9.432a45.123,45.123,0,0,1-2.589,16.932,9.286,9.286,0,0,0-.529,2.219,25.5,25.5,0,0,0,3.333-11.071c.3-3.9.068-7.839.36-11.945a22.353,22.353,0,0,1,1.571,3.236c2.024,6.62.9,13.027-1.535,19.3-.719,1.819-1.6,3.571-2.517,5.584,2.625-2.29,5.44-11,6.35-19.165,1.564,1.611,2,6.289.575,11.089-1.079,3.621-2.661,7.087-3.758,10.766l5.239-10.8a13.8,13.8,0,0,1-1.374,8.953c-1.334,2.7-3.031,5.228-4.455,7.993q2.118-2.265,4.236-4.538c-.64,4.746-3.808,7.72-7.245,10.51l.36.4,5.591-3.955c-.176,2.29-1.906,4.257-5.753,6.9l3.179-1.154c-1.352,3.143-5.681,4.833-9.324,3.736l-2.607-1.73-.245.46,2.895,1.219c.561.69,1.118,1.384,1.679,2.078l-.331.277,1.8.615c-.111,1-.219,1.978-.381,3.448l3.642-3.035.342.288c-.719.964-1.42,1.931-2.424,3.294l2.2-1.543.284.176-1.845,3.236.327.27-2.114,1.42-2.229,5.26-4.977-1.83-1,.949-.96-1.363c-.119.457-.219.852-.32,1.244l-.36.1c-.252-.917-.5-1.834-.856-3.132h4.106c.36-1.381.719-2.772,1.125-4.344a27.522,27.522,0,0,1-4.495-.054c-1.3-.227-2.517-.9-3.9-1.248l3.017,1.719c-1.309.683-2.844.525-4.674-.514-.77-.435-1.528-.888-2.294-1.334h0c-.683-.989-1.37-1.974-2.323-3.34-.306-.608-.841-1.661-1.374-2.715l-.421.108.5-2.312-1.187-.658.061.058c.306-.863.615-1.73,1-2.8l-.813-.493a2.027,2.027,0,0,1-.183-.241c.582-.744,1.165-1.485,1.863-2.38l-.36-1.187,3.632-3c-.4-1.165-.672-1.952-1.079-3.121l2.621.532c.054-.324.108-.64.137-.827l-2.517-1.079.129-.385,2.211.536c-.1-2.316-.96-2.8-4.142-2.488a19.4,19.4,0,0,1,.442-2.1c.525-1.618,1.643-2.294,3.189-1.55,2.086,1,4.006,2.341,6,3.527q2.157,1.287,4.315,2.567l.439-.36-.331,1.417-1.643.2c2.945,2.848-.719,5.444-.212,8.7a38.736,38.736,0,0,0,2.114-3.441c1.359-2.877,1.237-5.922.752-8.989l-1.046-2.927-3.161-3.268a15.1,15.1,0,0,0-2.661-.532c-2.9-.079-4.48-2.283-3.491-5,.155-.421.36-.813.762-1.654-1.683,1.841-1.956,3.441-1.14,5.034a3.894,3.894,0,0,0,4.315,2.186,10.885,10.885,0,0,1,2.039.155Zm-8.187-33.2-3.29-3.628-.36.36,3.535,3.38c4.858,6.339,6.336,13.631,6.044,21.423,0,.05.158.1.245.158,1.676-6.882-1.151-16.821-6.177-21.693Zm1.1-4.505c3.092,4.038,6.052,8.173,7.407,13.222,1.32,4.915,1.212,9.91.719,14.929,2.136-10.791-.345-20.273-8.13-28.151Zm14.25,32.387a34.223,34.223,0,0,0,.845-21.287,50.446,50.446,0,0,1-.849,21.287Z" transform="translate(-719.586 -412.96)"/><path class="a" d="M734.007,721.033a7.128,7.128,0,0,1-.586.676c-.859.741-1.726,1.474-2.621,2.233-2.618-2.438-5.1-4.951-7.792-7.191s-5.519-4.218-8.331-6.239c-2.039-1.471-4.006-1.28-6.138.1a79.358,79.358,0,0,0-14.466,12.319c-.449.478-.838,1.007-1.273,1.535l-3.61-2.837c4.883-6,11.352-9.809,17.907-13.5l-.09-.521c-1.32.13-2.765-.04-3.93.453a40.234,40.234,0,0,0-7.105,3.722c-4.365,3.01-8.749,6-14.049,6.951a22.909,22.909,0,0,1-20.967-6.339,6.594,6.594,0,0,1-.6-.672,3.01,3.01,0,0,1-.259-.46c2.348.658,4.653,1.438,7.019,1.942,4.995,1.036,9.734-.1,14.383-1.927,4.452-1.747,8.874-3.6,13.448-4.976a26.4,26.4,0,0,1,15.749-.115,3.989,3.989,0,0,0,2.1-.065,32.581,32.581,0,0,1,21.772,1.64c3.125,1.348,6.267,2.711,9.5,3.772a25.751,25.751,0,0,0,17.932-.6c.442-.176.892-.359,1.345-.493.09-.032.219.043.478.108a23.722,23.722,0,0,1-16.9,8.051c-6.728.342-12.51-2.111-17.867-5.937a61.781,61.781,0,0,0-6.623-4.268,6.673,6.673,0,0,0-5.994-.421C723.18,711.367,729.142,715.409,734.007,721.033Z" transform="translate(-626.116 -585.348)"/><path class="a" d="M581.6,608.48c3.955,6.185,9.554,10.021,15.99,13.031,4.092,1.913,7.885,4.469,11.715,6.684,0,.18.065-.021,0-.108a25.843,25.843,0,0,1-6.213-14.609c-.4-4.006-1.438-7.95-2.229-12.128a8.058,8.058,0,0,1,1,.964c3.373,4.653,6.559,9.349,8.119,15.052a43.563,43.563,0,0,0,9.122,17.7c-.2.147-.295.277-.36.259-6-1.521-12.225-2.474-17.979-4.718-9.385-3.678-15.742-10.651-18.745-20.442C581.859,609.613,581.744,609.041,581.6,608.48Z" transform="translate(-575.843 -518.986)"/><path class="a" d="M937.542,600.32c-.942,5.455-1.8,10.873-2.837,16.256-.719,3.729-2.718,6.868-5.07,9.788-.36.431-.7.87-.982,1.233,3.117-1.967,6.224-4.056,9.457-5.919,2.79-1.611,5.811-2.823,8.583-4.462a26.249,26.249,0,0,0,9.575-9.525.816.816,0,0,1,.694-.385c-.316,1.079-.557,2.158-.96,3.207-4.721,12.092-13.743,18.9-26.3,21.369-2.815.554-5.609,1.208-8.414,1.823-.554.122-1.1.27-2.193.539a42.6,42.6,0,0,0,7.645-12.88,48.2,48.2,0,0,0,2-5.753c1.356-5.645,4.743-10.133,8.051-14.685a3.051,3.051,0,0,1,.493-.518A.608.608,0,0,1,937.542,600.32Z" transform="translate(-791.987 -518.327)"/><path class="a" d="M584.581,579.492c-3.3-6.72-1.978-13.257-.78-19.816.421-2.319.547-4.692,1.215-7.166a53.19,53.19,0,0,1,1.855,6.735c.759,5.264,1.233,10.571,1.845,15.857.565,4.876,1.111,9.759,3.621,14.142a4.327,4.327,0,0,1,.158,1.079c-2.974-1.931-5.685-3.624-8.331-5.419-4.358-2.956-8.7-5.926-12.053-10.111a27.816,27.816,0,0,1-6.508-18.748,15.052,15.052,0,0,1,.169-1.6c0-.083.133-.151.259-.281.119.1.327.194.342.306.464,4.124,2.632,7.35,5.264,10.392,4.1,4.746,8.1,9.572,12.146,14.361C583.844,579.295,584,579.295,584.581,579.492Z" transform="translate(-565.588 -487.708)"/><path class="a" d="M965.44,587.8c3.937-7.342,3.632-15.483,4.57-23.412.482-4.078,1.579-8.08,2.427-12.107a13.234,13.234,0,0,1,.766-1.9c.507,3.729,1,7.055,1.4,10.392a54.018,54.018,0,0,1,.759,8.536c-.115,2.744-.953,5.455-1.525,8.436a26.669,26.669,0,0,1,1.629-2.434c2.812-3.344,5.566-6.738,8.522-9.953,5.505-5.983,5.555-5.933,7.961-13.6a13.672,13.672,0,0,1,.36,1.622,27.4,27.4,0,0,1-6.915,20c-4.775,5.624-11.118,9.205-17.126,13.225-.813.547-1.668,1.032-2.517,1.546Z" transform="translate(-821.664 -486.344)"/><path class="a" d="M664.168,670.7c-5.821,1.276-11.28,2.6-16.792,3.653-9.6,1.834-18.176-.3-25.386-7.105A16.723,16.723,0,0,1,617.56,661c2.021,1.4,3.625,3,5.559,3.736a50.053,50.053,0,0,0,9.978,2.7c5.631.874,11.334,1.32,17.069,1.748-.471-.212-.935-.435-1.409-.626a14.4,14.4,0,0,1-7.695-6.947c-1.884-3.657-3.754-7.321-5.868-11.449a19.454,19.454,0,0,1,2.111,1.4c3.779,3.4,7.6,6.764,11.276,10.277a33.644,33.644,0,0,0,11.377,7.655C661.227,669.976,662.553,670.238,664.168,670.7Z" transform="translate(-598.872 -550.245)"/><path class="a" d="M858.61,668.747c6.641-1.172,11.535-4.75,16.019-9.148,3.416-3.351,7.051-6.472,10.607-9.687.6-.543,1.305-.985,2.359-1.773-1.323,2.736-2.413,5-3.513,7.263-2.517,5.171-5.181,10.2-11.276,12.11q4.779-.543,9.561-1.079c3.506-.414,7.022-.744,10.51-1.276a20.808,20.808,0,0,0,12-6.03l.334.309a20.154,20.154,0,0,1-1.438,2.517c-5.1,6.548-11.593,10.611-20.075,11.014a50.655,50.655,0,0,1-14.383-1.668c-3.135-.762-6.3-1.413-9.442-2.121C859.52,669.1,859.207,668.945,858.61,668.747Z" transform="translate(-753.247 -548.952)"/><path class="a" d="M576.53,516.281c.309-2.068.457-3.955.91-5.8a20.858,20.858,0,0,1,1.83-5.034c2.258-4.117,4.71-8.126,7.281-12.506a13.739,13.739,0,0,1-.022,2.546c-1.377,6.663-2.621,13.365-4.282,19.96-1.032,4.092-2.017,8.119-1.769,12.362a11.6,11.6,0,0,1-.194,1.629c-.59-.658-.982-1.036-1.3-1.467-2.157-2.938-4.4-5.832-6.472-8.838-6.048-8.756-7.551-18.3-4.732-28.543a14.411,14.411,0,0,1,.676-1.586,87.232,87.232,0,0,0,1.586,8.828c.881,3.089,2.316,6.012,3.366,9.054.992,2.877,1.8,5.8,2.7,8.705A3.974,3.974,0,0,0,576.53,516.281Z" transform="translate(-566.112 -447.034)"/><path class="a" d="M983.353,491.661c2.575,4.376,5.12,8.22,7.141,12.319,1.24,2.517,1.708,5.426,2.459,8.177a19.223,19.223,0,0,1,.36,2.675c1.079-3.153,1.906-6.267,3.215-9.162,2.56-5.66,4.451-11.456,4.674-17.727l.59-.083a59.311,59.311,0,0,1,1.478,6.983c.831,8.792-1.125,16.871-6.569,23.983-1.927,2.517-3.758,5.117-5.642,7.67-.36.464-.737.888-1.46,1.755-.083-1.1-.094-1.7-.176-2.3-.493-3.6-.831-7.227-1.542-10.787-1.4-6.969-3.017-13.89-4.5-20.855A13.454,13.454,0,0,1,983.353,491.661Z" transform="translate(-833.101 -446.304)"/><path class="a" d="M983.547,424.15c1.406,2.441,3.01,4.8,4.175,7.346A27.629,27.629,0,0,1,990,448.507c-1.111,5.581-3.135,10.981-4.825,16.681-.252-.28-.449-.406-.507-.582-2.046-6.379-5.865-11.711-9.881-16.95-2.916-3.8-4.358-8.27-5.307-12.966,4.617,5.879,11.967,9.349,14.8,16.918-.065-.874-.2-1.748-.183-2.618.122-4.674.162-9.349.467-13.991.227-3.455.36-6.832-1.507-9.924-.1-.165-.05-.428-.068-.647Z" transform="translate(-824.251 -405.503)"/><path class="a" d="M585.79,425.966c-2.693,4.009-1.823,8.385-1.668,12.729.173,4.8.04,9.611.241,14.484a24.66,24.66,0,0,1,6.512-9.079c2.8-2.567,5.394-5.221,8.213-8a5.818,5.818,0,0,1-.065,1.208,36.494,36.494,0,0,1-6.289,13.16,48.9,48.9,0,0,0-8.752,15.347,6.355,6.355,0,0,1-.525.9c-.277-.68-.5-1.118-.644-1.582-1.3-4.286-2.718-8.543-3.84-12.876a29.24,29.24,0,0,1,1.7-18.964,73.464,73.464,0,0,1,4.315-7.724Z" transform="translate(-573.599 -406.412)"/><path class="a" d="M703.581,517.65c-14.174-2.877-30.445-19.036-28.87-41.272,1.183-16.673,16.246-34.328,30.744-35.238-2.157,1.255-4.045,2.348-5.929,3.456-8.475,4.991-15.354,11.506-18.978,20.855-6.113,15.71-2.28,29.453,8.8,41.538a48.552,48.552,0,0,0,6.724,5.915C698.4,514.626,701,516.025,703.581,517.65Z" transform="translate(-635.406 -416.383)"/><path class="a" d="M948.208,400.569c2.157,1.8,4.556,3.722,6.907,5.688,2.434,2.035,4.84,4.1,7.249,6.163.532.453,1.039.938,1.564,1.417.18-.209.32-.306.306-.36-1.19-4.444-2.179-8.957-3.678-13.3-.773-2.233-2.456-4.149-3.711-6.174a7.243,7.243,0,0,1,1.212.381c6.526,3.157,10.377,8.152,10.489,15.595.076,5.084,0,10.172,0,15.264-.094,0-.284.079-.3.043-3.038-5.225-8.044-8.425-12.531-12.139a20.478,20.478,0,0,1-7.494-12.3C948.19,400.616,948.19,400.375,948.208,400.569Z" transform="translate(-810.62 -386.194)"/><path class="a" d="M621.275,401.579a18.924,18.924,0,0,1-6.336,11.866c-2.093,1.877-4.4,3.517-6.472,5.419-2.639,2.434-5.131,5.034-7.619,7.479a8.251,8.251,0,0,1-.058-.942c.032-4.966.032-9.935.115-14.9.119-6.724,5.505-13.524,11.956-15.17,0,.094.058.237,0,.273-3.132,2.751-4.462,6.364-5.221,10.348-.471,2.452-1.352,4.829-2.042,7.242a4.184,4.184,0,0,0-.173,2.046c.521-.453,1.032-.917,1.568-1.356,3.2-2.6,6.436-5.149,9.579-7.813C618.255,404.675,619.743,403.064,621.275,401.579Z" transform="translate(-588.132 -387.045)"/><path class="a" d="M805.109,580.79a2.031,2.031,0,0,0,.183.241c-.378.967-.755,1.935-1.169,2.988l.985.3-.061-.057v2.877l.248-.133,1.762,3.772c-5.393-.223-9.96-1.018-14.023-3.491-.863-.521-1.241-1.848-1.992-3.046l11.506,4.315.23-.586c-.64-.241-1.28-.489-1.924-.719-2.352-.867-4.714-1.715-7.058-2.6-2.136-.805-3.639-2.086-3.2-4.732l.744.144a23.783,23.783,0,0,0,9.78,5.005l-9.647-5.142-1.194-1.3c-.083-.989-.18-2.111-.324-3.794,3.394,3.348,6.753,5.972,10.442,7.231-2.657-1.931-5.627-4.1-8.6-6.249-1.96-1.42-2.028-3.286-1.345-5.394,1.485,1.618,2.877,3.236,4.376,4.757C797.691,578.068,801.3,579.618,805.109,580.79Z" transform="translate(-709.282 -499.178)"/><path class="a" d="M622.87,396.077c1.014-10.277,11.636-21.6,20.23-21.707C636.775,383.809,627.591,393.726,622.87,396.077Z" transform="translate(-602.273 -373.622)"/><path class="a" d="M926.31,372.29c10.223,1.69,19.741,11.887,20.345,21.934C937.82,388.726,932.707,380.014,926.31,372.29Z" transform="translate(-796.604 -372.29)"/><path class="a" d="M727.872,536.356c-1.32,3.089-2.636,6.181-4.088,9.579l-4.272-9.809c-.859,3.887-.406,8.511.974,9.514H717.61c1.438-1.338,1.438-9.816,0-11.33h4.056c.514,1.2,1.025,2.409,1.546,3.614.5,1.147,1,2.294,1.668,3.815.629-1.463,1.133-2.632,1.629-3.8s.971-2.308,1.489-3.542h3.883c-1.244,1.474-1.258,9.935.083,11.3h-4.545C728.372,544.695,728.6,541.721,727.872,536.356Z" transform="translate(-662.947 -476.052)"/><path class="a" d="M828.571,631.517h0l3.214,2.611-1.607,1.755,1.733-.245.079.223-2.441,1.384,1.632-.079.1.284q-1.873.974-3.75,1.945l-.169-.266-1.046,1.32c-1.712,0-3.236-1.744-5.135-.338l-.838-1.223c-.09.579-.151.978-.212,1.377l-.525.108c-.133-.8-.6-1.74-.334-2.38.654-1.607,2.157-1.374,3.535-1.133,2.456-1.686,3.164-2.769,4.246-6.58Z" transform="translate(-728.002 -537.514)"/><path class="a" d="M801.455,493.842V497c-.41-.636-.6-.946-.805-1.251a4.074,4.074,0,0,0-4.43-2.014c-1.83.406-2.438,1.852-2.675,3.434a13.1,13.1,0,0,0-.036,3.578c.36,2.945,2.157,4.006,5.455,3.06-.2-1.28-.417-2.6-.619-3.883h3.7c-.262,1.305-.536,2.646-.917,4.538a31.41,31.41,0,0,1-6.066.309,5.55,5.55,0,0,1-4.531-7.087,6.318,6.318,0,0,1,7.878-4.39C799.348,493.522,800.322,493.637,801.455,493.842Z" transform="translate(-709.526 -449.643)"/><path class="a" d="M799.9,545.827h-2.8c1.4-1.215,1.55-2.708,1.079-9.957l-1.147-1.3h3.6c.77.953,1.658,2.064,2.553,3.168a28.689,28.689,0,0,0,2.92,3.236c-.216-2.157,1.079-4.5-.989-6.472H807.5a17.12,17.12,0,0,0-.647,3.053c-.09,2.78-.032,5.563-.41,8.472l-7.245-8.935-.421.115C799.367,540.045,797.738,543.115,799.9,545.827Z" transform="translate(-713.81 -476.174)"/><path class="a" d="M764.16,534.64h3.9a9.1,9.1,0,0,0-.6,2.121c-.065,2.157-.025,4.315.032,6.472a2.021,2.021,0,0,0,1.927,2.19c1.284.133,2.686-.36,2.833-1.64a69.4,69.4,0,0,0,.219-8.026c0-.313-.446-.626-.78-1.079h2.255a24.41,24.41,0,0,0-.543,2.916c-.129,1.845,0,3.714-.216,5.552-.245,2.186-1.931,3.236-4.646,3.128-2.334-.093-3.657-1.24-3.772-3.448-.1-1.909,0-3.829-.083-5.753A16.59,16.59,0,0,0,764.16,534.64Z" transform="translate(-692.759 -476.263)"/><path class="a" d="M761.287,504.775c.273-.608.719-1.136.719-1.679.068-2.92.032-5.847.032-8.827-1.909-.539-2.877.385-3.678,2.438V493.42h10.1v2.913c-.881-1.392-1.668-2.74-3.729-2.071.3,3.441-.608,7.04.561,10.514Z" transform="translate(-689.044 -449.865)"/><path class="a" d="M740.31,493.33h4.707c-1.359,1.55-1.366,10.068.054,11.37h-4.513C741.748,503.362,741.658,494.768,740.31,493.33Z" transform="translate(-677.485 -449.807)"/><path class="a" d="M726.108,504.724h-4.455c1.471-1.316,1.41-9.874-.043-11.384h4.1a56.26,56.26,0,0,0-.32,5.66C725.457,500.884,724.731,502.879,726.108,504.724Z" transform="translate(-665.509 -449.814)"/></svg>