<svg xmlns="http://www.w3.org/2000/svg" width="400" height="86.624" viewBox="0 0 400 86.624"><defs><style>.a{fill:#70def1;}</style></defs><path class="a" d="M103.992,367.87c.122.1.235.259.357.276,2.505.243,2.594.438,2.505,2.935-.13,3.373-.065,6.753-.17,10.133-.1,3.145-.259,6.291-.527,9.42,0,.413-.884,1.054-1.386,1.078-3.113.146-6.242.154-9.372.187H88.013c.089-1.046.17-2.043.259-3.048a13.58,13.58,0,0,0,.276-3.526c-.567-3,.47-5.391,2-7.888a71.278,71.278,0,0,0,3.656-7.864l-2.432,2.278c-.316,3.307-3.243,7.345-6.234,7.993V371.98a8.991,8.991,0,0,1,.049-2.092,11.219,11.219,0,0,1,.916-2.019Z" transform="translate(-57.337 -367.87)"/><path class="a" d="M50.76,458.6c3.186,0,6.364.049,9.55.049h57.325a4.806,4.806,0,0,1,1.281,0c.276.081.47.438.7.673-.235.227-.438.592-.713.657a6.181,6.181,0,0,1-1.451,0H52.835c-.689,0-1.386.1-2.075.154Z" transform="translate(-50.76 -385.047)"/><path class="a" d="M439.848,377.581v33.9c-2.383,0-4.694.065-7-.049-.5,0-1.086-.592-1.443-1.054q-6.786-8.974-13.506-18.005c-.324-.43-.657-.851-1.232-1.621v20.624h-8.05V377.467c2.343,0,4.694-.049,7.045.049.454,0,.965.592,1.289,1.03q6.786,8.974,13.531,17.989c.341.462.713.908,1.281,1.621V377.581Z" transform="translate(-118.502 -369.685)"/><path class="a" d="M354.132,411.407H345.49V377.731c.113-.081.195-.195.284-.195,6.25.065,12.525-.2,18.743.292,5.724.462,9.185,3.632,10.1,8.488,1.038,5.48-.259,10.579-5.2,13.538a3.26,3.26,0,0,0-.47.414L375.94,411.5a53.62,53.62,0,0,0-6.38.049c-2.716.349-4.256-.608-5.213-3.17a42.26,42.26,0,0,0-2.992-5.723c-.2-.365-.649-.811-1-.811-2.035-.081-4.054-.041-6.226-.041Zm.041-16.3c2.967-.146,5.829-.081,8.626-.478,2.594-.365,3.956-2.432,3.924-5.14s-1.386-4.54-4-4.864c-2.8-.365-5.675-.308-8.553-.438Z" transform="translate(-106.552 -369.697)"/><path class="a" d="M258,377.53h8.529v13.782h14.22V377.587h8.65V411.4h-8.521V398.308h-14.22v13.085H258Z" transform="translate(-89.99 -369.699)"/><path class="a" d="M305.12,411.415V377.61h26.6v6.631h-17.9v6.785h16.044v6.85H313.827v6.745h18.3v6.794Z" transform="translate(-98.91 -369.714)"/><path class="a" d="M160.482,411.392c-.681-1.784-1.289-3.575-2.067-5.286a2.043,2.043,0,0,0-1.467-1.013c-4.159-.081-8.31,0-12.46-.065a1.386,1.386,0,0,0-1.621,1.167,1.347,1.347,0,0,1-.113.3c-.673,1.621-.932,3.9-2.148,4.718s-3.437.235-5.213.259H131.84c1.492-3.486,2.894-6.793,4.321-10.1q4.864-11.273,9.729-22.545a1.9,1.9,0,0,1,2.14-1.4c2.148.1,4.313,0,6.486.065a1.768,1.768,0,0,1,1.33.762q6.931,16.432,13.839,32.873a.465.465,0,0,1-.073.243Zm-4.961-12.93-4.783-12.29-4.864,12.29Z" transform="translate(-66.108 -369.674)"/><path class="a" d="M495.16,411.474c1.492-3.486,2.894-6.8,4.321-10.1q4.864-11.272,9.728-22.553a1.913,1.913,0,0,1,2.14-1.395c2.149.1,4.313,0,6.486.065a1.768,1.768,0,0,1,1.33.77q6.98,16.432,13.863,32.9a.683.683,0,0,1-.057.235h-9.177c-.657-1.719-1.281-3.543-2.075-5.286a2.042,2.042,0,0,0-1.467-1.013c-4.151-.081-8.31,0-12.461-.065a1.387,1.387,0,0,0-1.621,1.167,2.348,2.348,0,0,1-.113.308c-.681,1.621-.932,3.891-2.156,4.71s-3.437.235-5.213.259C497.584,411.49,496.473,411.474,495.16,411.474Zm18.889-25.31c-1.711,4.321-3.243,8.245-4.864,12.274h9.607C517.243,394.392,515.719,390.485,514.049,386.164Z" transform="translate(-134.884 -369.675)"/><path class="a" d="M477.438,394.018h7.45v7.426a13.118,13.118,0,0,0,0,2.586c.616,2.918-.924,4.232-3.381,5.245-6.315,2.61-12.655,3.64-19.092.576-6.794-3.243-10.182-9.428-9.639-17.34a16.769,16.769,0,0,1,11.95-14.463,21.079,21.079,0,0,1,19.611,3.372c.292.219.535.5.9.811l-4.726,5.675c-1.151-.73-2.181-1.492-3.316-2.083-5.529-2.878-11.35-1.5-14.2,3.291a10.441,10.441,0,0,0,1.483,12.42,10.191,10.191,0,0,0,12.25,1.54,1.922,1.922,0,0,0,.689-1.4C477.471,399.15,477.438,396.629,477.438,394.018Z" transform="translate(-126.85 -369.593)"/><path class="a" d="M240.632,400.129l4.929,5.213c-2.829,3.883-10.628,7.742-18.249,6.015a17.146,17.146,0,0,1-13.5-14.762c-.811-7.9,2.886-14.665,9.672-17.762,7.442-3.389,16.822-1.743,22.132,4.053l-4.921,5.8c-6-5.18-11.35-5.675-15.363-1.556a10.539,10.539,0,0,0,0,14.138C229.226,405.39,234.933,404.993,240.632,400.129Z" transform="translate(-81.605 -369.615)"/><path class="a" d="M103.613,422.861H100.37l-12.606.211h-.64c-2.716.349-2.756.268-2.74-2.432,0-3.956-.065-7.92,0-11.877A9.5,9.5,0,0,1,85,406.129c.413-1.338.916-2.643,1.346-3.972.9-2.716.162-2.546,3.5-2.537,4.24,0,8.488.1,12.736.089,1.289,0,1.832.43,1.8,1.775-.1,4.232-.049,8.472-.17,12.7C104.116,416.951,103.832,419.716,103.613,422.861Z" transform="translate(-57.119 -373.88)"/><path class="a" d="M60.533,425.488c2.432-4.8,6.226-8.107,11.058-11a30.88,30.88,0,0,1-.4,3.113c-.373,1.548-.916,3.056-1.257,4.613-.073.3.349.875.689,1.062,1.532.811,3.121,1.565,4.929,2.432h-7.3c-2.586,0-5.164.081-7.75.162-2.067.065-4.143.186-6.21.284-1.2.065-2.067-.089-2.043-1.694.073-4.426,0-8.853,0-13.279,0-2.286,0-4.58-.1-6.867-.057-1.443.34-2.108,1.962-2.083,5.975.089,11.95.065,17.925.049,1,0,1.281.235,1.143,1.305-.632,4.864-2.481,9-6.437,12.063-1.321,1.021-2.343,2.683-3.8,3.243-2.084.746-2.432,2.432-3.243,3.98A1.814,1.814,0,0,0,60.533,425.488Z" transform="translate(-51.024 -374.375)"/><path class="a" d="M78.2,375.937c-1.621-1.581-3.243-1.832-4.135-.892a3.134,3.134,0,0,0,.324,4.443c-1.889.665-4.053.235-7.158-1.711-2.075-1.305-4.054-2.821-6.38-4.491,1.719,2.1,3.113,3.956,4.686,5.675a4.47,4.47,0,0,0,2.311,1.021c3.381.673,5.756,2.837,7.929,5.261a3.648,3.648,0,0,1,.3,4.629,14.776,14.776,0,0,0-1.492,3.843c-.251,1.046-.892.9-1.573.908-4.054,0-8.18,0-12.274.065a8.623,8.623,0,0,0-2.246.162c-1.33.373-1.8-.105-1.792-1.4V382.1c0-3.243.065-6.55,0-9.818,0-1.175.438-1.621,1.475-1.621q9.307,0,18.6.049c.957,0,1.508.438,1.475,1.476S78.2,374.47,78.2,375.937Z" transform="translate(-51.884 -368.398)"/><path class="a" d="M191.4,404.247h14.455v7.134H182.87V377.6H191.4Z" transform="translate(-75.768 -369.712)"/><path class="a" d="M397.614,377.61v33.8h-8.5v-33.8Z" transform="translate(-114.809 -369.714)"/><path class="a" d="M287.961,466.467c1.176-3.4,2.213-6.388,3.243-9.38.665-1.938,1.427-3.842,1.93-5.821.389-1.556,1.175-2.14,2.708-1.881a8.574,8.574,0,0,0,1.216,0c1.93,5.561,3.843,11.082,5.918,17.081,2.067-6,3.972-11.512,5.869-17.025h3.186c-.811,2.2-1.548,4.3-2.319,6.4-1.581,4.3-3.243,8.577-4.71,12.906-.438,1.273-1.232,1.086-2.132,1.119s-1.557,0-1.938-1.135c-1.524-4.491-3.178-8.917-4.791-13.392-.178-.495-.381-.981-.721-1.857-.916,2.529-1.711,4.71-2.5,6.891-1.013,2.845-1.962,5.675-3.064,8.52a2.019,2.019,0,0,1-1.516.916c-.811,0-1.824.543-2.31-.811-2.311-6.38-4.694-12.744-7.045-19.108a.893.893,0,0,1,0-.324c.081-.049.162-.146.243-.154,2.748-.17,2.74-.162,3.656,2.481C284.532,456.625,286.177,461.327,287.961,466.467Z" transform="translate(-93.96 -383.291)"/><path class="a" d="M237.916,444.953l-1.621,2.132a43.425,43.425,0,0,0-5.788-2.432,10.937,10.937,0,0,0-12.161,4.986,10.19,10.19,0,0,0,1.062,11.771,11.293,11.293,0,0,0,12.817,3.04c.454-.17.876-.43,1.33-.584A2.021,2.021,0,0,0,235,461.516c-.081-2.092,0-4.191,0-6.388h2.74v9.307a1.167,1.167,0,0,1-.511.746c-7.118,5.115-17.1,3.948-21.646-3.721-5.091-8.593.989-19.521,11.1-20.089A15.841,15.841,0,0,1,237.916,444.953Z" transform="translate(-81.613 -381.777)"/><path class="a" d="M354.208,467.874H351.46V439.5h2.8v11.755a9.98,9.98,0,0,1,5.967-3.624c5.829-1.07,9.639,2.051,9.639,7.961v11.82a1.8,1.8,0,0,1-.122.405H366.9v-11.26c-.073-3.243-1.419-5.172-3.94-5.772-3.178-.762-6.364.43-7.588,3.161a14.222,14.222,0,0,0-1.013,4.864c-.162,2.854-.049,5.715-.057,8.577C354.33,467.469,354.257,467.582,354.208,467.874Z" transform="translate(-107.682 -381.431)"/><path class="a" d="M335.382,457.985c.446-4.24-2.124-6.526-6.34-5.861a12.553,12.553,0,0,0-2.773.811,25.487,25.487,0,0,0-2.578,1.362c-.405-.689-.811-1.37-1.184-2.035,3.34-3.243,9.728-3.591,12.728-1.938a6.283,6.283,0,0,1,3.186,4.621,7.864,7.864,0,0,1,.089,1.451c0,4.41,0,8.82,0,13.312h-2.919v-2.8a9.85,9.85,0,0,1-9.728,2.6,5.675,5.675,0,0,1-4.516-5.748c0-2.708,1.508-4.637,4.475-5.342a23.515,23.515,0,0,1,4.483-.405C331.961,457.936,333.631,457.985,335.382,457.985Zm0,2.286c-2.951.162-5.853.235-8.731.519a2.611,2.611,0,0,0-2.384,2.31,2.991,2.991,0,0,0,1.548,3.291,6.923,6.923,0,0,0,7.085-.3C334.969,464.916,335.917,463.084,335.382,460.271Z" transform="translate(-101.981 -383.296)"/><path class="a" d="M394.193,457.973c.211-4.4-2.286-6.558-6.486-5.845a12.885,12.885,0,0,0-2.773.811,27.042,27.042,0,0,0-2.505,1.321l-1.257-2.189c3.616-2.562,7.475-3.47,11.682-2.229a5.675,5.675,0,0,1,4.321,5.48c.17,4.734.049,9.477.049,14.325H394.4l-.122-2.8a9.842,9.842,0,0,1-8.026,2.91c-4.435-.227-7.3-4.183-5.845-8.042a5.712,5.712,0,0,1,5.156-3.6c2.294-.243,4.418-.146,6.632-.186C392.831,457.973,393.464,457.973,394.193,457.973Zm-.057,2.286c-2.935.162-5.829.227-8.707.519A2.619,2.619,0,0,0,383,463.21a3.016,3.016,0,0,0,1.67,3.243,6.973,6.973,0,0,0,6.956-.349C393.682,464.928,394.647,463.1,394.136,460.259Z" transform="translate(-113.09 -383.284)"/><path class="a" d="M251.418,449.49h2.943v8.269c0,1.24-.041,2.489.081,3.721.284,3.016,1.621,4.67,4.054,5.14,3,.592,5.861-.495,7.029-3.04a13.375,13.375,0,0,0,1.054-4.824c.162-3.056.048-6.121.048-9.258h2.837v20.227H266.7v-3.932c-.34.284-.519.365-.592.5-2,3.608-7.142,4.175-10.207,3.081a6.332,6.332,0,0,1-4.418-6.023C251.273,458.821,251.418,454.192,251.418,449.49Z" transform="translate(-88.735 -383.322)"/><path class="a" d="M182.018,444.4H173.23v-2.87h20.535v2.813h-8.634v23.915h-3.113Z" transform="translate(-73.943 -381.815)"/><path class="a" d="M527.059,459.066a4.7,4.7,0,0,1-.989.941,2.712,2.712,0,0,1-1.119,0H455.773a3.83,3.83,0,0,1-1.954-.616c.122-1.419,1.305-.73,1.994-.73q34.512-.057,69.015,0h1.921Z" transform="translate(-127.059 -385.027)"/><path class="a" d="M410.141,451.682l-2.821-.13v-2.246l2.781-.251V443.94h3.008v5.172h6.372v2.432h-6.291c0,4.054-.1,8,.041,11.917.065,1.775,1.4,2.61,3.2,2.3a21.226,21.226,0,0,0,2.651-.811l.811,2.27a7.694,7.694,0,0,1-5.407,1.565c-2.618-.211-4.321-2.165-4.361-5.108-.049-3.34,0-6.688,0-10.036Z" transform="translate(-118.256 -382.271)"/><path class="a" d="M149.81,441.47h2.837v26.753H149.81Z" transform="translate(-69.51 -381.804)"/><path class="a" d="M166.65,468.272h-2.87V441.52h2.87Z" transform="translate(-72.154 -381.813)"/><path class="a" d="M430.93,469.787h-2.74V449.52h2.74Z" transform="translate(-122.207 -383.328)"/><path class="a" d="M81.492,414.631c-.259,4.053-.519,8.107-.811,12.217-3.243-1.216-4.053-2.521-2.959-5.5.811-2.383,2.043-4.645,3.081-6.964Z" transform="translate(-55.777 -376.675)"/><path class="a" d="M431.576,441.873c-.113,1.346-.746,2.124-2.043,2.075a2.067,2.067,0,0,1,.146-4.118C431.017,439.871,431.5,440.779,431.576,441.873Z" transform="translate(-122.115 -381.493)"/></svg>