<svg xmlns="http://www.w3.org/2000/svg" xmlns:xlink="http://www.w3.org/1999/xlink" width="240" height="240" viewBox="0 0 240 240"><defs><style>.a{fill:#101a41;}.b{clip-path:url(#a);}.c{fill:none;}</style><clipPath id="a"><rect class="a" width="240" height="240" transform="translate(248 1206)"/></clipPath></defs><g class="b" transform="translate(-248 -1206)"><g transform="translate(248 1206)"><path class="a" d="M50.248,115.94,88.156,70.592,109.5,94.712l23.9-32.772,39.72,53.964a1.048,1.048,0,0,1-.072.156s-.042.066-.066.066c-.276,0-.552.036-.822.036H50.368Z" transform="translate(25.124 30.97)"/><path class="a" d="M27.44,132.118q36.84-51.252,73.494-102.2c.7.534,32.892,45.342,34.68,48.258L120.362,99.1c-7-7.914-13.938-15.75-20.922-23.646-.258.276-.474.492-.666.72L69.68,111,52.574,131.482a1.512,1.512,0,0,1-1.272.708H28.136C27.968,132.172,27.836,132.154,27.44,132.118Z" transform="translate(13.72 14.96)"/><path class="a" d="M44,103.4v19.314c-1.11,0-2.166.054-3.222-.03-.288,0-.6-.39-.8-.678-1.374-2.064-2.724-4.146-4.08-6.216-1.146-1.758-2.292-3.51-3.648-5.244,0,.348-.06.69-.06,1.038v9.924c0,.366-.03.738-.048,1.158H28.6c-.222-.774-.282-17.8-.072-19.266h3.564l7.95,12.174.216-.036c.078-1.308,0-2.622,0-3.93V103.4Z" transform="translate(14.199 51.7)"/><path class="a" d="M51.22,103.084c4.9-.276,10.128,4.122,10.092,10.1a10.122,10.122,0,1,1-10.092-10.1Zm-.054,3.69a6.166,6.166,0,0,0-6.294,6.474,6.342,6.342,0,1,0,12.678-.042A6.274,6.274,0,0,0,51.166,106.774Z" transform="translate(20.534 51.536)"/><path class="a" d="M78.613,122.634c-.276.036-.444.078-.6.084H75.049c-.264-.828-.366-16.638-.144-19.308h3.678c.09,2.328,0,4.686.06,7.1h6.366v-7.1H88.7c.228.774.246,18.3,0,19.248h-3.69V114.3H78.637v8.334Z" transform="translate(37.391 51.702)"/><path class="a" d="M57.117,103.292c2.4.1,4.8.1,7.146.33a4.692,4.692,0,0,1,4.2,4.29,9.385,9.385,0,0,1,0,2.052,4.6,4.6,0,0,1-2.478,3.708c-.33.186-.666.348-1.056.546l4.518,8.49h-4.1c-1.422-2.646-2.874-5.364-4.332-8.082a7.14,7.14,0,0,0-.252,2.622V122.7H57.123C56.949,121.94,56.895,104.8,57.117,103.292Zm3.72,7.548H63a2.057,2.057,0,0,0,.5-.084,1.662,1.662,0,0,0,1.428-1.74,1.746,1.746,0,0,0-1.374-1.8,6.93,6.93,0,0,0-2.724-.066Z" transform="translate(28.485 51.646)"/><path class="a" d="M110.348,103.38H114.3c2.448,6.372,4.9,12.756,7.422,19.3-.8,0-1.458.06-2.124.048-2.2-.042-1.6.36-2.442-1.692-.324-.792-.6-1.6-.93-2.4h-7.752c-.546,1.35-1.092,2.682-1.65,4.044h-3.894C105.392,116.184,107.888,109.794,110.348,103.38Zm2.112,5.4a50.479,50.479,0,0,0-2.52,6.078h4.848c-.8-2.064-1.566-4.062-2.328-6.06Z" transform="translate(51.466 51.69)"/><path class="a" d="M105.254,122.666h-10.6V103.388h10.536v3.6H98.366v3.36h6.822v3.666H98.372v5.016h6.858C105.29,120.26,105.26,121.412,105.254,122.666Z" transform="translate(47.326 51.694)"/><path class="a" d="M128.028,106.275l-2.7,2.4c-.312-.336-.57-.648-.864-.924a2.964,2.964,0,0,0-2.088-.99,1.488,1.488,0,0,0-1.524.84,1.26,1.26,0,0,0,.462,1.476c.8.756,1.644,1.464,2.466,2.2,1.05.942,2.142,1.842,3.138,2.844a5.094,5.094,0,0,1,1.482,3.636,5.3,5.3,0,0,1-4.164,5.334,6.708,6.708,0,0,1-7.98-3.936c-.03-.054,0-.132,0-.276l3-1.848c.276.384.5.72.744,1.038a3.642,3.642,0,0,0,1.95,1.452,2.34,2.34,0,0,0,2.052-.408,1.506,1.506,0,0,0,.492-2.094,4.741,4.741,0,0,0-.972-1.2c-1.1-.99-2.268-1.908-3.372-2.9a16.429,16.429,0,0,1-1.932-2,4.421,4.421,0,0,1-.672-5.022,5.052,5.052,0,0,1,4.482-2.838C124.17,102.951,126.138,103.827,128.028,106.275Z" transform="translate(58.122 51.525)"/><path class="a" d="M125.448,103.376h10.668v3.6H132.7c-.084,1.386-.036,2.682-.042,3.972s0,2.622,0,3.93v7.8H128.82c-.048-2.6,0-5.2,0-7.8v-7.8h-3.348Z" transform="translate(62.724 51.688)"/><path class="a" d="M66.068,103.392H76.73v3.57H73.274v15.69H69.488v-15.6c-.648,0-1.2-.048-1.716-.06h-1.7Z" transform="translate(33.034 51.696)"/><path class="a" d="M112.136,120.168c.684,4.8,1.368,9.6,2.07,14.448h-1.5c-.45-3.27-.906-6.534-1.362-9.852-.462.144-.5.6-.648.87-1.368,2.742-2.712,5.5-4.062,8.244a4.8,4.8,0,0,1-.276.558c-.222.336-.5.348-.72,0a5.3,5.3,0,0,1-.384-.732l-4-8.046a4.122,4.122,0,0,0-.564-.9c-.654,3.252-.96,6.552-1.5,9.864H97.736c.7-4.842,1.38-9.648,2.064-14.448l.258-.048c2,3.846,3.852,7.8,5.94,11.85l5.8-11.868Z" transform="translate(48.868 60.054)"/><path class="a" d="M112.986,124.746q-.684,4.932-1.362,9.864h-1.476c.7-4.86,1.38-9.648,2.07-14.436l.222-.06c.756,1.2,1.29,2.526,1.938,3.78s1.32,2.652,1.98,3.972l2,4.032c.216-.36.378-.6.5-.858q2.478-5.046,4.938-10.11a2.508,2.508,0,0,1,.6-.822c.852,4.8,1.53,9.636,2.2,14.514h-1.482l-1.368-9.852-.18-.048c-.168.312-.348.6-.51.948q-2,4.08-4,8.154a4.8,4.8,0,0,1-.276.558c-.252.39-.516.39-.774,0a6.483,6.483,0,0,1-.33-.642L113.64,125.6c-.144-.3-.318-.6-.48-.87Z" transform="translate(55.074 60.054)"/><path class="a" d="M44.2,119.909a7.506,7.506,0,0,1,7.74,7.56,7.71,7.71,0,0,1-15.414.042,7.512,7.512,0,0,1,7.674-7.6Zm-.06,13.686a5.946,5.946,0,0,0,6.216-6.06,6.12,6.12,0,1,0-12.234,0A5.978,5.978,0,0,0,44.138,133.6Z" transform="translate(18.262 59.953)"/><path class="a" d="M62.51,122.991l-1.158.882A6.516,6.516,0,0,0,55.88,121.4a6.276,6.276,0,0,0-4.428,1.95,6.2,6.2,0,0,0,0,8.364,6.8,6.8,0,0,0,9.924-.51l1.146.84a7.2,7.2,0,0,1-4.332,2.88,8.808,8.808,0,0,1-4.4-.054,7.62,7.62,0,0,1,.744-14.856C57.56,119.547,60.6,120.309,62.51,122.991Z" transform="translate(24.1 59.943)"/><path class="a" d="M68.766,120.028c.2.174.348.24.4.348,2.214,4.728,4.422,9.462,6.684,14.3H74.214l-2.256-4.668H65.736l-2.25,4.7H61.848c.5-1.3,1.116-2.466,1.668-3.654s1.164-2.5,1.752-3.744,1.14-2.4,1.722-3.642S68.076,121.246,68.766,120.028Zm-2.346,8.508h2.448l2.4-.036-2.4-5.154Z" transform="translate(30.924 60.014)"/><path class="a" d="M89.374,120.132h1.554v10.2c0,2.592,2.358,3.54,4.23,3.09a2.874,2.874,0,0,0,2.208-2.232,7.433,7.433,0,0,0,.18-1.632q0-4.086,0-8.166v-1.2h1.416a6.74,6.74,0,0,1,.084.78v8.16a12.049,12.049,0,0,1-.246,2.46,4.2,4.2,0,0,1-3.474,3.378,5.19,5.19,0,0,1-4.044-.78,3.84,3.84,0,0,1-1.8-3c-.072-.858-.132-1.722-.138-2.58v-7.332Z" transform="translate(44.672 60.066)"/><path class="a" d="M29.264,131.9l1.2-.7a19.735,19.735,0,0,0,1.254,1.572,2.574,2.574,0,0,0,3.294.456,2.19,2.19,0,0,0,.756-3.192,8.731,8.731,0,0,0-1.524-1.668c-.924-.822-1.932-1.554-2.862-2.37a3.516,3.516,0,0,1-1.242-2.832,3.384,3.384,0,0,1,3.126-3.258,4.516,4.516,0,0,1,4.3,2.328l-1.2.888a9.87,9.87,0,0,0-.834-.87,4.1,4.1,0,0,0-1.014-.69,2.034,2.034,0,0,0-2.4.6,2,2,0,0,0,.168,2.478,7.416,7.416,0,0,0,1.05.984c.672.54,1.386,1.026,2.046,1.572a10.418,10.418,0,0,1,1.32,1.254,3.835,3.835,0,0,1,.24,5.178,4.26,4.26,0,0,1-5.4.954,5.52,5.52,0,0,1-2.28-2.682Z" transform="translate(14.632 59.946)"/><path class="a" d="M81.648,131.925l1.2-.708a16.81,16.81,0,0,0,1.266,1.584,2.556,2.556,0,0,0,3.12.528,2.25,2.25,0,0,0,.912-3.4,9.138,9.138,0,0,0-1.482-1.566c-.93-.816-1.932-1.554-2.862-2.4a3.5,3.5,0,0,1-1.2-2.838,3.366,3.366,0,0,1,2.94-3.216,4.242,4.242,0,0,1,4.392,2.358l-1.08.84a6.468,6.468,0,0,0-.816-.81,5.544,5.544,0,0,0-1.488-.858,1.866,1.866,0,0,0-2.058,2.832A5,5,0,0,0,85.53,125.4c.714.6,1.506,1.1,2.2,1.7a11.4,11.4,0,0,1,1.722,1.764,3.672,3.672,0,0,1,.216,4.344,4.2,4.2,0,0,1-4.284,1.866C83.562,134.787,82.524,133.575,81.648,131.925Z" transform="translate(40.824 59.937)"/><path class="a" d="M72.7,120.128h1.488v13.1h5.526v1.29a39.393,39.393,0,0,1-7.014.1Z" transform="translate(36.352 60.064)"/><path class="a" d="M129.846,134.672h-1.512V121.658h-3.222v-1.524c2.616-.1,5.244-.03,7.926-.048v1.53h-3.192Z" transform="translate(62.556 60.04)"/><path class="a" d="M122.9,120.116h1.284c.216.762.282,13.014.078,14.514H122.9Z" transform="translate(61.452 60.058)"/><path class="a" d="M93.889,110.436V113.6H87.175c-.072-1.014,0-2.058,0-3.168Z" transform="translate(43.571 55.218)"/><path class="a" d="M59.593,120.12h1.266c.2.78.276,12.636.09,14.5h-1.29C59.473,133.9,59.407,121.74,59.593,120.12Z" transform="translate(29.741 60.06)"/><rect class="c" width="240" height="240"/></g></g></svg>