<svg xmlns="http://www.w3.org/2000/svg" width="64" height="64" viewBox="0 0 64 64"><defs><style>.a{fill:#f1574a;}.b{fill:#fff;}</style></defs><g transform="translate(-5 -5)"><circle class="a" cx="32" cy="32" r="32" transform="translate(5 5)"/><path class="b" d="M48.105,53.711v4.357h5.8a4.933,4.933,0,0,1-2.133,3.259,6.245,6.245,0,0,1-3.147,1.013,6.4,6.4,0,0,1-2.352-.277,6.523,6.523,0,0,1-4.464-5.627,6.267,6.267,0,0,1,.128-1.968,6.4,6.4,0,0,1,7.125-4.987,5.867,5.867,0,0,1,3.2,1.536l3.152-3.152a12.854,12.854,0,0,0-1.92-1.408,10.229,10.229,0,0,0-5.157-1.4H47.3a8.779,8.779,0,0,0-1.787.277,10.853,10.853,0,0,0-8.2,9.925,10.133,10.133,0,0,0,.229,2.917,10.72,10.72,0,0,0,4.235,6.475A10.6,10.6,0,0,0,47.561,66.7a11.531,11.531,0,0,0,3.547-.341,9.451,9.451,0,0,0,5.333-3.5A11.631,11.631,0,0,0,58.3,53.721Z" transform="translate(-15.068 -18.695)"/><path class="b" d="M92.135,58.246H88.466V54.47h-2.96v3.776H81.73v2.96h3.776v3.776h2.96V61.206h3.776v-2.96Z" transform="translate(-35.807 -23.086)"/></g></svg>