<svg xmlns="http://www.w3.org/2000/svg" width="64" height="64" viewBox="0 0 64 64"><defs><style>.a{fill:#4f76bb;}.b{fill:#fff;fill-rule:evenodd;}</style></defs><g transform="translate(-5 -5)"><circle class="a" cx="32" cy="32" r="32" transform="translate(5 5)"/><path class="b" d="M62.925,43.863h2.923V39.4c-.459-.043-.933-.112-1.413-.133-.88-.037-1.755-.08-2.635-.064a6.491,6.491,0,0,0-3.733,1.152,5.579,5.579,0,0,0-2.235,3.733A13.425,13.425,0,0,0,55.677,46c0,1,0,1.995,0,3v.373H51.41v4.971h4.235V66.828h5.173V54.348h4.24c.219-1.653.432-3.291.651-5H60.823s0-2.464.037-3.531C60.9,44.354,61.773,43.895,62.925,43.863Z" transform="translate(-21.658 -15.962)"/></g></svg>