<svg xmlns="http://www.w3.org/2000/svg" width="64" height="64" viewBox="0 0 64 64"><defs><style>.a{fill:#34c4f3;}.b{fill:#fff;fill-rule:evenodd;}</style></defs><g transform="translate(-5 -5)"><circle class="a" cx="32" cy="32" r="32" transform="translate(5 5)"/><path class="b" d="M48.576,61.433A5.808,5.808,0,0,1,43.2,57.407a5.744,5.744,0,0,0,2.485-.075l.085-.037A5.781,5.781,0,0,1,42,54.628a5.6,5.6,0,0,1-.848-3.083,5.723,5.723,0,0,0,2.581.731,5.867,5.867,0,0,1-2.389-3.52,5.733,5.733,0,0,1,.624-4.2A16.6,16.6,0,0,0,53.909,50.6c-.043-.229-.043-.453-.1-.635a5.659,5.659,0,0,1,.848-3.8A5.573,5.573,0,0,1,58.6,43.545a5.648,5.648,0,0,1,5.077,1.6.293.293,0,0,0,.309.091,11.733,11.733,0,0,0,3.376-1.28l.075-.037h.037a5.941,5.941,0,0,1-2.485,3.157,11.12,11.12,0,0,0,3.232-.869h0c-.219.288-.432.587-.667.869a11.381,11.381,0,0,1-2.133,2.005.2.2,0,0,0-.1.181,16,16,0,0,1-.107,2.576A17.066,17.066,0,0,1,63.723,57a16.715,16.715,0,0,1-3.136,4.571,15.467,15.467,0,0,1-7.925,4.464,17.259,17.259,0,0,1-3.232.384,16.336,16.336,0,0,1-9.28-2.491L40,63.844a11.787,11.787,0,0,0,5.8-.8A11.541,11.541,0,0,0,48.576,61.433Z" transform="translate(-16.333 -17.943)"/></g></svg>