<svg id="art" xmlns="http://www.w3.org/2000/svg" width="160" height="160" viewBox="0 0 160 160">
  <g id="Layer_1" data-name="Layer 1">
    <rect id="Rectangle_90" data-name="Rectangle 90" width="160" height="157.932" fill="none"/>
    <path id="Exclusion_15" data-name="Exclusion 15" d="M-4310.84-5982.895h0L-4381-5990l11.377-64.091,66.118-.905-7.334,72.1Zm3.427-68.274-59.093.807-10.173,57.286,62.713,6.349,6.553-64.442Z" transform="translate(4425.258 6078.412)" fill="#9cf1eb"/>
    <path id="Path_1486" data-name="Path 1486" d="M161.03,105.753l2.409-1.722L171.5,34.013,168.53,32.03Z" transform="translate(-45.906 -9.427)" fill="#9cf1eb"/>
    <path id="Path_1487" data-name="Path 1487" d="M121.38,30.184l.915-6.1h3.117l-.508,6.055Z" transform="translate(-34.603 -7.087)" fill="#9cf1eb"/>
    <path id="Path_1488" data-name="Path 1488" d="M126.818,24.08l.672.706v5.4l-1.18-.049Z" transform="translate(-36.008 -7.087)" fill="#9cf1eb"/>
    <path id="Path_1489" data-name="Path 1489" d="M63.493,126.6l-2.8,1.7,61.777,7.311L126.7,133Z" transform="translate(-17.301 -37.26)" fill="#9cf1eb"/>
    <path id="Path_1490" data-name="Path 1490" d="M147.1,140.215v-1.934l4.232-2.611-.386,2.272Z" transform="translate(-41.935 -39.93)" fill="#9cf1eb"/>
    <path id="Path_1491" data-name="Path 1491" d="M60.69,129.01v1.849l61.777,7.4v-1.934Z" transform="translate(-17.301 -37.97)" fill="#9cf1eb"/>
    <path id="Path_1492" data-name="Path 1492" d="M135.27,140.68l10.574,33.774h2.116l-10.738-33.541Z" transform="translate(-38.562 -41.404)" fill="#9cf1eb"/>
    <path id="Path_1493" data-name="Path 1493" d="M148.738,174.551l.958-1.059L138.979,141.13l-.979-.12Z" transform="translate(-39.34 -41.501)" fill="#9cf1eb"/>
    <path id="Path_1494" data-name="Path 1494" d="M76.863,134.29,62.5,183.011l3.124.917L80.18,134.685Z" transform="translate(-17.817 -39.524)" fill="#9cf1eb"/>
    <path id="Path_1495" data-name="Path 1495" d="M82.677,135,68.564,182.724l-1.694,1.369L81.426,134.85Z" transform="translate(-19.063 -39.688)" fill="#9cf1eb"/>
    <path id="Path_1496" data-name="Path 1496" d="M73.217,185.42l-.987,3.613,49.1,11.418-.379-4.121Z" transform="translate(-20.591 -54.572)" fill="#9cf1eb"/>
    <path id="Path_1497" data-name="Path 1497" d="M140.681,200.358,138,141.01l4.132.494,2.374,60Z" transform="translate(-39.34 -41.501)" fill="#9cf1eb"/>
    <path id="Path_1498" data-name="Path 1498" d="M146.154,201.707l1.53-1.32-3.046-58.572-.858-.106Z" transform="translate(-40.988 -41.707)" fill="#9cf1eb"/>
    <path id="Path_1499" data-name="Path 1499" d="M122.467,137.969v-1.651h0l4.2-2.646.079.12-2.1,1.327-2.109,1.313H122.5l-7.728-.868c-2.574-.282-5.147-.593-7.721-.889-5.155-.6-10.3-1.193-15.45-1.821s-10.295-1.228-15.435-1.877S65.83,129.706,60.69,129q7.735.819,15.457,1.694c5.155.572,10.3,1.178,15.457,1.771s10.295,1.221,15.442,1.842c2.574.311,5.147.607,7.714.932l7.721.96h-.071l2.145-1.284,2.145-1.284.079.12-4.254,2.562h0Z" transform="translate(-17.301 -37.967)" fill="#101a41"/>
    <path id="Path_1500" data-name="Path 1500" d="M126.789,24.08a13.56,13.56,0,0,1,0,1.524v.762l-.057.755a10.734,10.734,0,0,1-.172,1.51c-.071.5-.157,1.009-.279,1.5a13.553,13.553,0,0,1,0-1.524,9.766,9.766,0,0,1,.079-1.517l.079-.762a4.474,4.474,0,0,1,.1-.748A15.05,15.05,0,0,1,126.789,24.08Z" transform="translate(-35.994 -7.087)" fill="#101a41"/>
    <line id="Line_3" data-name="Line 3" x2="0.357" y2="7.868" transform="translate(98.652 99.509)" fill="#231f20"/>
    <path id="Path_1501" data-name="Path 1501" d="M138,141c.086.649.15,1.306.193,1.962s.093,1.313.122,1.962.05,1.313.057,1.969,0,1.32,0,1.976c-.086-.656-.143-1.313-.193-1.962s-.086-1.313-.114-1.969-.05-1.313-.064-1.969S138,141.663,138,141Z" transform="translate(-39.338 -41.498)" fill="#101a41"/>
    <line id="Line_4" data-name="Line 4" x1="2.374" y1="56.561" transform="translate(102.792 103.439)" fill="#231f20"/>
    <path id="Path_1502" data-name="Path 1502" d="M146.154,203.185c-.143-2.35-.265-4.707-.393-7.057l-.357-7.057c-.122-2.35-.214-4.707-.322-7.057l-.315-7.057-.279-7.057c-.093-2.357-.193-4.714-.272-7.057l-.236-7.057c-.064-2.357-.15-4.714-.2-7.057.143,2.357.265,4.714.393,7.057l.357,7.057c.122,2.357.214,4.714.322,7.057l.315,7.057.279,7.057c.086,2.357.193,4.707.265,7.057l.243,7.057C146.018,198.471,146.082,200.828,146.154,203.185Z" transform="translate(-40.988 -43.185)" fill="#101a41"/>
    <line id="Line_5" data-name="Line 5" x1="14.556" y2="49.243" transform="translate(47.807 95.162)" fill="#231f20"/>
    <path id="Path_1503" data-name="Path 1503" d="M81.426,134.85c-.565,2.061-1.151,4.121-1.73,6.182l-1.766,6.175c-.579,2.054-1.194,4.107-1.787,6.161l-1.8,6.161L72.5,165.681c-.615,2.046-1.215,4.1-1.852,6.147L68.779,178c-.636,2.039-1.258,4.086-1.909,6.125.558-2.061,1.151-4.121,1.723-6.182l1.766-6.168c.579-2.061,1.194-4.114,1.794-6.168l1.8-6.161,1.837-6.147c.615-2.054,1.215-4.107,1.845-6.147l1.873-6.147C80.146,138.936,80.775,136.889,81.426,134.85Z" transform="translate(-19.063 -39.688)" fill="#101a41"/>
    <path id="Path_1504" data-name="Path 1504" d="M72.23,189.136l.915-3.366,47.85,11.129" transform="translate(-20.591 -54.675)" fill="#9cf1eb"/>
    <path id="Path_1505" data-name="Path 1505" d="M72.23,189.127l.9-3.373.007-.014.014.007,2.988.677,3,.692L85.12,188.5l11.968,2.766,11.954,2.8,5.977,1.4,5.977,1.425L115,195.528l-5.984-1.383-11.968-2.759L85.1,188.591l-5.984-1.4-2.988-.7-2.981-.713.021-.007Z" transform="translate(-20.591 -54.666)" fill="#101a41"/>
    <path id="Path_1506" data-name="Path 1506" d="M89.771,88.959c-.615-3.818-.4-7.544-.994-11.326A74.483,74.483,0,0,0,80.606,79.3c-.879,2.364-1.666,5.307-2.645,7.494-.715,1.68-4.826,2.364-4.29.233.622-2.519,1.823-4.792,2.459-7.29-.422-1.729-.336-4.418,1.344-5.441.322-.2.443-.071.715-.212,3.217-8.518,6.434-16.972,8.929-25.765.307-1.08,1.687-1.256,2.667-1.009s1.923.706,1.873,1.778a123.936,123.936,0,0,0,.822,22.152c.8,0,1.387-.536,2.238-.438,2.195.247.272,4.9-1.022,5.737-.143.092-.4.085-.543.162.243,3.9.715,7.833.815,11.728C94.06,90.963,90.114,91.09,89.771,88.959ZM88.034,72.114c-.429-3.232-.715-6.471-.879-9.724-1.258,3.528-2.581,7.1-4.032,10.585Z" transform="translate(-20.988 -13.895)" fill="#9cf1eb"/>
    <path id="Path_1507" data-name="Path 1507" d="M122.163,92.22c1.215,1.644-2.817,3.324-3.9,1.969-4.475-5.6-6.956-13.352-3.868-20.183-2.738.155-5.226,1.729-7.55,3.084-.965,4.178-2.223,8.588-3.575,12.575-.779,2.35-4.912,1.807-4.29-.254a174.761,174.761,0,0,0,4.64-20.14c.386-2.343,4.29-2.286,4.468-.169a13.89,13.89,0,0,1-.2,1.9,17.757,17.757,0,0,0,2.624-2.075c3.282-3.049,7.392-7.7,7.693-12.279a3.8,3.8,0,0,0-.855-2.844,3.9,3.9,0,0,0-2.656-1.39c-3.853-.219-5.4,4.763-6.492,7.579a1.563,1.563,0,0,1-.4.656l-.086.042c-1.072.854-3.839.776-3.832-.861,0-3.352-.05-6.351,0-9.71,0-2.018,3.889-2.117,4.29-.071a13.932,13.932,0,0,1,.1,1.955c1.687-1.157,2.738-2.357,5-2.54,3.439-.282,7.435.8,9.294,4.234,2.381,4.4-3.575,11.291-6.542,14.495A37.827,37.827,0,0,1,113.3,70.9a8.808,8.808,0,0,1,5.269.847,1.01,1.01,0,0,1,.577.537.99.99,0,0,1,.01.783C115.528,80.287,117.616,86.053,122.163,92.22Z" transform="translate(-28.2 -14.292)" fill="#9cf1eb"/>
    <path id="Path_1508" data-name="Path 1508" d="M148.335,55c-2.745.55-6.027,1.171-8.887,1.919a285.043,285.043,0,0,0,.629,37.147c.164,2.272-3.982,2.724-4.189.706a322.214,322.214,0,0,1-1.68-36.435c-1.609.325-3.475,1.334-4.962,1.75-1.909.529-1.373-4.94.279-5.645a71.264,71.264,0,0,1,19.139-4.756C150.48,49.5,150.3,54.635,148.335,55Z" transform="translate(-36.499 -14.622)" fill="#9cf1eb"/>
  </g>
</svg>
