<svg xmlns="http://www.w3.org/2000/svg" width="160" height="160" viewBox="0 0 160 160"><rect width="160" height="160" fill="none"/><path d="M68.2,40.62s-1.08-4.24.779-6.013,1.58-3.317,1.58-3.317a6.177,6.177,0,0,1,3.689-.272,1.837,1.837,0,0,1,1.308,2.145,4.2,4.2,0,0,0-.179,1.551c.129.493-1.037,2.023-1.037,2.023A2.366,2.366,0,0,0,72.142,38C71.534,39.34,71.82,54.589,89.3,55.962c0,0,3.36-8.129-.979-9.294,0,0-1.137-.25-.372-2.424a5.077,5.077,0,0,0-1.43-3.153s3.61-9.223,11.267-1.98c2.931,6.363.815,7.943.815,7.943l2.352-1.43a16.551,16.551,0,0,0,0-8.415c-1.172-4.94-3.8-9.852-8.8-11.61-1.43-.379-4.962,3.5-6.005.586s-1.158-3.639.1-3.946,2.617-1.752,5.569-.879,13.04-.372,17.873,16.172c-.715,8.972-1.752,13.626.207,16.508l11.181,16.443s3.453,4.454,2.038,8.257,6.756,28.711,6.756,28.711,4.011,6.577-4.161,11.139c0,0-15.421,8.214-21.262,12.912,0,0,.279,4.089,5.977,8.994,0,0-3.775,4.29-11.289-6.213,0,0-1.687,3.675,4.061,7.6,0,0-5.812,1.966-8.629-2.288-1.737-2.86-3.861-2.552-3.861-2.552l-3.575-3.51,4.847-6.1s16.443-13.126,17.916-12.819,6.656-5.777,2.388-11.839a140.445,140.445,0,0,1-6.034-14.363s0,5.576-8.7,3.3-9.122,3.832-9.122,3.832-1.659-18.71-1-24.758c.315-2.481-1.516-5.069-4.6-5.991S70.476,54.625,69.447,49.528A70.5,70.5,0,0,1,68.2,40.62Z" transform="translate(-19.352 -6.01)" fill="#101a41"/></svg>