<svg xmlns="http://www.w3.org/2000/svg" width="160" height="160" viewBox="0 0 160 160"><rect width="160" height="160" fill="none"/><path d="M61.287,129.312s10.981-6.806-7.464-37.97c0,0-5.283-5.362-4.561-9.051S39.7,61.173,39.7,61.173L30.4,57.991s-3.439-10.931,9.358-7.464S53.659,54.7,55.889,62.8,68.758,76.451,68.758,76.451s.8,2.631,18.159-25.2c0,0,13.934-6.434,13.691,1.516s-3.332,9.444,3.131,6.777c5.147.715,7.95,5.626,7.95,5.626s-1.3,3.038,3.253.565c5.348,1.137,8.579,2.752,9.294,6.384s-10.4,15.621,2.388.522a198.029,198.029,0,0,0,12.618-15.471s10.195-10.395,7.149,6.105c0,0-11.675,14.349-14.57,19.553s-8.357,8.515-10.624,22.391-19.167,33.358-19.167,33.358l-1.208,10.452s-16.4-22.163-41.566-14.542Z" transform="translate(-8.547 -13.909)" fill="#101a41"/><path d="M69.013,90.35a64.571,64.571,0,0,1,7.521,2.538q3.689,1.5,7.235,3.332a67.282,67.282,0,0,1,13.176,9.029l1.487,1.358c.479.472.951.951,1.43,1.43s.929.979,1.387,1.473l.715.715c.229.25.436.515.651.772a34.131,34.131,0,0,1,4.44,6.785l.436.922c.143.307.3.6.422.922.25.629.508,1.258.715,1.887.129.315.229.636.329.958l.293.972.3.965c.093.322.15.665.222.987.143.665.293,1.315.422,1.98s.172,1.33.257,1.995l.107,1,.043,1v2h-.222c-.164-.651-.322-1.287-.472-1.93l-.214-.958-.286-.944-.536-1.873c-.222-.615-.429-1.23-.643-1.845A45.04,45.04,0,0,0,105,118.818a57.009,57.009,0,0,0-4.2-6.434,47.043,47.043,0,0,0-5.09-5.841,65.587,65.587,0,0,0-12.5-9.365,77.768,77.768,0,0,0-14.3-6.642Z" transform="translate(-19.647 -25.757)" fill="#83cccd"/><path d="M105.014,57.114c-.715,1.43-1.43,2.924-2.038,4.411s-1.265,2.981-1.83,4.49a62.513,62.513,0,0,0-2.767,9.237,27.037,27.037,0,0,0-.586,4.7,10.724,10.724,0,0,0,.715,4.44,4.876,4.876,0,0,0,1.158,1.7,5,5,0,0,0,1.78,1.008,7.95,7.95,0,0,0,2.145.343,14.068,14.068,0,0,0,2.252-.143l-.815.6c.908-2.2,1.837-4.4,2.86-6.549s2.145-4.29,3.246-6.356,2.3-4.168,3.525-6.213,2.481-4.061,3.853-6.02l.193.107c-.879,2.216-1.823,4.4-2.774,6.577s-1.93,4.332-2.924,6.477-1.973,4.29-3,6.434l-3.1,6.377-.272.565h-.55a17.438,17.438,0,0,1-2.6.036,9.823,9.823,0,0,1-2.638-.558A6.728,6.728,0,0,1,98.487,87.3,6.627,6.627,0,0,1,97,84.982a12.239,12.239,0,0,1-.629-5.1,27.4,27.4,0,0,1,.808-4.912c.193-.8.415-1.594.658-2.381s.508-1.559.786-2.324c.55-1.537,1.165-3.053,1.816-4.547A91.143,91.143,0,0,1,104.814,57Z" transform="translate(-27.459 -16.249)" fill="#83cccd"/><path d="M120.551,72.019q1.244-1.809,2.531-3.575c.429-.6.865-1.187,1.308-1.773a11.249,11.249,0,0,1,.715-.872l.372-.429c.064-.071.136-.143.222-.222a.787.787,0,0,1,.193-.129h.179a.407.407,0,0,1,.2.079.379.379,0,0,1,.129.4,1.329,1.329,0,0,1-.107.336c-.036.093-.072.179-.114.265s-.164.336-.25.508c-.172.329-.343.651-.522.972-.357.651-.715,1.287-1.087,1.923-.715,1.273-1.487,2.531-2.245,3.789h0l-.05.057a33.6,33.6,0,0,0-6.806,11.918,17.243,17.243,0,0,0-.715,3.3,8.865,8.865,0,0,0,.214,3.181,4.811,4.811,0,0,0,1.566,2.452,6.756,6.756,0,0,0,2.76,1.237l-1.094.372q2.231-3.024,4.433-6.077l2.209-3.053q1.108-1.523,2.2-3.067l4.375-6.163c1.473-2.052,2.924-4.118,4.425-6.163l.193.114c-1.051,2.309-2.231,4.561-3.439,6.785-.629,1.108-1.244,2.216-1.887,3.31s-1.294,2.145-1.966,3.253-1.358,2.145-2.052,3.21c-.35.529-.715,1.051-1.065,1.58s-.715,1.051-1.087,1.559c-1.43,2.08-3.038,4.082-4.661,6.048l-.458.55-.643-.179a8.822,8.822,0,0,1-3.575-1.823,6.67,6.67,0,0,1-2.052-3.517,10.552,10.552,0,0,1-.129-3.839,18.216,18.216,0,0,1,.879-3.575,32.222,32.222,0,0,1,3.146-6.492q.944-1.53,2.03-2.967a24.414,24.414,0,0,1,2.381-2.724l-.079.093q1.223-1.83,2.409-3.675c.393-.615.786-1.23,1.165-1.852l.558-.937.257-.472.114-.229a.591.591,0,0,1,.071-.186c.007-.029,0,0,0,.114a.306.306,0,0,0,.257.186.179.179,0,0,0,.086,0h0a1.8,1.8,0,0,0-.179.164q-.179.179-.365.386c-.243.265-.479.543-.715.822-.472.558-.929,1.13-1.387,1.7-.915,1.137-1.823,2.295-2.717,3.453Z" transform="translate(-32.115 -18.536)" fill="#83cccd"/><path d="M133.041,81.907q.9-1.43,1.866-2.86.486-.715.987-1.43c.172-.236.35-.465.536-.715a4.24,4.24,0,0,1,.636-.665.758.758,0,0,1,.136-.079.343.343,0,0,1,.1-.043.386.386,0,0,1,.164,0,.322.322,0,0,1,.207.114.343.343,0,0,1,.079.15.493.493,0,0,1,0,.193,2.23,2.23,0,0,1-.079.486c-.072.3-.172.572-.265.851-.2.543-.415,1.08-.636,1.616-.45,1.058-.922,2.145-1.43,3.153h0c-1.673,2.381-3.432,4.69-5.2,6.985s-3.575,4.568-5.155,6.935a34,34,0,0,0-2.145,3.639c-.164.307-.293.629-.436.944s-.243.636-.372.958l-.136.479a2.939,2.939,0,0,0-.122.479l-.1.479-.043.472A3.9,3.9,0,0,0,122.8,107.3a8.944,8.944,0,0,0,3.367,1.945h-.779a18.238,18.238,0,0,0,3.575-2.4c1.137-.944,2.209-1.973,3.26-3.038,2.1-2.145,4.075-4.425,6-6.77s3.768-4.769,5.584-7.221,3.575-4.933,5.391-7.428l.193.107a89.763,89.763,0,0,1-4.375,8.129c-.794,1.323-1.609,2.631-2.466,3.911s-1.723,2.559-2.652,3.8-1.852,2.481-2.86,3.668-2.038,2.352-3.146,3.46a38.129,38.129,0,0,1-3.575,3.131,20.576,20.576,0,0,1-4.139,2.5l-.408.172-.372-.15a10.724,10.724,0,0,1-3.989-2.545,5.612,5.612,0,0,1-1.3-2.188,5.891,5.891,0,0,1-.229-2.5l.079-.608.136-.579a4.809,4.809,0,0,1,.164-.572l.179-.55c.15-.357.286-.715.45-1.065a9.462,9.462,0,0,1,.508-1.008,34.025,34.025,0,0,1,2.4-3.739c1.723-2.381,3.575-4.6,5.426-6.842s3.7-4.447,5.448-6.742l-.036.064c.515-1.022,1.029-2.045,1.516-3.074.236-.515.472-1.037.715-1.559.1-.257.207-.522.279-.779a1.581,1.581,0,0,0,.079-.35h0l.036.057a.243.243,0,0,0,.107.064h.014a3.7,3.7,0,0,0-.565.55c-.186.207-.372.429-.55.651-.357.436-.715.894-1.044,1.351-.715.915-1.344,1.852-1.995,2.788Z" transform="translate(-34.16 -21.696)" fill="#83cccd"/></svg>