<svg id="lights" xmlns="http://www.w3.org/2000/svg" width="160" height="160" viewBox="0 0 160 160">
  <g id="Layer_1" data-name="Layer 1">
    <path id="Exclusion_13" data-name="Exclusion 13" d="M-3715.985-1149.97a31.818,31.818,0,0,1-12.462-2.516,31.907,31.907,0,0,1-10.176-6.861,31.905,31.905,0,0,1-6.861-10.176,31.815,31.815,0,0,1-2.516-12.462,31.813,31.813,0,0,1,2.516-12.461,31.905,31.905,0,0,1,6.861-10.176,31.911,31.911,0,0,1,10.176-6.861,31.817,31.817,0,0,1,12.462-2.516,31.818,31.818,0,0,1,12.462,2.516,31.917,31.917,0,0,1,10.176,6.861,31.911,31.911,0,0,1,6.861,10.176,31.812,31.812,0,0,1,2.516,12.461,31.815,31.815,0,0,1-2.516,12.462,31.91,31.91,0,0,1-6.861,10.176,31.911,31.911,0,0,1-10.176,6.861A31.817,31.817,0,0,1-3715.985-1149.97Zm-11.826-51.484a15.273,15.273,0,0,0-15.256,15.256,15.274,15.274,0,0,0,15.256,15.257,15.274,15.274,0,0,0,15.257-15.257A15.274,15.274,0,0,0-3727.812-1201.454Zm18.116-4.647a5.11,5.11,0,0,0-5.1,5.1,5.111,5.111,0,0,0,5.1,5.1,5.111,5.111,0,0,0,5.1-5.1A5.11,5.11,0,0,0-3709.7-1206.1Z" transform="translate(3798.36 1268.45)" fill="#83cccd"/>
    <path id="Exclusion_12" data-name="Exclusion 12" d="M-3644.7-1130.49H-3736a11.923,11.923,0,0,1-8.486-3.515,11.921,11.921,0,0,1-3.515-8.485V-1202a11.922,11.922,0,0,1,3.515-8.486A11.922,11.922,0,0,1-3736-1214h91.3a11.922,11.922,0,0,1,8.486,3.515A11.922,11.922,0,0,1-3632.7-1202v59.51a11.921,11.921,0,0,1-3.515,8.485A11.922,11.922,0,0,1-3644.7-1130.49Zm-45.532-78.192a37.543,37.543,0,0,0-37.5,37.5,37.543,37.543,0,0,0,37.5,37.5,37.543,37.543,0,0,0,37.5-37.5A37.542,37.542,0,0,0-3690.229-1208.682Zm42.018,4.512a4.53,4.53,0,0,0-4.525,4.525,4.531,4.531,0,0,0,4.525,4.525,4.531,4.531,0,0,0,4.526-4.525A4.531,4.531,0,0,0-3648.211-1204.17Z" transform="translate(3772.729 1257.682)" fill="#83cccd"/>
    <circle id="Ellipse_45" data-name="Ellipse 45" cx="17.88" cy="17.88" r="17.88" transform="translate(64.5 68.59)" fill="none" stroke="#101a41" stroke-miterlimit="10" stroke-width="0.5"/>
    <rect id="Rectangle_86" data-name="Rectangle 86" width="23.5" height="6.206" rx="3.103" transform="translate(32.744 34.681)" fill="#83cccd"/>
    <rect id="Rectangle_87" data-name="Rectangle 87" width="160" height="160" fill="none"/>
  </g>
</svg>
