<svg xmlns="http://www.w3.org/2000/svg" width="160" height="160" viewBox="0 0 160 160"><rect width="160" height="160" fill="none"/><path d="M153.079,39.843c5.719-.586,11.4-2.6,17.065.107,1.351,5.719-3.11,8.894-5.662,12.869a.751.751,0,0,0-.636.715c-7.407,7.149-13.1,16.443-25.794,19,4.576,1.366,6.4,2.245,3.446,5.391-9.366,10.009-16.35,23.142-32.543,24.114l11.167.622a11.682,11.682,0,0,1-10.724,4.368c-9.609-.908-13.634,4.44-15.728,12.618-.786,3.11-1.837,6.155-2.66,9.294-.779,2.953-2.016,5.5-5,6.842-1.43.157-3.517-.458-2.8-1.73,2.309-4.1,1.73-9.344,5.3-12.869a40.155,40.155,0,0,0,2.381-4.147,143.764,143.764,0,0,1,37.176-52.089c2.259-2.038,5.133-3.517,7.464-8.029-14.777,8.751-24.136,20.69-34.238,32.372-1.33-3.3.243-5,1.43-6.92,8.536-14.5,20.783-25.358,34.166-35.131l.079-.1q4.29-2.281,8.543-4.583l-.4-.207.379.243Z" transform="translate(-23.678 -10.995)" fill="#9cf1eb"/><path d="M92.918,84.38a2.81,2.81,0,0,0-.715-1.83c-.5-1.537-7.278-2.76-15.585-2.76-7.921,0-14.456,1.115-15.471,2.552a2.781,2.781,0,0,0-.887,2.038V96.248a2.788,2.788,0,0,0,.758,1.9c.3,1.58,7.149,2.86,15.6,2.86,8.636,0,15.628-1.315,15.628-2.945h0a2.8,2.8,0,0,0,.643-1.773Z" transform="translate(-17.179 -22.746)" fill="#9cf1eb" stroke="#9cf1eb" stroke-miterlimit="10" stroke-width="1"/><path d="M95.693,84.56a5.841,5.841,0,0,1-2.545,1.323,27.773,27.773,0,0,1-2.86.658,51.746,51.746,0,0,1-5.719.629c-1.923.086-3.846.122-5.769.05A51.546,51.546,0,0,1,73.08,86.7c3.839.15,7.671.193,11.5,0,1.909-.086,3.818-.265,5.719-.515a26.846,26.846,0,0,0,2.86-.508,6.156,6.156,0,0,0,2.538-1.122Z" transform="translate(-20.833 -24.106)" fill="#101a41"/><path d="M55.24,106.59a6.656,6.656,0,0,1,.129,1.566,5,5,0,0,1-.357,1.594,5.262,5.262,0,0,1-2.252,2.552c-.129.071-.257.143-.4.207l-.386.172-.715.3-1.43.6-2.86,1.172-2.86,1.137c-.465.193-1.022.393-1.237.522a2.688,2.688,0,0,0-.715.608,2.86,2.86,0,0,0-.715,1.644,2.5,2.5,0,0,0,.05.865,1.56,1.56,0,0,0,.043.157v.043a.143.143,0,0,0,0,.057l.064.179.265.715q2.095,5.769,4.011,11.589c.658,1.937,1.265,3.882,1.9,5.827l.458,1.43.229.715c.086.265.122.45.157.529a1.938,1.938,0,0,0,.779.972,3.009,3.009,0,0,0,.286.172l.636.286c.429.193.872.379,1.315.558.887.357,1.794.679,2.71.994,1.83.629,3.7,1.158,5.605,1.609a63.677,63.677,0,0,0,11.589,1.651,58.988,58.988,0,0,0,11.8-.615c1.966-.307,3.932-.715,5.891-1.208s3.9-1.122,5.855-1.787a40.7,40.7,0,0,1-5.3,3.246A46.473,46.473,0,0,1,84,149.078a47.506,47.506,0,0,1-12.44,2.352,53.405,53.405,0,0,1-12.711-.858,55.286,55.286,0,0,1-6.22-1.551q-1.537-.479-3.046-1.072c-.508-.193-1.015-.4-1.516-.622l-.758-.336a6.9,6.9,0,0,1-1.044-.586,7.607,7.607,0,0,1-2.91-3.775l-.929-3.139c-.558-1.966-1.144-3.918-1.68-5.884-1.094-3.932-2.145-7.864-3.139-11.825l-.186-.715-.043-.186a.772.772,0,0,1,0-.122V120.6a5.876,5.876,0,0,1-.079-.593,6.634,6.634,0,0,1,4.254-6.763c.164-.064.329-.107.493-.157l.236-.071.186-.043.751-.172,3-.665,5.877-1.251a4.29,4.29,0,0,0,2.145-1.544,4.382,4.382,0,0,0,.672-1.265,8.83,8.83,0,0,0,.329-1.487Z" transform="translate(-10.628 -30.386)" fill="#9cf1eb"/></svg>