<svg xmlns="http://www.w3.org/2000/svg" xmlns:xlink="http://www.w3.org/1999/xlink" width="200" height="200" viewBox="0 0 200 200"><defs><clipPath id="a"><rect width="200" height="200" transform="translate(60 71.979)" fill="#9cf1eb" stroke="#707070" stroke-width="1"/></clipPath></defs><g transform="translate(-60 -71.979)" clip-path="url(#a)"><g transform="translate(60 71.979)"><path d="M44.42,101.83l-10.5,35,31.5-31Z" fill="#9cf1eb"/><path d="M154.495,125.08l10.5,35-31.5-31Z" fill="#9cf1eb"/><path d="M-611.085-3131.95H-650a6.007,6.007,0,0,1-6-6V-3194a6.007,6.007,0,0,1,6-6h69.5a6.007,6.007,0,0,1,6,6v17.925A37.846,37.846,0,0,0-611.53-3138.1v.3a38.414,38.414,0,0,0,.445,5.854Zm-30.5-37.841a3.122,3.122,0,0,0-2.16.975c-2.272,2.164-.023,5.014,0,5.043l13.015,12.558a4.527,4.527,0,0,0,2.523,1.146h.028a4.732,4.732,0,0,0,2.569-1.213l32.525-32.017a3.2,3.2,0,0,0,0-4.373,2.713,2.713,0,0,0-2.182-1.072,5.421,5.421,0,0,0-2.872,1.072l-30.039,30.039-11.183-11.182A3.415,3.415,0,0,0-641.582-3169.79Z" transform="translate(689.585 3239.92)" fill="#9cf1eb"/><path d="M-605.64-3131.7H-622a33.787,33.787,0,0,1-13.234-2.672,33.887,33.887,0,0,1-10.807-7.287,33.891,33.891,0,0,1-7.287-10.807A33.785,33.785,0,0,1-656-3165.705v-.3a33.787,33.787,0,0,1,2.672-13.234,33.887,33.887,0,0,1,7.287-10.807,33.892,33.892,0,0,1,10.807-7.286A33.792,33.792,0,0,1-622-3200h16.36a33.791,33.791,0,0,1,13.234,2.672,33.887,33.887,0,0,1,10.807,7.286,33.887,33.887,0,0,1,7.286,10.807A33.789,33.789,0,0,1-571.64-3166v.3a33.788,33.788,0,0,1-2.672,13.234,33.886,33.886,0,0,1-7.286,10.807,33.885,33.885,0,0,1-10.807,7.287A33.785,33.785,0,0,1-605.64-3131.7Zm-24.406-54.04a3.134,3.134,0,0,0-2.231.924l0,0a3.16,3.16,0,0,0,0,4.462l13.881,13.88-13.874,13.874a3.133,3.133,0,0,0-.925,2.231,3.134,3.134,0,0,0,.925,2.231,3.137,3.137,0,0,0,2.234.927,3.132,3.132,0,0,0,2.231-.925l13.874-13.874,13.874,13.874a3.133,3.133,0,0,0,2.231.924,3.133,3.133,0,0,0,2.231-.924l0,0a3.159,3.159,0,0,0,0-4.462l-13.874-13.874,13.88-13.88a3.135,3.135,0,0,0,.924-2.231,3.132,3.132,0,0,0-.924-2.23,3.135,3.135,0,0,0-2.234-.928,3.133,3.133,0,0,0-2.231.925l-13.88,13.88-13.88-13.881A3.134,3.134,0,0,0-630.046-3185.745Zm16.111,23.736h0l-.069-.071,4.466-4.465.07.07-4.465,4.466Zm-4.4-4.4h0l-.063-.063,4.465-4.465.063.063-4.464,4.464Z" transform="translate(738.055 3267.82)" fill="#9cf1eb"/><rect width="200" height="200" fill="none"/></g></g></svg>