<svg xmlns="http://www.w3.org/2000/svg" xmlns:xlink="http://www.w3.org/1999/xlink" width="200" height="200" viewBox="0 0 200 200"><defs><clipPath id="a"><rect width="200" height="200" transform="translate(56 63.979)" fill="#9cf1eb" stroke="#707070" stroke-width="1"/></clipPath></defs><g transform="translate(-56 -63.979)" clip-path="url(#a)"><g transform="translate(56 63.979)"><path d="M132.16,161.18l-.2-2.39a97.9,97.9,0,0,1-11.6,3.5,98.769,98.769,0,0,1-24.8,2.535,99.55,99.55,0,0,1-17.5-2l-.205,2.13-10.47,1.67,9.725,6.135-.215,2.2a70.5,70.5,0,0,0,20.46,3.54c8.845.21,15.68-1.35,21.42-2.635A109.5,109.5,0,0,0,133,171.66c-.065-.81-.13-1.625-.2-2.44l10.37-4.72Zm-54.59,6.5-.5,2.425-3.57-2.24,4.1-.655Zm9.135,5.62a2.97,2.97,0,1,1,2.965-2.97,2.97,2.97,0,0,1-2.965,2.97Zm18.755.55a2.965,2.965,0,1,1,2.1-.867,2.97,2.97,0,0,1-2.1.867Zm18.915-3.245a2.965,2.965,0,1,1,2.1-.867A2.97,2.97,0,0,1,124.375,170.6Zm8.5-6.89,4,1.215-3.82,1.74Z" fill="#9cf1eb"/><path d="M102.43,78.255a6.5,6.5,0,0,1,2.185-.365,7.65,7.65,0,0,1,4.165,1.43l.19.12c1.6,1,3.15,1.18,6.235,1.5l1,.115a30.117,30.117,0,0,0,4.26.17c0-.44,0-.885-.04-1.32a14.555,14.555,0,0,0-.76-3.585,14.145,14.145,0,0,0-6.705-4.64,13.77,13.77,0,0,0-11.5,1.42,1.7,1.7,0,0,0-.6,2.23Z" fill="#9cf1eb"/><path d="M108.585,106.285a22.906,22.906,0,0,0,1,4.4,16.355,16.355,0,0,0,3.365-.69,16.594,16.594,0,0,0,2.395-1,13.094,13.094,0,0,1-.85-2.695c-.04-.655-.08-1.31-.115-1.965a3.58,3.58,0,0,0-.815-.655,6.576,6.576,0,0,0-1.185-.47c-.63-.215-.94-.32-1-.335h-.045a15,15,0,0,1-1.64-.5,13.9,13.9,0,0,1-1.5-.615c.075.86.165,1.72.255,2.57A16.988,16.988,0,0,0,108.585,106.285Z" fill="#9cf1eb"/><path d="M84.79,90.77a20.385,20.385,0,0,0,1.3,2.73c.635,1.205,1.5,2.85,2.635,5.345A50.115,50.115,0,0,1,90.39,103.8a73.425,73.425,0,0,0,3.735,10.38h0a4.5,4.5,0,0,0,4.705,2.73,5.5,5.5,0,0,0,1.53-.125h0a7,7,0,0,0,3-1.625,9.785,9.785,0,0,0,2.08-2.5,19.091,19.091,0,0,0-.21-3.71.3.3,0,0,0-.03-.16h0l-.075-.6c-.33-2.575-.605-5.24-.825-7.935a24.123,24.123,0,0,1-4.345-4.745,13.72,13.72,0,0,1-2.31-10.04,13.31,13.31,0,0,1,1.87-4.765l-2.43-4.53a1.815,1.815,0,0,0-1.59-.95c-1.135,0-2.28,0-3.41.07-5.56.245-6.325.935-6.655,1.23a3.815,3.815,0,0,0-.585.68,27.948,27.948,0,0,0-.73,10.43,28.5,28.5,0,0,0,.675,3.13Z" fill="#9cf1eb"/><path d="M146.5,24.615a7.7,7.7,0,0,0-3.42-2.785c-2.36-.605-4.3-.47-5.775.41-2.8,1.67-3.28,5.65-3.63,8.555l-.045.39a85.92,85.92,0,0,1-2.885,12.73c-.86,3.07-1.745,6.24-2.345,9.4a149.1,149.1,0,0,1-5.6,20.84,18.06,18.06,0,0,1,1.36,7.55,19.7,19.7,0,0,1,4.85,1.685,19.91,19.91,0,0,1,7.18,6.185c.215-6.865,2.29-13.74,6.185-26.645a52.644,52.644,0,0,0,1.94-8.175c.095-.57.195-1.185.32-1.89A69.441,69.441,0,0,0,145.69,44.4c.14-1.945.3-4.155.84-7.97.145-1,.29-1.935.425-2.79C147.65,29.325,148,26.95,146.5,24.615Z" fill="#9cf1eb"/><path d="M71.235,103.535c-.1.9-.195,1.765-.265,2.645-.47,5.695.79,11.255,3.305,22.325A87.918,87.918,0,0,0,78,141.17a52.276,52.276,0,0,1,2.67,9.2,70.5,70.5,0,0,1,1.255,10.13,96.918,96.918,0,0,0,13.705,1.33,95.281,95.281,0,0,0,24.05-2.46c1.725-.4,3.465-.86,5.185-1.365-.1-2.14-.12-4.185-.075-6.09a30.232,30.232,0,0,1,.24-3.635c.66-5.425,2.455-9.13,4.36-13.05l.46-.955c4.235-8.79,6.36-13.2,7.055-17.83.345-2.275.3-4.805.23-9.85-.06-4.085-.25-6.575-.4-8.285a23.854,23.854,0,0,0-1.61-3.5c-.26-.46-.565-1-.935-1.6-.715-.615-5.17-5.69-6.83-6.525a16.17,16.17,0,0,0-5.4-1.605l-1.275-.155a33.076,33.076,0,0,1-4.885-.19l-.73-.08v.09a15.7,15.7,0,0,1-6.74-1.475q-.7-.34-1.305-.705l-.225-.14c-.12-.08-.25-.165-.385-.245a3.876,3.876,0,0,0-3.87.82l-.065.075a.58.58,0,0,1,0-.09c-.04.065-.075.135-.11.205a3.46,3.46,0,0,0-.585,1.255,9.035,9.035,0,0,0-.46,1.645,9.96,9.96,0,0,0,1.7,7.265,10.36,10.36,0,0,0,3.85,3.31l.94.5c.45.235.855.5,1.25.73a9.78,9.78,0,0,0,1.85.97l.4.14a11.965,11.965,0,0,0,3.31.85h1.94l4.245.38a.94.94,0,0,1,.83.73.925.925,0,0,1-.445,1l-2.41,1.405a1.6,1.6,0,0,0-.69.725c-.11.27-.085.535.06,1.435a10.044,10.044,0,0,0,.735,2.245c.24.6.5,1.2.785,1.775l.5.96a.935.935,0,0,1-.56,1.3l-1,.315a1.13,1.13,0,0,1-.27.045,15.76,15.76,0,0,0-4.06.565,22.71,22.71,0,0,0-3.47,1.335l-.365.165a6.385,6.385,0,0,1-2.035.355h-.04a10.575,10.575,0,0,1-7.185,5.8h0a13.951,13.951,0,0,0-1.255,2.93c-1.36,4.615.9,10.42,1.945,12.705a3.315,3.315,0,0,1-.59,3.635,26.091,26.091,0,0,1-3.5,3.27c-4.44,3.1-5.76-.5-2.125-3.045a16.331,16.331,0,0,0,2.13-1.77,1.075,1.075,0,0,0,.215-1.24c-1.69-3.5-3.35-8.855-1.65-14.6A15.433,15.433,0,0,1,97,120.5a8.34,8.34,0,0,1-4.22-1.97,7.935,7.935,0,0,1-1.785-2.325c-.05-.1-3.5-9.16-4.14-11.305a46.184,46.184,0,0,0-1.5-4.5c-1.1-2.4-1.9-3.925-2.545-5.15a22.725,22.725,0,0,1-1.545-3.325V91.85c-.03-.11-.245-.875-.465-1.91l-.5-3.68a31,31,0,0,1,.34-6.56,45.335,45.335,0,0,1-1.595-4.445c-.165-.5-.315-.97-.465-1.405a28.923,28.923,0,0,0-4.25-8.4,104.266,104.266,0,0,1-6.865-11.68c-.96-1.87-1.735-3.46-2.42-4.865-2.285-4.685-3.235-6.625-5.38-7.1A6.579,6.579,0,0,0,53.11,44.55c-1.17,2-.35,4.75.065,6.04,4.805,14.885,14.1,32.225,14.195,32.4a33.821,33.821,0,0,1,3.385,7.755C72.1,95.835,71.66,99.745,71.235,103.535Z" fill="#9cf1eb"/><rect width="200" height="200" fill="none"/></g></g></svg>