<svg xmlns="http://www.w3.org/2000/svg" xmlns:xlink="http://www.w3.org/1999/xlink" width="160" height="160" viewBox="0 0 160 160"><defs><clipPath id="a"><rect width="160" height="160" transform="translate(1063 3010)" fill="#9cf1eb"/></clipPath></defs><g transform="translate(-1063 -3010)"><g clip-path="url(#a)"><g transform="translate(1063 3010)"><path d="M146.832,125.036A53.744,53.744,0,0,1,132.3,119.92C122.8,114.9,116.84,108,108.572,96.184c-18.444-26.316-16.084-30.7-27.2-40.716-5.036-4.532-13.888-12.3-27.416-14.324-4.516-.676-20.628-3.092-31.512,7.364-13.48,12.952-10.8,35.556-1.228,47.064,8.7,10.472,23.272,11.644,30.284,12.276a49.754,49.754,0,0,0,5.568.168,24.148,24.148,0,0,0,5.684-1.2A71.508,71.508,0,0,1,61.332,72.4a38.948,38.948,0,0,1,10,4.284c2.144,1.3,4.944,3.292,9.524,8.1a72.161,72.161,0,0,1,5.1,5.884c6.1,7.908,5.5,7.4,7.284,9.116,6.932,6.648,14.8,5.636,15.66,10.124a5.4,5.4,0,0,1-.844,3.716c3.308,3.2,12.176,10.856,25.484,12.24a40.964,40.964,0,0,0,13.3-.824Z" fill="#9cf1eb"/><path d="M80.4,91.324c-5.024-4.5-10.976-5.688-14.476-3.324a7.312,7.312,0,0,0-2.66,3.48,7.924,7.924,0,0,1,2.968-2.048c3.46-1.324,7.012.352,9.412,1.484a21.2,21.2,0,0,1,4.3,2.712Z" fill="#9cf1eb"/><path d="M86.5,112.988a5.092,5.092,0,0,0-3.144-1.38c-.752-.024-1.316.164-3.376,1.048-.984.424-2.236.972-3.684,1.636a15.9,15.9,0,0,0,18.724.4c-1.168-.688-2.2-1.28-3.072-1.764-1.632-.916-2.1-1.144-2.76-1.152A4,4,0,0,0,86.5,112.988Z" fill="#9cf1eb"/><path d="M90.156,58.74a65.114,65.114,0,0,1,4.168,6.572c1.376,2.484,1.96,3.92,2.992,6.116a88.6,88.6,0,0,0,6.548,11.864,74.083,74.083,0,0,0,7.572,9.416l1.072-23.328Z" fill="#9cf1eb"/><path d="M66.112,33.932q-.712,2.148-1.432,4.3A227.864,227.864,0,0,1,96.6,49.892c5.82,2.632,11.224,5.376,16.216,8.132l.784-9.564A175.021,175.021,0,0,0,66.112,33.932Z" fill="#9cf1eb"/><rect width="160" height="160" fill="none"/></g></g></g></svg>