<svg xmlns="http://www.w3.org/2000/svg" width="160" height="160" viewBox="0 0 160 160"><defs><style>.a,.c{fill:#101a41;}.b,.d{fill:none;}.b,.c{stroke:#101a41;}.b{stroke-width:2px;}.c{stroke-linejoin:bevel;}.e{stroke:none;}</style></defs><g transform="translate(37 41)"><path class="a" d="M77,59H9a9.01,9.01,0,0,1-9-9V9A9.01,9.01,0,0,1,9,0H77a9.01,9.01,0,0,1,9,9V50A9.01,9.01,0,0,1,77,59ZM43,9A21,21,0,1,0,64,30,21.024,21.024,0,0,0,43,9ZM5,5A1,1,0,0,0,4,6v6a1,1,0,0,0,1,1H23a1,1,0,0,0,1-1V6a1,1,0,0,0-1-1Z" transform="translate(0 19.378)"/><circle class="a" cx="11" cy="11" r="11" transform="translate(32 38.378)"/><g class="b" transform="translate(26 32.378)"><circle class="e" cx="17" cy="17" r="17"/><circle class="d" cx="17" cy="17" r="16"/></g><path class="c" d="M3524.11,1646.622l-7.638,16.317h30.9L3538,1646.622Z" transform="translate(-3488 -1646.622)"/></g><rect class="d" width="160" height="160"/></svg>