<svg xmlns="http://www.w3.org/2000/svg" width="160" height="160" viewBox="0 0 160 160"><defs><style>.a{fill:#101a41;}.b{fill:#fff;}.c{fill:none;}</style></defs><path class="a" d="M159.865,56.591a.479.479,0,0,1-.086.286c-.143.222-.279.45-.429.672-.493.765-1.015,1.516-1.537,2.259-1.466,2.095-2.967,4.168-4.475,6.234q-5.462,7.464-11.081,14.792-3.818,5-7.7,9.945-3.575,4.6-7.264,9.158-2.917,3.625-5.862,7.228-2,2.438-4.025,4.854-2.231,2.681-4.5,5.333-2.045,2.4-4.118,4.776c-1.2,1.373-2.4,2.745-3.618,4.1s-2.459,2.731-3.7,4.089q-2.095,2.273-4.218,4.511-3.517,3.689-7.149,7.228c-1.43,1.33-2.817,2.631-4.29,3.9-1.251,1.094-2.531,2.145-3.853,3.167-1.051.8-2.145,1.573-3.246,2.273a22.956,22.956,0,0,1-2.352,1.315,13.758,13.758,0,0,1-1.43.608,8.163,8.163,0,0,1-1.323.343.286.286,0,0,0-.157.071h-1.43a.164.164,0,0,0-.107-.079,1.773,1.773,0,0,1-.422-.122.429.429,0,0,1-.272-.372,2.145,2.145,0,0,1,.057-.715,6.394,6.394,0,0,1,.207-.715,15.278,15.278,0,0,1,.665-1.63c.408-.894.858-1.766,1.33-2.631.715-1.358,1.5-2.688,2.295-4.018,1.2-2.016,2.445-4.011,3.7-5.991,2.016-3.174,4.082-6.32,6.163-9.444.35-.529.715-1.051,1.051-1.58.05-.071.093-.15.136-.222s0-.107-.043-.114H86.7a5.363,5.363,0,0,1-.829-.1c-.272-.043-.608-.1-.915-.157a1.037,1.037,0,0,0-.393,0,.165.165,0,0,0-.086-.071.857.857,0,0,1-.236-.043.98.98,0,0,0-.25-.057l-.071-.043a.207.207,0,0,1-.114,0h.136v.036a.157.157,0,0,0,.143.079.715.715,0,0,0,.172,0,.143.143,0,0,0,.15.122.422.422,0,0,0,.164,0,.114.114,0,0,0,.086.086l1.158.286a.157.157,0,0,1,.079,0v.071a.715.715,0,0,1-.15.265L83.933,129.3q-2.981,4.5-5.819,9.1c-1.237,2.016-2.445,4.054-3.575,6.12-.715,1.223-1.344,2.452-1.959,3.7-.408.836-.794,1.673-1.137,2.538-.164.422-.322.851-.443,1.287a4.74,4.74,0,0,0-.214,1.258s0,0,0,.043-.064.064-.1,0l-.322-.236-3.525-2.788q-3.017-2.345-6.013-4.711l-5.483-4.29-5.977-4.683-5.955-4.7-1.323-1.037a6.335,6.335,0,0,1-1.044-1.008,7.764,7.764,0,0,1-1.072-1.716,11.131,11.131,0,0,1-.8-2.674c-.043-.279-.079-.55-.114-.829s-.057-.529-.071-.794v-.479a1.1,1.1,0,0,0-.036-.222.214.214,0,0,0-.1-.136V121.9a.322.322,0,0,0,.1-.186,1.7,1.7,0,0,0,.043-.265v-.443a8.665,8.665,0,0,1,.079-1.051c0-.071,0-.15,0-.222,0-.365.093-.715.122-1.094.079-.479.143-.958.222-1.43s.193-1.1.3-1.651c.214-1.029.45-2.066.715-3.088.422-1.63.908-3.253,1.43-4.854q1.051-3.224,2.3-6.384c1.065-2.738,2.216-5.441,3.432-8.122q2.488-5.476,5.283-10.81c.565-1.08,1.137-2.145,1.73-3.224l.129-.229c0-.05.086-.093.1-.079a.15.15,0,0,1,.043.071,1.932,1.932,0,0,0,.064.343.643.643,0,0,1-.036.307,2.265,2.265,0,0,0-.1.286c-.322.965-.608,1.937-.844,2.924-.164.715-.315,1.43-.436,2.145s-.207,1.215-.272,1.83V86.8a1.3,1.3,0,0,1-.05.436c-.05.143,0,.207,0,.307a7.292,7.292,0,0,0-.071.879v.35c0,.357-.05.715-.057,1.058v1.5a14.726,14.726,0,0,0,.064,1.587q0,.064,0,.129a8.678,8.678,0,0,0,.043,1c0,.057,0,.114,0,.179,0,.365.093.715.122,1.094a4.662,4.662,0,0,0,.136.872c.05.422.136.836.222,1.258q.172.9.408,1.8c.086.343.172.679.286,1.015a.079.079,0,0,0,.107.043.279.279,0,0,0-.043.122.629.629,0,0,0,0,.122,1.115,1.115,0,0,0,.122.357c.043.114.043,0,.064,0a.357.357,0,0,0,.043.307v.043a.479.479,0,0,0,.043.122h.122a.279.279,0,0,0,0,.35h0v.043c0,.093,0,.093.136.107a.78.78,0,0,0,0,.122c0,.071,0,.1.086.129h.043a.307.307,0,0,0-.043.172.164.164,0,0,0,.086.143v.179h0a.043.043,0,0,0,0-.064.107.107,0,0,0-.064-.043,1.63,1.63,0,0,0,0-.322s-.043,0-.05-.057a.629.629,0,0,1-.043-.2.243.243,0,0,1-.064-.107.107.107,0,0,0-.1-.071.379.379,0,0,0,0-.2v-.157a.143.143,0,0,1-.057-.093.107.107,0,0,0-.114-.079h0a.229.229,0,0,0-.064-.272,1.037,1.037,0,0,0,0-.214c-.057-.143-.071-.286-.136-.422-.071-.329-.164-.651-.243-.979-.114-.458-.222-.915-.315-1.373s-.15-.715-.207-1.13c-.043-.257-.1-.522-.129-.779s-.1-.643-.122-.965a1.429,1.429,0,0,0,0-.172,1.343,1.343,0,0,0-.05-.443,3.018,3.018,0,0,0,0-.35c-.043-.293-.05-.586-.064-.879a5.491,5.491,0,0,0-.043-.715,27.756,27.756,0,0,1,0-2.781v-.086a4.7,4.7,0,0,1,.05-.836c0-.472.086-.937.114-1.43a1.429,1.429,0,0,1,0-.172v-.265c0-.322.093-.636.122-.958a4.629,4.629,0,0,1,.129-.786,1.072,1.072,0,0,0,0-.265.715.715,0,0,1,0-.214c.05-.214.093-.436.15-.643s.122-.458.172-.715a32.286,32.286,0,0,1,.979-3.432,34.2,34.2,0,0,1,21.5-21.2c.979-.329,1.966-.615,2.967-.844.429-.1.865-.193,1.294-.279s.844-.143,1.258-.222a5.654,5.654,0,0,1,.922-.122h.129a3.017,3.017,0,0,1,.436-.05,2.144,2.144,0,0,0,.307,0,7.421,7.421,0,0,1,.794-.064c.279,0,.55-.057.836-.071,1.215-.043,2.438-.043,3.66,0h.436l.622.05a2.224,2.224,0,0,1,.307,0c.372.064.758.057,1.137.136s.815.114,1.223.172.808.15,1.215.214c.8.179,1.6.365,2.395.586a34.154,34.154,0,0,1,16.186,10.052c.572.636,1.115,1.294,1.637,1.966a1.465,1.465,0,0,0,.257.3.55.55,0,0,1,.157.207,1.774,1.774,0,0,0,.186.3c.293.408.579.815.858,1.23a33.6,33.6,0,0,1,3.832,7.814,32.437,32.437,0,0,1,1.43,5.812c0,.236.079.465.1.715.036.365.107.715.122,1.094s.057.615.079.922v.357a6.391,6.391,0,0,1,.043.715c0,.836,0,1.68,0,2.517a7.341,7.341,0,0,1-.064,1.187c-.064.393-.05.822-.107,1.23s-.093.715-.122,1.051a5.188,5.188,0,0,1-.136.872c-.079.55-.186,1.1-.3,1.644a24.5,24.5,0,0,1-.715,2.645,33.666,33.666,0,0,1-5.047,10.181c-.05.071-.107.143-.15.214a.3.3,0,0,0,0,.086h-.036a1.022,1.022,0,0,0-.207.257.357.357,0,0,0,0,.086.114.114,0,0,0-.071.036,1.68,1.68,0,0,0-.257.336s0,.05,0,.079a.1.1,0,0,0-.079,0,1.716,1.716,0,0,0-.265.336v.079c0,.029-.057,0-.071,0a1.709,1.709,0,0,0-.272.329.114.114,0,0,0,0,.114c-.093,0-.093,0-.114.064s-.079,0-.1.071a2.38,2.38,0,0,0-.4.45.107.107,0,0,0,0,.122c-.093,0-.1,0-.093.079s-.093,0-.1.079a.093.093,0,0,0-.107.064l-.136.057c0,.057,0,.086-.079.079s0,.093-.107.093,0,.064,0,.086a.643.643,0,0,1-.107.136l-.786.815a2.631,2.631,0,0,0-.236.25c-.05,0-.093.05-.15,0a.079.079,0,0,1,0,.079v.071a.293.293,0,0,1-.157,0,.1.1,0,0,1,0,.079.25.25,0,0,0,0,.079l-.136.043-.043.129-.129.05c0,.05-.05.079-.043.129h-.064v.05c0,.05,0,.114-.1.129h0a.443.443,0,0,1,.107-.143l.1-.071a.186.186,0,0,0,.05-.129c.05,0,.086-.036.122-.05a.079.079,0,0,0,.043-.064.294.294,0,0,1,0-.079.215.215,0,0,1,.136,0,.079.079,0,0,0,0-.079v-.079c0-.029,0-.071.057-.071s.057.036.086.057a.1.1,0,0,0,0-.079.071.071,0,0,1,0-.079s0-.079.05-.086.057.036.079.064a.98.98,0,0,0,.214-.157l.865-.865a.58.58,0,0,0,.086-.1.072.072,0,0,0,0-.086v-.086c.107,0,.107,0,.107-.1a.1.1,0,0,1,0-.064c0-.036,0-.036.086,0h.043c.064,0,.072,0,.086-.079s.071,0,.107-.064a.129.129,0,0,0,.1-.079c.043,0,.064-.05.093-.086a3.946,3.946,0,0,0,.393-.45.1.1,0,0,0,0-.114c.079,0,.093,0,.107-.071s.086,0,.114-.064a2.1,2.1,0,0,0,.322-.386v-.079a.079.079,0,0,0,.079,0,1.365,1.365,0,0,0,.272-.336s0-.057,0-.086a.086.086,0,0,0,.086,0,1.723,1.723,0,0,0,.265-.329.3.3,0,0,0,0-.086s.057,0,.071-.036a2.8,2.8,0,0,0,.179-.229.25.25,0,0,0,0-.079.186.186,0,0,0,.1-.079c.136-.179.272-.35.4-.529a34.224,34.224,0,0,0,4.726-9.223c.3-.9.665-2.2.865-3.1.136-.6.265-1.208.365-1.816.129-.715.172-1.008.257-1.744v-.172a1.28,1.28,0,0,1,.05-.436c.05-.143,0-.207,0-.307.043-.293.057-.586.071-.879v-.4q.043-.465.043-.922V89.9a.15.15,0,0,1,.057-.114l.2-.172c.822-.665,1.651-1.33,2.466-2q2.145-1.759,4.29-3.575c1.23-1.022,2.459-2.059,3.682-3.1q1.616-1.366,3.224-2.745,1.823-1.566,3.632-3.146,1.594-1.394,3.189-2.8l4.354-3.861q1.973-1.773,3.939-3.575l4.44-4.032q2.295-2.1,4.576-4.218Zm-51.332,61.055h0c0,.036,0,.036-.057,0s.036,0,0,0Zm.458-.357a.122.122,0,0,1,.136-.079h0c-.05,0-.093.086-.157.086h0Zm.55-.4a.257.257,0,0,1,0,.064h-.064c0-.05.071-.064.1-.1l.1-.129h0l.043-.093c0-.1,0-.107.114-.043h0l-.114.064c0,.043-.064.057-.071.107Zm-53.3-11.811v.064h0s0-.05.043-.05l-.057-.043a.222.222,0,0,1-.043-.15h-.05A.726.726,0,0,0,56.237,105.078Zm-.35-.808v0h-.043c0-.043-.036-.043-.043,0h.086Zm-.172-.443a.043.043,0,0,1,0,.071h0a.05.05,0,0,1,0-.071.086.086,0,0,1-.057-.043l-.064-.093v-.079a.172.172,0,0,0-.093-.136V103.4a.15.15,0,0,0-.071-.136s0-.079,0-.114a.129.129,0,0,0-.093-.114v-.086c0-.029,0-.05-.05,0a.043.043,0,0,0,0,.043.214.214,0,0,0,.057.057.558.558,0,0,0,0,.114.193.193,0,0,0,.086.122.243.243,0,0,0,.071.214.357.357,0,0,1,0,.086.179.179,0,0,0,.1.129c.014.079.014.079.114.114Zm24.529,20.6-.071-.043h0c0,.043.079,0,.114,0a.179.179,0,0,0,.107.107l.064.043c.064.043.064,0,.1,0h-.107a.143.143,0,0,0-.136-.122ZM55.4,82.107A.307.307,0,0,0,55.543,82c.357-.408.715-.808,1.1-1.194a35.266,35.266,0,0,1,3.839-3.389,33.683,33.683,0,0,1,2.91-1.987c.136-.086.279-.157.422-.236a.429.429,0,0,1,.214-.05.365.365,0,0,0,.172,0,.143.143,0,0,0,.057-.15c0-.064-.064-.129-.1-.193a.143.143,0,0,1,.057-.15.172.172,0,0,1,.207,0l.15.157a.164.164,0,0,0,.071.05.064.064,0,0,0,.079,0c.057-.086.05-.193.107-.286s.1-.179.15-.265l.15-.272c.05-.086.1-.179.157-.265l.15-.272a14.705,14.705,0,0,1,.915-1.43c.236-.336.486-.665.715-.994s.629-.815.937-1.23c.608-.815,1.23-1.616,1.859-2.409.415-.515.836-1.022,1.273-1.523a12.355,12.355,0,0,1,1.494-1.43,3.855,3.855,0,0,1,.386-.286.293.293,0,0,0,.186-.172.879.879,0,0,1,.136-.222.172.172,0,0,0,0-.086,2.523,2.523,0,0,0-.05-.615,5.159,5.159,0,0,1-.057-.572v-.307c-.036-.279-.05-.558-.064-.836a1.434,1.434,0,0,0,0-.172.05.05,0,0,0-.064-.043.272.272,0,0,0-.129,0c-.143.064-.293.136-.436.214A33.279,33.279,0,0,0,56.344,79.147c-.343.879-.636,1.773-.9,2.674a.715.715,0,0,0-.036.172.179.179,0,0,0,0,.122h0ZM98.2,89.5V88.07a.4.4,0,0,0-.107-.279c-.157-.193-.322-.379-.486-.565a33.458,33.458,0,0,0-11.753-8.579l-.45-.193a.279.279,0,0,0-.172,0l-.522.1c-.658.157-1.18.293-1.823.5-.272.086-.536.172-.794.272-.422.179-.844.35-1.251.55-.643.329-1.3.622-1.966.894-.329.136-.651.272-.972.422l-1.887.865a2.86,2.86,0,0,0-.458.257l-.336.214L73.2,83.873l-.329.222a.536.536,0,0,0-.1.086.143.143,0,0,0,0,.122s0,.057,0,.086a.279.279,0,0,1-.329.315h-.129c-.079,0-.107,0-.136.064a1.778,1.778,0,0,0-.079.207c-.143.443-.293.894-.422,1.344-.222.715-.408,1.5-.572,2.266-.114.543-.214,1.094-.315,1.644a6.487,6.487,0,0,0-.1.651c0,.336-.107.672-.114,1.008v.129a1.609,1.609,0,0,1-.05.486,2.861,2.861,0,0,1,0,.35,10.954,10.954,0,0,0-.071,1.1v1.895a10.942,10.942,0,0,0,.05,1.28c0,.543.057,1.087.1,1.623a.608.608,0,0,0,.036.172.408.408,0,0,1,0,.257.243.243,0,0,0,.086.236c.286.279.558.565.844.844s.543.536.829.794c.872.786,1.78,1.544,2.71,2.259.572.443,1.151.872,1.73,1.3.386.293.786.565,1.2.822s.829.5,1.237.758a23.97,23.97,0,0,0,2.295,1.323.665.665,0,0,0,.508.093,1.1,1.1,0,0,0,.393-.05l1.3-.222c.608-.114,1.208-.25,1.809-.4a34.507,34.507,0,0,0,3.367-1.03,32.943,32.943,0,0,0,6.735-3.367l.329-.222a.558.558,0,0,0,.172-.193.35.35,0,0,1,.286-.186h.043a.5.5,0,0,0,.193-.1.214.214,0,0,0,.086-.15l.043-.572c0-.193.043-.379.057-.572a2.109,2.109,0,0,0,0-.307,1.431,1.431,0,0,1,.05-.436c.05-.15,0-.172.036-.265a2.96,2.96,0,0,0,.057-.522,1.521,1.521,0,0,0,0-.265,1.2,1.2,0,0,1,.05-.393c.05-.136,0-.207,0-.307a5.061,5.061,0,0,0,.064-.565v-.307c0-.1.036-.322.05-.486a2.2,2.2,0,0,1,.057-.522c.057-.172,0-.207,0-.307v-.307c.05-.307.1-.615.136-.915s.086-.522.129-.786c.114-.636.25-1.265.365-1.9.05-.307.079-.615.122-.922a5.606,5.606,0,0,0,.214-1.53Zm12.869-10.874c0-.593,0-1.151-.043-1.709s-.086-1.058-.114-1.587v-.043c-.064-.365-.064-.715-.136-1.094-.043-.479-.136-.958-.214-1.43s-.214-1.122-.343-1.687c-.079-.343-.172-.679-.25-1.022a.379.379,0,0,0-.086-.157l-.114-.129a13.877,13.877,0,0,0-1.895-1.716l-.786-.572-1.037-.715-1.044-.715-.908-.629a14.48,14.48,0,0,0-1.38-.872l-.265-.15a14.52,14.52,0,0,1-1.387-.865l-.365-.25a.508.508,0,0,0-.286-.093H98.611a12.4,12.4,0,0,0-1.544.064c-.515.064-.851.05-1.273.107s-.715.093-1.1.114a12.689,12.689,0,0,0-1.387.229c-.458.086-1.044.193-1.559.307-.944.214-1.88.472-2.8.772-.608.193-1.2.393-1.787.629a.136.136,0,0,0-.093.136.629.629,0,0,1,0,.257c-.057.2-.1.4-.15.6a4.683,4.683,0,0,0-.186,1.08c0,.222-.043.443-.057.658a5,5,0,0,1-.064.572c0,.1,0,.207,0,.307a4.451,4.451,0,0,1-.064.922c0,.443-.064.879-.107,1.323a2.614,2.614,0,0,1-.064.715,2.143,2.143,0,0,0,0,.222,4.392,4.392,0,0,1-.071.965,2.553,2.553,0,0,0,0,.572c.043.272.064.55.114.829s.064.343.086.522a10.864,10.864,0,0,1,.122,1.137v.136a10.8,10.8,0,0,1,.057,1.358,4.94,4.94,0,0,1-.057.794.107.107,0,0,0,.071.107l.193.1,1.151.55a33.816,33.816,0,0,1,9.687,7.349l.3.322a.572.572,0,0,0,.093.093.072.072,0,0,0,.086,0h0a1.888,1.888,0,0,1,.114-.558l.043-.071a.186.186,0,0,1,.3,0,.271.271,0,0,1,.057.122.15.15,0,0,0,0,.079.093.093,0,0,0,.071.043A.78.78,0,0,0,99,86.6q1.644-.572,3.317-1.044c.715-.207,1.43-.436,2.145-.715l1.237-.465c.593-.222,1.187-.422,1.8-.586l1.523-.436c.422-.129.844-.265,1.273-.357a3.053,3.053,0,0,0,.343-.093.236.236,0,0,0,.15-.2.357.357,0,0,0,0-.086,4.374,4.374,0,0,1,.079-.715v-.222c0-.25.043-.5.057-.715a2.3,2.3,0,0,0,0-.307,15.376,15.376,0,0,0,.157-2.038Zm-4.483,30.592.086-.929v-.043a.214.214,0,0,0-.107-.222,8.093,8.093,0,0,1-1.115-.794c-.229-.186-.45-.379-.672-.572a14.3,14.3,0,0,0-1.78-1.294q-.929-.586-1.887-1.137c-.322-.186-.643-.357-.979-.515l-2.08-.958-.565-.25-.286-.114a.114.114,0,0,0-.136.064.636.636,0,0,1-.057.122.122.122,0,0,1-.186,0s-.05-.071-.079-.107-.071-.071-.136,0l-.257.172c-.829.558-1.68,1.087-2.552,1.573a33.429,33.429,0,0,1-5.719,2.524c-.979.322-1.966.6-2.967.844-.472.107-.944.207-1.43.3l-1.037.186H82.6a.107.107,0,0,0,0,.043s0,.064.036.072l.6.379a.907.907,0,0,1,.2.172.279.279,0,0,1,.043.286.222.222,0,0,1-.193.157h-.179a.136.136,0,0,0-.093.071.851.851,0,0,0-.064.257,5,5,0,0,1-.129.651c-.107.408-.229.815-.372,1.223s-.243.715-.35,1.044c-.207.629-.386,1.258-.536,1.909-.107.486-.2.972-.286,1.466s-.164.865-.257,1.294c-.071.315-.129.636-.186.951a.765.765,0,0,0,0,.222.093.093,0,0,0,.05.064.483.483,0,0,1,.222.036.543.543,0,0,1,.415.357,1,1,0,0,0,.093.243.186.186,0,0,0,.079.1l.222.143a32.944,32.944,0,0,0,8.458,3.8l.179.036a.143.143,0,0,0,.122,0,.615.615,0,0,1,.4-.157h.136l.522-.1a2.044,2.044,0,0,1,.508-.136l.815-.179c.994-.222,1.966-.493,2.938-.794a33.208,33.208,0,0,0,8.579-4.2.714.714,0,0,0,.107-.079.315.315,0,0,0,.086-.107l.064-.164c.279-.879.543-1.766.779-2.66q.172-.658.3-1.33c.071-.357.143-.715.222-1.08s.172-.715.243-1.122c.05-.257.086-.515.114-.779s.093-.636.114-.937ZM54.135,90.986v1.63a3.624,3.624,0,0,0,0,.393c0,.336.057.672.079,1.015a.715.715,0,0,0,.157.486l.172.357a.815.815,0,0,0,.086.157,2.195,2.195,0,0,1,.3.536,35.675,35.675,0,0,0,1.859,3.253,31.98,31.98,0,0,0,3.789,4.811,5.851,5.851,0,0,0,.543.436h.164a.3.3,0,0,1,.265.129.216.216,0,0,0,.093.15h.079a2.953,2.953,0,0,0,.622-.493c.057-.064.122-.122.186-.186l.071-.05a.143.143,0,0,1,.129,0h.079a.186.186,0,0,0,.172,0l.851-.465a15.235,15.235,0,0,0,1.93-1.237c.536-.4,1.094-.786,1.673-1.144a13.119,13.119,0,0,0,1.223-.872,9.778,9.778,0,0,1,1.044-.715l.286-.2a.236.236,0,0,0,.1-.193,3,3,0,0,0-.043-.615,8.222,8.222,0,0,1-.057-.836c0-1.015,0-2.023,0-3.038,0-.593.086-1.172.114-1.766v-.086l.064-.572v-.3l.043-.307a5.123,5.123,0,0,1,.122-.872c.071-.422.143-.844.222-1.258s.2-.951.315-1.43c.25-1.029.543-2.045.894-3.046a1.753,1.753,0,0,0,.057-.207.122.122,0,0,0,0-.122l-.207-.172a5.626,5.626,0,0,1-.786-.715q-.193-.193-.365-.386l-.872-.994a10.735,10.735,0,0,1-.715-.929c-.357-.472-.715-.951-1.037-1.43-.45-.658-.922-1.294-1.43-1.923-.357-.465-.715-.937-1.044-1.43l-.565-.786-.1-.1a.129.129,0,0,0-.157,0l-.365.243-.629.408a1.837,1.837,0,0,1-.236.129.193.193,0,0,1-.164,0,.107.107,0,0,0-.122,0l-.3.186a33.015,33.015,0,0,0-4.039,3.139,38.771,38.771,0,0,0-3.467,3.639l-.057.064a.5.5,0,0,0-.1.193A1.191,1.191,0,0,1,55,83.68l-.214.994c-.079.4-.15.808-.214,1.215s-.114.715-.164,1.13a1.223,1.223,0,0,0,0,.222c-.043.458-.107.908-.122,1.366a.787.787,0,0,1,0,.129c0,.222-.036.436-.043.658a11.453,11.453,0,0,0-.093,1.594Zm66.259.086a19.346,19.346,0,0,0-.071-2.088.778.778,0,0,1,0-.129,10.38,10.38,0,0,0-.086-1.058,2.141,2.141,0,0,1,0-.222,1.627,1.627,0,0,0-.057-.522c-.057-.172,0-.207,0-.307v-.265c-.057-.272-.064-.55-.136-.822-.079-.558-.193-1.1-.307-1.644-.172-.836-.4-1.68-.665-2.559a32.787,32.787,0,0,0-3.768-8.179q-.593-.937-1.244-1.823a1.572,1.572,0,0,0-.143-.164h-.079a2.689,2.689,0,0,0-.479,0h-.4a5.355,5.355,0,0,0-.829.093,2.6,2.6,0,0,0-.522.107,1.737,1.737,0,0,0-.6.265.2.2,0,0,0-.086.186,1.108,1.108,0,0,0,0,.222c.071.343.129.715.179,1.044s.136.872.179,1.308v.129c.064.486.1.965.136,1.43a.093.093,0,0,1,0,.043c0,.35.036.715.05,1.058v2.509a5.757,5.757,0,0,1-.05.879c0,.472-.086.937-.114,1.43a.809.809,0,0,1,0,.129,5.773,5.773,0,0,1-.057.615.35.35,0,0,0,0,.172c.093.2.179.408.265.608a2.531,2.531,0,0,0,.329.572,14.434,14.434,0,0,1,1.158,1.766c.286.515.572,1.029.851,1.544.086.15.164.315.243.472.393.786.751,1.594,1.087,2.409a14.176,14.176,0,0,1,.994,3.46c.1.579.222,1.158.365,1.723V95.5a.164.164,0,0,0,.129.107,1.838,1.838,0,0,0,.393.043h2.559a.851.851,0,0,1,.3.043.107.107,0,0,0,.136-.079,2.144,2.144,0,0,0,.086-.472.964.964,0,0,1,.043-.35,3.014,3.014,0,0,0,.057-.572,2.783,2.783,0,0,0,0-.35c0-.114.036-.35.043-.529,0-.293.043-.586.057-.879V92.03a6.806,6.806,0,0,0,.071-.958ZM87.329,57.943H85.563a4.942,4.942,0,0,0-.972.064l-1.18.114a6.25,6.25,0,0,0-.965.122c-.436.064-.872.143-1.3.222-.622.114-1.244.25-1.852.4-1.058.265-2.1.572-3.124.937-.815.293-1.623.608-2.416.965l-.236.114a.114.114,0,0,0-.064.107,1.631,1.631,0,0,0,0,.265,2.2,2.2,0,0,0,.043.529c0,.5.086.994.114,1.494a1.759,1.759,0,0,0,.086.429.086.086,0,0,0,.064.057,3.675,3.675,0,0,0,.393.043c.307.043.615.057.922.079l.307.036a1.094,1.094,0,0,0,.265,0,3.611,3.611,0,0,1,.479-.043H77.5l1.1.05a4.117,4.117,0,0,1,.836.057h.436a2.8,2.8,0,0,1,.35,0c.443.057.879.071,1.315.143s.844.136,1.258.236c.558.129,1.108.279,1.659.45l.343.093,1.2.265a.164.164,0,0,0,.129,0,.522.522,0,0,1,.365-.122.272.272,0,0,0,.129,0l.286-.114a33.273,33.273,0,0,1,4.361-1.43c.543-.129,1.094-.243,1.637-.357.422-.079.844-.136,1.258-.222a4.953,4.953,0,0,1,.922-.114h.257l.35-.043a3.007,3.007,0,0,0,.357,0c.286-.043.586-.057.879-.071h.35c.307,0,.615-.043.922-.05h.987a.079.079,0,0,0,.043-.107l-.1-.15a2.445,2.445,0,0,1-.336-.615,8.163,8.163,0,0,1-.322-.915,2.517,2.517,0,0,1-.129-.865.343.343,0,0,0,0-.086.15.15,0,0,0-.071-.107.193.193,0,0,0-.071-.043,33.258,33.258,0,0,0-4.683-1.251l-.715-.122c-.257-.043-.522-.1-.786-.129s-.665-.107-1-.122h-.093a5.005,5.005,0,0,0-.658-.071H89.96a7.15,7.15,0,0,0-.786-.057h-.929Zm32.651,38.2a.1.1,0,0,0-.107-.114h-2.817a.172.172,0,0,0-.079.043l-.107.143c-.322.45-.636.915-.972,1.358-.472.643-.951,1.273-1.43,1.9s-.851,1.13-1.28,1.687c-.586.772-1.187,1.537-1.78,2.3l-1.752,2.273c-.45.593-.894,1.2-1.366,1.787a1.021,1.021,0,0,0-.1.143.636.636,0,0,1-.157.207l-.257.243a.315.315,0,0,0-.1.193c-.057.372-.107.751-.164,1.13s-.143.844-.222,1.258-.207.979-.322,1.466c-.172.715-.35,1.394-.565,2.08s-.415,1.287-.658,1.916a4.1,4.1,0,0,0-.164.5.143.143,0,0,0,.093.172h.043a.279.279,0,0,1,.207.25v.086a.114.114,0,0,0,.086.1,6.99,6.99,0,0,0,.851.2h.093a.229.229,0,0,0,.164-.043l.107-.079c.265-.207.536-.415.794-.629a33.38,33.38,0,0,0,9.845-13.126,32.414,32.414,0,0,0,2.052-7.149A.851.851,0,0,0,119.98,96.141Zm-32.8,27.939c.651,0,1.18,0,1.709-.05h.35c.55,0,1.087-.093,1.63-.122h.086a.057.057,0,0,0,0-.036c-.093-.071-.222-.064-.322-.114a32.886,32.886,0,0,1-4.769-1.709,33.6,33.6,0,0,1-4.5-2.424c-.1-.064-.193-.129-.3-.186a.207.207,0,0,0-.172,0,.343.343,0,0,0-.122,0,.286.286,0,0,1-.293,0,.114.114,0,0,0-.122,0,.379.379,0,0,1-.315.122h-.222l-2.338-.071h-.529a2.253,2.253,0,0,1-.307-.036c-.307-.05-.615-.079-.915-.129a9.738,9.738,0,0,1-1.122-.222c-.715-.179-1.43-.343-2.1-.508-.3-.064-.6-.15-.894-.243a12.376,12.376,0,0,1-2.1-.894c-.2-.107-.386-.222-.586-.315a8.126,8.126,0,0,1-.858-.443.122.122,0,0,0-.129,0l-.071.05c-.086.079-.172.157-.25.243a1.7,1.7,0,0,0-.307.372.079.079,0,0,0,0,.086,2,2,0,0,0,.3.25,33.287,33.287,0,0,0,8.122,4.382A31.41,31.41,0,0,0,79.4,123.2c.429.1.858.2,1.287.286s.865.172,1.3.236l.715.114c.157,0,.315.05.479.057H83.4a5.774,5.774,0,0,0,.615.064l.393.036h.265l1.43.079h.979Zm-32.694-28.6v.064c0,.143.05.293.064.436s.057.322.079.479c.057.408.143.808.222,1.215.186.887.408,1.773.665,2.645a33.03,33.03,0,0,0,9.809,15.428c.458.415.929.808,1.43,1.194l.143.1a.107.107,0,0,0,.122,0h0l.379-.436a.107.107,0,0,0,0-.122l-.558-.887c-.422-.593-.815-1.194-1.18-1.816-.493-.851-1-1.694-1.516-2.531a23.548,23.548,0,0,1-1.172-2.145c-.214-.436-.415-.879-.608-1.323-.329-.751-.651-1.508-.944-2.281a4.082,4.082,0,0,1-.15-.415c-.114-.372-.05-.279-.322-.558a3.167,3.167,0,0,1-.322-.365,1.022,1.022,0,0,0-.143-.164c-.586-.622-1.137-1.273-1.68-1.93a33.015,33.015,0,0,1-3.038-4.382c-.372-.636-.715-1.28-1.044-1.937a1.616,1.616,0,0,0-.172-.307ZM110.872,71.1h0a.636.636,0,0,0-.207-.229h0a.593.593,0,0,0,.072.293.1.1,0,0,0,.114,0,.129.129,0,0,0,.021-.093Zm-3.732,37.255h0a.057.057,0,0,0-.036.071c0,.036,0,.05.036.036a.054.054,0,0,0,0-.107ZM96.909,122.057h.043a.05.05,0,0,0,0-.036c-.043,0-.114,0-.107.036S96.866,122.057,96.909,122.057ZM83.39,125.51Zm-2.567-.808Z" transform="translate(-11.075 -16.127)"/><path class="b" d="M140.872,137.25v.086a.072.072,0,0,1,0,.086.579.579,0,0,1-.086.1l-.872.865a.98.98,0,0,1-.214.157h0a2.628,2.628,0,0,1,.236-.25l.786-.815a.643.643,0,0,0,.107-.136s0-.057,0-.086Z" transform="translate(-39.825 -39.127)"/><path class="b" d="M139.484,76.773a.129.129,0,0,1-.079.1.1.1,0,0,1-.114,0,.593.593,0,0,1-.072-.293h0a.636.636,0,0,1,.207.229S139.484,76.766,139.484,76.773Z" transform="translate(-39.688 -21.831)"/><path class="b" d="M60.855,118.421H60.79a3.708,3.708,0,0,1-.122-.357.629.629,0,0,1,0-.122.279.279,0,0,1,.043-.122h0c.064.136.079.279.136.422a1.037,1.037,0,0,1,0,.214Z" transform="translate(-17.294 -33.588)"/><path class="b" d="M102.33,153.2a.857.857,0,0,0,.236.043.164.164,0,0,1,.086.072h0a.422.422,0,0,1-.164,0,.143.143,0,0,1-.15-.122Z" transform="translate(-29.172 -43.671)"/><path class="b" d="M101.88,153.054l.071.043a.98.98,0,0,1,.25.057h0a.714.714,0,0,1-.172,0,.157.157,0,0,1-.143-.079v-.036Z" transform="translate(-29.043 -43.628)"/><path class="b" d="M61.962,121.776a.179.179,0,0,1-.093-.122.558.558,0,0,1,0-.114h0a.129.129,0,0,1,.093.114v.114Z" transform="translate(-17.636 -34.648)"/><path class="b" d="M96.934,151.63s0-.036-.057-.043a.179.179,0,0,1-.107-.107h0a.143.143,0,0,1,.136.122Z" transform="translate(-27.587 -43.183)"/><path class="b" d="M62.25,122.384a.179.179,0,0,1-.1-.129.358.358,0,0,0,0-.086h0a.172.172,0,0,1,.093.136v.086Z" transform="translate(-17.717 -34.828)"/><path class="b" d="M101.809,153.07h-.136a.207.207,0,0,0,.114,0Z" transform="translate(-28.972 -43.636)"/><path class="b" d="M61.423,120.023c-.129,0-.129,0-.143-.1v-.043h0a.107.107,0,0,1,.1.071.243.243,0,0,0,.064.107Z" transform="translate(-17.469 -34.175)"/><path class="b" d="M134.355,128.971a.036.036,0,0,1,0,.036.035.035,0,0,1-.036-.036.057.057,0,0,1,.036-.072h0Z" transform="translate(-38.29 -36.746)"/><path class="b" d="M61.454,120.09a.629.629,0,0,0,.043.2l.05.064H61.5c-.079,0-.1-.057-.086-.129a.78.78,0,0,1,0-.122Z" transform="translate(-17.508 -34.235)"/><path class="b" d="M61.626,120.765a.164.164,0,0,1-.086-.143.307.307,0,0,1,.043-.172h0a1.516,1.516,0,0,1,0,.315Z" transform="translate(-17.543 -34.337)"/><path class="b" d="M61.173,119.274h-.122a.479.479,0,0,1-.043-.122.093.093,0,0,1,0-.043h0a.114.114,0,0,1,.122.079.143.143,0,0,0,.057.093Z" transform="translate(-17.391 -33.955)"/><path class="b" d="M120.034,148.155h-.064a.177.177,0,0,1,.107-.036.05.05,0,0,1,0,.036h0Z" transform="translate(-34.2 -42.225)"/><path class="b" d="M60.919,118.656a.229.229,0,0,1,.064.272h0a.336.336,0,0,1-.05-.307Z" transform="translate(-17.366 -33.816)"/><path class="b" d="M61.205,119.34v.157a.379.379,0,0,1,0,.2h0a.279.279,0,0,1,0-.35Z" transform="translate(-17.43 -34.021)"/><path class="b" d="M61.64,120.9a.107.107,0,0,1,.064.043.043.043,0,0,1,0,.064h0v-.079Z" transform="translate(-17.572 -34.466)"/><path class="b" d="M101.15,152.941v-.021l.029.007Z" transform="translate(-28.835 -43.594)"/><path class="b" d="M62,121.88a.15.15,0,0,1,.071.136v.079h0A.243.243,0,0,1,62,121.88Z" transform="translate(-17.673 -34.745)"/><path class="b" d="M62.4,122.613c-.1,0-.1,0-.107-.143h0a.894.894,0,0,1,.064.086.086.086,0,0,0,.057.043Z" transform="translate(-17.757 -34.913)"/><path class="b" d="M62.444,122.67a.05.05,0,0,0,0,.071h0a.043.043,0,0,0,0-.071Z" transform="translate(-17.797 -34.97)"/><path class="b" d="M62.649,123.269H62.57c0-.036,0-.036.043,0h.043Z" transform="translate(-17.837 -35.133)"/><path class="b" d="M62.69,123.287v-.007Z" transform="translate(-17.871 -35.144)"/><path class="b" d="M63,124.15Z" transform="translate(-17.96 -35.392)"/><path class="b" d="M63.05,124.16a.222.222,0,0,0,.043.15l.057.043h0c-.086-.1-.086-.1-.1-.193Z" transform="translate(-17.974 -35.395)"/><path class="b" d="M63.173,124.424a.042.042,0,0,0-.043.05h0v-.064Z" transform="translate(-17.997 -35.466)"/><path class="b" d="M61.865,121.5a.214.214,0,0,1-.057-.057.043.043,0,0,1,0-.043h.05v.086Z" transform="translate(-17.618 -34.608)"/><path class="b" d="M96.724,151.48H96.61l.072.043Z" transform="translate(-27.541 -43.183)"/><path class="b" d="M97,151.68h0Z" transform="translate(-27.652 -43.24)"/><path class="b" d="M97.56,151.817l.036-.007-.007.021Z" transform="translate(-27.812 -43.277)"/><path class="b" d="M62,92.29Z" transform="translate(-17.675 -26.31)"/><path class="b" d="M141.447,137.11c0,.093,0,.093-.107.1h0c.079,0,.079,0,.107-.093Z" transform="translate(-40.293 -39.087)"/><path class="b" d="M139.669,139.034a.063.063,0,0,0-.079-.064c-.079.014-.036.057-.05.086h.15Z" transform="translate(-39.779 -39.616)"/><path class="b" d="M139.535,139.09a.071.071,0,0,0,0,.079.1.1,0,0,1,0,.079h0v-.079a.079.079,0,0,0,0-.079Z" transform="translate(-39.775 -39.651)"/><path class="b" d="M139.433,139.287s-.036-.064-.086-.057-.043.05-.057.072h0a.236.236,0,0,0,.157,0Z" transform="translate(-39.708 -39.691)"/><path class="b" d="M139.289,139.33v.079a.079.079,0,0,1,0,.079h0a.25.25,0,0,1,0-.079.1.1,0,0,0,0-.079Z" transform="translate(-39.707 -39.72)"/><path class="b" d="M139.05,139.59l.143-.036h0a.179.179,0,0,0-.136,0Z" transform="translate(-39.64 -39.78)"/><path class="b" d="M139,139.749l.043-.129h0a.221.221,0,0,0,0,.072.079.079,0,0,1-.043.064Z" transform="translate(-39.625 -39.802)"/><path class="b" d="M138.952,139.79a.285.285,0,0,1-.122.05h0l.129-.05Z" transform="translate(-39.577 -39.851)"/><path class="b" d="M138.79,139.86a.186.186,0,0,1-.05.129h0c0-.05.036-.079.043-.129Z" transform="translate(-39.551 -39.871)"/><path class="b" d="M138.7,140l-.093.071h0v-.05h.064Z" transform="translate(-39.514 -39.911)"/><path class="b" d="M138.474,140.279c.086,0,.086,0,.1-.129h0a.379.379,0,0,0-.114.143Z" transform="translate(-39.472 -39.953)"/><path class="b" d="M138.45,140.34Z" transform="translate(-39.469 -40.007)"/><path class="b" d="M138.134,140.519l-.007-.029-.007.029Z" transform="translate(-39.375 -40.05)"/><path class="b" d="M138,140.578l.129-.064h0c-.086-.064-.1-.057-.114.05Z" transform="translate(-39.34 -40.045)"/><path class="b" d="M137.87,140.727c0-.05.064-.064.072-.107h0l-.043.086h0Z" transform="translate(-39.303 -40.087)"/><path class="b" d="M137.586,141.034h.064a.258.258,0,0,0,0-.064h0s-.086.05-.1.1Z" transform="translate(-39.212 -40.187)"/><path class="b" d="M137.58,141.07Z" transform="translate(-39.221 -40.216)"/><path class="b" d="M137.154,141.391v-.021l-.014.021Z" transform="translate(-39.095 -40.301)"/><path class="b" d="M136.94,141.492c.064,0,.107-.064.157-.093h0a.114.114,0,0,0-.129.079Z" transform="translate(-39.038 -40.309)"/><path class="b" d="M137,141.51Z" transform="translate(-39.055 -40.341)"/><path class="b" d="M136.31,142h.057Z" transform="translate(-38.859 -40.481)"/><path class="b" d="M136.32,142Z" transform="translate(-38.861 -40.481)"/><path class="b" d="M137.73,140.949l.1-.129h0Z" transform="translate(-39.263 -40.144)"/><rect class="c" width="160" height="160"/></svg>