<svg xmlns="http://www.w3.org/2000/svg" width="160" height="160" viewBox="0 0 160 160"><defs><style>.a{fill:#83cccd;}.b{fill:#101a41;}</style></defs><rect class="a" width="160" height="160"/><path class="a" d="M104.505,123.036A18.538,18.538,0,1,1,123.036,104.5a18.538,18.538,0,0,1-18.531,18.533Zm0-36.5a17.973,17.973,0,1,0,17.945,17.973,17.973,17.973,0,0,0-17.945-17.973Z" transform="translate(-24.505 -24.505)"/><path class="b" d="M90.878,38.17a52.711,52.711,0,1,0,52.7,52.709,52.713,52.713,0,0,0-52.7-52.709Zm0,68.29a15.578,15.578,0,1,1,15.578-15.578A15.578,15.578,0,0,1,90.878,106.46Z" transform="translate(-10.878 -10.881)"/><path class="a" d="M92.079,141.787a49.709,49.709,0,1,1,49.709-49.709A49.709,49.709,0,0,1,92.079,141.787Zm0-98.853a49.144,49.144,0,1,0,49.144,49.144A49.144,49.144,0,0,0,92.079,42.935Z" transform="translate(-12.079 -12.079)"/><path class="a" d="M79.334,109.448a22.163,22.163,0,0,1-.55-6.434,22.72,22.72,0,0,1,4.24-12.039,23,23,0,0,1,4.483-4.6,25.124,25.124,0,0,0-2.281,2.252,24.172,24.172,0,0,0-6.191,14.441c-.043.529-.05,1.065-.071,1.594s0,1.072,0,1.6a25.023,25.023,0,0,0,.372,3.189Z" transform="translate(-22.448 -24.622)"/><path class="a" d="M122.059,137.63a22.614,22.614,0,0,1-2.86,2.052,23.006,23.006,0,0,1-17.022,2.717,22.278,22.278,0,0,1-6.527-2.6,26.686,26.686,0,0,0,3.2,1.43,23.172,23.172,0,0,0,3.367.965,25.739,25.739,0,0,0,3.467.472,24.737,24.737,0,0,0,10.288-1.594A25.065,25.065,0,0,0,122.059,137.63Z" transform="translate(-27.268 -39.235)"/><path class="a" d="M114.3,79l1.73.15c.572.086,1.144.193,1.716.286s1.122.286,1.687.422,1.1.365,1.651.55a23.378,23.378,0,0,1,6.063,3.382,23.656,23.656,0,0,1,4.783,5l.937,1.43.829,1.53.715,1.587.579,1.637a24.614,24.614,0,0,0-3.224-6.091,24.257,24.257,0,0,0-10.724-8.343A24.765,24.765,0,0,0,114.3,79Z" transform="translate(-32.584 -22.521)"/><path class="a" d="M71.048,108.359a28.039,28.039,0,0,1-.522-3.853c-.043-.651-.071-1.3-.057-1.952s0-1.3.071-1.952l.071-.972a7.44,7.44,0,0,1,.129-.965c.071-.651.207-1.287.336-1.923a2.184,2.184,0,0,1,.093-.479l.122-.472.236-.951c.086-.315.193-.622.286-.937s.186-.622.307-.922a29.541,29.541,0,0,1,3.575-6.92,31.3,31.3,0,0,1,2.459-3.024,30.321,30.321,0,0,1,2.86-2.667,34.388,34.388,0,0,0-2.738,2.76,30.027,30.027,0,0,0-5.87,9.945,29.606,29.606,0,0,0-1.63,7.55,31.163,31.163,0,0,0,.272,7.735Z" transform="translate(-20.088 -22.912)"/><path class="a" d="M123.531,145.5a28.962,28.962,0,0,1-3.482,2.216,30.183,30.183,0,0,1-3.768,1.694,28.947,28.947,0,0,1-8.086,1.68,29.484,29.484,0,0,1-8.257-.658,28.318,28.318,0,0,1-7.678-2.967,31.505,31.505,0,0,0,3.775,1.637,28.989,28.989,0,0,0,3.954,1.122,30.409,30.409,0,0,0,23.542-4.726Z" transform="translate(-26.301 -41.479)"/><path class="a" d="M114.3,70.65l2.145.172c.715.1,1.43.222,2.145.329s1.43.336,2.145.5,1.38.443,2.073.658A29.04,29.04,0,0,1,136.52,82.632l1.194,1.852,1.072,1.887.908,1.973.765,2.03a30.8,30.8,0,0,0-4.125-7.578A30.37,30.37,0,0,0,122.75,72.545a30.835,30.835,0,0,0-8.45-1.895Z" transform="translate(-32.584 -20.141)"/><path class="a" d="M61.78,106.517a35.418,35.418,0,0,1-.55-4.847V99.232c0-.822.079-1.63.143-2.445l.05-.608.086-.608.172-1.208c.05-.408.157-.8.229-1.2s.164-.8.25-1.2l.322-1.18c.1-.393.2-.794.336-1.172.257-.779.493-1.559.808-2.316l.458-1.13.515-1.115c.329-.715.715-1.43,1.122-2.145a11.979,11.979,0,0,1,.615-1.058l.643-1.044c.222-.336.458-.665.715-1s.458-.715.715-.994c.515-.636.994-1.294,1.551-1.887l.758-.944.858-.872a35.591,35.591,0,0,1,3.682-3.2l-.929.786c-.307.265-.629.522-.915.808-.586.558-1.194,1.1-1.737,1.7l-.844.879-.786.9c-.543.6-1.015,1.265-1.508,1.9a35.917,35.917,0,0,0-4.676,8.493c-.322.715-.55,1.523-.815,2.288-.143.379-.236.772-.343,1.165L62.381,92c-.093.393-.172.786-.25,1.187s-.186.786-.236,1.194l-.186,1.2-.093.6-.057.6c-.079.808-.172,1.616-.179,2.424l-.05,1.223v1.215a38,38,0,0,0,.45,4.876Z" transform="translate(-17.455 -20.497)"/><path class="a" d="M125.112,153.89a34.875,34.875,0,0,1-4.29,2.552,37.027,37.027,0,0,1-4.6,1.923,35.818,35.818,0,0,1-19.732.844,37.175,37.175,0,0,1-4.754-1.523,34.59,34.59,0,0,1-4.483-2.145,37.756,37.756,0,0,0,9.294,3.489,37.133,37.133,0,0,0,19.61-.836,37.747,37.747,0,0,0,8.958-4.3Z" transform="translate(-24.873 -43.87)"/><path class="a" d="M113.72,61.29l2.681.164c.887.107,1.773.243,2.66.357s1.752.386,2.624.572a5.154,5.154,0,0,1,.651.179l.643.193,1.28.393a35.746,35.746,0,0,1,9.523,4.926,36.3,36.3,0,0,1,7.628,7.535l1.523,2.216,1.358,2.324,1.165,2.416.979,2.5-1.058-2.466-1.223-2.381-1.38-2.295-1.551-2.145a36.919,36.919,0,0,0-17.044-12.4l-1.273-.408-.636-.2a5.446,5.446,0,0,0-.643-.186c-.872-.2-1.73-.429-2.609-.608s-1.759-.3-2.638-.422Z" transform="translate(-32.419 -17.472)"/><path class="a" d="M52.12,105.227a42.674,42.674,0,0,1-.629-5.877c-.05-.987,0-1.966,0-2.953s.122-1.973.193-2.953a41.68,41.68,0,0,1,2.86-11.439l.565-1.373.636-1.337c.408-.9.915-1.744,1.387-2.617.229-.436.5-.844.765-1.265l.786-1.251.858-1.208c.293-.4.565-.808.887-1.187.629-.758,1.223-1.544,1.9-2.259l.958-1.122,1.058-1.037c.715-.715,1.43-1.33,2.195-1.98.365-.329.765-.622,1.151-.922l1.165-.908-1.144.937c-.379.307-.772.608-1.13.951-.715.665-1.473,1.3-2.145,2.023L63.409,68.5l-.965,1.087c-.672.715-1.251,1.516-1.866,2.281-.315.379-.579.786-.865,1.187l-.851,1.208-.779,1.258a11.179,11.179,0,0,0-.715,1.265C56.9,77.653,56.4,78.5,56,79.4l-.629,1.33-.55,1.358a42.952,42.952,0,0,0-1.837,5.591c-.129.472-.214.958-.322,1.43s-.222.958-.3,1.43l-.222,1.43c-.079.486-.164.965-.2,1.43-.086.979-.222,1.952-.229,2.938l-.05,1.473v1.473a43.833,43.833,0,0,0,.458,5.948Z" transform="translate(-14.673 -18.114)"/><path class="a" d="M126.979,162.59a41.465,41.465,0,0,1-10.459,5,43.3,43.3,0,0,1-11.439,1.98,41.994,41.994,0,0,1-22.341-5.483,44.025,44.025,0,0,0,39.142,1.237,42.445,42.445,0,0,0,5.1-2.738Z" transform="translate(-23.587 -46.351)"/><path class="a" d="M113.72,51.59a42.318,42.318,0,0,1,39.206,28.254,44.233,44.233,0,0,0-6.22-11.146A43.675,43.675,0,0,0,120.083,52.3a44.133,44.133,0,0,0-6.363-.715Z" transform="translate(-32.419 -14.707)"/></svg>