<svg xmlns="http://www.w3.org/2000/svg" width="160" height="160" viewBox="0 0 160 160"><defs><style>.a{fill:none;}.b{fill:#9cf1eb;}</style></defs><rect class="a" width="160" height="160"/><path class="a" d="M93.815,37.23a55.635,55.635,0,1,0,0,111.271" transform="translate(-10.884 -10.613)"/><path class="b" d="M54.09,82.65a32.35,32.35,0,0,0,38.8,0,19.811,19.811,0,0,1-38.8,0Z" transform="translate(-15.42 -23.562)"/><path class="b" d="M115.977,37.23a55.635,55.635,0,1,1,0,111.271ZM121.7,85.495a32.336,32.336,0,0,1,38.792,0,19.8,19.8,0,0,0-38.792,0Zm-5.777,50.331a33.48,33.48,0,0,0,32.794-26.7,54.406,54.406,0,0,1-32.794,10.924" transform="translate(-33.046 -10.613)"/><path class="b" d="M102.924,154.558A54.406,54.406,0,0,0,70.13,165.482a33.5,33.5,0,0,1,32.794-26.7" transform="translate(-19.992 -39.563)"/></svg>