<svg xmlns="http://www.w3.org/2000/svg" xmlns:xlink="http://www.w3.org/1999/xlink" width="240" height="240" viewBox="0 0 240 240"><defs><clipPath id="a"><rect width="240" height="240" transform="translate(248 1206)" fill="#9cf1eb"/></clipPath></defs><g transform="translate(-248 -1206)" clip-path="url(#a)"><g transform="translate(248 1206)"><path d="M33.258,50.576c.756.8,1.53,1.6,2.274,2.4A53.531,53.531,0,0,1,45.606,68.2a29.568,29.568,0,0,1,2.352,10.62c.132,4.128.324,8.262.312,12.4,0,3.558-.258,7.116-.426,10.674a.6.6,0,0,1-.3.432,8.184,8.184,0,0,0-5.28,5.13,9,9,0,0,1-6.786,5.838,35.4,35.4,0,0,1-4.518.7,7.013,7.013,0,0,1-4.65-1.374,17.76,17.76,0,0,1-5.778-6.6,30.517,30.517,0,0,1-2.6-6.6,1.746,1.746,0,0,0-.2-.5,49.074,49.074,0,0,0,1.482,18.936A56.232,56.232,0,0,0,27.24,135.2a2.646,2.646,0,0,1-.342-.108,63.762,63.762,0,0,1-15.45-11.238,26.292,26.292,0,0,1-5.94-8.67,17.964,17.964,0,0,1-1.074-6.438c-.06-3.366-.138-6.738-.21-10.11a3.162,3.162,0,0,0-.084-.384V92.21a4.109,4.109,0,0,0,.084-.444q.12-7.59.228-15.174v-2.16a3.426,3.426,0,0,1,.342-.048h12.6a.858.858,0,0,1,.6.342q7.134,9.6,14.256,19.2c.258.342.516.678.768,1.02l.114-.036V50.576Z" transform="translate(2.07 25.288)" fill="#9cf1eb"/><path d="M173.956,95.6c-.078.7-.138,1.41-.252,2.106a17.028,17.028,0,0,1-4.608,9,33.521,33.521,0,0,1-9.4,6.834,76.343,76.343,0,0,1-18.09,6.312,129.251,129.251,0,0,1-21.4,3h-.468a.154.154,0,0,1-.1-.06c2.118-.72,4.2-1.422,6.306-2.154a168.946,168.946,0,0,0,20.952-8.556,54.731,54.731,0,0,0,12.6-8.346,24.733,24.733,0,0,0,7.11-10.56,23.034,23.034,0,0,0,.912-9.936c-.168-1.446-.444-2.874-.69-4.428.7.942,1.362,1.8,1.974,2.688a27.886,27.886,0,0,1,4.65,9.99c.21.984.276,1.992.408,3a2.2,2.2,0,0,0,.084.384Z" transform="translate(59.822 39.404)" fill="#9cf1eb"/><path d="M25.558,113.726a8.784,8.784,0,0,1-4.62-2.526,1.116,1.116,0,0,1-.138-.156v-.036c.7.282,1.392.6,2.106.834,2.91.912,4.938-.348,5.46-3.36.042-.24.078-.474.12-.72h2.4c3.816.084,7.638.186,11.46.27,2.136.042,4.272,0,6.408.078a9,9,0,0,0,6.7-2.76,14.94,14.94,0,0,0,3-4.152,1.758,1.758,0,0,1,.258-.378,8.214,8.214,0,0,1-.834,3.27,8.8,8.8,0,0,1-8.4,5.448c-5.022,0-10.038-.18-15.054-.288q-2.064-.048-4.116-.12c-.264,0-.426.036-.48.33a4.6,4.6,0,0,1-.234.684c-.66,1.74-1.572,3.216-3.6,3.6Z" transform="translate(10.4 50.41)" fill="#9cf1eb"/><path d="M166.46,67.328c-1.4-.432-2.8-.876-4.2-1.3a179.207,179.207,0,0,0-21.7-5.064c-5.6-.93-11.214-1.8-16.854-2.454-5.172-.6-10.374-1-15.6-1.3-4.7-.276-9.408-.378-14.112-.432a211.749,211.749,0,0,0-22.332.96A164.224,164.224,0,0,0,47.222,61.79a3.192,3.192,0,0,1-.942.138c.222-.162.438-.324.666-.474a33.1,33.1,0,0,1,7.8-3.432,104.4,104.4,0,0,1,16.8-3.756A143.751,143.751,0,0,1,87.26,52.754c4.116-.156,8.238-.246,12.354-.2a170.139,170.139,0,0,1,17.724,1.2,174.768,174.768,0,0,1,22,3.972,154.044,154.044,0,0,1,26.706,9.3l.468.222Z" transform="translate(23.14 26.272)" fill="#9cf1eb"/><path d="M111.548,68.324c-.066,1.3-.132,2.544-.2,3.726h-12.4c-.09,2.214-.18,4.29-.276,6.438h10.8c-.078,1.29-.162,2.58-.246,3.954h-10.8c-.09,2.3-.186,4.506-.282,6.828l12.474-.186c-.084,1.266-.162,2.55-.246,3.87H92.5c.384-8.2.768-16.392,1.158-24.63Z" transform="translate(46.252 34.162)" fill="#9cf1eb"/><path d="M75.122,92.94H70.064c.372-8.2.738-16.386,1.11-24.6H76.3c-.2,3-.4,6.06-.6,9.09l.108.036c.06-.072.126-.138.18-.216a6.708,6.708,0,0,1,4.956-3,12.216,12.216,0,0,1,5.31.33A4.755,4.755,0,0,1,89.894,79.3c0,2.13-.138,4.266-.222,6.4-.1,2.256-.2,4.512-.294,6.768v.486H84.014c.108-1.2.24-2.43.312-3.636.15-2.514.312-5.028.378-7.542.06-2.4-1.242-3.642-3.6-3.666-2.91,0-4.674,1.368-5.22,4.392a56.306,56.306,0,0,0-.6,5.952C75.17,89.922,75.17,91.416,75.122,92.94Z" transform="translate(35.032 34.17)" fill="#9cf1eb"/><path d="M45.985,91.5a12.336,12.336,0,0,1-5.778-1.2,8.419,8.419,0,0,1-4.518-7.1,10.638,10.638,0,0,1,.648-4.968,8.55,8.55,0,0,1,4.908-5.04,12.348,12.348,0,0,1,9.3-.138A7.8,7.8,0,0,1,55.6,78.773a11.052,11.052,0,0,1-.7,7.38,8.777,8.777,0,0,1-7.086,5.166C47.173,91.4,46.513,91.445,45.985,91.5Zm4.758-9.474v-1.2a5.147,5.147,0,0,0-1.608-3.774,5.028,5.028,0,0,0-7.41,1.332,8.2,8.2,0,0,0-.822,5.262,4.407,4.407,0,0,0,3.222,4,4.728,4.728,0,0,0,5.2-1.464,6.924,6.924,0,0,0,1.416-4.158Z" transform="translate(17.813 36.104)" fill="#9cf1eb"/><path d="M124.085,91.007h-5.04c.186-3.132.378-6.252.6-9.51-1.752,1.2-3.756,1.356-5.544,2.088a7.8,7.8,0,0,0-1.686.918,2.1,2.1,0,0,0-.87,2.334,2.184,2.184,0,0,0,1.8,1.644,7.2,7.2,0,0,0,3.6-.24l.54-.174c-.282,1.008-.54,1.956-.816,2.9a.432.432,0,0,1-.282.228,15.755,15.755,0,0,1-5.856,0,4.638,4.638,0,0,1-3.852-3.942,4.746,4.746,0,0,1,1.938-4.95,11.7,11.7,0,0,1,4.266-1.866c1.506-.414,3.036-.738,4.542-1.158a4,4,0,0,0,1.386-.684,1.8,1.8,0,0,0-.45-3.144,6.666,6.666,0,0,0-3.24-.294,21.858,21.858,0,0,0-6.078,1.536c.168-1.1.324-2.16.51-3.216,0-.12.21-.264.348-.294a32.166,32.166,0,0,1,8.256-.96,11.238,11.238,0,0,1,3.822.714,4.014,4.014,0,0,1,2.784,4.248q-.306,6.846-.63,13.692a.942.942,0,0,1-.048.132Z" transform="translate(53.281 36.109)" fill="#9cf1eb"/><path d="M62.856,77.632H60.288l.15-3.474h2.73c.072-1.086.162-2.118.192-3.15,0-.378.132-.5.48-.564,1.4-.27,2.79-.57,4.2-.864v4.548h4.47v3.486h-4.2c-.336,0-.5.078-.516.456-.1,2.724-.216,5.448-.318,8.178a4.859,4.859,0,0,0,.072.93,1.968,1.968,0,0,0,2.4,1.8c.786-.09,1.566-.252,2.4-.39q-.3,1.71-.6,3.414a.486.486,0,0,1-.312.27,13.8,13.8,0,0,1-5.94.27,3.51,3.51,0,0,1-3.084-3.534c-.042-1.608.084-3.222.156-4.836.1-2.064.222-4.128.336-6.192C62.856,77.926,62.856,77.824,62.856,77.632Z" transform="translate(30.144 34.79)" fill="#9cf1eb"/><path d="M131.6,77.658c.054-1.2.108-2.346.162-3.522h2.724c.078-1.2.156-2.4.234-3.57l4.626-.99v4.536h4.464V77.64h-4.656c-.054.942-.12,1.836-.162,2.73-.078,1.8-.156,3.6-.216,5.364a9.064,9.064,0,0,0,.078,1.452,1.968,1.968,0,0,0,2.358,1.848c.792-.09,1.572-.258,2.4-.4-.132.768-.264,1.542-.408,2.316-.246,1.338-.246,1.344-1.608,1.6a12.816,12.816,0,0,1-4.662.084,3.589,3.589,0,0,1-3.288-3.738c-.03-1.488.084-3,.162-4.476.1-2.1.228-4.2.342-6.294v-.462Z" transform="translate(65.8 34.788)" fill="#9cf1eb"/><path d="M120.684,86.8a35.4,35.4,0,0,0,3.534.978,10.65,10.65,0,0,0,3,.048,2.628,2.628,0,0,0,1.452-.8,1.62,1.62,0,0,0-.2-2.34c-.684-.66-1.464-1.2-2.2-1.842a28.462,28.462,0,0,1-2.862-2.49c-2.682-3-1.422-6.876,2.478-7.8a16.248,16.248,0,0,1,5.6-.168c.894.1,1.8.246,2.73.372.078,1.272.156,2.514.24,3.834l-.978-.324a9.2,9.2,0,0,0-4.578-.372,3.56,3.56,0,0,0-.7.2,1.53,1.53,0,0,0-.72,2.46,6.482,6.482,0,0,0,1,.984c1.374,1.14,2.808,2.214,4.14,3.408a4.68,4.68,0,0,1,1.536,3.324,4.488,4.488,0,0,1-2.862,4.38,9.432,9.432,0,0,1-4.8.822c-1.692-.15-3.372-.438-5.052-.66a.426.426,0,0,1-.432-.462C120.936,89.137,120.8,87.955,120.684,86.8Z" transform="translate(60.342 36.107)" fill="#9cf1eb"/><path d="M63.294,76.526a15.706,15.706,0,0,0-2.52-.1,4.392,4.392,0,0,0-3.9,3.792,43.931,43.931,0,0,0-.48,5.334c-.078,1.8,0,3.6,0,5.436H51.288c.246-6.108.492-12.21.738-18.342H56.76v2.4c.294-.366.51-.654.744-.918a5.578,5.578,0,0,1,5.472-1.8.418.418,0,0,1,.324.294C63.306,73.946,63.294,75.278,63.294,76.526Z" transform="translate(25.644 36.112)" fill="#9cf1eb"/><path d="M84.342,87.506h1.026c-.228,6-.462,11.946-.7,17.958a12.712,12.712,0,0,1-1.356,0,.78.78,0,0,1-.462-.342q-4.626-6.69-9.228-13.386c-.69-1-1.4-1.986-2.094-3H71.37c-.21,5.55-.426,11.094-.636,16.68H69.72l.7-18h1.356a.69.69,0,0,1,.414.294q5.562,8.046,11.094,16.092a1.2,1.2,0,0,0,.438.408C83.94,98.738,84.132,93.164,84.342,87.506Z" transform="translate(34.86 43.708)" fill="#9cf1eb"/><path d="M124.844,105.489c.252-6.036.5-12,.762-18h.312c1.932,0,3.864-.06,5.79,0a23.838,23.838,0,0,1,4.392.42,5.856,5.856,0,0,1,4.314,4.02,10.7,10.7,0,0,1-.942,9.516,7.8,7.8,0,0,1-5.238,3.654C131.12,105.753,127.97,105.333,124.844,105.489Zm1.08-.846a47.341,47.341,0,0,0,7.578-.258,7.26,7.26,0,0,0,5.532-4.2,10.2,10.2,0,0,0,.75-6.96c-.648-2.826-2.322-4.476-5.214-4.734-2.586-.228-5.208-.126-7.8-.168-.03,0-.06,0-.144.072-.24,5.358-.468,10.764-.7,16.248Z" transform="translate(62.422 43.731)" fill="#9cf1eb"/><path d="M58.784,87.5c-.156,2.712-.318,5.364-.456,8.016-.072,1.422-.132,2.844-.162,4.266-.06,3.228,1.908,4.7,4.632,5.046a10.362,10.362,0,0,0,3.936-.222,4.726,4.726,0,0,0,3.738-4.626c.246-3.5.384-7,.558-10.506.03-.636,0-1.278,0-1.956h1.2c-.1,1.83-.21,3.63-.3,5.43-.1,2.064-.18,4.128-.306,6.192a15.641,15.641,0,0,1-.342,2.4,4.927,4.927,0,0,1-3.6,3.678,11.058,11.058,0,0,1-6.672.06,4.9,4.9,0,0,1-3.828-4.974c-.036-1.962.1-3.924.162-5.88.072-2.244.15-4.482.222-6.72a.63.63,0,0,1,.03-.222Z" transform="translate(28.588 43.74)" fill="#9cf1eb"/><path d="M125.338,95.854l-.09.864h-8.5c-.078,2.64-.162,5.238-.246,7.866h9.174l-.048.84h-10.2q.336-9,.654-17.952h10.2v.87H117.07c-.084,2.472-.168,4.962-.258,7.512Z" transform="translate(57.716 43.736)" fill="#9cf1eb"/><path d="M95.266,104.58h9.18l-.078.852h-10.2c.216-6,.432-11.952.654-17.952h10.242l-.072.858H95.83c-.09,2.466-.174,4.944-.258,7.482h8.5l-.048.87H95.512C95.428,99.342,95.344,101.952,95.266,104.58Z" transform="translate(47.084 43.74)" fill="#9cf1eb"/><path d="M82,87.489h1.146c1.992,5.67,3.984,11.322,6,17.1.33-.63.6-1.152.876-1.686q3.8-7.56,7.6-15.114a.7.7,0,0,1,.444-.294,5.117,5.117,0,0,1,.93,0l-.246.48q-4.368,8.55-8.724,17.112a.6.6,0,0,1-.6.4c-1.068,0-1.038,0-1.4-1.062q-2.4-6.8-4.8-13.584C82.786,89.733,82.39,88.641,82,87.489Z" transform="translate(41 43.737)" fill="#9cf1eb"/><path d="M94.134,77.176l-.186,3.6H84.624c.06-1.2.12-2.37.18-3.6Z" transform="translate(42.312 38.588)" fill="#9cf1eb"/><path d="M108.392,104.574h8.778v.828h-9.846q.342-8.916.678-17.9h1.086C108.86,93.186,108.626,98.862,108.392,104.574Z" transform="translate(53.662 43.752)" fill="#9cf1eb"/><path d="M30.733,96.64c-.072-3,2.238-5.82,6.864-5.748C37.141,93.52,34.6,96.934,30.733,96.64Z" transform="translate(15.365 45.446)" fill="#9cf1eb"/><path d="M105.28,87.5c-.21,5.964-.426,11.916-.642,17.9H103.6q.336-8.94.666-17.9Z" transform="translate(51.8 43.75)" fill="#9cf1eb"/><path d="M18.191,100.147A1.086,1.086,0,1,1,19.2,99.63a1.086,1.086,0,0,1-1.007.517Z" transform="translate(8.593 48.989)" fill="#9cf1eb"/><rect width="240" height="240" fill="none"/></g></g></svg>