<svg xmlns="http://www.w3.org/2000/svg" width="252.817" height="252.817" viewBox="0 0 252.817 252.817"><path d="M125.62,211.734l39.933-47.77,22.488,25.408,25.181-34.522L255.063,211.7a1.1,1.1,0,0,1-.076.164s-.044.07-.07.07c-.291,0-.581.038-.866.038h-128.3Z" transform="translate(-46.223 -56.978)" fill="#101a41"/><path d="M68.6,182.456Q107.407,128.467,146.019,74.8c.74.563,34.649,47.764,36.532,50.835l-16.067,22.039c-7.37-8.337-14.682-16.591-22.039-24.909-.272.291-.5.518-.7.758L113.1,160.214l-18.02,21.572a1.593,1.593,0,0,1-1.34.746h-24.4C69.156,182.513,69.017,182.494,68.6,182.456Z" transform="translate(-25.242 -27.523)" fill="#101a41"/><path d="M87.431,258.5v20.345c-1.169,0-2.282.057-3.394-.032-.3,0-.632-.411-.847-.714-1.447-2.174-2.869-4.367-4.3-6.548-1.207-1.852-2.414-3.7-3.843-5.524,0,.367-.063.727-.063,1.093v10.454c0,.386-.032.777-.051,1.22H71.206c-.234-.815-.3-18.753-.076-20.295h3.754l8.375,12.824.228-.038c.082-1.378,0-2.762,0-4.14V258.5Z" transform="translate(-26.123 -95.117)" fill="#101a41"/><path d="M113.364,257.692c5.164-.291,10.669,4.342,10.631,10.644a10.663,10.663,0,1,1-10.631-10.644Zm-.057,3.887a6.5,6.5,0,0,0-6.63,6.82,6.681,6.681,0,1,0,13.355-.044A6.609,6.609,0,0,0,113.307,261.58Z" transform="translate(-37.778 -94.815)" fill="#101a41"/><path d="M190.991,278.767c-.291.038-.468.082-.632.089h-3.122c-.278-.872-.386-17.527-.152-20.339h3.874c.095,2.452,0,4.936.063,7.477h6.706V258.51h3.887c.24.815.259,19.277,0,20.276h-3.887v-8.8h-6.712v8.779Z" transform="translate(-68.792 -95.12)" fill="#101a41"/><path d="M142.58,258.23c2.528.107,5.056.1,7.528.348a4.943,4.943,0,0,1,4.424,4.519,9.885,9.885,0,0,1,0,2.162,4.848,4.848,0,0,1-2.61,3.906c-.348.2-.7.367-1.112.575l4.759,8.943h-4.323c-1.5-2.787-3.027-5.65-4.563-8.514a7.522,7.522,0,0,0-.265,2.762v5.739h-3.83C142.4,277.874,142.346,259.816,142.58,258.23Zm3.919,7.951h2.282a2.168,2.168,0,0,0,.531-.089,1.751,1.751,0,0,0,1.5-1.833,1.839,1.839,0,0,0-1.447-1.9,7.3,7.3,0,0,0-2.869-.07Z" transform="translate(-52.407 -95.017)" fill="#101a41"/><path d="M265.142,258.45h4.165c2.579,6.712,5.164,13.437,7.818,20.333-.841,0-1.536.063-2.237.051-2.313-.044-1.681.379-2.572-1.782-.341-.834-.632-1.681-.98-2.528H263.17c-.575,1.422-1.15,2.825-1.738,4.26h-4.1C259.921,271.938,262.551,265.207,265.142,258.45Zm2.225,5.688a53.167,53.167,0,0,0-2.655,6.4h5.107c-.841-2.174-1.65-4.279-2.452-6.384Z" transform="translate(-94.686 -95.098)" fill="#101a41"/><path d="M247.8,278.778H236.63V258.47h11.1v3.792h-7.186V265.8h7.186v3.862h-7.18v5.284h7.224C247.836,276.243,247.8,277.457,247.8,278.778Z" transform="translate(-87.07 -95.106)" fill="#101a41"/><path d="M303.023,261.022l-2.844,2.528c-.329-.354-.6-.683-.91-.973a3.122,3.122,0,0,0-2.2-1.043,1.567,1.567,0,0,0-1.605.885,1.327,1.327,0,0,0,.487,1.555c.841.8,1.732,1.542,2.6,2.313,1.106.992,2.256,1.94,3.306,3a5.366,5.366,0,0,1,1.561,3.83,5.587,5.587,0,0,1-4.386,5.619,7.066,7.066,0,0,1-8.406-4.146c-.032-.057,0-.139,0-.291l3.16-1.947c.291.4.525.758.784,1.093a3.837,3.837,0,0,0,2.054,1.53,2.465,2.465,0,0,0,2.162-.43,1.586,1.586,0,0,0,.518-2.206,4.994,4.994,0,0,0-1.024-1.264c-1.163-1.043-2.389-2.01-3.552-3.053a17.305,17.305,0,0,1-2.035-2.1,4.657,4.657,0,0,1-.708-5.29,5.322,5.322,0,0,1,4.721-2.99C298.958,257.521,301.032,258.444,303.023,261.022Z" transform="translate(-106.931 -94.795)" fill="#101a41"/><path d="M313.62,258.44h11.238v3.792h-3.6c-.089,1.46-.038,2.825-.044,4.184s0,2.762,0,4.14v8.217h-4.039c-.051-2.737,0-5.48,0-8.217V262.34h-3.527Z" transform="translate(-115.399 -95.095)" fill="#101a41"/><path d="M165.17,258.48H176.4v3.761h-3.641v16.528h-3.988V262.335c-.683,0-1.264-.051-1.808-.063H165.17Z" transform="translate(-60.775 -95.109)" fill="#101a41"/><path d="M259.509,300.333c.721,5.056,1.441,10.113,2.181,15.22h-1.58c-.474-3.445-.954-6.883-1.435-10.378-.487.152-.525.632-.683.916-1.441,2.888-2.857,5.79-4.279,8.684a5.055,5.055,0,0,1-.291.588c-.234.354-.525.367-.758,0a5.589,5.589,0,0,1-.4-.771l-4.209-8.476a4.343,4.343,0,0,0-.594-.948c-.689,3.426-1.011,6.9-1.58,10.391H244.34c.733-5.1,1.454-10.163,2.174-15.22l.272-.051c2.111,4.051,4.058,8.217,6.257,12.483l6.106-12.5Z" transform="translate(-89.907 -110.486)" fill="#101a41"/><path d="M278.36,305.156q-.721,5.2-1.435,10.391H275.37c.733-5.12,1.454-10.163,2.181-15.207l.234-.063c.8,1.264,1.359,2.661,2.042,3.982s1.391,2.794,2.086,4.184l2.111,4.247c.228-.379.4-.632.531-.9q2.61-5.315,5.2-10.65a2.642,2.642,0,0,1,.632-.866c.9,5.056,1.612,10.151,2.32,15.289h-1.561L289.7,305.181l-.19-.051c-.177.329-.367.632-.537,1q-2.111,4.3-4.216,8.589a5.057,5.057,0,0,1-.291.588c-.266.411-.544.411-.815,0a6.817,6.817,0,0,1-.348-.676l-4.26-8.57c-.152-.316-.335-.632-.506-.916Z" transform="translate(-101.324 -110.486)" fill="#101a41"/><path d="M99.393,299.768a7.907,7.907,0,0,1,8.153,7.964,8.122,8.122,0,0,1-16.237.044,7.913,7.913,0,0,1,8.084-8.008Zm-.063,14.417a6.264,6.264,0,0,0,6.548-6.384,6.447,6.447,0,1,0-12.887,0A6.3,6.3,0,0,0,99.33,314.185Z" transform="translate(-33.598 -110.3)" fill="#101a41"/><path d="M135.574,302.986l-1.22.929a6.864,6.864,0,0,0-5.764-2.6,6.611,6.611,0,0,0-4.664,2.054,6.529,6.529,0,0,0,0,8.811,7.167,7.167,0,0,0,10.454-.537l1.207.885a7.585,7.585,0,0,1-4.563,3.034,9.279,9.279,0,0,1-4.633-.057,8.027,8.027,0,0,1,.784-15.649C130.36,299.358,133.558,300.161,135.574,302.986Z" transform="translate(-44.339 -110.282)" fill="#101a41"/><path d="M161.907,300.07c.215.183.367.253.423.367,2.332,4.981,4.658,9.967,7.041,15.068h-1.725l-2.376-4.917h-6.554l-2.37,4.949H154.62c.525-1.372,1.176-2.6,1.757-3.849s1.226-2.629,1.846-3.944,1.2-2.528,1.814-3.837S161.181,301.353,161.907,300.07Zm-2.471,8.962h2.579l2.528-.038-2.528-5.429Z" transform="translate(-56.893 -110.413)" fill="#101a41"/><path d="M223.392,300.33h1.637v10.745c0,2.73,2.484,3.729,4.456,3.255a3.027,3.027,0,0,0,2.326-2.351,7.831,7.831,0,0,0,.19-1.719q0-4.3,0-8.6v-1.264h1.492a7.1,7.1,0,0,1,.088.822v8.6a12.691,12.691,0,0,1-.259,2.591,4.424,4.424,0,0,1-3.66,3.558,5.467,5.467,0,0,1-4.26-.822,4.045,4.045,0,0,1-1.9-3.16c-.076-.9-.139-1.814-.145-2.718v-7.724Z" transform="translate(-82.187 -110.508)" fill="#101a41"/><path d="M73.16,312.384l1.264-.74a20.783,20.783,0,0,0,1.321,1.656,2.711,2.711,0,0,0,3.47.48,2.307,2.307,0,0,0,.8-3.362,9.2,9.2,0,0,0-1.605-1.757c-.973-.866-2.035-1.637-3.015-2.5a3.7,3.7,0,0,1-1.308-2.983,3.565,3.565,0,0,1,3.293-3.432,4.757,4.757,0,0,1,4.532,2.452l-1.264.935a10.4,10.4,0,0,0-.879-.916,4.317,4.317,0,0,0-1.068-.727,2.143,2.143,0,0,0-2.528.632,2.111,2.111,0,0,0,.177,2.61,7.812,7.812,0,0,0,1.106,1.037c.708.569,1.46,1.081,2.155,1.656A10.975,10.975,0,0,1,81,308.75a4.04,4.04,0,0,1,.253,5.455,4.488,4.488,0,0,1-5.688,1,5.815,5.815,0,0,1-2.4-2.825Z" transform="translate(-26.92 -110.288)" fill="#101a41"/><path d="M204.12,312.38l1.264-.746a17.712,17.712,0,0,0,1.334,1.669,2.693,2.693,0,0,0,3.287.556,2.37,2.37,0,0,0,.961-3.577,9.626,9.626,0,0,0-1.561-1.65c-.98-.86-2.035-1.637-3.015-2.528a3.685,3.685,0,0,1-1.264-2.99,3.546,3.546,0,0,1,3.1-3.388,4.469,4.469,0,0,1,4.627,2.484l-1.138.885a6.815,6.815,0,0,0-.86-.853,5.841,5.841,0,0,0-1.567-.9,1.966,1.966,0,0,0-2.168,2.983,5.265,5.265,0,0,0,1.093,1.188c.752.632,1.586,1.157,2.32,1.795a12.009,12.009,0,0,1,1.814,1.858,3.868,3.868,0,0,1,.228,4.576,4.424,4.424,0,0,1-4.513,1.966C206.136,315.394,205.043,314.118,204.12,312.38Z" transform="translate(-75.107 -110.271)" fill="#101a41"/><path d="M181.76,300.32h1.567v13.8h5.821v1.359a41.5,41.5,0,0,1-7.389.107Z" transform="translate(-66.88 -110.505)" fill="#101a41"/><path d="M317.767,315.572h-1.593V301.863H312.78v-1.605c2.756-.1,5.524-.032,8.349-.051v1.612h-3.362Z" transform="translate(-115.089 -110.461)" fill="#101a41"/><path d="M307.26,300.29h1.353c.228.8.3,13.709.082,15.289H307.26Z" transform="translate(-113.058 -110.494)" fill="#101a41"/><path d="M224.963,276.09v3.337H217.89c-.076-1.068,0-2.168,0-3.337Z" transform="translate(-80.162 -101.589)" fill="#101a41"/><path d="M148.822,300.3h1.334c.215.822.291,13.311.095,15.27h-1.359C148.7,314.812,148.626,302.007,148.822,300.3Z" transform="translate(-54.717 -110.497)" fill="#101a41"/><rect width="252.817" height="252.817" fill="none"/></svg>