<svg xmlns="http://www.w3.org/2000/svg" width="221.575" height="116.498" viewBox="0 0 221.575 116.498"><g transform="translate(0)"><path d="M124.751,89.122a10.335,10.335,0,0,1-7.306-5.971,63.358,63.358,0,0,1-3.709-12.276c-.476-2.337-1.286-3.814-3.56-4.327a61.331,61.331,0,0,0-8.351-1.737,6.843,6.843,0,0,0-4.2,1.57c-.315.235.7,2.244,1.106,3.437.124.359.26.711.525,1.434A14.047,14.047,0,0,1,90.6,65.51a2.991,2.991,0,0,1,0-2.751c1.348-1.236,3.208-3.06,4.6-2.85a143.435,143.435,0,0,1,14.508,3.406,22.141,22.141,0,0,1,2.936,1.273c0-5.644,0-10.916,0-16.183,0-.921.068-1.854.142-2.763.167-1.972-.933-2.905-2.7-3-10.508-.587-21.066-1.119-31.6-1.657a1.52,1.52,0,0,0-.519.2c3.443,5.934,2.293,12.523,2.714,18.884.476,7.275.853,14.551,1.416,21.82a22.318,22.318,0,0,0,1.341,4.58,6.852,6.852,0,0,1-6.391-4.655A99.027,99.027,0,0,1,75.3,70.986c-.3-2.12-.581-4.259-.674-6.4-.3-7.275-.464-14.557-.822-21.826-.043-.909-.754-2.355-1.459-2.565-3.888-1.168-7.869-2.027-11.744-2.973,1.236,2.769,2.306,5.279,3.709,8.444-2.083-.105-3.27-.229-4.451-.216-4.593.062-7.078,3.709-4.945,7.634A91.483,91.483,0,0,0,62.029,64.5a17.052,17.052,0,0,1,3.214,13.345c-.544,3.709-4.506,5.928-8.6,4.735a23.137,23.137,0,0,1-12.672-9.26c-.618-.89-.575-2.256-.94-3.882,3.313,1.236,5.835,2.219,7,5.514C50.7,76.8,52,79.275,54.7,78.459A5.342,5.342,0,0,0,58.9,73.4c.359-4.846-1.613-8.611-4.259-12.486a92.721,92.721,0,0,1-7.418-13.685c-1.082-2.38,1.484-3.666,3.091-4.648S54.1,41.242,56.355,40.5c-.241-1.409-.544-3.146-.878-5.069C36.111,30.666,16.288,25.269,0,11.8c.167-.365.328-.729.495-1.1,1,.532,2.065.983,3.01,1.613C13.475,19,24.441,23.359,35.981,26.456c9.581,2.571,19.069,5.563,28.706,7.881,5.038,1.236,10.3,1.613,15.453,2.157,6.317.655,12.715,1.854,18.977,1.4,7.591-.538,15.119-2.324,22.593-3.968,6.608-1.459,13.141-3.319,19.626-5.291a99.965,99.965,0,0,0,10.106-4.154c4.549-1.916,6.67-1.335,9.89,3.023C146.5,35.1,130.2,37.65,114.552,42.373c0,.148-.124.482-.056.519,4.358,2.639,4.574,6.738,4.432,11.269a135.024,135.024,0,0,0,.457,16.961C120.041,77.384,120.776,83.72,124.751,89.122Z" transform="translate(0 -4.086)" fill="#101a41"/><path d="M4.473,62.782a35.186,35.186,0,0,1,4.9,4.092A71.408,71.408,0,0,1,14.32,73.9c2.435,3.635,7.6,4.982,12.678,3.239,2.831-.964,5.39-5.446,5.378-9s-1.774-6.181-4.5-8.314q-3.023-2.349-5.922-4.852a10.441,10.441,0,0,1-1.335-2.077,11.478,11.478,0,0,0,3.091-.3c2.151-.977,4.71-1.7,6.181-3.344,2.244-2.473,1.533-3.511-1.391-5.038a27.952,27.952,0,0,1-6.645-5.087c5.334,1.694,10.743,3.344,14.161,8.036,2.473,3.418.117,8.209-4.457,9.612-.834.253-1.718.377-3.363.729,2.658,2.534,4.945,4.537,7.016,6.738C38.3,67.523,39.225,73,37.42,76.263c-2.689,4.9-6.571,6.781-11.918,6.051-7.065-1-12.227-4.846-16.251-10.508-1.916-2.689-3.808-5.4-5.712-8.1Z" transform="translate(-1.352 -14.939)" fill="#101a41"/><path d="M86.72,134.822c2.775-.9,5.922.439,6.243,2.058.074.4-1.02,1.428-1.094,1.385C90.274,137.294,88.747,136.207,86.72,134.822Z" transform="translate(-33.116 -51.374)" fill="#101a41"/><path d="M266.13,0,323.2,1.854,280.137,8.036Z" transform="translate(-101.627)" fill="#101a41"/><path d="M289.408,24.22,288.79,9.181,331.855,3Z" transform="translate(-110.28 -1.146)" fill="#101a41" opacity="0.85"/><text transform="translate(47.117 112.498)" fill="#101a41" font-size="14" font-family="MyriadPro-Regular, Myriad Pro"><tspan x="0" y="0">Giving </tspan><tspan y="0" letter-spacing="-0.02em">F</tspan><tspan y="0">lights </tspan><tspan y="0" letter-spacing="-0.01em">t</tspan><tspan y="0">o Hope</tspan></text><path d="M297.46,12.272l12.363,8.036L335.166,3Z" transform="translate(-113.591 -1.146)" fill="#101a41"/><path d="M289.79,24.22l4.741-11.948L332.237,3Z" transform="translate(-110.662 -1.146)" fill="#101a41" opacity="0.49"/></g></svg>