<svg xmlns="http://www.w3.org/2000/svg" width="144" height="144" viewBox="0 0 144 144"><rect width="144" height="144" fill="none"/><g transform="translate(2.934 44.425)"><path d="M183.467,104.76A5.637,5.637,0,1,0,189.1,110.4,5.637,5.637,0,0,0,183.467,104.76Zm0,9.087a3.464,3.464,0,1,1,3.467-3.464A3.464,3.464,0,0,1,183.467,113.847Z" transform="translate(-115.173 -67.849)" fill="#101a41"/><path d="M158.221,24.25,139.3,42.882l38.691-.187Zm.042,2.988,14.284,13.326L144.6,40.7Z" transform="translate(-90.219 -15.706)" fill="#101a41"/><path d="M51.318,153.177H71.078a1.082,1.082,0,0,0,0-2.16H51.318a1.082,1.082,0,1,0,0,2.16Z" transform="translate(-32.496 -97.806)" fill="#101a41"/><path d="M51.318,186.747H71.078a1.082,1.082,0,0,0,0-2.16H51.318a1.082,1.082,0,1,0,0,2.16Z" transform="translate(-32.496 -119.548)" fill="#101a41"/><path d="M51.438,203.536H71.2a1.078,1.078,0,1,0,0-2.156H51.438a1.078,1.078,0,0,0,0,2.156Z" transform="translate(-32.616 -130.425)" fill="#101a41"/><path d="M278.335,153.18H298.1a1.082,1.082,0,0,0,0-2.16H278.335a1.082,1.082,0,0,0,0,2.16Z" transform="translate(-179.605 -97.809)" fill="#101a41"/><path d="M51.438,169.966H62.287a1.078,1.078,0,1,0,0-2.156H51.438a1.078,1.078,0,1,0,0,2.156Z" transform="translate(-32.616 -108.683)" fill="#101a41"/><path d="M99.1,167.81h-4.58a1.078,1.078,0,1,0,0,2.156H99.1a1.078,1.078,0,0,0,0-2.156Z" transform="translate(-60.517 -108.683)" fill="#101a41"/><path d="M378.557,220.62h-2.879a1.078,1.078,0,1,0,0,2.156h2.879a1.078,1.078,0,0,0,0-2.156Z" transform="translate(-242.612 -142.886)" fill="#101a41"/><path d="M5.215,220.62H1.078a1.078,1.078,0,0,0,0,2.156H5.215a1.078,1.078,0,0,0,0-2.156Z" transform="translate(0 -142.886)" fill="#101a41"/><path d="M144.29,77.734H140.3V46H108.711V32.578h8.971L83.589,0,50.018,32.578h9.8V46H27.943V77.734H25.068a1.078,1.078,0,1,0,0,2.156H144.29a1.078,1.078,0,1,0,0-2.156ZM59.1,77.445h-29V48.158h29ZM55.352,30.421,83.6,2.995l28.7,27.426Zm12.776,46.95H61.976V32.8h6.138Zm38.441,0h-5.141V40.445a1.082,1.082,0,1,0-2.16,0V77.371H91.837V54H75.83v8.009a1.078,1.078,0,1,0,2.156,0V56.163H89.677v21H77.986V66.346a1.078,1.078,0,1,0-2.156,0V77.378H70.27V32.8h29v3.333a1.082,1.082,0,0,0,2.16,0V32.8h5.127Zm31.588.074h-29V48.158h28.994Z" transform="translate(-15.537)" fill="#101a41"/><path d="M278.228,169.966h19.763a1.078,1.078,0,0,0,0-2.156H278.228a1.078,1.078,0,1,0,0,2.156Z" transform="translate(-179.498 -108.683)" fill="#101a41"/><path d="M278.335,186.75H298.1a1.082,1.082,0,0,0,0-2.16H278.335a1.082,1.082,0,0,0,0,2.16Z" transform="translate(-179.605 -119.551)" fill="#101a41"/><path d="M278.228,203.536h19.763a1.078,1.078,0,0,0,0-2.156H278.228a1.078,1.078,0,1,0,0,2.156Z" transform="translate(-179.498 -130.425)" fill="#101a41"/></g></svg>