<svg xmlns="http://www.w3.org/2000/svg" width="144" height="144" viewBox="0 0 144 144"><rect width="144" height="144" fill="none"/><g transform="translate(11.769 4.892)"><g transform="translate(-0.006 -0.036)"><path d="M181.722,130.424A5.707,5.707,0,1,0,176,124.717,5.707,5.707,0,0,0,181.722,130.424Zm0-8.278a2.561,2.561,0,1,1-2.561,2.561,2.561,2.561,0,0,1,2.561-2.561Z" transform="translate(-85.835 -58.025)" fill="#101a41"/><path d="M186.561,111.69h0a1.578,1.578,0,0,0-1.537,1.583l.1,10.435a1.537,1.537,0,0,1-.8,1.378l-8.478,4.764a1.537,1.537,0,0,1-1.537,0l-8.478-4.764a1.537,1.537,0,0,1-.8-1.378l.1-10.435a1.573,1.573,0,0,0-1.537-1.583h0A1.568,1.568,0,0,0,162,113.227l-.113,12.295a1.573,1.573,0,0,0,.8,1.383l10.036,5.635a1.583,1.583,0,0,1,.8,1.368v9.554a1.562,1.562,0,0,1-.307.932l-5.533,7.536a1.619,1.619,0,0,0-.251.512L164,164.931a1.568,1.568,0,1,0,3.028.82l3.227-11.905a1.644,1.644,0,0,1,.251-.512l3.268-4.447a1.568,1.568,0,0,1,2.531,0l3.268,4.447a1.644,1.644,0,0,1,.251.512l3.227,11.905a1.568,1.568,0,1,0,3.028-.82l-3.381-12.474a1.536,1.536,0,0,0-.251-.512l-5.533-7.536a1.562,1.562,0,0,1-.307-.932v-9.559a1.578,1.578,0,0,1,.8-1.368l10.03-5.635a1.562,1.562,0,0,0,.8-1.383l-.113-12.295a1.568,1.568,0,0,0-1.562-1.547Z" transform="translate(-78.953 -54.455)" fill="#101a41"/><path d="M129.677,67a5.707,5.707,0,1,0,5.707,5.707A5.707,5.707,0,0,0,129.677,67Zm0,8.278a2.55,2.55,0,1,0,0-.026Z" transform="translate(-60.459 -32.659)" fill="#101a41"/><path d="M55.07,84.907A5.707,5.707,0,1,0,60.777,79.2a5.707,5.707,0,0,0-5.707,5.707Zm8.278,0a2.561,2.561,0,1,1-2.561-2.561,2.561,2.561,0,0,1,2.561,2.561Z" transform="translate(-26.855 -38.609)" fill="#101a41"/><path d="M103.931,155.972a5.717,5.717,0,0,0,5.671-5.1h0a5.871,5.871,0,0,0,.031-.6,5.235,5.235,0,0,0-.082-.907,1.024,1.024,0,0,0,0-.133,4.944,4.944,0,0,0-.22-.83,1.071,1.071,0,0,0-.041-.118,6.254,6.254,0,0,0-.364-.8h0A5.707,5.707,0,1,0,103.962,156Zm0-8.278a2.561,2.561,0,1,1-2.561,2.561A2.561,2.561,0,0,1,103.931,147.694Z" transform="translate(-47.915 -70.5)" fill="#101a41"/><path d="M102.975,121.972h0a1.537,1.537,0,0,0-1.2,1.839l3.12,14.1a1.537,1.537,0,0,1-.461,1.491c-1.168,1.086-2.356,2.162-3.55,3.2-1.675,1.46-3.4,2.894-5.123,4.283a1.578,1.578,0,0,1-1.834.087l-5.056-3.289a1.685,1.685,0,0,0-.2-.118h0c-.087-.051-.774-.512-5.031-3.243a1.6,1.6,0,0,1-.645-1.865l2.049-5.876c.512-1.383.051-2.269-.763-2.561h0a1.609,1.609,0,0,0-2.013.984l-3.022,8.57a1.788,1.788,0,0,0,.712,2.1l6.009,3.857c.277.179.553.353.815.512l.113.087h0l.1.051v.031l5.246,3.417a1.578,1.578,0,0,1,.712,1.317v13.289a1.568,1.568,0,0,1-.717,1.322l-12.249,7.858a1.568,1.568,0,0,0-.261,2.428l7.331,7.331a1.562,1.562,0,0,0,2.218,0h0a6.178,6.178,0,0,0-1.568-3.786l-3-3.007a1.568,1.568,0,0,1,.261-2.428l7.684-4.933a1.573,1.573,0,0,1,2.239.589l4.559,8.678a1.578,1.578,0,0,1,.174.835l-.886,12.9A1.455,1.455,0,0,0,100.2,193.6h0a1.711,1.711,0,0,0,1.68-1.568l.932-13.575a1.568,1.568,0,0,0-.174-.835l-6.368-12.105a1.537,1.537,0,0,1-.179-.727V151.341a1.537,1.537,0,0,1,.6-1.229c2.126-1.655,4.226-3.386,6.25-5.148,1.158-1.025,3.407-3.074,4.667-4.272a2.208,2.208,0,0,0,.645-2.09l-3.407-15.415a1.614,1.614,0,0,0-1.875-1.214Z" transform="translate(-38.594 -59.455)" fill="#101a41"/><path d="M134.472,59.63h0a1.568,1.568,0,0,0-1.537,1.583l.1,10.435a1.573,1.573,0,0,1-.8,1.383L123.714,77.8a1.578,1.578,0,0,1-1.537,0L113.7,73.031a1.573,1.573,0,0,1-.8-1.383l.1-10.435a1.568,1.568,0,0,0-1.537-1.583h0a1.573,1.573,0,0,0-1.583,1.537l-.118,12.295a1.568,1.568,0,0,0,.8,1.383l10.036,5.635a1.568,1.568,0,0,1,.8,1.368v9.39a3.54,3.54,0,0,1,.425,1.06l.871,3.893a1.537,1.537,0,0,1,1.537.61l3.268,4.452a1.537,1.537,0,0,1,.251.512l3.227,11.911a1.569,1.569,0,0,0,3.028-.825l-3.381-12.474a1.654,1.654,0,0,0-.246-.512l-5.538-7.536a1.537,1.537,0,0,1-.3-.927V81.848a1.537,1.537,0,0,1,.8-1.368l10.036-5.635a1.568,1.568,0,0,0,.8-1.383l-.118-12.295a1.573,1.573,0,0,0-1.578-1.537Z" transform="translate(-53.529 -29.064)" fill="#101a41"/><path d="M121.566,144.232l.272-1.025-1.311-5.948-.343.461a1.537,1.537,0,0,0-.246.512l-.686,2.526a7.833,7.833,0,0,1,2.316,3.473Z" transform="translate(-58.157 -66.926)" fill="#101a41"/><path d="M82.391,171.947a1.568,1.568,0,0,0,1.1-1.926l-.953-3.519L78.6,163.94l1.865,6.885a1.568,1.568,0,0,0,1.926,1.122Z" transform="translate(-38.331 -79.938)" fill="#101a41"/><path d="M55.649,103.682V94.122a1.568,1.568,0,0,1,.8-1.363l10.036-5.635a1.573,1.573,0,0,0,.8-1.383l-.118-12.295a1.568,1.568,0,0,0-1.583-1.537h0a1.568,1.568,0,0,0-1.537,1.583l.1,10.435a1.573,1.573,0,0,1-.815,1.347L54.85,90.04a1.578,1.578,0,0,1-1.537,0l-8.483-4.764a1.573,1.573,0,0,1-.809-1.363l.108-10.42a1.568,1.568,0,0,0-1.537-1.583h0a1.568,1.568,0,0,0-1.583,1.537L40.89,85.742a1.573,1.573,0,0,0,.8,1.383L51.725,92.76a1.537,1.537,0,0,1,.8,1.363v9.559a1.537,1.537,0,0,1-.3.927l-5.553,7.536a1.655,1.655,0,0,0-.246.512l-3.381,12.474a1.568,1.568,0,1,0,3.028.82L49.3,114.045a1.475,1.475,0,0,1,.251-.512l3.268-4.452a1.562,1.562,0,0,1,2.526,0l3.268,4.452a1.491,1.491,0,0,1,.2.4l1.3-3.673-4.155-5.635A1.593,1.593,0,0,1,55.649,103.682Z" transform="translate(-19.94 -35.053)" fill="#101a41"/><path d="M177.582,42.792a1.583,1.583,0,0,0,2.1,1.137,6.327,6.327,0,0,0,3.883-3.192c.8-1.783.277-3.407-.184-4.836a5.572,5.572,0,0,1-.42-3.1,5.55,5.55,0,0,1,2.9-3.166,1.583,1.583,0,0,0,.656-2.024h0a1.537,1.537,0,0,0-2.182-.712c-2.444,1.419-3.929,3.151-4.426,5.154a8.453,8.453,0,0,0,.482,4.821c.394,1.214.6,1.931.307,2.561a3.433,3.433,0,0,1-2.152,1.537,1.537,1.537,0,0,0-.968,1.788Z" transform="translate(-86.588 -13)" fill="#101a41"/><path d="M209.65,70.72a2.305,2.305,0,1,0,1.635.675A2.31,2.31,0,0,0,209.65,70.72Z" transform="translate(-101.12 -34.473)" fill="#101a41"/><path d="M52.829,11.355a6.29,6.29,0,0,0,5.02.21,6.282,6.282,0,0,0,3.074-3.729,5.611,5.611,0,0,1,1.752-2.592,5.551,5.551,0,0,1,4.278-.425,1.578,1.578,0,0,0,1.86-1.071h0A1.537,1.537,0,0,0,67.65,1.735c-2.766-.569-5.025-.266-6.731.9a8.7,8.7,0,0,0-2.864,3.934c-.512,1.168-.84,1.839-1.491,2.131a3.4,3.4,0,0,1-2.638-.277,1.537,1.537,0,0,0-1.916.686,1.583,1.583,0,0,0,.82,2.249Z" transform="translate(-25.266 -0.692)" fill="#101a41"/><path d="M5.847,74.457A5.561,5.561,0,0,1,3.5,72.408a5.557,5.557,0,0,1,.128-4.293A1.583,1.583,0,0,0,2.8,66.153h0a1.537,1.537,0,0,0-2.121.871c-.922,2.669-.917,4.949,0,6.793A8.474,8.474,0,0,0,4.2,77.146c1.112.635,1.737,1.06,1.942,1.747a3.291,3.291,0,0,1-.615,2.561,1.537,1.537,0,0,0,.435,1.983A1.588,1.588,0,0,0,8.3,82.925a6.244,6.244,0,0,0,.85-4.954A6.3,6.3,0,0,0,5.847,74.457Z" transform="translate(0.006 -32.17)" fill="#101a41"/><path d="M133.079,3.107A5.582,5.582,0,0,1,136.937,5a5.627,5.627,0,0,1,.738,3.043c.087,1.5.19,3.2,1.588,4.57a6.187,6.187,0,0,0,4.78,1.537,1.578,1.578,0,0,0,1.537-1.824,1.537,1.537,0,0,0-1.537-1.311,3.458,3.458,0,0,1-2.561-.661c-.512-.487-.579-1.245-.656-2.52a8.425,8.425,0,0,0-1.306-4.662C138.31,1.519,136.291.433,133.5-.017a1.537,1.537,0,0,0-1.772,1.46h0A1.583,1.583,0,0,0,133.079,3.107Z" transform="translate(-64.241 0.036)" fill="#101a41"/><path d="M89.55,27.531a2.31,2.31,0,1,0-2.31-2.31,2.31,2.31,0,0,0,2.31,2.31Z" transform="translate(-42.545 -11.155)" fill="#101a41"/><path d="M23.12,37.12a2.31,2.31,0,1,0,2.31,2.31,2.31,2.31,0,0,0-2.31-2.31Z" transform="translate(-10.146 -18.086)" fill="#101a41"/></g></g></svg>