<svg xmlns="http://www.w3.org/2000/svg" width="144" height="144" viewBox="0 0 144 144"><rect width="144" height="144" fill="none"/><g transform="translate(24.87 29.203)"><g transform="translate(0 0.016)"><path d="M97.91,49.617h0V42.257l-.084-.841a2.516,2.516,0,0,0-1.191-2.07L57.117,15.078v-2.3L69.711,7.648a.761.761,0,0,0,.023-1.382L55.793.074a.761.761,0,0,0-1.054.7l.046,14.345-39.35,24.29A2.337,2.337,0,0,0,14.322,41.4v1.024h.019v7.445l.057.175a12.179,12.179,0,0,0,6.348,7.262L17.778,91.354H14.9a1.165,1.165,0,1,0,0,2.329H96.2a1.165,1.165,0,1,0,0-2.329H94.549l-2.972-34.2a12.354,12.354,0,0,0,6.333-7.54Zm-4.567-9.549L76.8,40.1,59.29,19.169Zm-19.571.049L57.2,40.091l-.069-19.909Zm1.522,2.333v6.733a9.715,9.715,0,0,1-9.842,6.851,9.309,9.309,0,0,1-6.733-3.882,75.907,75.907,0,0,1-1.389-8.114v-1.61ZM58.137,3.667l5.644,2.508a.761.761,0,0,1-.023,1.382L58.13,9.841a.761.761,0,0,1-1.031-.7v-4.8a.761.761,0,0,1,1.039-.681ZM55,42.416V44.03c-.278,2.405-.677,4.792-1.184,7.151a9.293,9.293,0,0,1-16.941-1.344c.023-.076.053-.148.076-.221l-.183-.057-.03-.069v-7.1Zm-.2-22.368.065,20.039L38.091,40.06Zm-2.482-.666L35.016,40.106H18.981ZM16.671,49.488V42.424H34.41v7.391A9.648,9.648,0,0,1,24.8,56.008,9.522,9.522,0,0,1,16.671,49.488Zm3.471,41.619,2.3-26.486h6.919a1.165,1.165,0,0,0,0-2.329H22.646l.381-4.209a11.119,11.119,0,0,0,1.587.255c.316.027.628.038.94.038a11.951,11.951,0,0,0,10.086-5.8,11.711,11.711,0,0,0,9.028,5.774c.316.027.628.038.936.038a11.65,11.65,0,0,0,7.026-2.405,74.263,74.263,0,0,1-8.59,19.361A73.726,73.726,0,0,1,30.612,91.11Zm13.645.259A75.629,75.629,0,0,0,46.015,76.579a76.935,76.935,0,0,0,9.976-24.408c.175.32.381.632.559.932a76.767,76.767,0,0,0,9.766,23.475A75.629,75.629,0,0,0,78.541,91.354Zm58.4-.259H81.715a73.075,73.075,0,0,1-21.9-34.7,11.418,11.418,0,0,0,5.443,1.937c.312.027.628.038.936.038a11.966,11.966,0,0,0,10.208-5.991,11.734,11.734,0,0,0,9.153,5.953c.316.027.628.038.94.038a11.372,11.372,0,0,0,2.813-.358l1.142,13.07-6.885.023a1.165,1.165,0,0,0,0,2.329l7.079-.023ZM85.773,56.019a9.562,9.562,0,0,1-8.13-6.527v-7.06l17.938-.038v6.885A9.688,9.688,0,0,1,85.773,56.019Z" transform="translate(-8.511 -0.016)" fill="#101a41"/><path d="M182.906,186.87h-.122a1.165,1.165,0,0,0,0,2.329h.122a1.165,1.165,0,1,0,0-2.329Z" transform="translate(-112.495 -115.753)" fill="#101a41"/><path d="M66.41,164.825a1.165,1.165,0,0,0-1.165-1.165H65.1a1.165,1.165,0,0,0,0,2.329h.126a1.165,1.165,0,0,0,1.18-1.165Z" transform="translate(-39.604 -101.377)" fill="#101a41"/><path d="M1.732,240H1.165a1.165,1.165,0,0,0,0,2.329h.567a1.165,1.165,0,0,0,0-2.329Z" transform="translate(0 -148.662)" fill="#101a41"/><path d="M241.7,240h-.955a1.165,1.165,0,0,0,0,2.329h.955a1.165,1.165,0,0,0,0-2.329Z" transform="translate(-148.396 -148.662)" fill="#101a41"/></g></g></svg>